<svg width="80" height="80" viewBox="0 0 80 80" xmlns="http://www.w3.org/2000/svg">
<path d="M40.4982 8.09074C36.6735 8.08654 32.8933 8.91921 29.4174 10.5315C25.9415 12.1438 22.8524 14.4976 20.3624 17.4309C17.8723 20.3642 16.0405 23.8076 14.9927 27.5242C13.9449 31.2409 13.7061 35.1427 14.2927 38.9615C14.2897 39.001 14.2897 39.0406 14.2927 39.0801L16.3665 50.9678C16.4368 51.3505 16.6381 51.6959 16.9353 51.9436C17.2324 52.1913 17.6063 52.3253 17.9915 52.3223C18.0897 52.3219 18.1878 52.314 18.2848 52.2986C18.7125 52.2219 19.0926 51.977 19.3417 51.6175C19.5909 51.258 19.6886 50.8133 19.6136 50.381L17.6747 39.2757C17.038 35.8848 17.1489 32.3937 17.9996 29.051C18.8503 25.7083 20.4197 22.5962 22.5963 19.9362C24.7728 17.2761 27.5029 15.1336 30.5923 13.6611C33.6817 12.1886 37.0543 11.4223 40.4702 11.4167C43.886 11.4112 47.2611 12.1665 50.3551 13.629C53.4491 15.0915 56.186 17.2252 58.371 19.8781C60.556 22.5311 62.1354 25.6381 62.9966 28.978C63.8579 32.3179 63.9799 35.8086 63.354 39.2016L61.4034 50.3573C61.3658 50.5714 61.3704 50.7908 61.4169 51.0031C61.4634 51.2154 61.5508 51.4164 61.6742 51.5945C61.7976 51.7726 61.9546 51.9244 62.1361 52.0411C62.3177 52.1578 62.5202 52.2373 62.7321 52.2749C62.8289 52.2929 62.9271 52.3018 63.0255 52.3015C63.4102 52.3005 63.7824 52.1627 64.0768 51.9124C64.3712 51.6621 64.569 51.3151 64.6358 50.9323L66.5571 39.8507C66.5559 39.8398 66.5559 39.8289 66.5571 39.8181L66.6891 39.0534C66.6891 39.0178 66.6891 38.9852 66.6891 38.9467C66.894 37.5971 66.9979 36.2339 67 34.8685C66.9884 27.7702 64.1925 20.966 59.225 15.9468C54.2574 10.9275 47.5234 8.1025 40.4982 8.09074Z" fill="black"/>
<path d="M58.5642 46.4214C58.3132 46.0633 57.9328 45.8194 57.5053 45.7427L55.452 45.3781C55.0239 45.3032 54.5838 45.4027 54.2281 45.6549C53.8724 45.9071 53.6301 46.2914 53.5542 46.7237L49.3861 70.5999C49.3481 70.8141 49.3524 71.0337 49.3987 71.2461C49.445 71.4585 49.5324 71.6596 49.6559 71.8378C49.7794 72.016 49.9365 72.1678 50.1182 72.2845C50.3 72.4011 50.5027 72.4803 50.7148 72.5175L52.7534 72.8821C52.8504 72.8976 52.9485 72.9055 53.0467 72.9058C53.4312 72.9054 53.8033 72.7683 54.0978 72.5185C54.3922 72.2686 54.5903 71.9221 54.6571 71.5395L58.8252 47.6602C58.904 47.2287 58.8101 46.7831 58.5642 46.4214Z" fill="black"/>
<path d="M64.4541 54.1539L60.7289 53.4841C60.517 53.4461 60.2998 53.4508 60.0897 53.4977C59.8796 53.5447 59.6807 53.633 59.5045 53.7577C59.3282 53.8824 59.178 54.041 59.0624 54.2245C58.9469 54.4079 58.8683 54.6125 58.8311 54.8267L57.1914 64.213C57.1172 64.6456 57.2157 65.0902 57.4653 65.4496C57.7149 65.809 58.0953 66.0539 58.5231 66.1305L62.2454 66.7944C62.3422 66.8114 62.4404 66.8193 62.5387 66.8181C62.9232 66.8178 63.2953 66.6807 63.5898 66.4308C63.8842 66.181 64.0822 65.8344 64.1491 65.4518L65.7887 56.0655C65.8611 55.6334 65.7615 55.1899 65.5114 54.8317C65.2614 54.4736 64.8813 54.2299 64.4541 54.1539Z" fill="black"/>
<path d="M27.4161 46.7207C27.3389 46.2893 27.0961 45.9062 26.7407 45.6548C26.3853 45.4033 25.946 45.3039 25.5183 45.3781L23.4651 45.7426C23.0378 45.82 22.6581 46.0651 22.4091 46.4244C22.1602 46.7837 22.0621 47.228 22.1363 47.6602L26.3044 71.5394C26.3718 71.9218 26.57 72.268 26.8643 72.5177C27.1586 72.7675 27.5305 72.9048 27.9148 72.9057C28.0131 72.907 28.1113 72.8991 28.2081 72.882L30.2614 72.5204C30.6893 72.4431 31.0694 72.1976 31.3185 71.8376C31.5676 71.4776 31.6652 71.0325 31.5901 70.5999L27.4161 46.7207Z" fill="black"/>
<path d="M22.1539 54.8326C22.0787 54.3997 21.8367 54.0147 21.4809 53.7619C21.1252 53.5091 20.6847 53.4092 20.2561 53.4841L16.525 54.1539C16.3131 54.1915 16.1105 54.2709 15.929 54.3876C15.7475 54.5044 15.5905 54.6562 15.4671 54.8343C15.3437 55.0124 15.2562 55.2133 15.2098 55.4256C15.1633 55.6379 15.1587 55.8574 15.1963 56.0714L16.833 65.4578C16.9005 65.8406 17.0991 66.1872 17.394 66.437C17.689 66.6868 18.0615 66.8238 18.4463 66.8241C18.5446 66.8254 18.6428 66.8175 18.7396 66.8003L22.4648 66.1365C22.8921 66.0591 23.2724 65.8154 23.5237 65.4578C23.647 65.2793 23.7343 65.078 23.7806 64.8654C23.8269 64.6529 23.8313 64.4332 23.7936 64.2189L22.1539 54.8326Z" fill="black"/>
<path d="M10 2H70V-2H10V2ZM78 10V70H82V10H78ZM70 78H10V82H70V78ZM2 70V10H-2V70H2ZM10 78C5.58172 78 2 74.4183 2 70H-2C-2 76.6274 3.37258 82 10 82V78ZM78 70C78 74.4183 74.4183 78 70 78V82C76.6274 82 82 76.6274 82 70H78ZM70 2C74.4183 2 78 5.58172 78 10H82C82 3.37258 76.6274 -2 70 -2V2ZM10 -2C3.37258 -2 -2 3.37258 -2 10H2C2 5.58172 5.58172 2 10 2V-2Z" fill="black"/>
</svg>
