<svg width="80" height="80" viewBox="0 0 80 80" xmlns="http://www.w3.org/2000/svg">
<g clip-path="url(#clip0_6_236)">
<path d="M57.0428 21.7735C58.1162 21.7741 59.1656 21.4585 60.0584 20.8668C60.9511 20.2751 61.6471 19.4337 62.0583 18.4492C62.4694 17.4647 62.5773 16.3813 62.3682 15.3359C62.1591 14.2905 61.6425 13.3302 60.8837 12.5764C60.1249 11.8226 59.158 11.3091 58.1053 11.101C57.0526 10.8929 55.9613 10.9994 54.9696 11.4071C53.9779 11.8149 53.1302 12.5055 52.5338 13.3916C51.9374 14.2777 51.6191 15.3196 51.6191 16.3854C51.6191 17.8139 52.1904 19.184 53.2075 20.1944C54.2245 21.2048 55.6041 21.7728 57.0428 21.7735Z" fill="black"/>
<path d="M68.9945 28.3926V27.9392C68.9945 24.9635 66.313 23.2105 62.8872 23.2105H50.7114C49.749 23.2108 48.8066 23.4837 47.9949 23.9971C47.1832 24.5106 46.5359 25.2433 46.1289 26.1093L37.8853 43.2134C37.7633 43.5396 37.7227 43.8903 37.7669 44.2355C37.8112 44.5807 37.939 44.9101 38.1394 45.1955C38.3399 45.481 38.607 45.714 38.9179 45.8745C39.2288 46.0351 39.5743 46.1185 39.9248 46.1176C40.3703 46.1181 40.8051 45.9823 41.17 45.7286C41.535 45.4749 41.8123 45.1157 41.9642 44.6998L49.3527 29.8626C49.3703 29.8301 49.3961 29.8029 49.4277 29.7836C49.4593 29.7643 49.4955 29.7536 49.5326 29.7526C49.5786 29.7537 49.623 29.7703 49.6582 29.7998C49.6934 29.8293 49.7175 29.8699 49.7263 29.9148V66.0133C49.7151 66.759 49.989 67.4812 50.4927 68.0344C50.9964 68.5875 51.6926 68.9306 52.4409 68.9945C52.8352 69.0185 53.2303 68.9621 53.6018 68.8288C53.9733 68.6955 54.3134 68.4881 54.6011 68.2194C54.8889 67.9507 55.1182 67.6263 55.2749 67.2663C55.4317 66.9062 55.5125 66.5182 55.5125 66.1259V50.1594C55.5112 50.1484 55.5112 50.1374 55.5125 50.1264C55.5133 49.7931 55.6471 49.4738 55.8847 49.2384C56.1223 49.003 56.4443 48.8707 56.7799 48.8708H56.7938C57.1289 48.8715 57.4502 49.004 57.6872 49.2393C57.9242 49.4747 58.0577 49.7936 58.0584 50.1264C58.0584 50.1264 58.0584 50.1484 58.0584 50.1594V66.0133C58.0479 66.7588 58.322 67.4806 58.8256 68.0337C59.3292 68.5867 60.025 68.93 60.773 68.9945C61.1673 69.0185 61.5624 68.9621 61.9339 68.8288C62.3054 68.6955 62.6455 68.4881 62.9332 68.2194C63.221 67.9507 63.4503 67.6263 63.607 67.2663C63.7638 66.9062 63.8446 66.5182 63.8447 66.1259V35.5941V30.3351V29.6812C63.8526 29.5908 63.8944 29.5067 63.9617 29.4454C64.0291 29.3841 64.1172 29.3501 64.2085 29.3501C64.2999 29.3501 64.388 29.3841 64.4553 29.4454C64.5227 29.5067 64.5645 29.5908 64.5724 29.6812V29.6977V45.4087V46.8897C64.562 47.1829 64.6111 47.4752 64.7168 47.7491C64.8226 48.023 64.9829 48.273 65.1881 48.4841C65.3932 48.6952 65.6392 48.8631 65.9111 48.9778C66.1831 49.0924 66.4755 49.1515 66.771 49.1515C67.0665 49.1515 67.3589 49.0924 67.6309 48.9778C67.9028 48.8631 68.1487 48.6952 68.3539 48.4841C68.5591 48.273 68.7194 48.023 68.8251 47.7491C68.9309 47.4752 68.98 47.1829 68.9696 46.8897V29.6977C68.9696 29.6977 68.9972 29.03 68.9945 28.3926Z" fill="black"/>
<path d="M33.9088 28.2167V27.9419C33.9088 24.9662 31.2274 23.2132 27.8016 23.2132H16.1128C12.687 23.2132 10.0028 24.9662 10.0028 27.9419V28.3953C10.0028 29.0328 10.0028 29.7004 10.0028 29.7004V46.8924C10.0635 47.4296 10.3215 47.9256 10.7273 48.2858C11.1331 48.646 11.6584 48.8452 12.2027 48.8452C12.747 48.8452 13.2723 48.646 13.6781 48.2858C14.084 47.9256 14.3419 47.4296 14.4027 46.8924V45.4115V29.6977V29.6812C14.4027 29.5857 14.4408 29.4942 14.5088 29.4267C14.5768 29.3592 14.669 29.3213 14.7652 29.3213C14.8613 29.3213 14.9535 29.3592 15.0215 29.4267C15.0895 29.4942 15.1277 29.5857 15.1277 29.6812V30.3351V35.5941V66.1259C15.1277 66.5182 15.2085 66.9062 15.3653 67.2663C15.522 67.6263 15.7513 67.9506 16.0391 68.2194C16.3268 68.4881 16.6669 68.6955 17.0384 68.8288C17.4099 68.9621 17.805 69.0185 18.1993 68.9945C18.9476 68.9306 19.6438 68.5875 20.1475 68.0344C20.6512 67.4812 20.9251 66.759 20.9139 66.0133V50.1594C20.9139 50.1594 20.9139 50.1374 20.9139 50.1264C20.9147 49.8333 21.0186 49.5496 21.2075 49.3244C21.3965 49.0992 21.6587 48.9465 21.9489 48.8927C22.2393 48.946 22.5018 49.0985 22.6909 49.3239C22.8799 49.5492 22.9836 49.8331 22.9838 50.1264C22.9838 50.1264 22.9838 50.1484 22.9838 50.1594V66.0133C22.9734 66.7592 23.2478 67.4814 23.752 68.0345C24.2562 68.5877 24.9527 68.9306 25.7012 68.9945C26.0962 69.0197 26.4921 68.9641 26.8646 68.8314C27.2371 68.6986 27.5782 68.4914 27.8669 68.2225C28.1555 67.9537 28.3856 67.6289 28.5429 67.2683C28.7001 66.9077 28.7812 66.5189 28.7812 66.1259V29.6812C28.7891 29.5908 28.8309 29.5067 28.8982 29.4454C28.9656 29.3841 29.0537 29.35 29.145 29.35C29.2364 29.35 29.3245 29.3841 29.3918 29.4454C29.4592 29.5067 29.501 29.5908 29.5089 29.6812V29.6977V45.4087V46.8897C29.4985 47.1829 29.5476 47.4752 29.6533 47.7491C29.7591 48.023 29.9194 48.273 30.1246 48.4841C30.3297 48.6952 30.5757 48.8631 30.8476 48.9778C31.1196 49.0924 31.412 49.1515 31.7075 49.1515C32.003 49.1515 32.2954 49.0924 32.5674 48.9778C32.8393 48.8631 33.0852 48.6952 33.2904 48.4841C33.4956 48.273 33.6559 48.023 33.7616 47.7491C33.8674 47.4752 33.9165 47.1829 33.9061 46.8897V29.6977C33.9061 29.6977 33.9061 29.03 33.9061 28.3925L33.9088 28.2167Z" fill="black"/>
<path d="M21.9544 21.7735C23.0278 21.7741 24.0772 21.4585 24.97 20.8668C25.8627 20.2751 26.5587 19.4337 26.9698 18.4492C27.381 17.4647 27.4888 16.3813 27.2798 15.3359C27.0707 14.2905 26.5541 13.3302 25.7953 12.5764C25.0365 11.8226 24.0696 11.3091 23.0169 11.101C21.9641 10.8929 20.8729 10.9994 19.8812 11.4071C18.8895 11.8149 18.0418 12.5055 17.4454 13.3916C16.849 14.2777 16.5307 15.3196 16.5307 16.3854C16.5307 17.8139 17.102 19.184 18.1191 20.1944C19.1361 21.2048 20.5157 21.7728 21.9544 21.7735Z" fill="black"/>
</g>
<path d="M10 2H70V-2H10V2ZM78 10V70H82V10H78ZM70 78H10V82H70V78ZM2 70V10H-2V70H2ZM10 78C5.58172 78 2 74.4183 2 70H-2C-2 76.6274 3.37258 82 10 82V78ZM78 70C78 74.4183 74.4183 78 70 78V82C76.6274 82 82 76.6274 82 70H78ZM70 2C74.4183 2 78 5.58172 78 10H82C82 3.37258 76.6274 -2 70 -2V2ZM10 -2C3.37258 -2 -2 3.37258 -2 10H2C2 5.58172 5.58172 2 10 2V-2Z" fill="black"/>
<defs>
<clipPath id="clip0_6_236">
<rect width="59" height="58" fill="white" transform="translate(10 11)"/>
</clipPath>
</defs>
</svg>
