<svg width="80" height="80" viewBox="0 0 80 80" xmlns="http://www.w3.org/2000/svg">
<path d="M67 10.8723H61.2996V70H67V10.8723Z" fill="black"/>
<path d="M19.7004 10.8723H14V70H19.7004V10.8723Z" fill="black"/>
<path fill-rule="evenodd" clip-rule="evenodd" d="M27.1082 27.6544H32.5135V17.1759L38.0346 21.3891V16.2638L29.8108 10L21.5886 16.2638V21.3891L27.1082 17.1759V27.6544Z" fill="black"/>
<path fill-rule="evenodd" clip-rule="evenodd" d="M53.8918 10.329H48.4865V20.8075L42.967 16.5944V21.7196L51.1892 27.9834L59.4129 21.7196V16.5944L53.8918 20.8075V10.329Z" fill="black"/>
<path fill-rule="evenodd" clip-rule="evenodd" d="M21.5886 64.3529H59.4114V30.6387H21.5886V64.3529ZM49.6686 34.7278C50.1354 34.7275 50.5917 34.8643 50.98 35.1209C51.3682 35.3775 51.6709 35.7424 51.8497 36.1694C52.0285 36.5964 52.0755 37.0663 51.9846 37.5197C51.8937 37.9731 51.6691 38.3896 51.3392 38.7166C51.0093 39.0436 50.5888 39.2663 50.1311 39.3566C49.6733 39.4469 49.1988 39.4007 48.7676 39.2239C48.3363 39.0471 47.9677 38.7475 47.7084 38.3632C47.449 37.9789 47.3106 37.527 47.3106 37.0647C47.311 36.4453 47.5595 35.8514 48.0016 35.4133C48.4437 34.9752 49.0432 34.7287 49.6686 34.7278ZM42.2515 48.5012L44.8382 41.4615C44.8592 41.3996 44.8845 41.3393 44.914 41.2809C45.092 40.9038 45.3753 40.585 45.7305 40.3624C46.0856 40.1397 46.4978 40.0224 46.9181 40.0245H52.2183C52.6371 40.0249 53.0471 40.1437 53.4001 40.3668C53.7532 40.5899 54.0347 40.908 54.2116 41.284C54.2411 41.3424 54.2664 41.4027 54.2874 41.4646L56.8741 48.5043C56.9252 48.6456 56.9415 48.7969 56.9213 48.9456C56.9012 49.0944 56.8454 49.2362 56.7585 49.3591C56.6716 49.482 56.5562 49.5825 56.422 49.6521C56.2878 49.7218 56.1386 49.7585 55.9871 49.7592H55.9794C55.7863 49.7591 55.5979 49.7003 55.4396 49.5909C55.2813 49.4814 55.1606 49.3265 55.094 49.1471L52.7993 42.9047C52.7915 42.8907 52.7801 42.8791 52.7662 42.871C52.7524 42.8629 52.7366 42.8587 52.7205 42.8587C52.7005 42.859 52.6813 42.8659 52.6658 42.8785C52.6504 42.891 52.6397 42.9083 52.6355 42.9276V58.6415C52.6241 58.9646 52.4865 59.2706 52.2517 59.4951C52.0169 59.7196 51.7033 59.8451 51.3769 59.8451C51.0505 59.8451 50.7369 59.7196 50.5021 59.4951C50.2674 59.2706 50.1297 58.9646 50.1183 58.6415V51.715C50.1183 51.715 50.1183 51.7059 50.1183 51.7013C50.1185 51.6296 50.1044 51.5586 50.0769 51.4923C50.0493 51.426 50.0088 51.3658 49.9577 51.315C49.9066 51.2643 49.8459 51.224 49.7791 51.1965C49.7122 51.1691 49.6406 51.1549 49.5682 51.1549C49.4958 51.1549 49.4242 51.1691 49.3573 51.1965C49.2905 51.224 49.2298 51.2643 49.1787 51.315C49.1276 51.3658 49.0871 51.426 49.0595 51.4923C49.032 51.5586 49.0179 51.6296 49.0181 51.7013C49.0181 51.7013 49.0181 51.7089 49.0181 51.715V58.6415C49.0067 58.9646 48.8691 59.2706 48.6343 59.4951C48.3995 59.7196 48.0859 59.8451 47.7595 59.8451C47.4331 59.8451 47.1195 59.7196 46.8847 59.4951C46.65 59.2706 46.5123 58.9646 46.5009 58.6415V42.923C46.4967 42.9037 46.486 42.8864 46.4706 42.8739C46.4551 42.8614 46.4359 42.8544 46.4159 42.8542C46.3999 42.8543 46.3841 42.8586 46.3703 42.8666C46.3565 42.8747 46.345 42.8862 46.3371 42.9001L44.0425 49.1425C43.9755 49.3221 43.8546 49.477 43.696 49.5865C43.5374 49.6959 43.3488 49.7546 43.1555 49.7546C43.004 49.7539 42.8548 49.7172 42.7206 49.6475C42.5864 49.5779 42.471 49.4774 42.3841 49.3545C42.2972 49.2316 42.2414 49.0898 42.2213 48.941C42.2011 48.7923 42.2174 48.641 42.2685 48.4997L42.2515 48.5012ZM31.4349 34.5748C31.9074 34.5745 32.3695 34.713 32.7625 34.9728C33.1556 35.2326 33.462 35.602 33.6431 36.0343C33.8241 36.4666 33.8716 36.9424 33.7796 37.4014C33.6876 37.8605 33.4602 38.2822 33.1262 38.6132C32.7922 38.9443 32.3665 39.1697 31.9031 39.2612C31.4396 39.3526 30.9592 39.3058 30.5226 39.1268C30.086 38.9478 29.7128 38.6445 29.4502 38.2554C29.1876 37.8663 29.0475 37.4088 29.0475 36.9408C29.0483 36.6301 29.1109 36.3226 29.2317 36.0358C29.3525 35.7491 29.5292 35.4887 29.7516 35.2696C29.974 35.0504 30.2378 34.8768 30.5279 34.7587C30.8181 34.6405 31.1289 34.5801 31.4426 34.5809L31.4349 34.5748ZM24.1352 48.4324C24.4813 47.5432 26.5875 41.7921 26.8471 41.1049C27.1067 40.4178 27.9967 39.9418 28.7014 39.9388C29.406 39.9357 33.1115 39.9388 33.9907 39.9388C34.8699 39.9388 35.7955 40.4974 36.0536 41.1478C36.3116 41.7982 38.4611 47.6351 38.7531 48.4599C39.1116 49.4761 37.3794 50.151 36.9776 49.0721C36.5975 48.0467 34.751 43.0485 34.6351 42.7409C34.5485 42.5113 34.1499 42.6001 34.2117 42.8618C34.292 43.2031 36.7845 53.25 36.8757 53.7979C36.8969 53.9275 36.8903 54.0601 36.8564 54.187C36.8224 54.314 36.7619 54.4324 36.6786 54.5346C36.5954 54.6368 36.4913 54.7206 36.3733 54.7803C36.2552 54.84 36.1257 54.8745 35.9933 54.8814H34.4991V58.5436C34.4991 60.1107 31.9973 60.1015 31.9927 58.5436C31.9927 57.3759 31.9927 54.8814 31.9927 54.8814H30.8956C30.8956 54.8814 30.8956 57.5427 30.8956 58.5436C30.8956 60.204 28.3892 60.0541 28.3892 58.5436C28.3892 57.4723 28.3892 54.8814 28.3892 54.8814C28.3892 54.8814 27.5594 54.8921 26.9676 54.8814C26.3758 54.8707 25.9168 54.2815 26.0173 53.7703C26.1177 53.2592 28.6009 43.2107 28.672 42.9047C28.6925 42.848 28.6894 42.7857 28.6635 42.7313C28.6376 42.6769 28.5909 42.6349 28.5337 42.6146C28.4765 42.5944 28.4136 42.5974 28.3586 42.6231C28.3037 42.6488 28.2614 42.695 28.2409 42.7516C28.1219 43.0715 26.1764 48.3559 25.872 49.1409C25.495 50.1219 23.7257 49.5098 24.1429 48.4385L24.1352 48.4324Z" fill="black"/>
<path d="M10 2H70V-2H10V2ZM78 10V70H82V10H78ZM70 78H10V82H70V78ZM2 70V10H-2V70H2ZM10 78C5.58172 78 2 74.4183 2 70H-2C-2 76.6274 3.37258 82 10 82V78ZM78 70C78 74.4183 74.4183 78 70 78V82C76.6274 82 82 76.6274 82 70H78ZM70 2C74.4183 2 78 5.58172 78 10H82C82 3.37258 76.6274 -2 70 -2V2ZM10 -2C3.37258 -2 -2 3.37258 -2 10H2C2 5.58172 5.58172 2 10 2V-2Z" fill="black"/>
</svg>
