<svg width="80" height="80" viewBox="0 0 80 80" xmlns="http://www.w3.org/2000/svg">
<g clip-path="url(#clip0_1_191)">
<path d="M56.9874 15.1055L54.8993 17.1781L57.712 19.9699L59.8001 17.8973L56.9874 15.1055Z" fill="black"/>
<path d="M37.1411 30.5917L35.0327 32.6844L42.1909 39.7895L44.2993 37.6968L37.1411 30.5917Z" fill="black"/>
<path d="M32.8728 34.8322L30.7644 36.9249L37.9226 44.03L40.031 41.9372L32.8728 34.8322Z" fill="black"/>
<path d="M28.7673 39.0494L26.6589 41.1422L33.8171 48.2472L35.9255 46.1544L28.7673 39.0494Z" fill="black"/>
<path d="M24.546 43.2133L22.4376 45.306L29.5958 52.4111L31.7042 50.3183L24.546 43.2133Z" fill="black"/>
<path d="M20.3 47.3179L18.1917 49.4106L25.3499 56.5157L27.4582 54.423L20.3 47.3179Z" fill="black"/>
<path d="M16.086 51.4967L13.9776 53.5894L21.1358 60.6945L23.2442 58.6018L16.086 51.4967Z" fill="black"/>
<path d="M40.9219 14.2923C38.3253 14.2915 35.754 14.7985 33.3549 15.7844C30.9558 16.7703 28.776 18.2158 26.9399 20.0382C25.1039 21.8606 23.6477 24.0242 22.6544 26.4055C21.6611 28.7868 21.1502 31.339 21.1511 33.9163C21.13 34.1996 21.168 34.4841 21.2628 34.7522C21.3575 35.0203 21.5069 35.266 21.7016 35.4742C21.8964 35.6824 22.1323 35.8484 22.3946 35.962C22.6569 36.0756 22.94 36.1343 23.2262 36.1344C23.5157 36.1375 23.8028 36.0814 24.0696 35.9697C24.3363 35.858 24.577 35.6929 24.7767 35.4849C24.9764 35.2768 25.1309 35.0302 25.2305 34.7603C25.3301 34.4905 25.3727 34.2032 25.3556 33.9163C25.3556 29.8185 26.9956 25.8885 29.9149 22.9909C32.8341 20.0934 36.7935 18.4655 40.9219 18.4655C45.0504 18.4655 49.0097 20.0934 51.929 22.9909C54.8482 25.8885 56.4883 29.8185 56.4883 33.9163C56.3286 37.31 55.5305 41.1505 51.5432 45.1146C51.0994 45.555 46.7545 50.6218 46.5661 57.2952C46.448 61.5635 46.6044 61.0977 46.6044 61.0977C46.6023 61.8284 46.4553 62.5516 46.1716 63.2258C45.8879 63.9001 45.4732 64.5124 44.9512 65.0276C44.4292 65.5428 43.81 65.9509 43.129 66.2286C42.4481 66.5064 41.7187 66.6482 40.9826 66.6461C40.2464 66.6441 39.5178 66.4981 38.8385 66.2165C38.1592 65.935 37.5423 65.5234 37.0233 65.0052C36.5042 64.487 36.093 63.8725 35.8132 63.1966C35.5335 62.5207 35.3905 61.7967 35.3926 61.066C35.3917 60.4942 35.1624 59.9462 34.7547 59.5422C34.3471 59.1382 33.7946 58.9113 33.2185 58.9113C32.6359 58.9261 32.0821 59.1664 31.6754 59.5808C31.2686 59.9951 31.0411 60.5508 31.0413 61.1294C31.0176 62.4403 31.2573 63.7427 31.7464 64.9606C32.2354 66.1786 32.964 67.2876 33.8897 68.223C34.8153 69.1584 35.9194 69.9013 37.1374 70.4085C38.3555 70.9156 39.6632 71.1768 40.9841 71.1768C42.305 71.1768 43.6128 70.9156 44.8309 70.4085C46.049 69.9013 47.153 69.1584 48.0786 68.223C49.0043 67.2876 49.7329 66.1786 50.2219 64.9606C50.711 63.7427 50.9506 62.4403 50.927 61.1294C50.7227 56.427 50.7546 52.71 54.7579 47.8682C58.6208 43.1817 60.5554 39.6549 60.7214 33.967C60.7223 28.7525 58.6372 23.7511 54.9245 20.0618C51.2119 16.3725 46.1754 14.2973 40.9219 14.2923Z" fill="black"/>
<path d="M53.2128 35.7066C54.0747 35.7066 54.6685 35.1426 54.7707 34.2395C54.7707 34.1318 54.7707 34.024 54.7707 33.9226C54.7707 30.2753 53.311 26.7773 50.7126 24.1983C48.1143 21.6192 44.5901 20.1703 40.9155 20.1703C40.6346 20.1703 40.3568 20.1703 40.0822 20.1925C36.558 20.404 33.248 21.9427 30.828 24.4943C28.4079 27.046 27.0603 30.4182 27.0603 33.9226C27.0603 34.0304 27.0603 34.1381 27.0603 34.2395C27.0653 34.6373 27.2285 35.0171 27.5143 35.296C27.8002 35.575 28.1854 35.7305 28.5863 35.7288C28.9949 35.7342 29.3896 35.582 29.6874 35.3042C29.9852 35.0263 30.1627 34.6447 30.1825 34.2395C30.1825 28.5358 34.6966 23.5482 40.3759 23.2662C40.5547 23.2662 40.7367 23.2662 40.9187 23.2662C42.3293 23.2662 43.726 23.542 45.0292 24.0779C46.3324 24.6138 47.5164 25.3993 48.5137 26.3894C49.511 27.3796 50.3019 28.5551 50.8414 29.8488C51.381 31.1424 51.6584 32.5289 51.658 33.929C51.658 34.0367 51.658 34.1445 51.658 34.2459C51.6816 34.6399 51.8554 35.0102 52.1442 35.2816C52.433 35.5529 52.8151 35.7049 53.2128 35.7066Z" fill="black"/>
<path d="M61.1823 10.9918L59.0942 13.0644L61.9069 15.8562L63.995 13.7836L61.1823 10.9918Z" fill="black"/>
</g>
<path d="M10 2H70V-2H10V2ZM78 10V70H82V10H78ZM70 78H10V82H70V78ZM2 70V10H-2V70H2ZM10 78C5.58172 78 2 74.4183 2 70H-2C-2 76.6274 3.37258 82 10 82V78ZM78 70C78 74.4183 74.4183 78 70 78V82C76.6274 82 82 76.6274 82 70H78ZM70 2C74.4183 2 78 5.58172 78 10H82C82 3.37258 76.6274 -2 70 -2V2ZM10 -2C3.37258 -2 -2 3.37258 -2 10H2C2 5.58172 5.58172 2 10 2V-2Z" fill="black"/>
<defs>
<clipPath id="clip0_1_191">
<rect width="50" height="60" fill="white" transform="translate(14 11)"/>
</clipPath>
</defs>
</svg>
