<svg width="80" height="80" viewBox="0 0 80 80" xmlns="http://www.w3.org/2000/svg">
<g clip-path="url(#clip0_1_202)">
<path d="M28 69C31.3923 68.8117 35.5192 68.7176 40.02 68.7176C43.9332 68.7176 47.8464 68.8117 51.9599 69V66.3105C45.99 66.3105 45.6828 65.8263 45.6828 61.5365V25.3084H43.4124C38.5801 27.8824 33.3666 29.6535 27.9733 30.553V32.6508L33.9432 34.6546V61.8189C33.9432 65.6381 33.7296 66.2029 27.9733 66.2029V68.9731L28 69Z" fill="black"/>
<path d="M31.5125 16.8094C31.5295 17.6035 31.7041 18.3862 32.0259 19.1114C32.3477 19.8365 32.8103 20.4896 33.3864 21.0322C33.9626 21.5747 34.6407 21.9957 35.3808 22.2705C36.1209 22.5453 36.9081 22.6683 37.6962 22.6323C38.4952 22.6993 39.2993 22.5988 40.0577 22.3369C40.8161 22.0751 41.5124 21.6576 42.1024 21.111C42.6924 20.5644 43.1633 19.9004 43.4855 19.1612C43.8076 18.4219 43.974 17.6234 43.974 16.8161C43.974 16.0088 43.8076 15.2103 43.4855 14.4711C43.1633 13.7318 42.6924 13.0679 42.1024 12.5213C41.5124 11.9746 40.8161 11.5572 40.0577 11.2953C39.2993 11.0335 38.4952 10.9329 37.6962 11C36.9088 10.9621 36.1219 11.0834 35.3818 11.3566C34.6417 11.6299 33.9635 12.0497 33.3872 12.5912C32.8108 13.1327 32.348 13.7848 32.026 14.5093C31.7041 15.2338 31.5295 16.0159 31.5125 16.8094Z" fill="black"/>
</g>
<path d="M10 2H70V-2H10V2ZM78 10V70H82V10H78ZM70 78H10V82H70V78ZM2 70V10H-2V70H2ZM10 78C5.58172 78 2 74.4183 2 70H-2C-2 76.6274 3.37258 82 10 82V78ZM78 70C78 74.4183 74.4183 78 70 78V82C76.6274 82 82 76.6274 82 70H78ZM70 2C74.4183 2 78 5.58172 78 10H82C82 3.37258 76.6274 -2 70 -2V2ZM10 -2C3.37258 -2 -2 3.37258 -2 10H2C2 5.58172 5.58172 2 10 2V-2Z" fill="black"/>
<defs>
<clipPath id="clip0_1_202">
<rect width="24" height="58" fill="white" transform="translate(28 11)"/>
</clipPath>
</defs>
</svg>
