<svg width="80" height="80" viewBox="0 0 80 80" xmlns="http://www.w3.org/2000/svg">
<g clip-path="url(#clip0_1_189)">
<path d="M53.5355 30.6768C53.8854 28.5795 52.426 27.1237 50.7365 27.1237C49.1068 27.1237 48.0572 28.1149 47.7096 30.0329L47.5324 31.0816C46.0201 28.7519 43.5157 26.7764 39.3196 26.7764C32.5615 26.7764 26.0934 33.0617 26.0934 41.3271C26.0934 48.0217 30.8121 52.3291 36.638 52.3291C40.7168 52.3291 43.571 50.4088 45.6702 48.2516C46.8211 50.1053 49.0078 51.7795 52.4836 52.2164C52.8494 52.2766 53.2182 52.3165 53.5884 52.336C54.0005 52.3613 54.4493 52.3682 54.7992 52.3682C55.0132 52.3682 55.591 52.3682 55.7913 52.3682C55.7913 52.3682 56.4519 52.3245 56.9191 52.2509C57.0726 52.2295 57.2015 52.2065 57.3058 52.1819C63.3826 50.9562 65.8455 44.2777 65.9882 40.0668C66.0237 39.0875 65.9899 38.1068 65.887 37.1323C65.2506 31.4201 62.7378 26.0796 58.7415 21.9456C54.7452 17.8115 49.4906 15.1168 43.799 14.2828C38.1074 13.4488 32.2996 14.5224 27.2834 17.3358C22.2673 20.1492 18.3254 24.5439 16.0741 29.8329C13.8228 35.1218 13.3889 41.007 14.8402 46.5685C16.2915 52.13 19.5462 57.0544 24.0956 60.5718C28.645 64.0893 34.2326 66.0016 39.9851 66.0098C45.7376 66.0181 51.3307 64.1219 55.8902 60.6175C56.024 60.5146 56.1362 60.3865 56.2204 60.2404C56.3045 60.0942 56.3591 59.9329 56.3809 59.7657C56.4027 59.5985 56.3913 59.4286 56.3474 59.2658C56.3035 59.103 56.2279 58.9504 56.125 58.8168C56.0221 58.6831 55.8938 58.5711 55.7475 58.4869C55.6013 58.4028 55.4398 58.3483 55.2725 58.3265C55.1051 58.3048 54.9351 58.3161 54.7721 58.36C54.6092 58.4039 54.4565 58.4794 54.3227 58.5822C50.2305 61.7484 45.1973 63.4586 40.0216 63.4416C35.4943 63.4411 31.0638 62.1314 27.2651 59.6706C23.4663 57.2098 20.4616 53.7031 18.6137 49.5737C16.7658 45.4444 16.1536 40.8689 16.851 36.3995C17.5484 31.9302 19.5257 27.758 22.5441 24.3867C25.5626 21.0154 29.4931 18.589 33.8614 17.4004C38.2296 16.2118 42.8488 16.3118 47.1614 17.6884C51.474 19.065 55.2957 21.6592 58.1651 25.158C61.0345 28.6568 62.829 32.9106 63.332 37.406C63.4192 38.287 63.4476 39.1728 63.4171 40.0576C63.3412 42.8817 61.3248 49.3072 56.0398 49.7626C55.8879 49.7626 55.7337 49.7626 55.5795 49.7626C52.723 49.7626 51.0334 48.1321 51.0334 45.623C51.0732 44.7825 51.1708 43.9457 51.3258 43.1186L53.5355 30.6768ZM38.2124 47.2627C34.6009 47.2627 32.0965 44.9952 32.0965 40.9775C32.0965 35.7386 35.883 31.7784 40.1344 31.7784C43.6308 31.7784 46.2503 34.3404 46.2503 38.066C46.2503 43.0726 42.4661 47.265 38.2124 47.265" fill="black"/>
</g>
<path d="M10 2H70V-2H10V2ZM78 10V70H82V10H78ZM70 78H10V82H70V78ZM2 70V10H-2V70H2ZM10 78C5.58172 78 2 74.4183 2 70H-2C-2 76.6274 3.37258 82 10 82V78ZM78 70C78 74.4183 74.4183 78 70 78V82C76.6274 82 82 76.6274 82 70H78ZM70 2C74.4183 2 78 5.58172 78 10H82C82 3.37258 76.6274 -2 70 -2V2ZM10 -2C3.37258 -2 -2 3.37258 -2 10H2C2 5.58172 5.58172 2 10 2V-2Z" fill="black"/>
<defs>
<clipPath id="clip0_1_189">
<rect width="52" height="52" fill="white" transform="translate(14 14)"/>
</clipPath>
</defs>
</svg>
