<svg width="80" height="80" viewBox="0 0 80 80" xmlns="http://www.w3.org/2000/svg">
<g clip-path="url(#clip0_1_215)">
<path d="M31.7559 70.9596C30.0904 70.8272 28.4479 70.494 26.8656 69.9674C23.3394 68.7559 20.2126 66.633 17.8157 63.823C15.4188 61.0131 13.8408 57.6205 13.2485 54.0039C13.1779 53.5729 13.0909 52.9752 13.0577 52.6743C12.9789 51.3308 12.9789 49.9841 13.0577 48.6407C13.3116 46.2829 13.9707 43.9843 15.0071 41.8421C16.9451 37.8124 20.1765 34.5161 24.2069 32.4575L24.7834 32.1688L24.8083 32.4047C24.8374 32.6527 25.2231 37.9874 25.2231 38.0972C25.122 38.2252 24.9966 38.3329 24.854 38.4144C23.8888 39.0798 23.0074 39.8551 22.2284 40.7239C20.2609 42.9517 18.997 45.6925 18.5908 48.6122C18.4954 49.2638 18.4607 49.9225 18.4871 50.5802C18.4509 51.4996 18.5191 52.4202 18.6904 53.3248C19.2211 56.2809 20.6578 59.0083 22.8091 61.144C23.502 61.8498 24.271 62.4797 25.1028 63.0225C26.8147 64.1658 28.759 64.9319 30.8018 65.2682C32.8446 65.6044 34.9375 65.5027 36.9364 64.9702C37.946 64.6951 38.9202 64.3076 39.8399 63.8154C43.0163 62.1626 45.4893 59.4558 46.8164 56.1793C47.2186 55.1597 47.5133 54.1024 47.6957 53.0239C47.7139 52.8494 47.7472 52.6766 47.7953 52.5075C47.7953 52.5075 48.6249 54.134 49.5872 56.167L51.3541 59.8022L51.126 60.2291C48.7094 64.7113 44.6772 68.1509 39.815 69.878C38.3658 70.39 36.8613 70.7365 35.3312 70.9108C34.1415 70.9969 32.9476 71.0132 31.7559 70.9596ZM56.1116 64.2098L51.9638 54.4512L47.9073 44.8998H37.8199C32.2702 44.8998 27.7284 44.8998 27.7242 44.8998C27.7201 44.8998 27.2762 38.6584 26.737 31.0425L25.754 17.1974L25.5922 16.8477C25.2804 16.1731 25.1071 15.445 25.0821 14.7049C25.0262 13.3977 25.4466 12.1137 26.2681 11.0827C27.0896 10.0516 28.2586 9.34076 29.5658 9.07736C30.2533 8.96711 30.9551 8.97537 31.6397 9.10175C32.4515 9.27357 33.2132 9.62326 33.8676 10.1246C34.522 10.626 35.0521 11.2661 35.4183 11.9968C35.8291 12.7681 36.0372 13.6276 36.0239 14.4975C36.0416 15.8067 35.5795 17.0786 34.7217 18.0822C33.8639 19.0857 32.6673 19.7543 31.3494 19.9664L31.059 19.9949V20.2266C31.0839 20.5072 31.6646 30.9002 31.6646 31.0628V31.1767H45.7671V36.3447H32.1831L32.208 36.6741C32.208 36.853 32.2826 37.65 32.3365 38.4429L32.4402 39.8823L34.315 39.8579C38.5375 39.8009 51.1923 39.7399 51.2255 39.7725C51.2587 39.805 53.0506 43.9768 55.2447 49.0676C57.4389 54.1584 59.2432 58.3262 59.2639 58.3262C59.2846 58.3262 60.6493 57.8342 62.3001 57.2364C63.9509 56.6387 65.3155 56.1589 65.3279 56.1711C65.3404 56.1833 66.9871 60.1193 66.9871 60.1437C66.9871 60.1681 56.3853 64.344 56.2443 64.3847C56.2028 64.4009 56.1572 64.3521 56.1116 64.2098Z" fill="black"/>
</g>
<path d="M10 2H70V-2H10V2ZM78 10V70H82V10H78ZM70 78H10V82H70V78ZM2 70V10H-2V70H2ZM10 78C5.58172 78 2 74.4183 2 70H-2C-2 76.6274 3.37258 82 10 82V78ZM78 70C78 74.4183 74.4183 78 70 78V82C76.6274 82 82 76.6274 82 70H78ZM70 2C74.4183 2 78 5.58172 78 10H82C82 3.37258 76.6274 -2 70 -2V2ZM10 -2C3.37258 -2 -2 3.37258 -2 10H2C2 5.58172 5.58172 2 10 2V-2Z" fill="black"/>
<defs>
<clipPath id="clip0_1_215">
<rect width="54" height="62" fill="white" transform="translate(13 9)"/>
</clipPath>
</defs>
</svg>
