<svg width="80" height="80" viewBox="0 0 80 80" xmlns="http://www.w3.org/2000/svg">
<g clip-path="url(#clip0_1_200)">
<path d="M65.6063 51.3609C65.478 51.2295 65.3254 51.1255 65.1575 51.0551C64.9895 50.9846 64.8096 50.9491 64.628 50.9506H16.3671C16.0043 50.9513 15.6566 51.0992 15.4003 51.3618C15.144 51.6244 15 51.9804 15 52.3515C15 55.8812 17.2524 57.99 21.0063 57.99C21.1604 57.99 21.4588 57.99 21.4612 57.99H21.5028H60.0524C63.7721 57.955 65.9927 55.8462 66 52.354C66.0016 52.1685 65.9672 51.9845 65.8988 51.8128C65.8304 51.641 65.7293 51.4848 65.6014 51.3534" fill="black"/>
<path d="M65.1392 30.8856C65.1392 26.0125 61.3436 22.015 56.9294 22.015H54.7284C54.6806 22.0074 54.6324 22.0024 54.5841 22H26.7412C26.5618 22 26.3842 22.0362 26.2184 22.1065C26.0527 22.1768 25.9022 22.2798 25.7754 22.4097C25.6487 22.5396 25.5482 22.6938 25.4798 22.8634C25.4113 23.0331 25.3763 23.2149 25.3766 23.3984V42.758C25.3988 44.3701 26.0354 45.9098 27.1509 47.0489C28.2664 48.1881 29.7726 48.8367 31.3487 48.8568H50.0451C53.6963 48.8568 55.956 45.6898 55.956 42.758V39.7561C61.2776 39.7561 65.1416 35.6535 65.1416 30.8831L65.1392 30.8856ZM61.7423 30.8831C61.7423 33.6623 59.8665 36.0613 55.956 36.0688V25.6398H56.9343C60.5855 25.6398 61.7594 29.1795 61.7447 30.8931L61.7423 30.8831Z" fill="black"/>
</g>
<path d="M10 2H70V-2H10V2ZM78 10V70H82V10H78ZM70 78H10V82H70V78ZM2 70V10H-2V70H2ZM10 78C5.58172 78 2 74.4183 2 70H-2C-2 76.6274 3.37258 82 10 82V78ZM78 70C78 74.4183 74.4183 78 70 78V82C76.6274 82 82 76.6274 82 70H78ZM70 2C74.4183 2 78 5.58172 78 10H82C82 3.37258 76.6274 -2 70 -2V2ZM10 -2C3.37258 -2 -2 3.37258 -2 10H2C2 5.58172 5.58172 2 10 2V-2Z" fill="black"/>
<defs>
<clipPath id="clip0_1_200">
<rect width="51" height="36" fill="white" transform="translate(15 22)"/>
</clipPath>
</defs>
</svg>
