<svg width="80" height="80" viewBox="0 0 80 80" xmlns="http://www.w3.org/2000/svg">
<g clip-path="url(#clip0_1_203)">
<path d="M16.8389 33.3629L13.699 36.5673C13.3163 36.9623 13 37.7384 13 38.2938V63.9893C13.0008 64.2571 13.1054 64.5137 13.2909 64.703C13.4764 64.8924 13.7277 64.9992 13.99 65H36.7643V36.691H16.3813L18.3593 34.6685H38.7475V60.956H40.7297V32.6471H18.5301C17.9029 32.6815 17.306 32.9341 16.8389 33.3629Z" fill="black"/>
<path d="M44.3784 43.6424C44.3784 44.0414 44.5321 44.4242 44.8058 44.7063C45.0795 44.9885 45.4508 45.1471 45.8378 45.1471H53.1351V27.5H44.3784V43.6424Z" fill="black"/>
<path d="M65.4949 21.2893H60.7333C61.0332 21.0818 61.3141 20.8454 61.5723 20.5833C62.1561 19.965 62.4837 19.1297 62.4837 18.2592C62.4837 17.3886 62.1561 16.5533 61.5723 15.9351C60.3928 14.6868 58.3365 14.6898 57.1587 15.9351C56.505 16.6263 54.7741 19.42 55.014 21.2893H54.9049C55.1429 19.42 53.4121 16.6224 52.7602 15.9351C51.5806 14.6898 49.5243 14.6898 48.3466 15.9351C47.7639 16.5539 47.4371 17.389 47.4371 18.2592C47.4371 19.1293 47.7639 19.9644 48.3466 20.5833C48.6059 20.8449 48.8874 21.0812 49.1875 21.2893H44.424C44.0248 21.2893 43.642 21.4558 43.3597 21.7521C43.0775 22.0484 42.9189 22.4503 42.9189 22.8694V25.2394C42.9189 25.4489 42.9982 25.6499 43.1393 25.798C43.2805 25.9462 43.4719 26.0294 43.6715 26.0294H53.4544V22.8694H56.4645V26.0294H66.2475C66.4471 26.0294 66.6385 25.9462 66.7796 25.798C66.9207 25.6499 67 25.4489 67 25.2394V22.8694C67 22.4503 66.8414 22.0484 66.5592 21.7521C66.2769 21.4558 65.8941 21.2893 65.4949 21.2893ZM53.366 21.237C53.366 21.237 53.302 21.2893 53.0838 21.2893C52.0434 21.2893 50.0586 20.1547 49.4095 19.4694C49.1067 19.1468 48.937 18.7121 48.937 18.2592C48.937 17.8063 49.1067 17.3716 49.4095 17.049C49.5583 16.8901 49.7358 16.764 49.9315 16.6779C50.1273 16.5917 50.3374 16.5474 50.5496 16.5474C50.7618 16.5474 50.972 16.5917 51.1677 16.6779C51.3634 16.764 51.5409 16.8901 51.6897 17.049C52.7075 18.1234 53.7159 20.8568 53.366 21.237ZM56.8304 21.2893C56.6169 21.2893 56.5529 21.239 56.5529 21.237C56.203 20.8568 57.2114 18.1204 58.2255 17.049C58.5312 16.731 58.9447 16.5536 59.3751 16.5557C59.8054 16.5578 60.2173 16.7394 60.5202 17.0603C60.8231 17.3813 60.9921 17.8154 60.9901 18.2672C60.988 18.719 60.8151 19.1514 60.5094 19.4694C59.8566 20.1547 57.8755 21.2893 56.8304 21.2893Z" fill="black"/>
<path d="M56.7838 45.1471H64.0811C64.4682 45.1471 64.8394 44.9885 65.1131 44.7063C65.3868 44.4242 65.5405 44.0414 65.5405 43.6424V27.5H56.7838V45.1471Z" fill="black"/>
</g>
<path d="M10 2H70V-2H10V2ZM78 10V70H82V10H78ZM70 78H10V82H70V78ZM2 70V10H-2V70H2ZM10 78C5.58172 78 2 74.4183 2 70H-2C-2 76.6274 3.37258 82 10 82V78ZM78 70C78 74.4183 74.4183 78 70 78V82C76.6274 82 82 76.6274 82 70H78ZM70 2C74.4183 2 78 5.58172 78 10H82C82 3.37258 76.6274 -2 70 -2V2ZM10 -2C3.37258 -2 -2 3.37258 -2 10H2C2 5.58172 5.58172 2 10 2V-2Z" fill="black"/>
<defs>
<clipPath id="clip0_1_203">
<rect width="54" height="50" fill="white" transform="translate(13 15)"/>
</clipPath>
</defs>
</svg>
