<svg width="80" height="80" viewBox="0 0 80 80" xmlns="http://www.w3.org/2000/svg">
<g clip-path="url(#clip0_1_201)">
<path d="M27.2081 41.589H53.0104C53.5885 41.589 54.1428 41.3645 54.5515 40.965C54.9603 40.5654 55.1899 40.0235 55.1899 39.4585C55.1899 38.8934 54.9603 38.3515 54.5515 37.952C54.1428 37.5524 53.5885 37.328 53.0104 37.328H27.2081C26.6301 37.328 26.0757 37.5524 25.667 37.952C25.2582 38.3515 25.0286 38.8934 25.0286 39.4585C25.0286 40.0235 25.2582 40.5654 25.667 40.965C26.0757 41.3645 26.6301 41.589 27.2081 41.589Z" fill="black"/>
<path d="M30.5293 44.2152H21.7152V32.9169C21.7294 32.3488 21.6272 31.7836 21.4146 31.2546C21.202 30.7257 20.8833 30.2436 20.4773 29.8369C20.0712 29.4302 19.586 29.1069 19.0503 28.8862C18.5145 28.6655 17.939 28.5518 17.3576 28.5518C16.7762 28.5518 16.2007 28.6655 15.665 28.8862C15.1292 29.1069 14.644 29.4302 14.238 29.8369C13.832 30.2436 13.5132 30.7257 13.3006 31.2546C13.088 31.7836 12.9858 32.3488 13 32.9169V45.4712C13.0286 47.7313 14.8206 49.6814 17.1405 49.6814H28.0637V58.4424C28.0852 59.1064 28.3701 59.7362 28.8582 60.1985C29.3462 60.6609 29.9992 60.9194 30.6788 60.9194C31.3584 60.9194 32.0114 60.6609 32.4995 60.1985C32.9876 59.7362 33.2725 59.1064 33.2939 58.4424V46.9585C33.2977 46.6006 33.229 46.2456 33.092 45.9137C32.9549 45.5819 32.752 45.2798 32.4951 45.0249C32.2382 44.77 31.9322 44.5672 31.5949 44.4282C31.2575 44.2893 30.8954 44.2169 30.5293 44.2152Z" fill="black"/>
<path d="M62.6411 28.6534C62.0677 28.6521 61.4997 28.7614 60.9696 28.9751C60.4395 29.1888 59.9578 29.5028 59.5521 29.8989C59.1464 30.295 58.8247 30.7655 58.6055 31.2834C58.3862 31.8013 58.2737 32.3564 58.2744 32.917V44.2153H49.4577C49.0931 44.2189 48.7327 44.2928 48.3973 44.4327C48.0619 44.5725 47.758 44.7757 47.5029 45.0304C47.2478 45.2852 47.0466 45.5866 46.9108 45.9174C46.775 46.2483 46.7072 46.602 46.7113 46.9585V58.4525C46.7113 59.1302 46.9867 59.7801 47.4769 60.2593C47.967 60.7384 48.6319 61.0076 49.3251 61.0076C50.0183 61.0076 50.6831 60.7384 51.1733 60.2593C51.6635 59.7801 51.9389 59.1302 51.9389 58.4525V49.6814H62.8621C65.1482 49.6814 66.974 47.7314 67.0026 45.4712C67.0026 45.4712 67.0026 33.0136 67.0026 32.917C67.0029 32.357 66.8903 31.8024 66.6713 31.285C66.4522 30.7675 66.131 30.2974 65.7259 29.9014C65.3208 29.5054 64.8399 29.1914 64.3106 28.9773C63.7812 28.7631 63.2139 28.6531 62.6411 28.6534Z" fill="black"/>
<path d="M17.3563 27.5195C18.2186 27.52 19.0617 27.2705 19.779 26.8025C20.4962 26.3345 21.0553 25.669 21.3855 24.8903C21.7158 24.1116 21.8023 23.2547 21.6342 22.4279C21.4661 21.6011 21.0509 20.8416 20.4411 20.2455C19.8314 19.6495 19.0544 19.2436 18.2087 19.0792C17.3629 18.9149 16.4862 18.9995 15.6896 19.3223C14.893 19.6452 14.2123 20.1917 13.7335 20.8928C13.2548 21.5939 12.9995 22.4181 13 23.2611C13 24.3905 13.459 25.4736 14.2759 26.2723C15.0929 27.0709 16.2009 27.5195 17.3563 27.5195Z" fill="black"/>
<path d="M62.6411 27.5195C63.5029 27.518 64.345 27.2667 65.0609 26.7975C65.7767 26.3283 66.3342 25.6621 66.6628 24.8832C66.9915 24.1044 67.0765 23.2477 66.9073 22.4216C66.738 21.5955 66.322 20.837 65.7118 20.2419C65.1016 19.6469 64.3247 19.242 63.4792 19.0785C62.6337 18.915 61.7576 19.0002 60.9616 19.3233C60.1656 19.6464 59.4855 20.1929 59.0072 20.8938C58.5289 21.5947 58.2738 22.4185 58.2744 23.261C58.2744 23.8211 58.3874 24.3757 58.607 24.893C58.8265 25.4103 59.1483 25.8803 59.554 26.2758C59.9596 26.6714 60.441 26.9849 60.9708 27.1983C61.5005 27.4117 62.0681 27.5208 62.6411 27.5195Z" fill="black"/>
</g>
<path d="M10 2H70V-2H10V2ZM78 10V70H82V10H78ZM70 78H10V82H70V78ZM2 70V10H-2V70H2ZM10 78C5.58172 78 2 74.4183 2 70H-2C-2 76.6274 3.37258 82 10 82V78ZM78 70C78 74.4183 74.4183 78 70 78V82C76.6274 82 82 76.6274 82 70H78ZM70 2C74.4183 2 78 5.58172 78 10H82C82 3.37258 76.6274 -2 70 -2V2ZM10 -2C3.37258 -2 -2 3.37258 -2 10H2C2 5.58172 5.58172 2 10 2V-2Z" fill="black"/>
<defs>
<clipPath id="clip0_1_201">
<rect width="54" height="42" fill="white" transform="translate(13 19)"/>
</clipPath>
</defs>
</svg>
