<svg width="80" height="80" viewBox="0 0 80 80" xmlns="http://www.w3.org/2000/svg">
<g clip-path="url(#clip0_1_209)">
<path d="M68.2116 23.851L61.8097 20.6266C61.5958 20.5265 61.3615 20.4777 61.1254 20.4842C60.8893 20.4906 60.6579 20.5522 60.4499 20.6638C60.2418 20.7754 60.0627 20.9341 59.927 21.1272C59.7912 21.3203 59.7026 21.5424 59.668 21.7758L58.8155 28.8863C58.7706 29.2639 58.8776 29.6438 59.1131 29.9425C59.3486 30.2412 59.6932 30.4343 60.0712 30.4792C60.1303 30.4792 60.1868 30.4792 60.2432 30.4792C60.5941 30.4786 60.9326 30.3495 61.1947 30.1165C61.4569 29.8835 61.6245 29.5627 61.6659 29.2146L61.9869 26.5084C64.4282 30.5808 65.7103 35.2415 65.695 39.9882C65.695 54.399 54.0699 66.1216 39.7792 66.1216C25.4884 66.1216 13.8761 54.4093 13.8761 39.9984C13.8761 25.5876 25.4961 13.8649 39.7869 13.8649C43.7843 13.8543 47.7281 14.784 51.299 16.5788C51.4676 16.6631 51.6512 16.7133 51.8393 16.7266C52.0273 16.74 52.2161 16.7162 52.395 16.6566C52.5738 16.5971 52.7392 16.5029 52.8816 16.3796C53.024 16.2562 53.1407 16.106 53.225 15.9376C53.3093 15.7691 53.3596 15.5858 53.3729 15.3979C53.3863 15.2101 53.3625 15.0215 53.3029 14.8428C53.2433 14.6642 53.149 14.499 53.0255 14.3568C52.902 14.2145 52.7516 14.0979 52.583 14.0137C48.6133 12.0205 44.2299 10.988 39.7869 10.9997C23.9143 10.9997 11 24.0074 11 39.9856C11 55.9637 23.9143 68.9997 39.7869 68.9997C55.6594 68.9997 68.5737 55.9894 68.5737 39.9984C68.5907 34.8019 67.2051 29.6969 64.5626 25.2207L66.9225 26.411C67.1229 26.5102 67.3434 26.562 67.5671 26.5623C67.8903 26.5636 68.2045 26.4557 68.4586 26.2561C68.7127 26.0566 68.8918 25.777 68.9668 25.4629C69.0418 25.1488 69.0082 24.8186 68.8716 24.526C68.735 24.2334 68.5033 23.9955 68.2142 23.851H68.2116Z" fill="black"/>
<path d="M33.3618 33.5834C33.7759 33.4752 34.13 33.2071 34.3463 32.8382C34.5625 32.4692 34.6231 32.0295 34.5148 31.6159C34.4065 31.2023 34.1382 30.8486 33.7688 30.6326C33.3994 30.4166 32.9593 30.356 32.5452 30.4642C29.9515 31.1435 27.5973 32.5282 25.7445 34.4643C23.8917 36.4003 22.6128 38.8119 22.0502 41.4307C21.4876 44.0494 21.6633 46.7728 22.5578 49.2978C23.4522 51.8227 25.0303 54.0504 27.1166 55.7329C29.2029 57.4154 31.7156 58.4868 34.3751 58.828C37.0346 59.1691 39.7367 58.7667 42.1809 57.6653C44.6251 56.564 46.7155 54.8069 48.2196 52.5896C49.7238 50.3723 50.5826 47.7817 50.7007 45.1059C50.71 44.8945 50.6775 44.6834 50.6051 44.4845C50.5327 44.2857 50.4218 44.103 50.2788 43.947C50.1357 43.791 49.9632 43.6646 49.7713 43.5752C49.5793 43.4858 49.3715 43.435 49.1599 43.4257H49.0906C48.6752 43.426 48.2759 43.586 47.9756 43.8726C47.6753 44.1592 47.4971 44.5504 47.4779 44.9648C47.3844 47.043 46.7158 49.0546 45.5466 50.7761C44.3773 52.4976 42.7531 53.8615 40.8544 54.7164C38.9558 55.5712 36.857 55.8835 34.7914 55.6185C32.7257 55.3535 30.7741 54.5215 29.1533 53.2152C27.5326 51.9088 26.3061 50.1791 25.6103 48.2184C24.9145 46.2576 24.7766 44.1425 25.2118 42.1082C25.6471 40.0738 26.6385 38.1998 28.0759 36.6944C29.5133 35.1891 31.3404 34.1113 33.3541 33.5808L33.3618 33.5834Z" fill="black"/>
<path d="M50.087 29.7126H43.0662C42.4322 29.7126 41.9183 30.2259 41.9183 30.8592V32.0032C41.9183 32.6365 42.4322 33.1498 43.0662 33.1498H50.087C50.7209 33.1498 51.2348 32.6365 51.2348 32.0032V30.8592C51.2348 30.2259 50.7209 29.7126 50.087 29.7126Z" fill="black"/>
<path d="M38.6749 22.4456C38.6279 22.1794 38.4887 21.9383 38.2817 21.7643C38.0747 21.5903 37.813 21.4946 37.5425 21.4939H32.0367C31.7327 21.4939 31.4412 21.6143 31.226 21.8288C31.0108 22.0433 30.8895 22.3343 30.8889 22.6379V23.7846C30.8885 23.9353 30.918 24.0847 30.9755 24.2241C31.033 24.3635 31.1175 24.4902 31.2242 24.597C31.3308 24.7037 31.4574 24.7884 31.5969 24.8462C31.7363 24.904 31.8858 24.9337 32.0367 24.9337H35.6165L38.413 40.7682C38.4589 41.0337 38.5972 41.2744 38.8034 41.4481C39.0097 41.6217 39.2706 41.717 39.5403 41.7173H52.2851L55.9907 51.8521C56.0949 52.1379 56.3085 52.3705 56.5844 52.499C56.8604 52.6274 57.1761 52.6411 57.4621 52.537L58.5407 52.1445C58.6823 52.093 58.8124 52.0141 58.9235 51.9123C59.0346 51.8106 59.1246 51.688 59.1882 51.5515C59.2519 51.415 59.288 51.2673 59.2946 51.1169C59.3011 50.9665 59.2779 50.8162 59.2263 50.6747L54.9635 39.0419C54.8963 38.8574 54.7825 38.6933 54.6331 38.5657C54.4838 38.438 54.3039 38.3511 54.1109 38.3134C54.0434 38.2989 53.9746 38.2912 53.9055 38.2903H41.4689L38.6749 22.4456Z" fill="black"/>
</g>
<path d="M10 2H70V-2H10V2ZM78 10V70H82V10H78ZM70 78H10V82H70V78ZM2 70V10H-2V70H2ZM10 78C5.58172 78 2 74.4183 2 70H-2C-2 76.6274 3.37258 82 10 82V78ZM78 70C78 74.4183 74.4183 78 70 78V82C76.6274 82 82 76.6274 82 70H78ZM70 2C74.4183 2 78 5.58172 78 10H82C82 3.37258 76.6274 -2 70 -2V2ZM10 -2C3.37258 -2 -2 3.37258 -2 10H2C2 5.58172 5.58172 2 10 2V-2Z" fill="black"/>
<defs>
<clipPath id="clip0_1_209">
<rect width="58" height="58" fill="white" transform="translate(11 11)"/>
</clipPath>
</defs>
</svg>
