<svg width="80" height="80" viewBox="0 0 80 80" xmlns="http://www.w3.org/2000/svg">
<g clip-path="url(#clip0_1_193)">
<path d="M40.4964 28.338C42.0037 28.3385 43.4773 27.889 44.7308 27.0465C45.9843 26.204 46.9615 25.0062 47.5386 23.6047C48.1158 22.2032 48.2671 20.6609 47.9733 19.1729C47.6795 17.6849 46.9539 16.3179 45.8882 15.245C44.8226 14.172 43.4647 13.4413 41.9864 13.1451C40.5081 12.849 38.9757 13.0007 37.5831 13.5812C36.1904 14.1617 35.0001 15.1448 34.1626 16.4062C33.3252 17.6676 32.8782 19.1507 32.8782 20.6678C32.8788 22.7014 33.6816 24.6516 35.1101 26.0899C36.5385 27.5281 38.4759 28.3367 40.4964 28.338Z" fill="black"/>
<path d="M61.1075 40.4438L52.4051 31.68C51.2603 30.5546 49.5383 29.7783 48.003 29.7783H32.9946C31.4666 29.7783 29.7397 30.5644 28.5925 31.68L19.8925 40.4438C19.3336 41.0218 19.0231 41.798 19.0284 42.6045C19.0336 43.4111 19.3542 44.1831 19.9206 44.7536C20.4871 45.3241 21.254 45.6471 22.0553 45.6529C22.8566 45.6586 23.628 45.3466 24.2025 44.7843L30.8214 38.1223C30.9429 38.013 31.0999 37.9522 31.2628 37.9514C31.4423 37.9514 31.6144 38.0231 31.7413 38.1509C31.8682 38.2786 31.9395 38.4518 31.9395 38.6325C31.9395 38.652 31.9395 49.508 31.9395 49.508L25.8906 55.611L25.8518 55.6451C25.5686 55.9299 25.344 56.268 25.1908 56.6402C25.0375 57.0123 24.9586 57.4113 24.9586 57.8141C24.9586 58.217 25.0375 58.6159 25.1908 58.9881C25.344 59.3603 25.5686 59.6984 25.8518 59.9831L32.9267 67.1041C33.5009 67.6667 34.272 67.9792 35.0734 67.9739C35.8747 67.9686 36.6417 67.646 37.2085 67.0758C37.7753 66.5056 38.0963 65.7338 38.102 64.9272C38.1077 64.1207 37.7977 63.3443 37.239 62.7661L32.4828 57.9814L39.109 51.3193H41.8982L48.5123 57.9765L43.7561 62.7612C43.2102 63.3416 42.9108 64.1136 42.9217 64.9128C42.9325 65.712 43.2528 66.4754 43.8143 67.0406C44.3758 67.6058 45.1343 67.9281 45.9284 67.9391C46.7224 67.95 47.4894 67.6487 48.066 67.0992L55.1434 59.9782C55.4265 59.6935 55.6511 59.3554 55.8044 58.9832C55.9577 58.611 56.0365 58.2121 56.0365 57.8092C56.0365 57.4064 55.9577 57.0075 55.8044 56.6353C55.6511 56.2631 55.4265 55.925 55.1434 55.6402L55.1046 55.6061L49.0411 49.5031C49.0411 49.5031 49.0532 38.6471 49.0532 38.6276C49.0523 38.4968 49.089 38.3686 49.159 38.2585C49.2291 38.1483 49.3293 38.061 49.4476 38.007C49.5659 37.953 49.6973 37.9347 49.8257 37.9543C49.9541 37.9739 50.0742 38.0305 50.1713 38.1174L56.7902 44.7721C57.3647 45.3344 58.1361 45.6464 58.9374 45.6407C59.7387 45.6349 60.5056 45.3119 61.0721 44.7414C61.6386 44.1709 61.9591 43.3989 61.9644 42.5923C61.9696 41.7858 61.6592 41.0096 61.1002 40.4316L61.1075 40.4438Z" fill="black"/>
</g>
<path d="M10 2H70V-2H10V2ZM78 10V70H82V10H78ZM70 78H10V82H70V78ZM2 70V10H-2V70H2ZM10 78C5.58172 78 2 74.4183 2 70H-2C-2 76.6274 3.37258 82 10 82V78ZM78 70C78 74.4183 74.4183 78 70 78V82C76.6274 82 82 76.6274 82 70H78ZM70 2C74.4183 2 78 5.58172 78 10H82C82 3.37258 76.6274 -2 70 -2V2ZM10 -2C3.37258 -2 -2 3.37258 -2 10H2C2 5.58172 5.58172 2 10 2V-2Z" fill="black"/>
<defs>
<clipPath id="clip0_1_193">
<rect width="43" height="55" fill="white" transform="translate(19 13)"/>
</clipPath>
</defs>
</svg>
