<svg width="80" height="80" viewBox="0 0 80 80" xmlns="http://www.w3.org/2000/svg">
<g clip-path="url(#clip0_1_196)">
<path d="M34.1683 37.6643C33.8047 37.6643 33.4493 37.7722 33.147 37.9742C32.8447 38.1762 32.6091 38.4634 32.4701 38.7994C32.331 39.1353 32.2948 39.505 32.3659 39.8616C32.437 40.2181 32.6122 40.5456 32.8695 40.8025C33.1267 41.0595 33.4544 41.2344 33.8111 41.305C34.1677 41.3757 34.5373 41.339 34.8731 41.1995C35.2089 41.0601 35.4958 40.8242 35.6975 40.5217C35.8992 40.2191 36.0066 39.8636 36.0062 39.5C36.0056 39.0129 35.8117 38.546 35.4671 38.2018C35.1225 37.8576 34.6553 37.6643 34.1683 37.6643Z" fill="black"/>
<path d="M46.8646 37.6621C46.5011 37.6621 46.1458 37.7699 45.8435 37.9718C45.5413 38.1738 45.3057 38.4608 45.1666 38.7967C45.0275 39.1325 44.9911 39.502 45.062 39.8585C45.133 40.2151 45.308 40.5425 45.565 40.7996C45.8221 41.0566 46.1495 41.2316 46.5061 41.3026C46.8626 41.3735 47.2321 41.3371 47.5679 41.198C47.9038 41.0589 48.1908 40.8233 48.3928 40.5211C48.5947 40.2188 48.7025 39.8635 48.7025 39.5C48.7025 39.0126 48.5089 38.5451 48.1642 38.2004C47.8195 37.8557 47.3521 37.6621 46.8646 37.6621Z" fill="black"/>
<path d="M61.3258 14.995H19.6751C18.6991 14.995 17.7631 15.3827 17.0729 16.0729C16.3827 16.763 15.995 17.6991 15.995 18.6751V60.3236C15.9956 61.2983 16.383 62.2329 17.0722 62.9221C17.7615 63.6113 18.6961 63.9988 19.6708 63.9993H61.3258C62.3001 63.9982 63.2342 63.6105 63.9229 62.9213C64.6116 62.2322 64.9988 61.2979 64.9994 60.3236V18.6751C65 17.7 64.6133 16.7646 63.9245 16.0745C63.2356 15.3844 62.3009 14.9961 61.3258 14.995ZM62.5496 60.3192C62.5496 60.644 62.4207 60.9555 62.1913 61.1853C61.9618 61.4152 61.6506 61.5446 61.3258 61.5452H19.6751C19.5142 61.5452 19.3547 61.5135 19.206 61.4519C19.0572 61.3902 18.9221 61.2999 18.8082 61.1861C18.6944 61.0723 18.6041 60.9371 18.5425 60.7884C18.4809 60.6396 18.4492 60.4802 18.4492 60.3192V18.6751C18.4497 18.3501 18.5791 18.0386 18.8089 17.8089C19.0387 17.5791 19.3502 17.4497 19.6751 17.4491H61.3258C61.6504 17.4503 61.9613 17.5799 62.1907 17.8096C62.42 18.0394 62.549 18.3505 62.5496 18.6751V60.3192Z" fill="black"/>
<path d="M40.5154 23.4065C37.3318 23.4065 34.2198 24.3505 31.5728 26.1192C28.9258 27.888 26.8628 30.4019 25.6446 33.3431C24.4264 36.2844 24.1078 39.5208 24.7291 42.6431C25.3503 45.7655 26.8835 48.6334 29.1347 50.8844C31.386 53.1353 34.2542 54.6681 37.3766 55.2889C40.499 55.9097 43.7354 55.5907 46.6765 54.3721C49.6175 53.1535 52.1312 51.0901 53.8995 48.4429C55.6679 45.7957 56.6115 42.6835 56.6111 39.5C56.6059 35.233 54.9083 31.1422 51.8909 28.1251C48.8734 25.1081 44.7824 23.4111 40.5154 23.4065ZM40.5154 54.4904C37.5506 54.49 34.6526 53.6104 32.1878 51.963C29.7229 50.3156 27.8019 47.9742 26.6676 45.2351C25.5334 42.4959 25.2368 39.4819 25.8155 36.5742C26.3941 33.6665 27.822 30.9957 29.9185 28.8994C32.0151 26.8032 34.6861 25.3757 37.5939 24.7975C40.5017 24.2193 43.5156 24.5163 46.2546 25.6509C48.9936 26.7856 51.3347 28.7069 52.9818 31.172C54.6288 33.6371 55.5079 36.5353 55.5079 39.5C55.5033 43.4747 53.9222 47.2852 51.1114 50.0955C48.3007 52.9057 44.49 54.4863 40.5154 54.4904Z" fill="black"/>
</g>
<path d="M10 2H70V-2H10V2ZM78 10V70H82V10H78ZM70 78H10V82H70V78ZM2 70V10H-2V70H2ZM10 78C5.58172 78 2 74.4183 2 70H-2C-2 76.6274 3.37258 82 10 82V78ZM78 70C78 74.4183 74.4183 78 70 78V82C76.6274 82 82 76.6274 82 70H78ZM70 2C74.4183 2 78 5.58172 78 10H82C82 3.37258 76.6274 -2 70 -2V2ZM10 -2C3.37258 -2 -2 3.37258 -2 10H2C2 5.58172 5.58172 2 10 2V-2Z" fill="black"/>
<defs>
<clipPath id="clip0_1_196">
<rect width="49" height="49" fill="white" transform="translate(16 15)"/>
</clipPath>
</defs>
</svg>
