<svg width="80" height="80" viewBox="0 0 80 80" xmlns="http://www.w3.org/2000/svg">
<g clip-path="url(#clip0_1_206)">
<path d="M70 44.6585L66.163 34.2788L65.217 34.6237C64.2959 35.0241 63.2817 35.1714 62.2822 35.0499C61.2827 34.9284 60.3355 34.5427 59.5412 33.9338C58.9272 33.429 58.4482 32.784 58.1462 32.0551C57.8442 31.3262 57.7283 30.5357 57.8087 29.7526C58.4134 29.3502 59.0668 29.0236 59.7538 28.7805L59.1054 27.0244C59.8646 26.2799 60.7886 25.7182 61.8052 25.3833L62.7511 25.0383L58.6484 13.9582L10.4145 31.2265L11.977 35.4077L10 36.1185L13.3481 45.1603C17.9185 43.5296 21.1178 45.9233 21.9256 48.9756C21.1609 49.9922 20.0955 50.7515 18.8751 51.1498L17.9292 51.4843L18.2693 52.4146C18.4712 52.9477 18.907 54.1289 19.3959 55.4564C18.8106 55.8477 18.1788 56.1672 17.5146 56.4077L20.7033 64.9268L67.0452 48.338L66.1736 45.986L70 44.6585ZM21.9894 51.777C23.2125 50.884 24.108 49.6247 24.5412 48.1884C24.9743 46.7521 24.9218 45.2163 24.3915 43.8118C23.7835 42.1299 22.5288 40.7496 20.8971 39.9677C19.2653 39.1859 17.3868 39.0649 15.6652 39.6307L13.8689 34.7491L12.9974 32.3972L57.4473 16.4774L60.1895 23.8885C59.5388 24.1958 58.9255 24.5745 58.3614 25.0174C57.0456 26.0174 56.1553 27.4631 55.8636 29.0732C55.7162 29.9154 55.7342 30.7776 55.9168 31.6132C56.2487 33.0919 57.0668 34.4218 58.2445 35.3972C59.1678 36.1354 60.2596 36.6419 61.4261 36.8732C62.5926 37.1044 63.7987 37.0535 64.9407 36.7247L67.4278 43.4355L65.4509 44.1464L22.9354 59.3449L20.9796 54.0662L20.4907 52.7387C21.0198 52.469 21.5216 52.1505 21.9894 51.7875V51.777Z" fill="black"/>
</g>
<path d="M10 2H70V-2H10V2ZM78 10V70H82V10H78ZM70 78H10V82H70V78ZM2 70V10H-2V70H2ZM10 78C5.58172 78 2 74.4183 2 70H-2C-2 76.6274 3.37258 82 10 82V78ZM78 70C78 74.4183 74.4183 78 70 78V82C76.6274 82 82 76.6274 82 70H78ZM70 2C74.4183 2 78 5.58172 78 10H82C82 3.37258 76.6274 -2 70 -2V2ZM10 -2C3.37258 -2 -2 3.37258 -2 10H2C2 5.58172 5.58172 2 10 2V-2Z" fill="black"/>
<defs>
<clipPath id="clip0_1_206">
<rect width="60" height="51" fill="white" transform="translate(10 14)"/>
</clipPath>
</defs>
</svg>
