<svg width="80" height="80" viewBox="0 0 80 80" xmlns="http://www.w3.org/2000/svg">
<g clip-path="url(#clip0_1_186)">
<path d="M72.0001 57.7478C72.0002 57.5164 71.9477 57.2879 71.8463 57.0791C71.7449 56.8703 71.5972 56.6864 71.4141 56.5409C71.2309 56.3954 71.017 56.292 70.7878 56.2382C70.5587 56.1845 70.3203 56.1818 70.0899 56.2303L9.24804 68.9317C8.88029 69.0243 8.55873 69.2438 8.34207 69.55C8.12542 69.8562 8.02811 70.2287 8.06793 70.5995C8.10775 70.9703 8.28203 71.3147 8.55895 71.5698C8.83587 71.8249 9.19696 71.9736 9.5763 71.9889H70.4182C70.626 71.9893 70.8319 71.9493 71.024 71.8714C71.2161 71.7934 71.3906 71.679 71.5376 71.5347C71.6845 71.3903 71.8011 71.2189 71.8804 71.0302C71.9598 70.8416 72.0005 70.6394 72.0001 70.4353V57.7478Z" fill="black"/>
<path d="M34.8752 61.6304C37.7154 61.6392 40.5102 60.9312 42.9918 59.5743C45.4734 58.2175 47.5584 56.2573 49.0471 53.8818C49.1783 53.6739 49.2665 53.4427 49.3067 53.2014C49.3469 52.96 49.3383 52.7133 49.2815 52.4752C49.2246 52.2371 49.1205 52.0124 48.9752 51.8138C48.8298 51.6152 48.6461 51.4467 48.4345 51.3179C48.2228 51.189 47.9874 51.1024 47.7417 51.0629C47.496 51.0234 47.2447 51.0318 47.0023 51.0877C46.7599 51.1436 46.5311 51.2458 46.3289 51.3885C46.1267 51.5313 45.9551 51.7117 45.8239 51.9196C44.8186 53.5074 43.4674 54.8566 41.8675 55.8701C40.2675 56.8835 38.4588 57.536 36.5713 57.7805C34.6838 58.025 32.7647 57.8555 30.9519 57.2841C29.1392 56.7128 27.4779 55.7538 26.0878 54.4763C24.6977 53.1987 23.6132 51.6344 22.9125 49.8959C22.2118 48.1573 21.9123 46.2878 22.0355 44.4219C22.1587 42.5561 22.7016 40.7402 23.6251 39.1051C24.5485 37.47 25.8296 36.0564 27.3761 34.9659C27.582 34.8246 27.7573 34.6446 27.8918 34.4363C28.0263 34.228 28.1173 33.9955 28.1595 33.7524C28.2018 33.5092 28.1944 33.2602 28.1379 33.0199C28.0813 32.7796 27.9767 32.5526 27.8301 32.3524C27.6836 32.1521 27.4979 31.9824 27.284 31.8531C27.0701 31.7239 26.8321 31.6376 26.584 31.5995C26.3359 31.5613 26.0825 31.5719 25.8386 31.6307C25.5947 31.6895 25.3651 31.7953 25.1632 31.942C22.2938 33.961 20.1511 36.8225 19.0439 40.1143C17.9367 43.406 17.922 46.958 19.0021 50.2584C20.0822 53.5588 22.2012 56.4372 25.0539 58.479C27.9065 60.5207 31.3454 61.6203 34.8752 61.6193V61.6304Z" fill="black"/>
<path d="M34.1366 21.5975C32.8806 21.6621 31.7022 22.214 30.8606 23.1319C30.0189 24.0497 29.5829 25.2583 29.6484 26.4918L30.3757 40.1104C30.3771 40.1307 30.3771 40.1511 30.3757 40.1715C30.4355 41.3696 30.9638 42.4988 31.8506 43.3237C32.7374 44.1485 33.9141 44.6054 35.1355 44.5989H47.9717L51.8203 54.9768C52.0182 55.5163 52.3812 55.9824 52.8595 56.3113C53.3377 56.6402 53.9079 56.8158 54.4917 56.8139C54.6752 56.8133 54.8582 56.7947 55.0379 56.7583C55.1561 56.7388 55.2725 56.71 55.3859 56.6722L60.4486 54.8601C60.6873 54.7802 60.9075 54.6543 61.0961 54.4898C61.2847 54.3252 61.438 54.1254 61.547 53.902C61.656 53.6785 61.7185 53.436 61.7308 53.1885C61.7431 52.9411 61.7051 52.6937 61.6188 52.4609C61.5326 52.228 61.3999 52.0145 61.2286 51.8326C61.0572 51.6508 60.8507 51.5044 60.621 51.4019C60.3913 51.2995 60.1431 51.2431 59.8909 51.2361C59.6388 51.229 59.3877 51.2715 59.1525 51.3609L56.8405 52.1947C56.8405 52.1947 52.5957 40.744 52.5108 40.5439C52.4612 40.4344 52.4055 40.3277 52.3438 40.2243C52.086 39.7663 51.7081 39.3843 51.2493 39.118C50.7906 38.8516 50.2676 38.7106 49.7347 38.7096H39.7878L39.601 35.1827H47.8472C48.3501 35.1827 48.8323 34.9865 49.1879 34.6373C49.5435 34.288 49.7432 33.8144 49.7432 33.3205C49.7432 32.8267 49.5435 32.353 49.1879 32.0038C48.8323 31.6546 48.3501 31.4584 47.8472 31.4584H39.4001L39.1171 26.2C39.1171 26.1388 39.1171 26.0805 39.1171 26.0193C39.0867 25.4075 38.9336 24.8075 38.6666 24.2539C38.3996 23.7003 38.0241 23.2038 37.5614 22.7931C37.0987 22.3823 36.558 22.0652 35.9703 21.86C35.3826 21.6549 34.7594 21.5656 34.1366 21.5975Z" fill="black"/>
<path d="M34.5921 20.3079C35.5281 20.2594 36.4285 19.9394 37.1794 19.3885C37.9302 18.8375 38.498 18.0803 38.8107 17.2125C39.1235 16.3447 39.1673 15.4053 38.9366 14.5131C38.7059 13.6209 38.211 12.8159 37.5145 12.1998C36.8181 11.5838 35.9513 11.1843 35.0237 11.052C34.0961 10.9197 33.1495 11.0605 32.3033 11.4565C31.4572 11.8525 30.7496 12.486 30.27 13.2769C29.7904 14.0678 29.5603 14.9806 29.6088 15.8999C29.6746 17.1334 30.2366 18.2907 31.1711 19.1173C32.1056 19.944 33.3362 20.3722 34.5921 20.3079Z" fill="black"/>
</g>
<path d="M10 2H70V-2H10V2ZM78 10V70H82V10H78ZM70 78H10V82H70V78ZM2 70V10H-2V70H2ZM10 78C5.58172 78 2 74.4183 2 70H-2C-2 76.6274 3.37258 82 10 82V78ZM78 70C78 74.4183 74.4183 78 70 78V82C76.6274 82 82 76.6274 82 70H78ZM70 2C74.4183 2 78 5.58172 78 10H82C82 3.37258 76.6274 -2 70 -2V2ZM10 -2C3.37258 -2 -2 3.37258 -2 10H2C2 5.58172 5.58172 2 10 2V-2Z" fill="black"/>
<defs>
<clipPath id="clip0_1_186">
<rect width="64" height="61" fill="white" transform="translate(8 11)"/>
</clipPath>
</defs>
</svg>
