<svg width="80" height="80" viewBox="0 0 80 80" xmlns="http://www.w3.org/2000/svg">
<g clip-path="url(#clip0_1_195)">
<path d="M34.0811 20.5135C35.2317 20.5168 36.3573 20.1811 37.3156 19.5491C38.2738 18.917 39.0215 18.0169 39.4641 16.9627C39.9067 15.9086 40.0242 14.7478 39.8017 13.6274C39.5793 12.5069 39.0269 11.4772 38.2145 10.6685C37.4021 9.85985 36.3663 9.30862 35.2381 9.08463C34.1099 8.86063 32.9401 8.97394 31.8768 9.41021C30.8135 9.84648 29.9046 10.5861 29.265 11.5354C28.6255 12.4847 28.2841 13.601 28.2841 14.743C28.2819 15.5 28.4302 16.25 28.7206 16.9501C29.0109 17.6501 29.4376 18.2863 29.9761 18.8224C30.5146 19.3584 31.1544 19.7838 31.8589 20.074C32.5633 20.3642 33.3185 20.5135 34.0811 20.5135Z" fill="black"/>
<path d="M36.0882 47.6074H36.1159C36.643 46.725 36.9204 45.7178 36.9188 44.692V32.5382C36.9188 32.4806 36.9418 32.4254 36.9828 32.3847C37.0238 32.344 37.0795 32.3211 37.1375 32.3211C37.1724 32.3213 37.2068 32.3299 37.2377 32.3461C37.2685 32.3624 37.2949 32.3859 37.3146 32.4145L43.4439 42.9526C43.5926 43.2214 43.7938 43.458 44.0358 43.6485C44.2778 43.8391 44.5557 43.9798 44.8532 44.0623C45.1507 44.1449 45.4618 44.1676 45.7683 44.1292C46.0747 44.0908 46.3704 43.992 46.6379 43.8387C46.9054 43.6853 47.1394 43.4805 47.326 43.2362C47.5127 42.9919 47.6484 42.7131 47.725 42.4161C47.8017 42.119 47.8178 41.8098 47.7724 41.5065C47.7271 41.2032 47.6212 40.912 47.4609 40.6499L38.3639 24.9953C38.339 24.9541 38.3057 24.9211 38.2781 24.8799C37.7688 24.0165 37.041 23.3001 36.167 22.8017C35.2929 22.3034 34.3029 22.0403 33.2949 22.0386H31.1051C29.5661 22.043 28.0916 22.6528 27.0049 23.7346C25.9182 24.8163 25.308 26.2815 25.308 27.8091V44.7057C25.3073 45.5168 25.4797 46.3189 25.8137 47.0591C26.1477 47.7994 26.6358 48.461 27.2459 49.0006L17.4679 65.8203C17.0189 66.6128 16.9028 67.5491 17.1449 68.4261C17.387 69.303 17.9677 70.0498 18.761 70.5045C19.5543 70.9592 20.4963 71.085 21.3825 70.8547C22.2687 70.6244 23.0277 70.0565 23.4947 69.2743L35.9526 47.841C35.9996 47.7696 36.0384 47.6871 36.0882 47.6074Z" fill="black"/>
<path d="M48.1281 64.9684L37.9708 47.503L33.9538 54.4084L37.8296 61.0665L42.5497 69.1864L42.5996 69.2688C43.0858 70.0259 43.8501 70.5651 44.7302 70.772C45.6104 70.9789 46.5372 70.8372 47.3138 70.377C48.0905 69.9169 48.6559 69.1744 48.8901 68.3072C49.1243 67.44 49.0089 66.5164 48.5683 65.7323L48.1281 64.9684Z" fill="black"/>
<path d="M62.8976 69.8102L48.2693 44.6782C48.1669 44.5019 47.9981 44.3731 47.8 44.3203C47.6019 44.2675 47.3908 44.2949 47.2132 44.3966C47.0355 44.4982 46.9058 44.6658 46.8525 44.8624C46.7993 45.059 46.827 45.2685 46.9294 45.4449L61.5577 70.5796C61.6255 70.6962 61.7232 70.793 61.8409 70.86C61.9586 70.9271 62.092 70.9621 62.2277 70.9615C62.3633 70.9614 62.4965 70.9258 62.6139 70.8583C62.7313 70.7908 62.8287 70.6938 62.8963 70.5771C62.9639 70.4604 62.9994 70.3281 62.9991 70.1935C62.9989 70.0588 62.9629 69.9266 62.8949 69.8102H62.8976Z" fill="black"/>
</g>
<path d="M10 2H70V-2H10V2ZM78 10V70H82V10H78ZM70 78H10V82H70V78ZM2 70V10H-2V70H2ZM10 78C5.58172 78 2 74.4183 2 70H-2C-2 76.6274 3.37258 82 10 82V78ZM78 70C78 74.4183 74.4183 78 70 78V82C76.6274 82 82 76.6274 82 70H78ZM70 2C74.4183 2 78 5.58172 78 10H82C82 3.37258 76.6274 -2 70 -2V2ZM10 -2C3.37258 -2 -2 3.37258 -2 10H2C2 5.58172 5.58172 2 10 2V-2Z" fill="black"/>
<defs>
<clipPath id="clip0_1_195">
<rect width="46" height="62" fill="white" transform="translate(17 9)"/>
</clipPath>
</defs>
</svg>
