<svg width="80" height="80" viewBox="0 0 80 80" xmlns="http://www.w3.org/2000/svg">
<g clip-path="url(#clip0_1_199)">
<path d="M32.7544 47.3062L43.0414 49.499L44.1036 36.4521C39.5585 36.9873 34.9561 36.8246 30.4622 35.9696C22.5792 34.4895 19.1688 33.6015 10 27.2973C10.0244 28.6476 10.3832 29.9719 11.0455 31.156C11.7078 32.3402 12.6537 33.3487 13.8017 34.0948C16.1144 35.7279 18.8906 36.6098 21.7406 36.6165C21.7406 36.6165 20.3429 37.5046 20.3429 41.0678C20.3429 44.6311 22.1319 44.7955 22.1319 47.0979C22.1319 49.4003 18.6657 50.6063 18.6657 50.6063L15.0317 60.9671H16.9326L22.1319 52.7991L24.8155 53.128L29.8472 60.9671H31.9158L28.6172 52.6346C28.6172 52.6346 31.2449 51.7466 32.7544 47.3062Z" fill="black"/>
<path d="M44.0477 35.3995L45.9485 35.1912L39.1502 18.8442C39.1502 18.8442 38.647 17.7478 37.8084 18.0768C36.9698 18.4057 37.4171 19.6117 37.4171 19.6117L44.0477 35.3995Z" fill="black"/>
<path d="M67.2046 36.8906C65.4156 35.3995 65.5721 32.9985 61.0548 32.9985C54.9049 32.9985 51.5393 36.2876 46.7313 36.2876L56.3474 44.5653C56.729 43.633 57.3753 42.8276 58.2097 42.2446C59.0441 41.6616 60.0315 41.3255 61.0548 41.2761C64.4092 41.2761 64.8565 42.1642 66.9698 42.1642C67.7359 42.1717 68.476 41.8922 69.0391 41.3828C69.6023 40.8734 69.9459 40.1726 70 39.4233C70 38.305 68.0432 37.5485 67.2046 36.8906Z" fill="black"/>
<path d="M55.7883 45.9358L45.7249 37.3182L44.8304 49.7731L41.3641 60.8465H43.4886L48.688 49.9924H50.7007L57.7003 60.8465H59.7689L55.7435 51.2532C55.2902 50.4359 55.0565 49.519 55.0643 48.5888C55.0721 47.6585 55.3213 46.7456 55.7883 45.9358Z" fill="black"/>
</g>
<path d="M10 2H70V-2H10V2ZM78 10V70H82V10H78ZM70 78H10V82H70V78ZM2 70V10H-2V70H2ZM10 78C5.58172 78 2 74.4183 2 70H-2C-2 76.6274 3.37258 82 10 82V78ZM78 70C78 74.4183 74.4183 78 70 78V82C76.6274 82 82 76.6274 82 70H78ZM70 2C74.4183 2 78 5.58172 78 10H82C82 3.37258 76.6274 -2 70 -2V2ZM10 -2C3.37258 -2 -2 3.37258 -2 10H2C2 5.58172 5.58172 2 10 2V-2Z" fill="black"/>
<defs>
<clipPath id="clip0_1_199">
<rect width="60" height="43" fill="white" transform="translate(10 18)"/>
</clipPath>
</defs>
</svg>
