<svg width="80" height="80" viewBox="0 0 80 80" xmlns="http://www.w3.org/2000/svg">
<g clip-path="url(#clip0_1_197)">
<path d="M17.3323 8.99994C17.0688 8.99994 16.8112 9.07765 16.5921 9.2232C16.373 9.36874 16.2023 9.57558 16.1014 9.81762C16.0006 10.0596 15.9742 10.326 16.0256 10.583C16.077 10.8399 16.2039 11.0759 16.3902 11.2611C16.5765 11.4464 16.8139 11.5725 17.0724 11.6236C17.3308 11.6747 17.5986 11.6485 17.8421 11.5483C18.0855 11.448 18.2936 11.2782 18.44 11.0604C18.5864 10.8426 18.6645 10.5865 18.6645 10.3245C18.6645 9.97321 18.5242 9.63635 18.2743 9.38794C18.0245 9.13954 17.6856 8.99994 17.3323 8.99994Z" fill="black"/>
<path d="M22.5717 8.99997C22.3082 8.99997 22.0506 9.07768 21.8315 9.22323C21.6124 9.36877 21.4416 9.57561 21.3408 9.81765C21.24 10.0597 21.2136 10.326 21.265 10.583C21.3164 10.8399 21.4433 11.0759 21.6296 11.2611C21.8159 11.4464 22.0533 11.5725 22.3118 11.6237C22.5702 11.6748 22.8381 11.6486 23.0815 11.5483C23.3249 11.4481 23.533 11.2783 23.6794 11.0604C23.8258 10.8426 23.9039 10.5865 23.9039 10.3245C23.9039 9.97324 23.7636 9.63638 23.5137 9.38797C23.2639 9.13957 22.925 8.99997 22.5717 8.99997Z" fill="black"/>
<path d="M26.4062 11.6492C26.6699 11.65 26.9279 11.573 27.1475 11.428C27.3672 11.283 27.5386 11.0764 27.6401 10.8344C27.7416 10.5924 27.7686 10.326 27.7176 10.0688C27.6667 9.81159 27.5402 9.57517 27.354 9.3895C27.1679 9.20383 26.9305 9.07726 26.672 9.0258C26.4134 8.97435 26.1453 9.0003 25.9016 9.10043C25.6579 9.20056 25.4496 9.37033 25.303 9.58825C25.1564 9.80616 25.0782 10.0624 25.0782 10.3246C25.0782 10.6751 25.218 11.0114 25.4669 11.2597C25.7158 11.508 26.0536 11.6481 26.4062 11.6492Z" fill="black"/>
<path d="M31.637 11.6492C31.9005 11.6492 32.1581 11.5715 32.3772 11.4259C32.5963 11.2804 32.7671 11.0735 32.8679 10.8315C32.9688 10.5895 32.9951 10.3231 32.9437 10.0662C32.8923 9.80922 32.7654 9.57324 32.5791 9.388C32.3928 9.20275 32.1554 9.0766 31.8969 9.02549C31.6385 8.97438 31.3706 9.00059 31.1272 9.10084C30.8838 9.20109 30.6757 9.37089 30.5293 9.58871C30.3829 9.80653 30.3048 10.0626 30.3048 10.3246C30.3048 10.6759 30.4451 11.0128 30.695 11.2612C30.9448 11.5096 31.2837 11.6492 31.637 11.6492Z" fill="black"/>
<path d="M35.4716 11.6492C35.7351 11.6492 35.9926 11.5715 36.2117 11.4259C36.4308 11.2804 36.6016 11.0735 36.7024 10.8315C36.8033 10.5895 36.8296 10.3231 36.7782 10.0662C36.7268 9.80922 36.5999 9.57324 36.4136 9.388C36.2273 9.20275 35.9899 9.0766 35.7315 9.02549C35.4731 8.97438 35.2052 9.00059 34.9617 9.10084C34.7183 9.20109 34.5102 9.37089 34.3639 9.58871C34.2175 9.80653 34.1393 10.0626 34.1393 10.3246C34.1393 10.6759 34.2797 11.0128 34.5295 11.2612C34.7794 11.5096 35.1182 11.6492 35.4716 11.6492Z" fill="black"/>
<path d="M44.5327 11.6492C44.7964 11.65 45.0544 11.573 45.274 11.428C45.4937 11.283 45.6651 11.0764 45.7666 10.8344C45.8681 10.5924 45.8951 10.326 45.8441 10.0688C45.7932 9.81159 45.6667 9.57517 45.4805 9.3895C45.2944 9.20383 45.057 9.07726 44.7985 9.0258C44.5399 8.97435 44.2718 9.0003 44.0281 9.10043C43.7844 9.20056 43.5761 9.37033 43.4295 9.58825C43.283 9.80616 43.2047 10.0624 43.2047 10.3246C43.2047 10.6751 43.3445 11.0114 43.5934 11.2597C43.8423 11.508 44.1801 11.6481 44.5327 11.6492Z" fill="black"/>
<path d="M40.7067 15.4616C40.9702 15.4616 41.2278 15.3838 41.4469 15.2383C41.666 15.0928 41.8367 14.8859 41.9376 14.6439C42.0384 14.4018 42.0648 14.1355 42.0134 13.8785C41.962 13.6216 41.8351 13.3856 41.6487 13.2004C41.4624 13.0151 41.2251 12.889 40.9666 12.8379C40.7082 12.7868 40.4403 12.813 40.1969 12.9132C39.9534 13.0135 39.7454 13.1833 39.599 13.4011C39.4526 13.6189 39.3744 13.875 39.3744 14.137C39.3744 14.4883 39.5148 14.8252 39.7646 15.0736C40.0145 15.322 40.3534 15.4616 40.7067 15.4616Z" fill="black"/>
<path d="M58.8247 8.99997C58.5612 8.99997 58.3036 9.07768 58.0845 9.22323C57.8654 9.36877 57.6946 9.57561 57.5938 9.81765C57.493 10.0597 57.4666 10.326 57.518 10.583C57.5694 10.8399 57.6963 11.0759 57.8826 11.2611C58.0689 11.4464 58.3063 11.5725 58.5647 11.6237C58.8232 11.6748 59.0911 11.6486 59.3345 11.5483C59.578 11.4481 59.786 11.2783 59.9324 11.0604C60.0788 10.8426 60.1569 10.5865 60.1569 10.3245C60.1569 9.97324 60.0166 9.63638 59.7667 9.38797C59.5169 9.13957 59.178 8.99997 58.8247 8.99997Z" fill="black"/>
<path d="M62.6678 16.6375C62.4043 16.6375 62.1467 16.7152 61.9276 16.8607C61.7085 17.0063 61.5377 17.2132 61.4369 17.4552C61.336 17.6972 61.3097 17.9635 61.3611 18.2205C61.4125 18.4774 61.5394 18.7134 61.7257 18.8987C61.912 19.0839 62.1494 19.21 62.4078 19.2611C62.6662 19.3123 62.9342 19.286 63.1776 19.1858C63.421 19.0855 63.6291 18.9158 63.7755 18.6979C63.9219 18.4801 64 18.2241 64 17.9621C64 17.6108 63.8597 17.2739 63.6098 17.0255C63.36 16.7771 63.0211 16.6375 62.6678 16.6375Z" fill="black"/>
<path d="M62.6635 15.4742C62.927 15.4742 63.1846 15.3966 63.4036 15.251C63.6227 15.1055 63.7935 14.8986 63.8943 14.6566C63.9951 14.4145 64.0215 14.1482 63.9701 13.8913C63.9187 13.6343 63.7918 13.3983 63.6055 13.2131C63.4192 13.0278 63.1818 12.9017 62.9234 12.8505C62.6649 12.7994 62.3971 12.8257 62.1536 12.926C61.9102 13.0262 61.7021 13.196 61.5557 13.4138C61.4093 13.6316 61.3312 13.8877 61.3312 14.1497C61.3312 14.501 61.4716 14.8379 61.7214 15.0863C61.9713 15.3347 62.3101 15.4742 62.6635 15.4742Z" fill="black"/>
<path d="M49.7934 11.6492C50.0569 11.6492 50.3145 11.5715 50.5336 11.4259C50.7527 11.2804 50.9234 11.0735 51.0243 10.8315C51.1251 10.5895 51.1515 10.3231 51.1001 10.0662C51.0487 9.80922 50.9218 9.57324 50.7355 9.388C50.5492 9.20275 50.3118 9.0766 50.0533 9.02549C49.7949 8.97438 49.527 9.00059 49.2836 9.10084C49.0402 9.20109 48.8321 9.37089 48.6857 9.58871C48.5393 9.80653 48.4612 10.0626 48.4612 10.3246C48.4612 10.6759 48.6015 11.0128 48.8514 11.2612C49.1012 11.5096 49.4401 11.6492 49.7934 11.6492Z" fill="black"/>
<path d="M53.6365 16.6375C53.373 16.6375 53.1154 16.7152 52.8963 16.8607C52.6773 17.0063 52.5065 17.2132 52.4056 17.4552C52.3048 17.6972 52.2784 17.9635 52.3299 18.2205C52.3813 18.4774 52.5081 18.7134 52.6945 18.8987C52.8808 19.0839 53.1182 19.21 53.3766 19.2611C53.6351 19.3123 53.9029 19.286 54.1464 19.1858C54.3898 19.0855 54.5979 18.9158 54.7443 18.6979C54.8907 18.4801 54.9688 18.2241 54.9688 17.9621C54.9688 17.6108 54.8284 17.2739 54.5786 17.0255C54.3287 16.7771 53.9899 16.6375 53.6365 16.6375Z" fill="black"/>
<path d="M53.628 15.4742C53.8915 15.4742 54.1491 15.3966 54.3681 15.251C54.5872 15.1055 54.758 14.8986 54.8588 14.6566C54.9597 14.4145 54.986 14.1482 54.9346 13.8913C54.8832 13.6343 54.7563 13.3983 54.57 13.2131C54.3837 13.0278 54.1463 12.9017 53.8879 12.8505C53.6294 12.7994 53.3616 12.8257 53.1181 12.926C52.8747 13.0262 52.6666 13.196 52.5203 13.4138C52.3739 13.6316 52.2957 13.8877 52.2957 14.1497C52.2957 14.501 52.4361 14.8379 52.6859 15.0863C52.9358 15.3347 53.2746 15.4742 53.628 15.4742Z" fill="black"/>
<path d="M52.4878 34.3451C52.1316 34.3417 51.7783 34.4085 51.4482 34.5416C51.1181 34.6746 50.8178 34.8714 50.5645 35.1204C50.3113 35.3694 50.1101 35.6659 49.9726 35.9926C49.8352 36.3193 49.7641 36.6698 49.7636 37.0239V38.9259C49.7636 39.0385 49.7185 39.1465 49.6385 39.2261C49.5584 39.3057 49.4498 39.3505 49.3366 39.3505C49.2233 39.3505 49.1147 39.3057 49.0346 39.2261C48.9545 39.1465 48.9095 39.0385 48.9095 38.9259V34.2899C48.896 33.5716 48.5959 32.888 48.0753 32.3896C47.5548 31.8912 46.8565 31.6188 46.134 31.6323C45.4115 31.6458 44.7239 31.9441 44.2226 32.4616C43.7213 32.9791 43.4473 33.6734 43.4609 34.3918V38.2466V38.9004C43.4609 39.013 43.4159 39.121 43.3358 39.2006C43.2557 39.2803 43.1472 39.325 43.0339 39.325C42.9207 39.325 42.812 39.2803 42.7319 39.2006C42.6519 39.121 42.6069 39.013 42.6069 38.9004V31.7427C42.579 31.0423 42.2795 30.3799 41.7713 29.8942C41.263 29.4084 40.5854 29.1371 39.8804 29.1371C39.1755 29.1371 38.4978 29.4084 37.9896 29.8942C37.4813 30.3799 37.1819 31.0423 37.154 31.7427V38.4292V38.9514C37.154 39.064 37.109 39.172 37.0289 39.2516C36.9488 39.3312 36.8402 39.3759 36.727 39.3759C36.6137 39.3759 36.5051 39.3312 36.425 39.2516C36.3449 39.172 36.3 39.064 36.3 38.9514V38.633V18.1403C36.2721 17.44 35.9726 16.7776 35.4644 16.2918C34.9561 15.8061 34.2785 15.5349 33.5735 15.5349C32.8685 15.5349 32.1909 15.8061 31.6826 16.2918C31.1744 16.7776 30.875 17.44 30.8471 18.1403V46.0794V47.6587C30.8471 47.7713 30.8021 47.8793 30.722 47.9589C30.6419 48.0385 30.5333 48.0833 30.4201 48.0833C30.3068 48.0833 30.1982 48.0385 30.1181 47.9589C30.038 47.8793 29.9931 47.7713 29.9931 47.6587V45.9606V38.1999C29.9829 36.7571 29.3995 35.3767 28.3701 34.3596C27.3407 33.3425 25.9487 32.7712 24.4975 32.7701C24.4676 32.7701 24.4975 54.9524 24.4975 54.9524C24.4975 56.2812 24.459 59.5416 25.9493 61.3544C26.8631 62.4625 28.1782 63.7446 29.2757 64.9078C30.2193 65.9097 30.1297 67.7607 30.1297 69.1532V71.0255L52.6544 63.5408C52.6544 63.5408 55.3146 61.3884 55.2847 55.9627C55.2847 55.2198 55.2847 37.0834 55.2847 37.0834C55.2889 36.719 55.2191 36.3576 55.0794 36.0207C54.9398 35.6838 54.7332 35.3784 54.4721 35.1228C54.211 34.8671 53.9007 34.6665 53.5597 34.5329C53.2188 34.3992 52.8542 34.3354 52.4878 34.3451Z" fill="black"/>
</g>
<path d="M10 2H70V-2H10V2ZM78 10V70H82V10H78ZM70 78H10V82H70V78ZM2 70V10H-2V70H2ZM10 78C5.58172 78 2 74.4183 2 70H-2C-2 76.6274 3.37258 82 10 82V78ZM78 70C78 74.4183 74.4183 78 70 78V82C76.6274 82 82 76.6274 82 70H78ZM70 2C74.4183 2 78 5.58172 78 10H82C82 3.37258 76.6274 -2 70 -2V2ZM10 -2C3.37258 -2 -2 3.37258 -2 10H2C2 5.58172 5.58172 2 10 2V-2Z" fill="black"/>
<defs>
<clipPath id="clip0_1_197">
<rect width="48" height="62" fill="white" transform="translate(16 9)"/>
</clipPath>
</defs>
</svg>
