<svg width="80" height="80" viewBox="0 0 80 80" xmlns="http://www.w3.org/2000/svg">
<g clip-path="url(#clip0_1_207)">
<path d="M48.9593 45.9954C48.9596 45.79 48.9198 45.5866 48.8421 45.3968C48.7644 45.207 48.6504 45.0345 48.5064 44.8892C48.3625 44.7439 48.1916 44.6286 48.0034 44.5499C47.8153 44.4712 47.6136 44.4308 47.4098 44.4308H24.9179C24.7088 44.4218 24.4999 44.4556 24.3041 44.5302C24.1082 44.6047 23.9293 44.7184 23.7782 44.8645C23.627 45.0105 23.5068 45.1859 23.4246 45.38C23.3424 45.5741 23.3001 45.7829 23.3001 45.994C23.3001 46.205 23.3424 46.4139 23.4246 46.608C23.5068 46.8021 23.627 46.9774 23.7782 47.1235C23.9293 47.2695 24.1082 47.3832 24.3041 47.4577C24.4999 47.5323 24.7088 47.5661 24.9179 47.5572H47.4098C47.8208 47.5572 48.2149 47.3926 48.5055 47.0997C48.796 46.8068 48.9593 46.4096 48.9593 45.9954Z" fill="black"/>
<path d="M55.5486 31.0573C55.7291 31.0596 55.9055 31.0026 56.0512 30.895L61.5881 26.8757L60.6967 29.4395C60.6427 29.6519 60.6702 29.8769 60.7736 30.0698C60.8771 30.2626 61.0489 30.409 61.2547 30.4797C61.4606 30.5504 61.6853 30.5402 61.884 30.4511C62.0828 30.3621 62.2408 30.2007 62.3267 29.9993L64.1038 24.9164C64.1457 24.7797 64.1558 24.6352 64.1333 24.4939C64.1108 24.3527 64.0564 24.2186 63.9743 24.1019C63.8921 23.9853 63.7844 23.8893 63.6595 23.8213C63.5347 23.7534 63.3959 23.7153 63.2541 23.7101L57.8755 23.7772C57.6465 23.7772 57.4268 23.869 57.2649 24.0322C57.1029 24.1954 57.0119 24.4169 57.0119 24.6477C57.0119 24.8786 57.1029 25.1 57.2649 25.2632C57.4268 25.4265 57.6465 25.5182 57.8755 25.5182L60.5801 25.4762L55.0432 29.4843C54.8953 29.5921 54.7852 29.7443 54.7285 29.9191C54.6718 30.094 54.6714 30.2824 54.7276 30.4574C54.7837 30.6324 54.8934 30.785 55.0409 30.8933C55.1884 31.0016 55.3661 31.06 55.5486 31.0601V31.0573Z" fill="black"/>
<path d="M21.0999 54.0983L15.563 58.1092L16.4543 55.5454C16.4953 55.4367 16.5143 55.3208 16.5101 55.2045C16.506 55.0883 16.4787 54.9741 16.43 54.8686C16.3813 54.7632 16.3121 54.6686 16.2266 54.5906C16.141 54.5125 16.0408 54.4526 15.9318 54.4142C15.8229 54.3759 15.7074 54.3599 15.5923 54.3673C15.4771 54.3747 15.3646 54.4053 15.2613 54.4572C15.1581 54.5092 15.0662 54.5815 14.9912 54.6698C14.9161 54.7582 14.8594 54.8608 14.8243 54.9716L13.0472 60.0881C13.0038 60.2253 12.9925 60.3708 13.0142 60.5131C13.036 60.6554 13.0901 60.7907 13.1724 60.9084C13.2548 61.0261 13.363 61.123 13.4887 61.1914C13.6144 61.2598 13.7541 61.298 13.8969 61.3029L19.2727 61.2357C19.5018 61.2357 19.7214 61.144 19.8834 60.9807C20.0453 60.8175 20.1363 60.5961 20.1363 60.3652C20.1363 60.1343 20.0453 59.9129 19.8834 59.7497C19.7214 59.5864 19.5018 59.4947 19.2727 59.4947L16.582 59.5283L22.1162 55.5202C22.2982 55.384 22.4199 55.181 22.4548 54.9552C22.4897 54.7294 22.4351 54.4987 22.3027 54.3132C22.1704 54.1276 21.9709 54.0019 21.7474 53.9633C21.5239 53.9246 21.2943 53.9762 21.1082 54.1067L21.0999 54.0983Z" fill="black"/>
<path d="M33.4843 42.8689C35.2262 42.8742 36.9403 42.4284 38.4622 41.5741C39.9841 40.7198 41.2628 39.4858 42.1756 37.9903C42.3383 37.7261 42.3903 37.4075 42.32 37.1046C42.2497 36.8017 42.0629 36.5394 41.8007 36.3753C41.5385 36.2113 41.2225 36.1589 40.922 36.2298C40.6215 36.3007 40.3613 36.4889 40.1985 36.7532C39.5836 37.7548 38.7558 38.6064 37.7749 39.2465C36.7939 39.8866 35.6843 40.2993 34.5259 40.4549C33.3676 40.6104 32.1895 40.5049 31.0765 40.1459C29.9635 39.7869 28.9434 39.1834 28.0898 38.379C27.2363 37.5745 26.5704 36.5892 26.1403 35.494C25.7103 34.3987 25.5267 33.221 25.6028 32.0456C25.679 30.8702 26.013 29.7265 26.5807 28.6969C27.1485 27.6674 27.9358 26.7777 28.8859 26.092C29.0223 26.008 29.1401 25.8965 29.2319 25.7646C29.3237 25.6327 29.3876 25.4831 29.4195 25.3252C29.4514 25.1674 29.4506 25.0045 29.4174 24.8469C29.3841 24.6893 29.3189 24.5403 29.226 24.4093C29.133 24.2782 29.0143 24.1678 28.8771 24.085C28.74 24.0022 28.5874 23.9488 28.4288 23.9281C28.2703 23.9074 28.1092 23.9199 27.9557 23.9647C27.8022 24.0095 27.6594 24.0858 27.5364 24.1887C25.7777 25.4601 24.4647 27.2613 23.7863 29.3329C23.108 31.4045 23.0993 33.6396 23.7615 35.7165C24.4237 37.7934 25.7227 39.6049 27.4714 40.8902C29.2201 42.1756 31.3284 42.8684 33.4926 42.8689H33.4843Z" fill="black"/>
<path d="M33.0317 17.6699C32.2617 17.7104 31.5393 18.0576 31.0232 18.6349C30.5072 19.2123 30.2398 19.9727 30.2799 20.7488L30.7242 29.3248V29.3612C30.7628 30.1141 31.088 30.8229 31.6321 31.3401C32.1763 31.8574 32.8974 32.1431 33.6453 32.1377H41.5147L43.875 38.6705C43.9981 39.0088 44.2212 39.301 44.5141 39.5077C44.807 39.7144 45.1557 39.8256 45.5133 39.8265C45.6254 39.827 45.7371 39.8148 45.8465 39.7901C45.9202 39.7793 45.9927 39.7615 46.0631 39.7369L49.1675 38.5977C49.3112 38.5444 49.443 38.4631 49.5555 38.3585C49.668 38.2538 49.759 38.1278 49.8232 37.9877C49.8874 37.8477 49.9236 37.6962 49.9297 37.542C49.9359 37.3878 49.9118 37.2339 49.8589 37.0891C49.8061 36.9443 49.7254 36.8114 49.6216 36.698C49.5177 36.5846 49.3928 36.4929 49.2538 36.4282C49.1148 36.3634 48.9646 36.327 48.8116 36.3208C48.6586 36.3146 48.5059 36.3388 48.3623 36.3921L46.9433 36.9127C46.9433 36.9127 44.3443 29.7054 44.2887 29.5767C44.2612 29.5145 44.2306 29.4538 44.1971 29.3947C44.0387 29.1061 43.8066 28.8655 43.5249 28.6977C43.2432 28.5298 42.9221 28.441 42.5949 28.4403H36.4971L36.3832 26.2207H41.4397C41.7483 26.2207 42.0443 26.0972 42.2624 25.8772C42.4806 25.6573 42.6032 25.359 42.6032 25.048C42.6032 24.7369 42.4806 24.4386 42.2624 24.2187C42.0443 23.9988 41.7483 23.8752 41.4397 23.8752H36.2583L36.0889 20.5668C36.0889 20.5276 36.0889 20.4913 36.0889 20.4521C36.0697 20.0669 35.9754 19.6894 35.8113 19.3411C35.6472 18.9927 35.4165 18.6804 35.1326 18.422C34.8486 18.1636 34.5169 17.9642 34.1564 17.8351C33.7959 17.7061 33.4137 17.6499 33.0317 17.6699Z" fill="black"/>
<path d="M33.3094 16.8582C33.8836 16.8281 34.4361 16.627 34.897 16.2803C35.3578 15.9337 35.7063 15.4571 35.8985 14.9108C36.0906 14.3645 36.1177 13.773 35.9763 13.2112C35.8349 12.6493 35.5314 12.1424 35.1042 11.7544C34.677 11.3665 34.1452 11.1149 33.5762 11.0316C33.0071 10.9483 32.4263 11.0369 31.9072 11.2863C31.3882 11.5357 30.9541 11.9347 30.66 12.4328C30.3659 12.9308 30.2249 13.5056 30.2549 14.0845C30.2951 14.8605 30.6395 15.5887 31.2123 16.1089C31.7851 16.6291 32.5394 16.8986 33.3094 16.8582Z" fill="black"/>
<path d="M66.7251 38.0715C66.6392 37.9833 66.5368 37.9132 66.4238 37.8652C66.3109 37.8171 66.1896 37.7921 66.067 37.7916H59.4694C59.2227 37.7916 58.986 37.8904 58.8116 38.0663C58.6371 38.2421 58.5391 38.4806 58.5391 38.7293V43.6694H52.2053C51.9586 43.6694 51.722 43.7682 51.5475 43.9441C51.3731 44.1199 51.2751 44.3584 51.2751 44.6071V49.5472H44.9357C44.689 49.5472 44.4524 49.646 44.2779 49.8219C44.1035 49.9977 44.0055 50.2362 44.0055 50.4849V55.3971H37.6661C37.5437 55.3967 37.4225 55.4207 37.3093 55.4676C37.1961 55.5146 37.0932 55.5836 37.0065 55.6707C36.9199 55.7578 36.8511 55.8613 36.8042 55.9753C36.7573 56.0892 36.7331 56.2114 36.7331 56.3347V61.2609H30.3937C30.2715 61.2611 30.1505 61.286 30.038 61.3341C29.9255 61.3822 29.8236 61.4524 29.7384 61.5408C29.651 61.6275 29.5815 61.7307 29.5339 61.8445C29.4862 61.9584 29.4614 62.0806 29.4607 62.2041V68.0819C29.4607 68.3306 29.5587 68.5691 29.7332 68.745C29.9076 68.9208 30.1442 69.0196 30.3909 69.0196H66.067C66.3137 69.0196 66.5503 68.9208 66.7248 68.745C66.8992 68.5691 66.9972 68.3306 66.9972 68.0819V38.7461C66.9989 38.621 66.9757 38.4969 66.929 38.381C66.8822 38.2651 66.8129 38.1599 66.7251 38.0715Z" fill="black"/>
</g>
<path d="M10 2H70V-2H10V2ZM78 10V70H82V10H78ZM70 78H10V82H70V78ZM2 70V10H-2V70H2ZM10 78C5.58172 78 2 74.4183 2 70H-2C-2 76.6274 3.37258 82 10 82V78ZM78 70C78 74.4183 74.4183 78 70 78V82C76.6274 82 82 76.6274 82 70H78ZM70 2C74.4183 2 78 5.58172 78 10H82C82 3.37258 76.6274 -2 70 -2V2ZM10 -2C3.37258 -2 -2 3.37258 -2 10H2C2 5.58172 5.58172 2 10 2V-2Z" fill="black"/>
<defs>
<clipPath id="clip0_1_207">
<rect width="54" height="58" fill="white" transform="translate(13 11)"/>
</clipPath>
</defs>
</svg>
