<svg width="80" height="80" viewBox="0 0 80 80" xmlns="http://www.w3.org/2000/svg">
<g clip-path="url(#clip0_1_190)">
<path fill-rule="evenodd" clip-rule="evenodd" d="M15.0495 59.2478V52.8956V45.1823H22.7627H29.1133V38.8301V31.1168H36.8247H43.1753V24.7646V17.0496H50.8867H64.9487V24.7646H50.8867V31.1168V38.8301H43.1753H36.8247V45.1823V52.8956H29.1133H22.7627V59.2478V62.9044L15.0495 62.9487V59.2478Z" fill="black" stroke="black" stroke-width="0.57" stroke-miterlimit="22.93"/>
</g>
<path d="M10 2H70V-2H10V2ZM78 10V70H82V10H78ZM70 78H10V82H70V78ZM2 70V10H-2V70H2ZM10 78C5.58172 78 2 74.4183 2 70H-2C-2 76.6274 3.37258 82 10 82V78ZM78 70C78 74.4183 74.4183 78 70 78V82C76.6274 82 82 76.6274 82 70H78ZM70 2C74.4183 2 78 5.58172 78 10H82C82 3.37258 76.6274 -2 70 -2V2ZM10 -2C3.37258 -2 -2 3.37258 -2 10H2C2 5.58172 5.58172 2 10 2V-2Z" fill="black"/>
<defs>
<clipPath id="clip0_1_190">
<rect width="50" height="46" fill="white" transform="translate(15 17)"/>
</clipPath>
</defs>
</svg>
