<svg width="80" height="80" viewBox="0 0 80 80" xmlns="http://www.w3.org/2000/svg">
<g clip-path="url(#clip0_1_213)">
<path d="M10.8633 19.499C10.3664 19.499 9.88993 19.6952 9.5386 20.0445C9.18727 20.3938 8.9899 20.8675 8.9899 21.3614V56.0165C8.97919 56.2679 9.01977 56.5189 9.10917 56.7543C9.19858 56.9898 9.33497 57.2048 9.51014 57.3865C9.68531 57.5681 9.89564 57.7127 10.1285 57.8114C10.3613 57.9102 10.6118 57.9611 10.865 57.9611C11.1181 57.9611 11.3686 57.9102 11.6015 57.8114C11.8343 57.7127 12.0446 57.5681 12.2198 57.3865C12.395 57.2048 12.5314 56.9898 12.6208 56.7543C12.7102 56.5189 12.7508 56.2679 12.74 56.0165V21.3614C12.74 21.1166 12.6915 20.8741 12.5971 20.6479C12.5028 20.4218 12.3645 20.2163 12.1902 20.0433C12.0158 19.8703 11.8089 19.7332 11.5812 19.6398C11.3536 19.5464 11.1096 19.4986 10.8633 19.499Z" fill="black"/>
<path d="M69.1232 19.499C68.8769 19.4986 68.633 19.5464 68.4053 19.6398C68.1776 19.7332 67.9707 19.8703 67.7964 20.0433C67.6221 20.2163 67.4838 20.4218 67.3894 20.6479C67.2951 20.8741 67.2465 21.1166 67.2465 21.3614V56.0165C67.2358 56.2679 67.2764 56.5189 67.3658 56.7543C67.4552 56.9898 67.5916 57.2048 67.7667 57.3865C67.9419 57.5681 68.1522 57.7127 68.3851 57.8114C68.6179 57.9102 68.8684 57.9611 69.1216 57.9611C69.3747 57.9611 69.6252 57.9102 69.8581 57.8114C70.0909 57.7127 70.3012 57.5681 70.4764 57.3865C70.6516 57.2048 70.788 56.9898 70.8774 56.7543C70.9668 56.5189 71.0073 56.2679 70.9966 56.0165V21.3614C70.9966 20.8675 70.7993 20.3938 70.4479 20.0445C70.0966 19.6952 69.6201 19.499 69.1232 19.499Z" fill="black"/>
<path d="M63.4964 49.8685H16.4936C16.2407 49.8578 15.9882 49.8982 15.7514 49.987C15.5146 50.0759 15.2983 50.2115 15.1155 50.3857C14.9328 50.5598 14.7874 50.7689 14.688 51.0004C14.5887 51.2318 14.5375 51.4809 14.5375 51.7325C14.5375 51.9842 14.5887 52.2333 14.688 52.4647C14.7874 52.6962 14.9328 52.9053 15.1155 53.0794C15.2983 53.2536 15.5146 53.3892 15.7514 53.4781C15.9882 53.5669 16.2407 53.6073 16.4936 53.5966H63.4964C63.9799 53.5763 64.4369 53.371 64.7718 53.0236C65.1068 52.6763 65.2938 52.2137 65.2938 51.7325C65.2938 51.2514 65.1068 50.7888 64.7718 50.4414C64.4369 50.0941 63.9799 49.8888 63.4964 49.8685Z" fill="black"/>
<path d="M34.8079 55.9364C34.7079 55.7954 34.5742 55.6814 34.4189 55.6045C34.2636 55.5276 34.0916 55.4902 33.9182 55.4958C33.744 55.4885 33.5708 55.525 33.4147 55.602C33.2586 55.679 33.1246 55.7941 33.0251 55.9364L29.2985 61.2332C29.1894 61.3886 29.1252 61.5707 29.1128 61.7598C29.1003 61.9489 29.1402 62.1377 29.2281 62.3058C29.3159 62.474 29.4484 62.615 29.6111 62.7136C29.7739 62.8123 29.9606 62.8647 30.1512 62.8654C30.3192 62.8648 30.4847 62.8242 30.6336 62.747C30.7826 62.6697 30.9107 62.5581 31.0074 62.4215L32.874 59.7714V67.9653C32.874 68.2406 32.984 68.5047 33.1799 68.6993C33.3757 68.894 33.6413 69.0033 33.9182 69.0033C34.1951 69.0033 34.4607 68.894 34.6565 68.6993C34.8523 68.5047 34.9623 68.2406 34.9623 67.9653V59.768L36.829 62.4215C36.9936 62.631 37.2327 62.7698 37.4972 62.8092C37.7617 62.8486 38.0313 62.7857 38.2504 62.6333C38.4696 62.4809 38.6216 62.2508 38.6751 61.9903C38.7285 61.7298 38.6794 61.4588 38.5379 61.2332L34.8079 55.9364Z" fill="black"/>
<path d="M50.443 61.8207C50.2681 61.6982 50.0593 61.6329 49.8454 61.6338C49.6776 61.6337 49.5123 61.6737 49.3633 61.7503C49.2143 61.827 49.086 61.9381 48.9893 62.0743L47.1226 64.7278V56.5338C47.1306 56.3928 47.1096 56.2516 47.0609 56.1189C47.0121 55.9862 46.9367 55.8648 46.8391 55.7621C46.7415 55.6594 46.6238 55.5776 46.4933 55.5217C46.3628 55.4658 46.2222 55.437 46.0801 55.437C45.938 55.437 45.7974 55.4658 45.6669 55.5217C45.5364 55.5776 45.4188 55.6594 45.3212 55.7621C45.2236 55.8648 45.1481 55.9862 45.0994 56.1189C45.0506 56.2516 45.0296 56.3928 45.0377 56.5338V64.7278L43.1676 62.0743C43.0909 61.9582 42.9914 61.8586 42.8752 61.7814C42.759 61.7042 42.6284 61.6509 42.4911 61.6248C42.3538 61.5988 42.2126 61.6003 42.076 61.6295C41.9393 61.6586 41.8099 61.7148 41.6955 61.7946C41.5811 61.8744 41.4839 61.9762 41.4098 62.094C41.3357 62.2118 41.2861 62.3432 41.264 62.4804C41.2419 62.6177 41.2478 62.7579 41.2813 62.8928C41.3147 63.0277 41.3751 63.1546 41.4587 63.2659L45.1888 68.5594C45.293 68.6963 45.4277 68.8074 45.5824 68.8838C45.737 68.9602 45.9074 69 46.0801 69C46.2528 69 46.4232 68.9602 46.5779 68.8838C46.7325 68.8074 46.8672 68.6963 46.9715 68.5594L50.6981 63.2659C50.7772 63.1545 50.8334 63.0286 50.8633 62.8955C50.8933 62.7625 50.8965 62.6248 50.8728 62.4905C50.8491 62.3562 50.7989 62.2279 50.7252 62.1129C50.6514 61.998 50.5555 61.8987 50.443 61.8207Z" fill="black"/>
<path d="M36.134 48.0027C38.2402 48.0094 40.3128 47.4778 42.153 46.4591C43.9931 45.4404 45.5391 43.9687 46.6425 42.1852C46.8239 41.8705 46.8752 41.4982 46.7857 41.1466C46.6962 40.7951 46.4728 40.4918 46.1627 40.3009C45.8526 40.11 45.48 40.0462 45.1236 40.1232C44.7671 40.2001 44.4546 40.4117 44.2521 40.7132C43.5079 41.9067 42.5068 42.9211 41.3207 43.6835C40.1346 44.4458 38.7932 44.9371 37.3931 45.1219C35.993 45.3067 34.569 45.1804 33.224 44.7521C31.8789 44.3238 30.6461 43.6042 29.6146 42.6451C28.583 41.686 27.7783 40.5114 27.2584 39.2058C26.7386 37.9003 26.5166 36.4963 26.6084 35.0952C26.7002 33.694 27.1035 32.3306 27.7893 31.1031C28.4751 29.8756 29.4263 28.8147 30.5743 27.9967C30.7308 27.8922 30.8646 27.7575 30.9677 27.6006C31.0708 27.4437 31.1412 27.2678 31.1745 27.0833C31.2079 26.8989 31.2037 26.7096 31.162 26.5268C31.1204 26.344 31.0422 26.1714 30.9321 26.0192C30.8221 25.8671 30.6823 25.7384 30.5213 25.641C30.3602 25.5436 30.1811 25.4793 29.9946 25.4521C29.808 25.4248 29.6179 25.4351 29.4355 25.4824C29.253 25.5296 29.082 25.6128 28.9325 25.7271C26.8062 27.2433 25.2186 29.3911 24.3984 31.8614C23.5782 34.3317 23.5677 36.9971 24.3684 39.4737C25.169 41.9503 26.7396 44.1105 28.8539 45.6432C30.9683 47.1759 33.5173 48.0021 36.134 48.0027Z" fill="black"/>
<path d="M35.5868 17.957C35.1256 17.9805 34.6735 18.0941 34.2565 18.2914C33.8395 18.4886 33.4656 18.7657 33.1563 19.1066C32.847 19.4476 32.6083 19.8458 32.4539 20.2785C32.2995 20.7112 32.2323 21.1699 32.2563 21.6284L32.7935 31.8551V31.8984C32.8401 32.7945 33.2319 33.6383 33.8877 34.2548C34.5435 34.8713 35.4128 35.2132 36.3154 35.2094H45.8334L48.6872 42.9995C48.8343 43.4044 49.1034 43.7544 49.4579 44.0017C49.8124 44.2489 50.2349 44.3815 50.668 44.3813C50.8034 44.3801 50.9383 44.3656 51.0709 44.3379C51.1593 44.3256 51.246 44.3032 51.3294 44.2712L55.0829 42.9128C55.2649 42.857 55.4336 42.765 55.5789 42.6425C55.7241 42.52 55.8428 42.3694 55.9277 42.1999C56.0126 42.0304 56.0621 41.8455 56.073 41.6565C56.0839 41.4674 56.0561 41.2782 55.9912 41.1001C55.9264 40.9221 55.8258 40.759 55.6957 40.6207C55.5655 40.4825 55.4085 40.3719 55.2341 40.2958C55.0597 40.2197 54.8715 40.1796 54.6811 40.1779C54.4906 40.1762 54.3018 40.213 54.126 40.286L52.4071 40.9068C52.4071 40.9068 49.268 32.3123 49.2008 32.1621C49.2008 32.1621 49.1102 31.9752 49.0766 31.9218C48.8845 31.5781 48.6038 31.2915 48.2633 31.0915C47.9229 30.8914 47.5349 30.7852 47.1394 30.7837H39.7768L39.6358 28.1402H45.7495C45.9402 28.1495 46.1309 28.1201 46.3098 28.0539C46.4888 27.9878 46.6524 27.8861 46.7907 27.7552C46.929 27.6243 47.0391 27.4668 47.1143 27.2923C47.1896 27.1178 47.2283 26.9299 47.2283 26.7401C47.2283 26.5502 47.1896 26.3624 47.1143 26.1879C47.0391 26.0134 46.929 25.8559 46.7907 25.7249C46.6524 25.594 46.4888 25.4924 46.3098 25.4262C46.1309 25.36 45.9402 25.3307 45.7495 25.3399H39.488L39.2799 21.3948C39.2799 21.3514 39.2799 21.3047 39.2799 21.2613C39.2558 20.8032 39.1412 20.3543 38.9425 19.9403C38.7439 19.5262 38.4651 19.1552 38.1221 18.8483C37.7792 18.5414 37.3787 18.3048 36.9437 18.1518C36.5087 17.9989 36.0476 17.9327 35.5868 17.957Z" fill="black"/>
<path d="M35.9225 16.9891C36.6167 16.9532 37.2846 16.7135 37.8418 16.3003C38.399 15.8871 38.8204 15.319 39.0528 14.6677C39.2852 14.0164 39.3182 13.3113 39.1476 12.6414C38.9769 11.9715 38.6103 11.3669 38.0941 10.9041C37.5779 10.4413 36.9353 10.1411 36.2474 10.0413C35.5596 9.94155 34.8574 10.0468 34.2298 10.3437C33.6021 10.6406 33.077 11.1158 32.721 11.7093C32.3649 12.3028 32.1939 12.988 32.2295 13.6781C32.2531 14.1366 32.3674 14.586 32.5658 15.0006C32.7642 15.4152 33.0429 15.7869 33.3859 16.0944C33.7288 16.4019 34.1294 16.6391 34.5646 16.7926C34.9999 16.9462 35.4613 17.0129 35.9225 16.9891Z" fill="black"/>
</g>
<path d="M10 2H70V-2H10V2ZM78 10V70H82V10H78ZM70 78H10V82H70V78ZM2 70V10H-2V70H2ZM10 78C5.58172 78 2 74.4183 2 70H-2C-2 76.6274 3.37258 82 10 82V78ZM78 70C78 74.4183 74.4183 78 70 78V82C76.6274 82 82 76.6274 82 70H78ZM70 2C74.4183 2 78 5.58172 78 10H82C82 3.37258 76.6274 -2 70 -2V2ZM10 -2C3.37258 -2 -2 3.37258 -2 10H2C2 5.58172 5.58172 2 10 2V-2Z" fill="black"/>
<defs>
<clipPath id="clip0_1_213">
<rect width="62" height="59" fill="white" transform="translate(9 10)"/>
</clipPath>
</defs>
</svg>
