<svg width="80" height="80" viewBox="0 0 80 80" xmlns="http://www.w3.org/2000/svg">
<g clip-path="url(#clip0_1_208)">
<path d="M49.1705 49.3409C49.3425 49.8044 49.6059 50.2301 49.9456 50.5937C50.2853 50.9573 50.6946 51.2517 51.1503 51.46C51.6059 51.6684 52.0989 51.7867 52.6011 51.808C53.1033 51.8294 53.6048 51.7536 54.0771 51.5847C54.5494 51.4159 54.9832 51.1574 55.3538 50.8241C55.7243 50.4907 56.0243 50.089 56.2366 49.6419C56.4489 49.1948 56.5694 48.711 56.5912 48.2182C56.613 47.7254 56.5357 47.2332 56.3637 46.7697L44.7863 15.5473C44.5282 14.8507 44.0659 14.2446 43.4577 13.8052C42.8495 13.3658 42.1224 13.1127 41.368 13.0777C41.1113 13.026 40.85 12.9999 40.588 13H34.7232C34.2114 12.9858 33.7019 13.0725 33.2248 13.2549C32.7477 13.4374 32.3128 13.7118 31.9456 14.062C31.5785 14.4123 31.2867 14.8312 31.0874 15.294C30.8882 15.7569 30.7855 16.2542 30.7855 16.7567C30.7855 17.2591 30.8882 17.7565 31.0874 18.2193C31.2867 18.6821 31.5785 19.1011 31.9456 19.4513C32.3128 19.8015 32.7477 20.076 33.2248 20.2584C33.7019 20.4408 34.2114 20.5275 34.7232 20.5133H38.4767L42.2149 30.556L31.1342 32.4725C30.4445 32.5922 29.8015 32.8952 29.275 33.3485C28.7486 33.8019 28.359 34.3882 28.1485 35.0437C28.1149 35.1215 28.0814 35.1992 28.051 35.2799L23.9654 46.8444C23.7947 47.3124 23.7202 47.8089 23.7464 48.3053C23.7725 48.8017 23.8988 49.288 24.1178 49.7362C24.3368 50.1844 24.6442 50.5855 25.0223 50.9162C25.4003 51.247 25.8415 51.5009 26.3202 51.6633C26.7989 51.8256 27.3057 51.8931 27.8112 51.8619C28.3167 51.8307 28.8109 51.7015 29.2651 51.4816C29.7194 51.2617 30.1246 50.9556 30.4575 50.5809C30.7904 50.2063 31.0442 49.7706 31.2043 49.299L34.6592 39.4925L44.8625 37.7256L49.1705 49.3409Z" fill="black"/>
<path d="M24.3797 53.4758C23.1178 53.4787 21.8852 53.8487 20.8375 54.5388C19.7898 55.229 18.9741 56.2085 18.4934 57.3534C18.0127 58.4984 17.8887 59.7575 18.1369 60.9716C18.3852 62.1857 18.9946 63.3004 19.8881 64.1747C20.7817 65.0491 21.9193 65.6439 23.1572 65.8841C24.3951 66.1242 25.6778 65.9989 26.8431 65.5239C28.0085 65.0489 29.0043 64.2456 29.7046 63.2155C30.4049 62.1854 30.7783 60.9747 30.7777 59.7364C30.7773 58.9128 30.6114 58.0974 30.2895 57.3369C29.9676 56.5763 29.4961 55.8855 28.9018 55.304C28.3075 54.7225 27.6022 54.2617 26.8263 53.948C26.0503 53.6343 25.2189 53.4738 24.3797 53.4758Z" fill="black"/>
<path d="M55.6203 53.4758C54.3576 53.4752 53.1232 53.8421 52.0731 54.5301C51.023 55.2182 50.2044 56.1964 49.7209 57.341C49.2374 58.4857 49.1108 59.7453 49.357 60.9606C49.6031 62.1759 50.2111 63.2923 51.1039 64.1684C51.9968 65.0446 53.1343 65.6412 54.3728 65.8828C55.6112 66.1244 56.8948 66.0001 58.0612 65.5256C59.2277 65.0512 60.2245 64.2479 60.9256 63.2174C61.6267 62.1869 62.0006 60.9755 62 59.7364C61.9952 58.0774 61.3215 56.4878 60.1261 55.3147C58.9307 54.1416 57.3108 53.4805 55.6203 53.4758Z" fill="black"/>
</g>
<path d="M10 2H70V-2H10V2ZM78 10V70H82V10H78ZM70 78H10V82H70V78ZM2 70V10H-2V70H2ZM10 78C5.58172 78 2 74.4183 2 70H-2C-2 76.6274 3.37258 82 10 82V78ZM78 70C78 74.4183 74.4183 78 70 78V82C76.6274 82 82 76.6274 82 70H78ZM70 2C74.4183 2 78 5.58172 78 10H82C82 3.37258 76.6274 -2 70 -2V2ZM10 -2C3.37258 -2 -2 3.37258 -2 10H2C2 5.58172 5.58172 2 10 2V-2Z" fill="black"/>
<defs>
<clipPath id="clip0_1_208">
<rect width="44" height="53" fill="white" transform="translate(18 13)"/>
</clipPath>
</defs>
</svg>
