<svg width="80" height="80" viewBox="0 0 80 80" xmlns="http://www.w3.org/2000/svg">
<g clip-path="url(#clip0_1_192)">
<path d="M23.249 53.6253C21.9325 53.6247 20.6455 54.0165 19.5506 54.7513C18.4558 55.486 17.6024 56.5307 17.0983 57.753C16.5942 58.9754 16.4622 60.3206 16.7188 61.6184C16.9755 62.9163 17.6094 64.1084 18.5402 65.0441C19.4711 65.9797 20.6571 66.6168 21.9483 66.8748C23.2395 67.1328 24.5778 67.0001 25.7939 66.4934C27.01 65.9868 28.0493 65.1289 28.7803 64.0284C29.5113 62.928 29.9011 61.6343 29.9005 60.3111C29.9005 58.5379 29.1997 56.8374 27.9523 55.5835C26.7049 54.3297 25.0131 53.6253 23.249 53.6253Z" fill="black"/>
<path d="M63.3453 53.4401C62.0298 53.4433 60.7448 53.8383 59.6525 54.5752C58.5603 55.3121 57.7098 56.3579 57.2086 57.5804C56.7073 58.8029 56.5778 60.1473 56.8364 61.4438C57.0949 62.7403 57.73 63.9306 58.6613 64.8645C59.5926 65.7984 60.7783 66.4338 62.0688 66.6906C63.3592 66.9474 64.6964 66.814 65.9115 66.3073C67.1266 65.8006 68.1649 64.9432 68.8955 63.8436C69.626 62.744 70.0159 61.4513 70.0159 60.1291C70.0159 59.2493 69.8432 58.3782 69.5078 57.5656C69.1724 56.7531 68.6808 56.015 68.0612 55.3936C67.4415 54.7723 66.706 54.2799 65.8968 53.9447C65.0876 53.6095 64.2206 53.438 63.3453 53.4401Z" fill="black"/>
<path d="M63.3451 50.7637C64.1124 50.7667 64.8763 50.8654 65.6194 51.0574C65.6194 51.0574 65.6766 51.0574 65.7369 51.0574C65.9737 51.0541 66.1996 50.957 66.3655 50.7872C66.5314 50.6174 66.624 50.3887 66.6232 50.1507C66.6232 50.1124 66.6232 50.0357 66.6232 50.0325L65.2351 42.2932C64.9174 40.4956 63.3578 39.0237 61.5091 39.0237H59.6763L53.2217 21.2557C53.8504 21.0977 54.4001 20.7144 54.7673 20.1777C55.1346 19.6411 55.2942 18.988 55.2162 18.3414C55.1382 17.6948 54.8279 17.099 54.3436 16.6662C53.8593 16.2333 53.2345 15.9931 52.5864 15.9908H43.7432C43.0372 15.9908 42.3602 16.2727 41.861 16.7745C41.3618 17.2762 41.0813 17.9568 41.0813 18.6664C41.0813 19.376 41.3618 20.0565 41.861 20.5583C42.3602 21.0601 43.0372 21.3419 43.7432 21.3419H47.5899L54.0222 39.1004C53.492 39.1998 53.0046 39.4594 52.6249 39.8444C52.2452 40.2295 51.9913 40.7217 51.8971 41.2555L49.2956 56.0574H39.2263L36.4247 48.3276C36.2065 47.7295 35.7828 47.2295 35.2299 46.918C34.6771 46.6065 34.0316 46.504 33.4102 46.629L32.597 44.394H33.6484C34.3544 44.394 35.0315 44.1121 35.5307 43.6104C36.0299 43.1086 36.3103 42.4281 36.3103 41.7185C36.3103 41.0089 36.0299 40.3283 35.5307 39.8265C35.0315 39.3248 34.3544 39.0429 33.6484 39.0429H19.4592L17.7058 29.0302H30.8055C31.5115 29.0302 32.1885 28.7483 32.6877 28.2466C33.1869 27.7448 33.4674 27.0643 33.4674 26.3547C33.4674 25.6451 33.1869 24.9645 32.6877 24.4627C32.1885 23.961 31.5115 23.6791 30.8055 23.6791H16.7656L15.2822 15.2086C15.222 14.8616 15.0943 14.53 14.9063 14.2327C14.7184 13.9355 14.4738 13.6784 14.1868 13.4764C13.8998 13.2743 13.5759 13.1313 13.2338 13.0553C12.8916 12.9794 12.5379 12.9721 12.1929 13.0339C11.8479 13.0957 11.5185 13.2253 11.2235 13.4154C10.9285 13.6054 10.6737 13.8521 10.4738 14.1414C10.2738 14.4307 10.1327 14.7567 10.0584 15.101C9.98419 15.4452 9.97827 15.8007 10.041 16.1472L14.5834 42.0569C14.7337 42.6995 15.0881 43.2755 15.593 43.6978C16.0979 44.12 16.7258 44.3655 17.3818 44.3972H18.4841L19.1193 50.6136C19.1243 50.8457 19.2196 51.0666 19.3846 51.2289C19.5497 51.3913 19.7715 51.4821 20.0024 51.4821C20.081 51.4818 20.1591 51.47 20.2343 51.447L20.2533 51.4629C21.5635 51.0101 22.958 50.8576 24.3344 51.0167C25.7108 51.1757 27.0344 51.6423 28.2082 52.3822C29.382 53.1222 30.3762 54.1166 31.118 55.2929C31.8598 56.4691 32.3304 57.7972 32.4954 59.1799C32.5976 59.8031 32.9164 60.3697 33.395 60.7789C33.8737 61.1882 34.4812 61.4135 35.1096 61.4149H51.4556C52.0712 61.41 52.6662 61.192 53.1407 60.7978C53.6151 60.4035 53.9398 59.857 54.0603 59.2502C54.2807 56.9283 55.3541 54.7724 57.0709 53.2032C58.7877 51.634 61.0246 50.7643 63.3451 50.7637Z" fill="black"/>
</g>
<path d="M10 2H70V-2H10V2ZM78 10V70H82V10H78ZM70 78H10V82H70V78ZM2 70V10H-2V70H2ZM10 78C5.58172 78 2 74.4183 2 70H-2C-2 76.6274 3.37258 82 10 82V78ZM78 70C78 74.4183 74.4183 78 70 78V82C76.6274 82 82 76.6274 82 70H78ZM70 2C74.4183 2 78 5.58172 78 10H82C82 3.37258 76.6274 -2 70 -2V2ZM10 -2C3.37258 -2 -2 3.37258 -2 10H2C2 5.58172 5.58172 2 10 2V-2Z" fill="black"/>
<defs>
<clipPath id="clip0_1_192">
<rect width="60" height="54" fill="white" transform="translate(10 13)"/>
</clipPath>
</defs>
</svg>
