<svg width="80" height="80" viewBox="0 0 80 80" xmlns="http://www.w3.org/2000/svg">
<g clip-path="url(#clip0_1_204)">
<path d="M16.9458 59.5099C16.7137 59.5099 16.4868 59.5778 16.2939 59.7049C16.1009 59.832 15.9505 60.0126 15.8617 60.224C15.7729 60.4354 15.7496 60.668 15.7949 60.8923C15.8402 61.1167 15.9519 61.3228 16.116 61.4846C16.2802 61.6464 16.4892 61.7565 16.7169 61.8012C16.9445 61.8458 17.1804 61.8229 17.3948 61.7353C17.6093 61.6478 17.7925 61.4995 17.9215 61.3093C18.0504 61.1191 18.1192 60.8954 18.1192 60.6667C18.1185 60.3601 17.9946 60.0663 17.7747 59.8495C17.5548 59.6328 17.2568 59.5107 16.9458 59.5099Z" fill="black"/>
<path d="M35.0906 59.5099C34.8585 59.5099 34.6317 59.5778 34.4387 59.7049C34.2457 59.832 34.0953 60.0126 34.0065 60.224C33.9177 60.4354 33.8944 60.668 33.9397 60.8923C33.985 61.1167 34.0968 61.3228 34.2609 61.4846C34.425 61.6464 34.6341 61.7565 34.8617 61.8012C35.0893 61.8458 35.3252 61.8229 35.5397 61.7353C35.7541 61.6478 35.9373 61.4995 36.0663 61.3093C36.1952 61.1191 36.264 60.8954 36.264 60.6667C36.2633 60.3601 36.1394 60.0663 35.9195 59.8495C35.6996 59.6328 35.4016 59.5107 35.0906 59.5099Z" fill="black"/>
<path d="M53.2382 59.5099C53.0062 59.5099 52.7793 59.5778 52.5863 59.7049C52.3934 59.832 52.243 60.0126 52.1541 60.224C52.0653 60.4354 52.0421 60.668 52.0874 60.8923C52.1326 61.1167 52.2444 61.3228 52.4085 61.4846C52.5726 61.6464 52.7817 61.7565 53.0093 61.8012C53.2369 61.8458 53.4729 61.8229 53.6873 61.7353C53.9017 61.6478 54.085 61.4995 54.2139 61.3093C54.3429 61.1191 54.4117 60.8954 54.4117 60.6667C54.4117 60.3599 54.2881 60.0657 54.068 59.8487C53.8479 59.6318 53.5495 59.5099 53.2382 59.5099Z" fill="black"/>
<path d="M68 33.2197C67.9993 32.6884 67.7848 32.179 67.4037 31.8033C67.0225 31.4276 66.5058 31.2162 65.9668 31.2154H50.3229C49.8685 31.2177 49.4283 31.3715 49.0738 31.6516C48.718 31.3718 48.2771 31.2182 47.822 31.2154H32.1808C31.7248 31.2176 31.2827 31.3713 30.9262 31.6516C30.5717 31.3715 30.1315 31.2177 29.6771 31.2154H14.0304C13.4914 31.2162 12.9747 31.4276 12.5935 31.8033C12.2124 32.179 11.9979 32.6884 11.9972 33.2197V49.8723C11.9989 50.3211 12.1549 50.7561 12.4397 51.1063C12.1559 51.4571 12 51.8917 11.9972 52.3404V68.993C11.9972 69.5248 12.2113 70.0349 12.5925 70.4112C12.9738 70.7875 13.4909 70.9993 14.0304 71H29.6743C30.1292 70.998 30.5698 70.8431 30.9234 70.561C31.279 70.8434 31.7214 70.9981 32.178 71H47.8192C48.2748 70.9975 48.7161 70.8428 49.071 70.561C49.4246 70.8431 49.8652 70.998 50.3201 71H65.964C66.5035 70.9993 67.0206 70.7875 67.4019 70.4112C67.7831 70.0349 67.9972 69.5248 67.9972 68.993V52.3404C67.9957 51.8915 67.8397 51.4564 67.5547 51.1063C67.8407 50.7568 67.9968 50.3214 67.9972 49.8723L68 33.2197ZM30.1448 68.993C30.1448 69.1155 30.0956 69.233 30.008 69.3199C29.9204 69.4068 29.8014 69.456 29.6771 69.4568H14.0304C13.9056 69.4568 13.786 69.4079 13.6977 69.3209C13.6095 69.2339 13.5599 69.116 13.5599 68.993V52.3404C13.5607 52.2178 13.6105 52.1006 13.6987 52.0142C13.7869 51.9278 13.9061 51.8793 14.0304 51.8793H29.6743C29.7984 51.8793 29.9173 51.9279 30.005 52.0144C30.0928 52.1008 30.142 52.2181 30.142 52.3404L30.1448 68.993ZM30.1448 49.8723C30.1448 49.9948 30.0956 50.1124 30.008 50.1993C29.9204 50.2862 29.8014 50.3354 29.6771 50.3361H14.0304C13.9056 50.3361 13.786 50.2872 13.6977 50.2002C13.6095 50.1133 13.5599 49.9953 13.5599 49.8723V33.2197C13.5606 33.0969 13.6105 32.9794 13.6985 32.8925C13.7866 32.8057 13.9059 32.7566 14.0304 32.7559H29.6743C29.7986 32.7566 29.9176 32.8058 30.0052 32.8927C30.0928 32.9796 30.142 33.0972 30.142 33.2197L30.1448 49.8723ZM48.2897 68.993C48.2897 69.1155 48.2405 69.233 48.1528 69.3199C48.0652 69.4068 47.9463 69.456 47.822 69.4568H32.1808C32.0561 69.4568 31.9364 69.4079 31.8481 69.3209C31.7599 69.2339 31.7103 69.116 31.7103 68.993V52.3404C31.7111 52.2178 31.761 52.1006 31.8491 52.0142C31.9373 51.9278 32.0565 51.8793 32.1808 51.8793H47.822C47.946 51.8793 48.065 51.9279 48.1527 52.0144C48.2404 52.1008 48.2897 52.2181 48.2897 52.3404V68.993ZM48.2897 49.8723C48.2897 49.9948 48.2405 50.1124 48.1528 50.1993C48.0652 50.2862 47.9463 50.3354 47.822 50.3361H32.1808C32.0561 50.3361 31.9364 50.2872 31.8481 50.2002C31.7599 50.1133 31.7103 49.9953 31.7103 49.8723V33.2197C31.7103 33.0967 31.7599 32.9787 31.8481 32.8917C31.9364 32.8048 32.0561 32.7559 32.1808 32.7559H47.822C47.9463 32.7566 48.0652 32.8058 48.1528 32.8927C48.2405 32.9796 48.2897 33.0972 48.2897 33.2197V49.8723ZM66.4373 68.993C66.4373 69.116 66.3877 69.2339 66.2995 69.3209C66.2112 69.4079 66.0916 69.4568 65.9668 69.4568H50.3229C50.1986 69.456 50.0796 69.4068 49.992 69.3199C49.9044 69.233 49.8552 69.1155 49.8552 68.993V52.3404C49.8552 52.2181 49.9044 52.1008 49.9922 52.0144C50.0799 51.9279 50.1988 51.8793 50.3229 51.8793H65.9668C66.0911 51.8793 66.2103 51.9278 66.2985 52.0142C66.3866 52.1006 66.4365 52.2178 66.4373 52.3404V68.993ZM66.4373 49.8723C66.4373 49.9953 66.3877 50.1133 66.2995 50.2002C66.2112 50.2872 66.0916 50.3361 65.9668 50.3361H50.3229C50.1986 50.3354 50.0796 50.2862 49.992 50.1993C49.9044 50.1124 49.8552 49.9948 49.8552 49.8723V33.2197C49.8552 33.0972 49.9044 32.9796 49.992 32.8927C50.0796 32.8058 50.1986 32.7566 50.3229 32.7559H65.9668C66.0916 32.7559 66.2112 32.8048 66.2995 32.8917C66.3877 32.9787 66.4373 33.0967 66.4373 33.2197V49.8723Z" fill="black"/>
<path d="M16.9458 40.3893C16.7137 40.3893 16.4868 40.4571 16.2939 40.5842C16.1009 40.7113 15.9505 40.892 15.8617 41.1033C15.7729 41.3147 15.7496 41.5473 15.7949 41.7717C15.8402 41.996 15.9519 42.2022 16.116 42.3639C16.2802 42.5257 16.4892 42.6359 16.7169 42.6805C16.9445 42.7251 17.1804 42.7022 17.3948 42.6147C17.6093 42.5271 17.7925 42.3789 17.9215 42.1886C18.0504 41.9984 18.1192 41.7748 18.1192 41.546C18.1185 41.2394 17.9946 40.9456 17.7747 40.7289C17.5548 40.5121 17.2568 40.39 16.9458 40.3893Z" fill="black"/>
<path d="M35.0906 40.3893C34.8585 40.3893 34.6317 40.4571 34.4387 40.5842C34.2457 40.7113 34.0953 40.892 34.0065 41.1033C33.9177 41.3147 33.8944 41.5473 33.9397 41.7717C33.985 41.996 34.0968 42.2022 34.2609 42.3639C34.425 42.5257 34.6341 42.6359 34.8617 42.6805C35.0893 42.7251 35.3252 42.7022 35.5397 42.6147C35.7541 42.5271 35.9373 42.3789 36.0663 42.1886C36.1952 41.9984 36.264 41.7748 36.264 41.546C36.2633 41.2394 36.1394 40.9456 35.9195 40.7289C35.6996 40.5121 35.4016 40.39 35.0906 40.3893Z" fill="black"/>
<path d="M53.2382 40.3893C53.0062 40.3893 52.7793 40.4571 52.5863 40.5842C52.3934 40.7113 52.243 40.892 52.1541 41.1033C52.0653 41.3147 52.0421 41.5473 52.0874 41.7717C52.1326 41.996 52.2444 42.2022 52.4085 42.3639C52.5726 42.5257 52.7817 42.6359 53.0093 42.6805C53.2369 42.7251 53.4729 42.7022 53.6873 42.6147C53.9017 42.5271 54.085 42.3789 54.2139 42.1886C54.3429 41.9984 54.4117 41.7748 54.4117 41.546C54.4117 41.2392 54.2881 40.945 54.068 40.7281C53.8479 40.5111 53.5495 40.3893 53.2382 40.3893Z" fill="black"/>
<path d="M28.9042 26.5774C30.5265 26.5753 32.1175 26.1372 33.5061 25.3103C34.8947 24.4833 36.0283 23.2989 36.785 21.8842H37.9864C38.2151 21.885 38.4412 21.8359 38.6484 21.7404C38.8556 21.645 39.0389 21.5055 39.185 21.3321L40.9214 19.2892L42.781 21.4619C42.9276 21.6337 43.1107 21.7719 43.3173 21.8667C43.5238 21.9615 43.7489 22.0106 43.9768 22.0106C44.2047 22.0106 44.4298 21.9615 44.6363 21.8667C44.8429 21.7719 45.0259 21.6337 45.1726 21.4619L47.035 19.2837L48.8974 21.4619C49.0441 21.6337 49.2271 21.7719 49.4337 21.8667C49.6403 21.9615 49.8654 22.0106 50.0932 22.0106C50.3211 22.0106 50.5462 21.9615 50.7528 21.8667C50.9593 21.7719 51.1424 21.6337 51.2891 21.4619L53.1766 19.2533L55.1006 21.4977C55.2467 21.6699 55.4291 21.8085 55.6352 21.9039C55.8413 21.9992 56.066 22.0491 56.2937 22.0499C56.485 22.0486 56.6746 22.014 56.8538 21.9477C57.1849 21.831 57.4663 21.6072 57.6519 21.3128L59.4835 18.4306C59.841 18.0295 60.0255 17.5068 59.9978 16.9736C59.9701 16.4404 59.7323 15.9389 59.3351 15.576L57.3607 13.6021C57.2147 13.4554 57.0403 13.339 56.8479 13.2598C56.6555 13.1806 56.4489 13.1402 56.2404 13.1411H36.4489C35.6253 11.8465 34.4734 10.7862 33.1069 10.0649C31.7403 9.34356 30.2065 8.98622 28.657 9.02817C27.1075 9.07012 25.5959 9.5099 24.2716 10.3041C22.9473 11.0982 21.8561 12.2193 21.1059 13.5565C20.3556 14.8936 19.9723 16.4006 19.9938 17.9285C20.0154 19.4564 20.4409 20.9523 21.2285 22.2685C22.0161 23.5846 23.1384 24.6754 24.4845 25.433C25.8307 26.1907 27.3541 26.5889 28.9042 26.5885V26.5774ZM25.8516 15.8521C26.2393 15.8521 26.6183 15.9654 26.9407 16.1778C27.2631 16.3901 27.5144 16.6919 27.6627 17.0451C27.8111 17.3982 27.8499 17.7867 27.7743 18.1616C27.6987 18.5365 27.5119 18.8808 27.2378 19.1511C26.9636 19.4213 26.6143 19.6054 26.234 19.6799C25.8537 19.7545 25.4596 19.7162 25.1014 19.57C24.7431 19.4237 24.437 19.176 24.2216 18.8582C24.0062 18.5404 23.8912 18.1668 23.8912 17.7846C23.8912 17.2721 24.0977 16.7805 24.4654 16.4181C24.833 16.0557 25.3316 15.8521 25.8516 15.8521Z" fill="black"/>
</g>
<path d="M10 2H70V-2H10V2ZM78 10V70H82V10H78ZM70 78H10V82H70V78ZM2 70V10H-2V70H2ZM10 78C5.58172 78 2 74.4183 2 70H-2C-2 76.6274 3.37258 82 10 82V78ZM78 70C78 74.4183 74.4183 78 70 78V82C76.6274 82 82 76.6274 82 70H78ZM70 2C74.4183 2 78 5.58172 78 10H82C82 3.37258 76.6274 -2 70 -2V2ZM10 -2C3.37258 -2 -2 3.37258 -2 10H2C2 5.58172 5.58172 2 10 2V-2Z" fill="black"/>
<defs>
<clipPath id="clip0_1_204">
<rect width="56" height="62" fill="white" transform="translate(12 9)"/>
</clipPath>
</defs>
</svg>
