<svg width="80" height="80" viewBox="0 0 80 80" xmlns="http://www.w3.org/2000/svg">
<g clip-path="url(#clip0_1_198)">
<path d="M69.7123 27.5831C69.7123 24.1034 68.6715 20.7018 66.7216 17.8085C64.7716 14.9153 62.0001 12.6602 58.7575 11.3286C55.5148 9.99697 51.9467 9.64856 48.5043 10.3274C45.062 11.0063 41.9 12.6819 39.4182 15.1424C36.9363 17.603 35.2462 20.7379 34.5615 24.1507C33.8768 27.5636 34.2282 31.1011 35.5713 34.3159C36.9145 37.5308 39.189 40.2785 42.1073 42.2118C45.0256 44.145 48.4566 45.1768 51.9664 45.1768C56.6729 45.1768 61.1867 43.3232 64.5147 40.0238C67.8427 36.7243 69.7123 32.2493 69.7123 27.5831ZM51.9772 42.2872C49.0469 42.2877 46.1823 41.4269 43.7455 39.8136C41.3086 38.2002 39.409 35.9068 38.2866 33.2233C37.1643 30.5397 36.8697 27.5865 37.4401 24.7369C38.0104 21.8874 39.4201 19.2695 41.491 17.2141C43.5618 15.1588 46.2009 13.7583 49.0744 13.1898C51.948 12.6212 54.9271 12.9101 57.6351 14.0198C60.3431 15.1296 62.6584 17.0105 64.2883 19.4247C65.9183 21.8389 66.7896 24.678 66.7923 27.5831C66.7916 31.4799 65.231 35.2171 62.4532 37.974C59.6755 40.731 55.9076 42.2823 51.9772 42.2872Z" fill="black"/>
<path d="M54.0287 17.8852C53.655 17.0668 53.015 16.5523 52.082 16.5523H51.9234C51.4962 16.5468 51.0777 16.6718 50.7246 16.9102C50.3715 17.1487 50.101 17.4891 49.9498 17.8852L43.0235 33.2051C42.8964 33.4327 42.8237 33.6862 42.8111 33.9461C42.809 34.1444 42.8468 34.3411 42.9224 34.5246C42.998 34.7082 43.1099 34.8749 43.2514 35.015C43.3929 35.1551 43.5613 35.2657 43.7466 35.3403C43.9319 35.4149 44.1303 35.4521 44.3303 35.4496C44.6603 35.4575 44.9845 35.3624 45.2571 35.1778C45.5297 34.9932 45.7369 34.7283 45.8494 34.4206L47.4331 30.8566H56.4916L58.0108 34.322C58.3038 35.0071 58.8362 35.4549 59.624 35.4549C59.8293 35.4561 60.0327 35.4164 60.2222 35.3382C60.4118 35.26 60.5836 35.145 60.7274 34.9998C60.8713 34.8547 60.9844 34.6824 61.06 34.4932C61.1355 34.3039 61.1721 34.1016 61.1674 33.8982C61.1646 33.6571 61.1008 33.4206 60.9819 33.2104L54.0287 17.8852ZM48.6727 27.9776L51.9476 20.5136L55.2306 27.9776H48.6727Z" fill="black"/>
<path d="M27.8454 24.5175C27.7513 24.267 27.5815 24.0514 27.3591 23.9001C27.1368 23.7489 26.8728 23.6694 26.6032 23.6724H26.5037C26.232 23.6705 25.9661 23.7501 25.7409 23.901C25.5158 24.0518 25.3421 24.2668 25.2427 24.5175L20.9406 34.0394C20.8584 34.1847 20.8123 34.3474 20.8062 34.5139C20.8044 34.642 20.8284 34.7691 20.877 34.8878C20.9255 35.0064 20.9975 35.1143 21.0887 35.205C21.1799 35.2956 21.2885 35.3673 21.408 35.4157C21.5276 35.4641 21.6557 35.4883 21.7849 35.4869C21.9973 35.492 22.2059 35.4306 22.3811 35.3114C22.5563 35.1923 22.6892 35.0214 22.7609 34.8231L23.7289 32.6293H29.3108L30.2465 34.7618C30.3185 34.975 30.4565 35.1601 30.641 35.2908C30.8255 35.4215 31.0469 35.4911 31.2736 35.4896C31.4061 35.49 31.5373 35.4641 31.6595 35.4135C31.7818 35.363 31.8926 35.2887 31.9855 35.1951C32.0784 35.1015 32.1516 34.9904 32.2006 34.8684C32.2497 34.7464 32.2736 34.6159 32.2711 34.4846C32.2704 34.3303 32.2297 34.1789 32.1528 34.0448L27.8454 24.5175ZM24.5409 30.7686L26.5198 26.2369L28.4988 30.7686H24.5409Z" fill="black"/>
<path d="M69.7957 65.5029L63.3722 48.0105C63.0556 47.1888 62.4259 46.5235 61.6188 46.1581C60.8118 45.7927 59.8922 45.7566 59.0586 46.0575C58.2249 46.3584 57.544 46.9723 57.1629 47.7666C56.7817 48.5609 56.7309 49.4719 57.0213 50.303L63.4448 67.7955C63.6799 68.4437 64.111 69.0043 64.6793 69.4007C65.2476 69.7972 65.9254 70.0102 66.6202 70.0107C67.0145 70.0093 67.4056 69.9408 67.7764 69.8081C68.1946 69.6576 68.5788 69.4267 68.9068 69.1286C69.2348 68.8306 69.5002 68.4712 69.6878 68.0713C69.8754 67.6713 69.9815 67.2385 70 66.7978C70.0185 66.357 69.9491 65.917 69.7957 65.5029Z" fill="black"/>
<path d="M15.2835 27.5218C15.207 27.3202 15.0697 27.147 14.8901 27.0258C14.7106 26.9046 14.4977 26.8413 14.2805 26.8447H14.208C13.9896 26.8422 13.7757 26.9056 13.5947 27.0266C13.4136 27.1475 13.274 27.3202 13.1943 27.5218L10.1103 34.3407C10.0426 34.4617 10.0049 34.5969 10 34.7352C9.99707 34.8436 10.0164 34.9514 10.0568 35.0522C10.0972 35.153 10.1578 35.2445 10.2351 35.3213C10.3123 35.3981 10.4044 35.4585 10.5059 35.4989C10.6074 35.5393 10.7161 35.5588 10.8255 35.5562C11.0004 35.5575 11.1716 35.5056 11.3159 35.4074C11.4601 35.3092 11.5705 35.1695 11.6321 35.0071L12.2935 33.509H16.1385L16.7811 34.9591C16.8426 35.1338 16.9574 35.2852 17.1097 35.3923C17.262 35.4993 17.4441 35.5566 17.6308 35.5562C17.7422 35.5566 17.8525 35.5349 17.9554 35.4924C18.0582 35.4499 18.1514 35.3875 18.2296 35.3087C18.3077 35.23 18.3692 35.1366 18.4104 35.034C18.4517 34.9314 18.4718 34.8216 18.4697 34.7112C18.4695 34.5833 18.4362 34.4575 18.3729 34.346L15.2835 27.5218ZM12.9899 31.9282L14.2187 29.1212L15.4502 31.9282H12.9899Z" fill="black"/>
</g>
<path d="M10 2H70V-2H10V2ZM78 10V70H82V10H78ZM70 78H10V82H70V78ZM2 70V10H-2V70H2ZM10 78C5.58172 78 2 74.4183 2 70H-2C-2 76.6274 3.37258 82 10 82V78ZM78 70C78 74.4183 74.4183 78 70 78V82C76.6274 82 82 76.6274 82 70H78ZM70 2C74.4183 2 78 5.58172 78 10H82C82 3.37258 76.6274 -2 70 -2V2ZM10 -2C3.37258 -2 -2 3.37258 -2 10H2C2 5.58172 5.58172 2 10 2V-2Z" fill="black"/>
<defs>
<clipPath id="clip0_1_198">
<rect width="60" height="60" fill="white" transform="translate(10 10)"/>
</clipPath>
</defs>
</svg>
