<svg width="80" height="80" viewBox="0 0 80 80" xmlns="http://www.w3.org/2000/svg">
<g clip-path="url(#clip0_1_187)">
<path d="M43.1387 39.9728V38.9707H42.6625V35.703H42.5976H42.0564H41.7641C41.2055 35.6345 40.659 35.4878 40.1406 35.2673L39.5995 34.995C39.0544 34.6984 38.6154 34.2375 38.344 33.677C38.128 33.2636 38.013 32.8043 38.0084 32.3372C38.0339 31.4955 38.3901 30.6983 38.9988 30.1204C39.6074 29.5426 40.419 29.2313 41.2554 29.2547C42.0519 29.2624 42.8195 29.556 43.4201 30.0825C44.0308 30.1279 44.6321 30.2599 45.206 30.4747H46.2883C45.8815 29.4657 45.1835 28.6026 44.2845 27.9969C43.3854 27.3911 42.3266 27.0704 41.2446 27.0763C39.8341 27.0529 38.472 27.5938 37.4574 28.5802C36.4428 29.5666 35.8586 30.9178 35.833 32.3372C35.8496 33.4616 36.2231 34.5511 36.8988 35.4466C37.5744 36.3422 38.517 36.9969 39.5887 37.315V39.9728C24.0788 40.0708 11.9891 45.7784 11.9891 53.0436H15.6258C15.5917 52.864 15.5736 52.6817 15.5717 52.499C15.5717 47.6083 26.395 43.7851 40.2814 43.7851C54.1677 43.7851 64.9911 47.6192 64.9911 52.499C65.0018 52.6803 65.0018 52.8622 64.9911 53.0436H68.0216C67.9891 46.1052 57.3065 40.659 43.1387 39.9728Z" fill="black"/>
</g>
<path d="M10 2H70V-2H10V2ZM78 10V70H82V10H78ZM70 78H10V82H70V78ZM2 70V10H-2V70H2ZM10 78C5.58172 78 2 74.4183 2 70H-2C-2 76.6274 3.37258 82 10 82V78ZM78 70C78 74.4183 74.4183 78 70 78V82C76.6274 82 82 76.6274 82 70H78ZM70 2C74.4183 2 78 5.58172 78 10H82C82 3.37258 76.6274 -2 70 -2V2ZM10 -2C3.37258 -2 -2 3.37258 -2 10H2C2 5.58172 5.58172 2 10 2V-2Z" fill="black"/>
<defs>
<clipPath id="clip0_1_187">
<rect width="56" height="26" fill="white" transform="translate(12 27)"/>
</clipPath>
</defs>
</svg>
