<svg width="80" height="80" viewBox="0 0 80 80" xmlns="http://www.w3.org/2000/svg">
<g clip-path="url(#clip0_1_188)">
<path d="M32.0972 30.2075C30.9334 30.2493 29.7896 30.5196 28.7318 31.0026C30.1349 28.1569 31.7701 28.1779 33.4897 28.1883H33.8695C34.7338 28.3608 35.5572 28.6946 36.2959 29.1718C37.1031 29.6997 38.012 30.0559 38.965 30.218C39.2047 30.2464 39.4477 30.2248 39.6785 30.1545C39.9092 30.0843 40.1226 29.9669 40.3048 29.8099C40.4209 29.6936 40.5734 29.6198 40.7374 29.6007H41.0327L40.9378 29.3182C39.8828 25.9599 34.935 24.2023 32.6035 24.2023C31.3683 24.359 30.187 24.7996 29.1538 25.4891C30.0189 23.5118 32.1499 22.9259 34.2177 22.3505C36.2854 21.7751 37.9944 21.3043 38.4375 19.6513V19.5153L38.3426 19.4211C38.2483 19.3182 38.1603 19.2099 38.0788 19.0968C37.7835 18.6888 37.6358 18.6469 36.6441 18.6469C32.5263 18.9171 28.622 20.5617 25.5669 23.313C25.9443 22.1811 26.6442 21.1819 27.5819 20.4359C28.447 19.578 29.2593 18.7725 29.2593 17.8832C29.2593 16.9939 29.2593 16.7533 28.7846 16.4499C28.6592 16.3708 28.5394 16.2834 28.4259 16.1883L28.2676 16.0418L28.0988 16.1779C21.1149 21.796 18.0028 29.1718 15.8717 35.6373C15.4758 37.0818 14.6075 38.355 13.4031 39.2572C12.93 39.5617 12.5474 39.9861 12.2952 40.4864C12.0429 40.9867 11.9301 41.5448 11.9683 42.1029C12.3236 45.4699 13.2623 48.7508 14.7429 51.8012L14.8801 52.0732L15.1227 51.8849C17.8129 49.7297 20.7457 49.7925 23.3304 49.8867C24.4965 49.9705 25.6686 49.9179 26.8223 49.7297C28.54 49.3209 30.2226 48.7787 31.8545 48.1081C33.212 47.5597 34.5998 47.0882 36.0111 46.6957C38.3742 46.0576 39.4398 39.4455 39.4398 37.8134C39.4714 34.6329 37.1821 30.2075 32.0972 30.2075ZM36.9289 39.2886C36.9289 42.4272 30.1244 42.8248 30.0611 42.8248C29.0061 42.8248 26.7485 40.4394 26.7485 39.2886C26.7485 36.4743 30.3776 34.748 32.3504 34.748C34.3232 34.748 36.9289 37.4682 36.9289 39.2886Z" fill="black"/>
<path d="M66.6791 29.2241L66.0778 28.0732L65.8351 28.2406C63.1555 30.1866 60.2544 30.1552 57.6802 30.1238C56.4796 30.0455 55.2738 30.1229 54.0933 30.354L52.6058 30.7201C49.3881 31.5257 46.065 32.3522 43.8707 33.9634C42.1194 35.2502 41.0011 38.6818 41.0011 40.0418C41.0011 47.3653 42.0561 49.2171 52.226 49.6774L51.1711 50.4725C49.3776 51.8221 49.2721 51.9058 47.0989 51.9058C46.2385 51.7311 45.419 51.3975 44.683 50.9224C43.875 50.3961 42.9665 50.04 42.0139 49.8762C41.7775 49.8489 41.5379 49.8691 41.3096 49.9356C41.0812 50.0021 40.8687 50.1136 40.6847 50.2633C40.572 50.3674 40.4268 50.4301 40.2732 50.4411H40.0411V52.6591L40.1783 52.7323C40.6741 52.9939 41.1594 53.2659 41.6447 53.5379C43.8179 54.7515 45.8646 55.9128 48.3754 55.9128C49.5448 55.7754 50.6652 55.3668 51.6458 54.7201C50.3693 56.7393 48.0695 57.2206 46.1705 57.6181C45.5254 57.7314 44.893 57.9066 44.2821 58.1413C44.1277 58.2323 43.9652 58.3093 43.7968 58.3714C43.4321 58.4426 43.1042 58.6389 42.8708 58.9259C42.6374 59.2128 42.5133 59.5721 42.5203 59.9407C42.4757 60.4038 42.6159 60.8657 42.9107 61.2275C43.0392 61.3505 43.2072 61.4246 43.3854 61.4368H45.0311C47.0672 61.4368 53.1333 59.0933 55.5808 56.8544C55.0473 57.7418 54.4099 58.5635 53.6819 59.3025C52.6269 60.422 51.7091 61.4786 51.7091 62.4411C51.6714 62.8956 51.8153 63.3465 52.11 63.6966C52.2591 63.8453 52.4581 63.9346 52.6691 63.9477H52.7535L52.8168 63.8954C56.4881 61.3113 60.8873 55.0759 62.6597 51.5606C63.2317 50.3002 63.6975 48.9949 64.0522 47.6582C64.4073 46.0231 65.0617 44.4665 65.9828 43.0654C66.6135 42.2517 67.3199 41.4986 68.0928 40.8161C69 39.9896 69.0422 39.8326 69.0422 37.4577C69.0422 36.9869 69.0422 36.5789 69.0422 36.2337C69.0317 33.7228 68.979 33.6391 66.6791 29.2241ZM53.7663 42.3749C53.6712 42.5132 53.5899 42.6603 53.5236 42.8143C52.1311 44.3836 49.7679 45.8483 48.6286 45.8483C47.7213 45.8483 46.6558 44.9067 45.8013 44.143L45.2105 43.6304C45.0915 43.2366 44.9137 42.8628 44.683 42.5213C44.3147 42.0192 44.0954 41.4249 44.05 40.8056C44.05 40.0523 44.7357 39.4037 45.3898 38.7759C45.6865 38.5086 45.9649 38.222 46.2232 37.918C46.814 37.8553 47.4892 37.7402 48.1433 37.6251C49.0576 37.4361 49.9852 37.3172 50.9179 37.2694C51.9728 37.2694 54.2199 39.6443 54.2199 40.8056C54.2414 41.3633 54.0824 41.9132 53.7663 42.3749Z" fill="black"/>
</g>
<path d="M10 2H70V-2H10V2ZM78 10V70H82V10H78ZM70 78H10V82H70V78ZM2 70V10H-2V70H2ZM10 78C5.58172 78 2 74.4183 2 70H-2C-2 76.6274 3.37258 82 10 82V78ZM78 70C78 74.4183 74.4183 78 70 78V82C76.6274 82 82 76.6274 82 70H78ZM70 2C74.4183 2 78 5.58172 78 10H82C82 3.37258 76.6274 -2 70 -2V2ZM10 -2C3.37258 -2 -2 3.37258 -2 10H2C2 5.58172 5.58172 2 10 2V-2Z" fill="black"/>
<defs>
<clipPath id="clip0_1_188">
<rect width="57" height="48" fill="white" transform="translate(12 16)"/>
</clipPath>
</defs>
</svg>
