<svg width="80" height="80" viewBox="0 0 80 80" xmlns="http://www.w3.org/2000/svg">
<g clip-path="url(#clip0_1_214)">
<path fill-rule="evenodd" clip-rule="evenodd" d="M37.1919 48.0301L33.0349 25.4454H27.0383L22.9609 48.0636L18.8039 25.4454H14L19.7557 53.594H25.6727L29.8705 30.0219L34.2606 53.594H40.1775L45.8206 25.4454H41.3489L37.1919 48.0301Z" fill="black"/>
<path fill-rule="evenodd" clip-rule="evenodd" d="M66.8466 48.4775C66.071 48.9469 65.241 49.317 64.3757 49.5793C63.5551 49.8212 62.7049 49.944 61.8504 49.9439C59.2836 49.9439 57.2893 49.0136 55.8674 47.1531C54.4455 45.2925 53.7332 42.6784 53.7306 39.3108C53.7306 36.1192 54.4144 33.6228 55.7819 31.8213C57.1495 30.0199 59.0408 29.1271 61.456 29.1429C62.413 29.1262 63.368 29.2382 64.296 29.476C65.1326 29.7134 65.928 30.0804 66.6543 30.5639L66.8485 26.1904C65.8736 25.7976 64.8659 25.4942 63.8376 25.2838C62.8798 25.0976 61.9068 25.0038 60.9316 25.004C57.1009 25.004 54.0576 26.3107 51.8017 28.9241C49.5457 31.5375 48.4178 35.0852 48.4178 39.567C48.4178 43.9464 49.5704 47.448 51.8755 50.072C54.1806 52.6959 57.2388 54.0099 61.0501 54.0138C62.0945 54.0161 63.1373 53.9304 64.1678 53.7576C65.137 53.585 66.0874 53.3176 67.0059 52.9594L66.8466 48.4775Z" fill="black"/>
</g>
<path d="M10 2H70V-2H10V2ZM78 10V70H82V10H78ZM70 78H10V82H70V78ZM2 70V10H-2V70H2ZM10 78C5.58172 78 2 74.4183 2 70H-2C-2 76.6274 3.37258 82 10 82V78ZM78 70C78 74.4183 74.4183 78 70 78V82C76.6274 82 82 76.6274 82 70H78ZM70 2C74.4183 2 78 5.58172 78 10H82C82 3.37258 76.6274 -2 70 -2V2ZM10 -2C3.37258 -2 -2 3.37258 -2 10H2C2 5.58172 5.58172 2 10 2V-2Z" fill="black"/>
<defs>
<clipPath id="clip0_1_214">
<rect width="53" height="29" fill="white" transform="translate(14 25)"/>
</clipPath>
</defs>
</svg>
