<svg width="80" height="80" viewBox="0 0 80 80" xmlns="http://www.w3.org/2000/svg">
<g clip-path="url(#clip0_1_212)">
<path d="M30.8743 10.9887H12.1313C11.3013 10.9887 10.5053 11.3186 9.91813 11.906C9.33097 12.4934 9.00074 13.2902 9 14.1213V34.7483C9.00734 35.2674 9.04851 35.7854 9.12323 36.2992C10.1875 42.0932 15.1618 45.9887 21.5028 45.9887C27.841 45.9887 32.8153 42.0932 33.8824 36.2992C33.9542 35.7852 33.9944 35.2672 34.0028 34.7483V14.1325C34.0043 13.7202 33.9244 13.3116 33.7679 12.9303C33.6113 12.5489 33.3811 12.2022 33.0905 11.9102C32.7998 11.6181 32.4544 11.3863 32.0741 11.2282C31.6938 11.0701 31.2861 10.9887 30.8743 10.9887Z" fill="black"/>
</g>
<path d="M10 2H70V-2H10V2ZM78 10V70H82V10H78ZM70 78H10V82H70V78ZM2 70V10H-2V70H2ZM10 78C5.58172 78 2 74.4183 2 70H-2C-2 76.6274 3.37258 82 10 82V78ZM78 70C78 74.4183 74.4183 78 70 78V82C76.6274 82 82 76.6274 82 70H78ZM70 2C74.4183 2 78 5.58172 78 10H82C82 3.37258 76.6274 -2 70 -2V2ZM10 -2C3.37258 -2 -2 3.37258 -2 10H2C2 5.58172 5.58172 2 10 2V-2Z" fill="black"/>
<defs>
<clipPath id="clip0_1_212">
<rect width="25" height="35" fill="white" transform="translate(9 11)"/>
</clipPath>
</defs>
</svg>
