<svg width="80" height="80" viewBox="0 0 80 80" xmlns="http://www.w3.org/2000/svg">
<g clip-path="url(#clip0_1_211)">
<path d="M67.8743 10.9899H49.1313C48.3013 10.9899 47.5053 11.3198 46.9181 11.9072C46.331 12.4946 46.0007 13.2914 46 14.1225V34.7495C46.0073 35.2686 46.0485 35.7866 46.1232 36.3004C47.1875 42.0944 52.1618 45.9899 58.5028 45.9899C64.841 45.9899 69.8153 42.0944 70.8824 36.3004C70.9542 35.7864 70.9944 35.2684 71.0028 34.7495V14.1337C71.0043 13.7214 70.9244 13.3128 70.7679 12.9315C70.6113 12.5501 70.3811 12.2034 70.0905 11.9114C69.7998 11.6193 69.4544 11.3875 69.0741 11.2294C68.6938 11.0713 68.2861 10.9899 67.8743 10.9899Z" fill="black"/>
</g>
<path d="M10 2H70V-2H10V2ZM78 10V70H82V10H78ZM70 78H10V82H70V78ZM2 70V10H-2V70H2ZM10 78C5.58172 78 2 74.4183 2 70H-2C-2 76.6274 3.37258 82 10 82V78ZM78 70C78 74.4183 74.4183 78 70 78V82C76.6274 82 82 76.6274 82 70H78ZM70 2C74.4183 2 78 5.58172 78 10H82C82 3.37258 76.6274 -2 70 -2V2ZM10 -2C3.37258 -2 -2 3.37258 -2 10H2C2 5.58172 5.58172 2 10 2V-2Z" fill="black"/>
<defs>
<clipPath id="clip0_1_211">
<rect width="25" height="35" fill="white" transform="translate(46 11)"/>
</clipPath>
</defs>
</svg>
