<svg width="20" height="21" viewBox="0 0 20 21" xmlns="http://www.w3.org/2000/svg">
<path d="M10.7296 3.75708L2.9451 2.57418C2.58386 2.51751 2.21553 2.61668 1.93928 2.85042C1.66304 3.09125 1.50012 3.43833 1.50012 3.79958V18.7239C1.50012 19.1135 1.81887 19.4323 2.20844 19.4323H4.51049V15.7136C4.51049 15.0265 5.06299 14.474 5.75006 14.474H7.52086C8.20794 14.474 8.76043 15.0265 8.76043 15.7136V19.4323H11.7708V4.98248C11.7708 4.37332 11.3316 3.85624 10.7296 3.75708ZM5.3959 12.8803H4.33341C4.04017 12.8803 3.80217 12.6423 3.80217 12.349C3.80217 12.0558 4.04017 11.8178 4.33341 11.8178H5.3959C5.68914 11.8178 5.92714 12.0558 5.92714 12.349C5.92714 12.6423 5.68914 12.8803 5.3959 12.8803ZM5.3959 10.7553H4.33341C4.04017 10.7553 3.80217 10.5173 3.80217 10.2241C3.80217 9.93082 4.04017 9.69282 4.33341 9.69282H5.3959C5.68914 9.69282 5.92714 9.93082 5.92714 10.2241C5.92714 10.5173 5.68914 10.7553 5.3959 10.7553ZM5.3959 8.63034H4.33341C4.04017 8.63034 3.80217 8.39234 3.80217 8.0991C3.80217 7.80585 4.04017 7.56785 4.33341 7.56785H5.3959C5.68914 7.56785 5.92714 7.80585 5.92714 8.0991C5.92714 8.39234 5.68914 8.63034 5.3959 8.63034ZM5.3959 6.50537H4.33341C4.04017 6.50537 3.80217 6.26737 3.80217 5.97413C3.80217 5.68088 4.04017 5.44289 4.33341 5.44289H5.3959C5.68914 5.44289 5.92714 5.68088 5.92714 5.97413C5.92714 6.26737 5.68914 6.50537 5.3959 6.50537ZM8.93751 12.8803H7.87503C7.58178 12.8803 7.34378 12.6423 7.34378 12.349C7.34378 12.0558 7.58178 11.8178 7.87503 11.8178H8.93751C9.23076 11.8178 9.46875 12.0558 9.46875 12.349C9.46875 12.6423 9.23076 12.8803 8.93751 12.8803ZM8.93751 10.7553H7.87503C7.58178 10.7553 7.34378 10.5173 7.34378 10.2241C7.34378 9.93082 7.58178 9.69282 7.87503 9.69282H8.93751C9.23076 9.69282 9.46875 9.93082 9.46875 10.2241C9.46875 10.5173 9.23076 10.7553 8.93751 10.7553ZM8.93751 8.63034H7.87503C7.58178 8.63034 7.34378 8.39234 7.34378 8.0991C7.34378 7.80585 7.58178 7.56785 7.87503 7.56785H8.93751C9.23076 7.56785 9.46875 7.80585 9.46875 8.0991C9.46875 8.39234 9.23076 8.63034 8.93751 8.63034ZM8.93751 6.50537H7.87503C7.58178 6.50537 7.34378 6.26737 7.34378 5.97413C7.34378 5.68088 7.58178 5.44289 7.87503 5.44289H8.93751C9.23076 5.44289 9.46875 5.68088 9.46875 5.97413C9.46875 6.26737 9.23076 6.50537 8.93751 6.50537Z" fill="#C83E36"/>
<path d="M17.5224 10.1128L12.4791 9.05664V19.4329H17.2603C17.9438 19.4329 18.4999 18.8768 18.4999 18.1933V11.324C18.4999 10.7389 18.1011 10.241 17.5224 10.1128ZM15.8437 17.3079H14.7812C14.4879 17.3079 14.2499 17.0699 14.2499 16.7767C14.2499 16.4834 14.4879 16.2454 14.7812 16.2454H15.8437C16.1369 16.2454 16.3749 16.4834 16.3749 16.7767C16.3749 17.0699 16.1369 17.3079 15.8437 17.3079ZM15.8437 15.1829H14.7812C14.4879 15.1829 14.2499 14.9449 14.2499 14.6517C14.2499 14.3584 14.4879 14.1204 14.7812 14.1204H15.8437C16.1369 14.1204 16.3749 14.3584 16.3749 14.6517C16.3749 14.9449 16.1369 15.1829 15.8437 15.1829ZM15.8437 13.058H14.7812C14.4879 13.058 14.2499 12.82 14.2499 12.5267C14.2499 12.2335 14.4879 11.9955 14.7812 11.9955H15.8437C16.1369 11.9955 16.3749 12.2335 16.3749 12.5267C16.3749 12.82 16.1369 13.058 15.8437 13.058Z" fill="#C83E36"/>
</svg>
