<svg width="20" height="18" viewBox="0 0 20 18" xmlns="http://www.w3.org/2000/svg">
<g clip-path="url(#clip0)">
<path d="M18.8889 6.41945V1.11146C18.8889 0.807639 18.6465 0 17.7781 0H17.7778C17.5306 0 17.2851 0.0826389 17.084 0.24375L14.1316 2.6059C12.6486 3.79132 10.7868 4.44444 8.88889 4.44444H2.22222C0.994792 4.44444 0 5.43924 0 6.66667V10C0 11.2274 0.994792 12.2222 2.22222 12.2222L2.20556 13.3333C2.20556 14.7142 2.52708 16.0191 3.09306 17.1854C3.27326 17.5566 3.66667 17.7778 4.07917 17.7778H7.76944C8.67396 17.7778 9.21701 16.7417 8.66875 16.0222C8.09931 15.275 7.76076 14.3431 7.76076 13.3333C7.76076 12.9476 7.81701 12.5767 7.91389 12.2222H8.88889C10.7868 12.2222 12.6486 12.8753 14.1313 14.0608L17.0837 16.4229C17.2806 16.5805 17.5252 16.6664 17.7774 16.6667C18.6427 16.6667 18.8885 15.8757 18.8885 15.5556V10.2476C19.55 9.8625 19.9997 9.15417 19.9997 8.33368C20 7.51285 19.5503 6.80451 18.8889 6.41945ZM4.43507 16.1111C4.06146 15.2274 3.87222 14.2948 3.87222 13.3333C3.87222 12.8396 3.93194 12.4535 3.9625 12.2222H6.21632C6.14375 12.5938 6.0941 12.9656 6.0941 13.3333C6.0941 14.3132 6.32257 15.2569 6.76111 16.1111H4.43507ZM8.33333 10.5556H2.22222C1.91597 10.5556 1.66667 10.3063 1.66667 10V6.66667C1.66667 6.36042 1.91597 6.11111 2.22222 6.11111H8.33333V10.5556ZM17.2222 14.3993L15.1722 12.759C13.6861 11.5708 11.8809 10.8365 10 10.6253V6.04132C11.8809 5.83021 13.6861 5.09583 15.1726 3.90729L17.2222 2.26736V14.3993Z" fill="#C83E36"/>
</g>
<defs>
<clipPath id="clip0">
<rect width="20" height="17.7778" fill="white"/>
</clipPath>
</defs>
</svg>
