<svg width="20" height="22" viewBox="0 0 20 22" xmlns="http://www.w3.org/2000/svg">
<g clip-path="url(#clip0)">
<path d="M18.7344 5.32812H0.515625C0.230871 5.32812 0 5.09725 0 4.8125V3.4375C0 3.15275 0.230871 2.92188 0.515625 2.92188H18.7344C19.0191 2.92188 19.25 3.15275 19.25 3.4375V4.8125C19.25 5.09725 19.0191 5.32812 18.7344 5.32812ZM18.7344 12.2031H0.515625C0.230871 12.2031 0 11.9723 0 11.6875V10.3125C0 10.0277 0.230871 9.79688 0.515625 9.79688H18.7344C19.0191 9.79688 19.25 10.0277 19.25 10.3125V11.6875C19.25 11.9723 19.0191 12.2031 18.7344 12.2031ZM18.7344 19.0781H0.515625C0.230871 19.0781 0 18.8473 0 18.5625V17.1875C0 16.9027 0.230871 16.6719 0.515625 16.6719H18.7344C19.0191 16.6719 19.25 16.9027 19.25 17.1875V18.5625C19.25 18.8473 19.0191 19.0781 18.7344 19.0781Z" fill="#C83E36"/>
</g>
<defs>
<clipPath id="clip0">
<rect width="19.25" height="22" fill="white"/>
</clipPath>
</defs>
</svg>
