<svg width="141" height="177" viewBox="0 0 141 177" xmlns="http://www.w3.org/2000/svg">
<g clip-path="url(#clip0)">
<path d="M139.88 48.8594C139.88 48.5994 139.53 48.3294 139.24 47.8594H0.45992C0.45992 72.2494 -0.800075 96.2794 0.839925 120.119C2.28993 141.319 13.1999 158.209 32.5899 168.489C46.0799 175.639 60.7099 177.249 75.7399 176.689C111.41 175.359 136.74 152.309 139.14 116.689C140.69 94.2194 139.74 71.4594 139.88 48.8594ZM115.66 121.699C110.3 141.699 94.1199 154.019 73.1299 154.559C60.1299 154.899 47.8699 152.879 37.6899 143.989C29.3899 136.749 25.3599 127.219 23.5199 116.629C22.8809 113.194 22.5198 109.713 22.4399 106.219C22.3099 94.2694 22.3899 82.3194 22.3899 69.9494H118.12C117.22 87.3694 120.22 104.719 115.66 121.699V121.699Z" />
<path d="M54.9701 33.4605C55.2001 31.8905 55.2901 30.5605 55.6001 29.2705C57.4801 21.3505 61.6001 19.2705 69.1901 22.3405C72.5701 23.7205 75.9001 25.2405 79.1901 26.8105C84.8774 29.6846 91.3734 30.538 97.6101 29.2305C110.15 26.4705 117.9 15.4405 118.03 -0.0195312H98.4901C96.3601 12.4505 91.0601 15.0605 80.1301 9.34047C77.2318 7.72336 74.2246 6.30993 71.1301 5.11046C66.8508 3.5575 62.2439 3.13183 57.7525 3.87437C53.2611 4.61692 49.0363 6.50271 45.4845 9.35034C41.9328 12.198 39.1735 15.9116 37.4722 20.1341C35.7709 24.3566 35.1847 28.9459 35.7701 33.4605H54.9701Z" />
</g>
<defs>
<clipPath id="clip0">
<rect width="140.05" height="176.84" />
</clipPath>
</defs>
</svg>
