<svg width="19" height="19" viewBox="0 0 19 19" xmlns="http://www.w3.org/2000/svg">
<path d="M1.58331 7.91667V16.625C1.58331 17.1 1.89998 17.4167 2.37498 17.4167H16.625C17.1 17.4167 17.4166 17.1 17.4166 16.625V7.91667H1.58331ZM5.54165 15.0417H3.95831V13.4583H5.54165V15.0417ZM8.70831 15.0417H7.12498V13.4583H8.70831V15.0417ZM8.70831 11.875H7.12498V10.2917H8.70831V11.875ZM11.875 15.0417H10.2916V13.4583H11.875V15.0417ZM11.875 11.875H10.2916V10.2917H11.875V11.875ZM15.0416 15.0417H13.4583V13.4583H15.0416V15.0417ZM15.0416 11.875H13.4583V10.2917H15.0416V11.875Z" fill="#C83E36"/>
<path d="M16.625 1.58334H15.0416V3.16667C15.0416 3.64167 14.725 3.95834 14.25 3.95834C13.775 3.95834 13.4583 3.64167 13.4583 3.16667V1.58334H5.54165V3.16667C5.54165 3.64167 5.22498 3.95834 4.74998 3.95834C4.27498 3.95834 3.95831 3.64167 3.95831 3.16667V1.58334H2.37498C1.89998 1.58334 1.58331 1.9 1.58331 2.375V6.33333H17.4166V2.375C17.4166 1.9 17.1 1.58334 16.625 1.58334Z" fill="#C83E36"/>
</svg>
