<svg width="7" height="9" viewBox="0 0 7 9" xmlns="http://www.w3.org/2000/svg">
<path d="M6.49714 5.51336C6.51483 5.89932 6.4504 6.28468 6.30776 6.64625C6.16512 7.00782 5.94721 7.33809 5.66715 7.61716C5.3871 7.89623 5.0507 8.11833 4.67825 8.27006C4.3058 8.42178 3.905 8.5 3.5 8.5C3.095 8.5 2.6942 8.42178 2.32175 8.27006C1.94929 8.11833 1.6129 7.89623 1.33285 7.61716C1.0528 7.33809 0.834885 7.00782 0.692241 6.64625C0.549596 6.28468 0.485175 5.89932 0.502863 5.51336C0.502863 3.93508 3.50287 0.5 3.50287 0.5C3.50287 0.5 6.49714 3.93508 6.49714 5.51336Z" fill="#A3CDEF"/>
</svg>
