<svg width="22" height="22" viewBox="0 0 22 22" xmlns="http://www.w3.org/2000/svg">
<path d="M19.2514 16.8142V8.57038C19.0218 8.82819 18.7749 9.064 18.5109 9.2785C16.5935 10.7532 15.0686 11.9625 13.9377 12.9064C13.5733 13.2144 13.2763 13.4537 13.0467 13.6256C12.8171 13.7974 12.5077 13.9707 12.1186 14.146C11.7281 14.3213 11.3623 14.4086 11.0186 14.4086H10.9979C10.6542 14.4086 10.2871 14.3213 9.89794 14.146C9.50744 13.9707 9.19807 13.7974 8.96982 13.6256C8.74019 13.4537 8.44457 13.2144 8.07882 12.9064C6.94788 11.9625 5.42369 10.7518 3.50557 9.2785C3.24019 9.06331 2.99338 8.82819 2.76513 8.57038V16.8142C2.76513 16.9077 2.79951 16.9874 2.86688 17.0562C2.93426 17.1236 3.01538 17.1579 3.10888 17.1579H18.9104C19.0039 17.1579 19.0836 17.1236 19.1524 17.0562C19.2177 16.9888 19.2521 16.9077 19.2521 16.8142H19.2514ZM19.2514 5.533V5.27038L19.2466 5.13013L19.2149 4.99606L19.1558 4.89913L19.0589 4.818L18.909 4.79119H3.10613C3.01263 4.79119 2.93288 4.82556 2.86413 4.89294C2.79676 4.96031 2.76238 5.04144 2.76238 5.13494C2.76238 6.33669 3.28763 7.3535 4.34019 8.18331C5.72138 9.27094 7.15619 10.4053 8.64463 11.5864C8.68794 11.6222 8.81307 11.7274 9.02001 11.9034C9.22694 12.0794 9.39194 12.2128 9.51363 12.3063C9.63532 12.3998 9.79482 12.5125 9.99144 12.6438C10.1881 12.7765 10.3682 12.8748 10.5339 12.9388C10.6982 13.0027 10.8522 13.0357 10.9952 13.0357H11.0158C11.1595 13.0357 11.3128 13.0041 11.4771 12.9388C11.6414 12.8748 11.8223 12.7751 12.0196 12.6438C12.2162 12.5111 12.3757 12.3984 12.4974 12.3063C12.6191 12.2128 12.7834 12.0794 12.991 11.9034C13.1986 11.7274 13.3238 11.6222 13.3664 11.5864C14.8541 10.4053 16.2896 9.27094 17.6708 8.18331C18.0579 7.87531 18.4174 7.46281 18.7502 6.94306C19.0843 6.42469 19.2514 5.95444 19.2514 5.53231V5.533ZM20.625 5.13563V16.8149C20.625 17.2879 20.4566 17.6914 20.1204 18.0276C19.7842 18.3638 19.3799 18.5323 18.9076 18.5323H3.10613C2.63313 18.5323 2.22957 18.3638 1.89338 18.0276C1.55719 17.6914 1.38876 17.2872 1.38876 16.8149V5.13563C1.38876 4.66263 1.55719 4.25906 1.89338 3.92288C2.22957 3.58669 2.63382 3.41825 3.10613 3.41825H18.9076C19.3806 3.41825 19.7842 3.58669 20.1204 3.92288C20.4566 4.25906 20.625 4.66331 20.625 5.13563Z" fill="#C83E36"/>
</svg>
