<svg width="15" height="20" viewBox="0 0 15 20" xmlns="http://www.w3.org/2000/svg">
<path d="M9.74052 1.99601C6.91062 1.99601 5.14527 3.78354 4.44444 7.35862H11.2309V9.07518H4.25815L4.23154 9.83367V10.6853L4.25815 11.2841H10.4192V13.0007H4.47106C4.79929 14.5975 5.4114 15.835 6.30739 16.7132C7.21224 17.5826 8.41872 18.0173 9.92681 18.0173C11.3107 18.0173 12.6813 17.7246 14.0386 17.1391V19.1351C12.7434 19.7117 11.3373 20 9.82036 20C7.7179 20 6.02351 19.4056 4.73719 18.2169C3.45975 17.0193 2.61699 15.2806 2.20892 13.0007H0V11.2841H2.02262L1.99601 10.7252V10.1397L2.02262 9.07518H0V7.35862H2.1823C2.52828 5.04325 3.34886 3.23797 4.64405 1.94278C5.93923 0.647594 7.63806 0 9.74052 0C11.5236 0 13.147 0.430251 14.6108 1.29075L13.666 3.14039C12.1934 2.37747 10.8849 1.99601 9.74052 1.99601Z" fill="#C83E36"/>
</svg>
