<svg width="17" height="18" viewBox="0 0 17 18" xmlns="http://www.w3.org/2000/svg">
<path d="M8.49576 0.263672C3.7995 0.263672 0 4.06743 0 8.76365C0 13.4599 3.7995 17.2636 8.49576 17.2636C13.192 17.2636 17 13.4599 17 8.76365C17 4.06743 13.192 0.263672 8.49576 0.263672ZM8.49998 1.99341C9.20972 3.01341 9.76223 4.14816 10.1235 5.36367H6.87651C7.23773 4.14816 7.79024 3.01341 8.49998 1.99341ZM1.92099 10.4637C1.78074 9.91968 1.69997 9.35015 1.69997 8.76365C1.69997 8.17715 1.78074 7.60767 1.92099 7.06364H4.78973C4.72172 7.62038 4.67498 8.18564 4.67498 8.76365C4.67498 9.34166 4.72172 9.90689 4.794 10.4637H1.92099ZM2.61375 12.1637H5.12123C5.39747 13.2262 5.78423 14.2462 6.29423 15.1939C4.73025 14.6584 3.42975 13.5704 2.61375 12.1637ZM5.12123 5.36367H2.61375C3.42975 3.95691 4.73025 2.86893 6.29423 2.33343C5.78423 3.28116 5.39751 4.30116 5.12123 5.36367ZM8.49998 15.5339C7.79447 14.5139 7.24199 13.3791 6.87647 12.1636H10.1235C9.75801 13.3791 9.20549 14.5139 8.49998 15.5339ZM10.489 10.4637H6.51098C6.43022 9.90693 6.375 9.34166 6.375 8.76365C6.375 8.18564 6.43026 7.62042 6.51098 7.06364H10.489C10.5697 7.62038 10.625 8.18564 10.625 8.76365C10.625 9.34166 10.5697 9.90693 10.489 10.4637ZM14.382 5.36367H11.8745C11.5983 4.30116 11.2115 3.28116 10.7015 2.33766C12.2655 2.87316 13.566 3.95691 14.382 5.36367ZM10.7057 15.1896C11.2157 14.2419 11.6025 13.2261 11.8787 12.1636H14.3862C13.566 13.5704 12.2655 14.6541 10.7057 15.1896ZM12.206 10.4637C12.274 9.90693 12.325 9.34166 12.325 8.76365C12.325 8.18564 12.2783 7.62042 12.206 7.06364H15.0748C15.215 7.60763 15.3 8.17715 15.3 8.76365C15.3 9.35015 15.2192 9.91964 15.0748 10.4637H12.206Z" fill="#C83E36"/>
</svg>
