<svg id="Layer_1" data-name="Layer 1" xmlns="http://www.w3.org/2000/svg" viewBox="0 0 91.56 91.56"><defs><style>.cls-1,.cls-2{fill:none;stroke:#fff;stroke-linecap:round;stroke-width:1.6px;}.cls-1{stroke-linejoin:round;}.cls-2{stroke-miterlimit:10;}.cls-3{fill:#fff;}</style></defs><title>nasinneula</title><path class="cls-1" d="M41.7,87.66l1.89-37.57s-2.69-.59-2.66-1.84,2.36-2.14,2.36-2.14V44.34l-8.59-2-2-6.51V32.44l7.61-1.12,3.12-5.11,6.28,0,2.77,5.31L60.23,33v3.16l-3,6.29-8.1,1.9,0,1.88s2.8.5,2.8,2c0,1.33-2.51,1.58-2.51,1.58L51.2,87.41"/><line class="cls-2" x1="46.44" y1="25.85" x2="46.44" y2="7.58"/><rect class="cls-3" x="36.57" y="35.21" width="1.93" height="3.38" rx="0.97"/><rect class="cls-3" x="42.45" y="35.21" width="1.93" height="3.38" rx="0.97"/><rect class="cls-3" x="48.63" y="35.21" width="1.93" height="3.38" rx="0.97"/><rect class="cls-3" x="39.44" y="37.49" width="1.93" height="3.38" rx="0.97"/><rect class="cls-3" x="45.56" y="37.49" width="1.93" height="3.38" rx="0.97"/><rect class="cls-3" x="51.71" y="37.49" width="1.93" height="3.38" rx="0.97"/><rect class="cls-3" x="54.72" y="35.46" width="1.93" height="3.38" rx="0.97"/><path class="cls-3" d="M21.78,34.27h0A4,4,0,0,0,16.38,32h0a4,4,0,0,0-6.87,2.28h0a4,4,0,0,0,.74,7.87h10.9a4,4,0,0,0,.63-7.89Zm-.66,6.83H10.43a2.9,2.9,0,0,1-.21-5.79l.46,0h0v-.46h0a2.92,2.92,0,0,1,5.23-1.76l.27.35h0l.38-.22a2.87,2.87,0,0,1,1.48-.41,2.93,2.93,0,0,1,2.83,2.17l.09.35h0l.36,0a2.9,2.9,0,0,1,2.76,2.91A2.94,2.94,0,0,1,21.12,41.1Z"/><path class="cls-3" d="M17,50.67h0a3.08,3.08,0,0,1,2.89-2,3.24,3.24,0,0,1,1.26.27h0a3.09,3.09,0,0,1,5.27,1.74h0A3,3,0,0,1,29,53.58a3.06,3.06,0,0,1-3.1,3.08H17.47a3,3,0,0,1-.48-6Zm.9,5h7.78a2.14,2.14,0,0,0,2.16-2.06,2.12,2.12,0,0,0-2-2.11l-.34,0h0v-.33h0a2.1,2.1,0,0,0-2.12-2.08,2.13,2.13,0,0,0-1.69.82l-.19.25h0L21.2,50a2.13,2.13,0,0,0-3.13,1.27l-.07.25h-.26a2.1,2.1,0,0,0-2,2.1A2.13,2.13,0,0,0,17.89,55.71Z"/><path class="cls-3" d="M69.43,46.14h0A3.85,3.85,0,0,1,73,43.52a3.72,3.72,0,0,1,1.58.35h0a3.76,3.76,0,0,1,2.78-1.23,3.88,3.88,0,0,1,3.81,3.52h0a4,4,0,0,1-.7,7.88H70a4,4,0,0,1-.61-7.9Zm.77,6.77H80.38a2.82,2.82,0,0,0,.2-5.63l-.45,0h0V46.8h0A2.79,2.79,0,0,0,77.36,44a2.76,2.76,0,0,0-2.21,1.1l-.25.34h0l-.36-.22a2.75,2.75,0,0,0-4.09,1.72l-.09.34h0l-.34,0a2.82,2.82,0,0,0,.19,5.63Z"/><path class="cls-3" d="M70.72,62.91h0a2.79,2.79,0,0,0-2.6-2,2.49,2.49,0,0,0-1.14.27h0a2.66,2.66,0,0,0-2-.92,2.85,2.85,0,0,0-2.75,2.62h0a3,3,0,0,0,.51,5.88h7.56a3,3,0,0,0,.43-5.89Zm-.52,5H63.12A2.07,2.07,0,0,1,63,63.78l.31,0h0v-.33h0a2,2,0,0,1,1.93-2.07,1.9,1.9,0,0,1,1.54.81l.17.25h0l.25-.16a1.84,1.84,0,0,1,1-.29A2,2,0,0,1,70,63.52l.06.25h.24a2.07,2.07,0,0,1-.14,4.13Z"/></svg>