<svg xmlns="http://www.w3.org/2000/svg" xml:space="preserve" viewBox="0 0 100 100">
  <path d="M94.88 29.77C90.91 21.15 78.58 1.04 49.95.5 21.42 1.04 9.1 21.15 5.11 29.8c-2.1 4.55-1.66 13.23 3.79 15.95 6.4 3.2 13.74 5.03 23.78 5.82-.37 1.25-.67 3.36.53 5.33.94 1.55 2.62 2.66 4.97 3.34-.3 2.22-.74 3.94-1.21 5.74-.46 1.77-.99 3.82-1.41 6.34-.91 5.46-1.23 13.13.09 17.54 2.01 6.7 5.37 9.47 14.39 9.65 9.46-.07 12.46-3.23 14.38-9.65 1.32-4.41.95-12.3.04-17.77-.42-2.51-.9-4.34-1.36-6.11-.47-1.81-.91-3.54-1.21-5.77 2.3-.68 3.94-1.78 4.87-3.31 1.2-1.97.89-4.07.53-5.33 10.06-.79 17.41-2.62 23.82-5.82 5.44-2.73 5.88-11.41 3.77-15.98zM59.93 72.2c.89 5.35 1.26 12.78.11 16.62-1.68 5.6-4.81 6.56-10.39 6.56s-8.2-2.19-9.51-6.67c-1.13-3.85-1.11-10.83-.22-16.18.36-2.17 2.12-8.47 2.7-11.57.58.04 1.18.07 1.81.07 1.61.02 5.56 0 5.56 0s1.75.01 3.39.01c.82 0 1.62 0 2.16-.01.67-.01 1.31-.04 1.93-.08.56 3.11 2.11 9.11 2.46 11.25zm2.96-17.16c-1.13 1.85-2.95 2.14-7.75 2.19-1.6.02-9.46.02-11.06 0-4.79-.05-5.97-.78-7.11-2.62-.81-1.32-.31-2.32.01-2.76 2.79.13 5.78.19 9 .19 1.3 0 2.64-.01 4.03-.03 1.38.02 2.71.03 4.01.03 3.22 0 6.21-.06 9.01-.19.25.51.71 1.8-.14 3.19zm23.73-12.91c-7.91 3.86-17.54 5.43-33.25 5.43-1.19 0-2.42-.01-3.76-.03-17.88.26-28.42-1.25-36.93-5.41-3.87-1.89-3.77-8.54-2.41-11.42 3.49-7.39 14.32-24.64 39.39-25.1 25.06.46 35.89 17.71 39.39 25.13 1.34 2.86 1.45 9.51-2.43 11.4zM36.68 16.34a2.501 2.501 0 1 1-4.71 1.69 2.501 2.501 0 1 1 4.71-1.69zM17.91 38.01c-2.59-.18-2.7-1.78-2.15-4.29 1.68-7.71 6.42-12.06 8.85-13.44s3.68-.56 4.51.72c.82 1.28-.69 2.84-1.96 3.67-2.82 1.81-5.17 5.35-6.51 10.2-.39 1.38.15 3.34-2.74 3.14z"/>
</svg>
