<svg xmlns="http://www.w3.org/2000/svg" xml:space="preserve" viewBox="0 0 100 100">
  <path d="M50.3 69.1c-4.14 0-7.51-3.37-7.51-7.51s3.37-7.51 7.51-7.51 7.51 3.37 7.51 7.51-3.37 7.51-7.51 7.51zm.02-12.74c-2.9 0-5.26 2.36-5.26 5.26s2.36 5.26 5.26 5.26 5.26-2.36 5.26-5.26-2.36-5.26-5.26-5.26zm-.97 7.63 1.78-1.68c.2-.19.31-.44.31-.71v-3.23c0-.54-.44-.98-.98-.98s-.98.44-.98.98v2.81L48 62.56a.986.986 0 0 0 .67 1.7c.25 0 .49-.09.68-.27zm37.31 9.89c-1.1 0-2 .9-2 2s.9 2 2 2 2-.9 2-2c0-1.11-.89-2-2-2m8.95-20.92c0-.6-.22-1.05-.6-1.42L76.42 30.1c-.37-.45-.9-.67-1.42-.67h-9.93L51.91 19.36v-6.12H63.6c1.05 0 1.87-.82 1.87-1.87V2.45c0-1.12-.82-1.95-1.87-1.95H49.97c-1.05 0-1.87.82-1.87 1.95v16.91L34.94 29.43h-9.93c-.6 0-1.2.3-1.5.75L4.85 51.69c-.67.82-.6 2.02.22 2.7.37.3.75.45 1.2.45h5.25v40.84H7.47c-1.05 0-1.87.82-1.87 1.87 0 1.12.82 1.95 1.87 1.95h85.06c1.05 0 1.87-.82 1.87-1.95 0-1.05-.82-1.87-1.87-1.87h-4.05V81.49s-.32-1.16-1.89-1.16c-1.64 0-1.93 1.16-1.93 1.16v14.18H58.58V77.71c0-1.05-.82-1.95-1.87-1.95H43.3c-1.05 0-1.87.9-1.87 1.95v17.97H15.34V54.83h20.4c.12.01.25.01.37-.01.49-.04.92-.27 1.23-.61l12.62-10.7 12.69 10.7c.22.24.5.43.82.53h.02c.23.07.46.1.7.08h20.46V70.22s.16.96 1.87.96c1.64 0 1.96-.96 1.96-.96v-15.4h5.17c1.13.01 1.96-.81 1.96-1.86zM51.91 4.32h9.74v5.1h-9.74v-5.1zm-7.82 74.07h11.77v17.29H44.09V78.39zm42.45-27.38H64.8L51.24 39.55c-.75-.6-1.8-.6-2.47 0L35.21 51.01H10.47l15.44-17.76h9.67c.52 0 1-.22 1.36-.57l13.03-10 13.11 10c.35.35.83.57 1.35.57h9.67l15.44 17.76h-3zM22.78 61.75l.13 10.49c0 .43.71 1.26 1.57 1.25l6.81-.05c.86-.01 1.55-.53 1.6-1.31l-.12-10.16c-.1-.9-.71-1.48-1.57-1.47l-6.81.05c-1.18.01-1.62.78-1.61 1.2zm7.94.85.06 8.8-5.74.04-.06-8.8 5.74-.04zm-7.94 15.49.13 10.49c0 .43.71 1.26 1.57 1.25l6.81-.05c.86-.01 1.55-.53 1.6-1.31l-.14-10.17c-.1-.9-.71-1.48-1.57-1.47l-6.81.05c-1.16.01-1.6.78-1.59 1.21zm7.93.74.07 9.01-5.74.04-.07-9.01 5.74-.04zM67.2 61.75l.13 10.49c0 .43.71 1.26 1.57 1.25l6.81-.05c.86-.01 1.55-.53 1.6-1.31l-.12-10.16c-.1-.9-.71-1.48-1.57-1.47l-6.81.05c-1.18.01-1.62.78-1.61 1.2zm7.97.77v8.91h-5.74v-8.91h5.74zM67.2 78.09l.13 10.49c0 .43.71 1.26 1.57 1.25l6.81-.05c.86-.01 1.55-.53 1.6-1.31l-.14-10.17c-.1-.9-.71-1.48-1.57-1.47l-6.81.05c-1.16.01-1.6.78-1.59 1.21zm7.93.74.07 8.96-5.74.04-.07-8.96 5.74-.04z"/>
</svg>
