<svg xmlns="http://www.w3.org/2000/svg" xml:space="preserve" viewBox="0 0 100 100">
  <path d="M82.85 66.92c0 2.08-1.18 2.08-1.18 2.08H54.15s-1.18.07-1.19-2.04c-.01-2.12 1.19-2.08 1.19-2.08h27.52c0-.01 1.18.06 1.18 2.04zm-1.17-7.95H54.15s-1.18-.18-1.17 1.93 1.17 2.19 1.17 2.19h27.52s1.13-.14 1.14-2.12c.02-1.96-1.13-2-1.13-2zM99.5 80.98c0 1.03-.84 1.86-1.87 1.86l-88.38-.22c-1.03 0-1.87-.84-1.86-1.87 0-1.03.84-1.86 1.87-1.86l9.23.02.23-15.14c-2.71.86-7.08 1.59-10.75.01-2.95-1.27-4.87-3.84-5.56-7.43-.54-2.82.59-5.78 1.61-7.57-1.9-1.6-4.17-4.95-3.36-10.02 1.03-6.42 5.28-10.01 11.54-9.79.9-6.76 5.08-10.74 11.39-10.74 5.85 0 10.14 3.55 11.68 9.57 3.6.04 7.13 1.53 9.44 4.04 2.1 2.28 2.98 5.2 2.46 8.21-.54 3.12-2.22 5.95-3.61 7.48 1.18 2.02 2.96 6.29.36 10.6-1.97 3.27-4.56 5.28-7.68 5.96-2.75.6-5.42.03-7.39-.75l.04 15.62 18.56.05V62.29c0-.96.63-1.31 1.43-1.31.8 0 1.47.35 1.47 1.31v9.95h35.08v-9.95c0-.96.55-1.31 1.35-1.31s1.55.35 1.55 1.31v16.69c0 .04-.01.07-.01.11l9.31.02c1.04.01 1.87.84 1.87 1.87zm-49.14-1.99 35.09.09c0-.03-.01-.07-.01-.1V75.3H50.36v3.69zM21.79 58.78l-.31 20.14 4.44.01-.05-20.9 2.34 1.6c.04.02 3.52 2.36 7.41 1.52 2.29-.5 4.23-2.04 5.76-4.58 2.36-3.91-.59-7.94-.93-8.39l-1.2-1.56 1.74-.69c.52-.42 2.69-3.01 3.27-6.38.46-2.66-.68-4.56-1.71-5.68-1.95-2.11-5.21-3.3-8.3-3.03l-1.35.12-.24-1.34c-.57-3.13-2.51-8.39-9.02-8.39-6.62 0-8.31 5.13-8.56 9.44l-.09 1.59-1.58-.2c-5.44-.68-8.91 1.87-9.75 7.18-.8 5.01 2.36 7.46 3.02 7.73l2.2.92-1.71 1.61c-.5.51-2.27 3.7-1.78 6.31.5 2.64 1.75 4.36 3.81 5.25 3.96 1.71 9.47-.23 10.29-.75l2.3-1.53zm33.2-7.63c3.67-.95 6.03-3.33 6.8-6.89.6-2.75-.6-5.39-1.46-6.84 1.29-1.38 3.34-4.14 3.05-7.53-.3-3.57-1.61-6.11-3.88-7.56-2.64-1.68-5.86-1.35-7.69-.96-.43-.89-1.18-2.01-2.45-2.87-1.89-1.29-4.34-1.66-7.28-1.09-5.18.99-5.81 4.79-5.83 4.95-.12.8.42 1.53 1.22 1.67.8.14 1.57-.4 1.73-1.19.04-.2.47-1.93 3.45-2.5 5.72-1.1 6.69 2.69 6.77 3.11l.33 1.72 1.65-.59c.04-.01 3.93-1.38 6.52.28 1.44.92 2.28 2.7 2.5 5.28.27 3.21-2.93 5.89-2.96 5.92l-1.14.93.92 1.15c.02.03 2.21 2.87 1.64 5.48-1.29 5.96-8.53 4.95-8.96 4.89-.45-.1-.92.02-1.29.34a1.5 1.5 0 0 0-.14 2.11c.41.47 1.48.63 2.66.63 1.48-.01 3.14-.26 3.84-.44z"/>
</svg>
