<svg xmlns="http://www.w3.org/2000/svg" xml:space="preserve" viewBox="0 0 100 100">
  <path d="M97.42 25.87h-6.39v-3.48c0-.81-.57-1.49-1.37-1.64a53.117 53.117 0 0 0-20.3.2c-6.79 1.39-13.4 4.17-19.18 8.06A53.84 53.84 0 0 0 31 20.95a53.117 53.117 0 0 0-20.3-.2c-.79.14-1.37.83-1.37 1.64v3.48H2.94c-1.15 0-2.08.93-2.08 2.08v17.02s.4.83 2.14.83c1.67 0 2.03-.83 2.03-.83V30.03h4.31V69.4c0 .5.22.96.6 1.28.38.32.87.45 1.37.36a49.73 49.73 0 0 1 19.03.19c4.65.95 9.07 2.54 13.23 4.73H5.02V58.45s-.5-.83-2.17-.83-2 .83-2 .83v19.6c0 1.15.93 2.08 2.08 2.08h94.48c1.15 0 2.08-.93 2.08-2.08v-50.1c.01-1.15-.92-2.08-2.07-2.08zm-27.4-1.65a49.968 49.968 0 0 1 17.67-.42v43.64c-6.11-.89-12.27-.71-18.33.52a53.116 53.116 0 0 0-16.68 6.48V31.37c5.26-3.44 11.22-5.9 17.34-7.15zM20.35 66.88c-2.56 0-5.12.19-7.68.56V23.8c5.89-.91 11.83-.78 17.67.42 6.13 1.25 12.08 3.72 17.34 7.15v43.07A53.022 53.022 0 0 0 31 67.96c-3.53-.72-7.09-1.08-10.65-1.08zm74.98 9.08H56.79c4.16-2.19 8.59-3.78 13.23-4.73a49.93 49.93 0 0 1 19.03-.19c.5.09.99-.04 1.37-.36.38-.32.6-.79.6-1.28V30.03h4.31v45.93zM2.92 49.14c1.31 0 2.37 1.12 2.37 2.5s-1.06 2.5-2.37 2.5h-.05c-1.31 0-2.37-1.12-2.37-2.5s1.06-2.5 2.37-2.5h.05"/>
</svg>
