<svg id="Layer_1" data-name="Layer 1" xmlns="http://www.w3.org/2000/svg" viewBox="0 0 91.56 91.56"><defs><style>.cls-1{fill:#fff;}</style></defs><title>kaupunki</title><path class="cls-1" d="M37.11,24.78l.1,8.08a1.3,1.3,0,0,0,1.21,1l5.24,0a1.15,1.15,0,0,0,1.23-1l-.09-7.84a1.18,1.18,0,0,0-1.21-1.13l-5.25,0C37.45,23.86,37.11,24.45,37.11,24.78Zm6.12.4.05,7.26-4.42,0-.06-7.26Z"/><path class="cls-1" d="M47.7,24.78l.1,8.08a1.29,1.29,0,0,0,1.2,1l5.25,0a1.15,1.15,0,0,0,1.23-1l-.1-7.84a1.17,1.17,0,0,0-1.2-1.13l-5.25,0C48,23.86,47.7,24.45,47.7,24.78Zm6.11.4,0,7.26-4.42,0,0-7.26Z"/><path class="cls-1" d="M37.11,37.36l.1,8.09a1.28,1.28,0,0,0,1.21,1l5.24,0a1.14,1.14,0,0,0,1.23-1l-.09-7.83a1.17,1.17,0,0,0-1.21-1.13l-5.25,0A1.1,1.1,0,0,0,37.11,37.36Zm6.12.4L43.28,45l-4.42,0L38.8,37.8Z"/><path class="cls-1" d="M47.7,37.36l.1,8.09a1.27,1.27,0,0,0,1.2,1l5.25,0a1.14,1.14,0,0,0,1.23-1l-.1-7.83a1.16,1.16,0,0,0-1.2-1.13l-5.25,0C48,36.44,47.7,37,47.7,37.36Zm6.11.4,0,7.26-4.42,0,0-7.26Z"/><path class="cls-1" d="M37.11,50l.1,8.08a1.28,1.28,0,0,0,1.21,1l5.24,0a1.15,1.15,0,0,0,1.23-1l-.09-7.83a1.17,1.17,0,0,0-1.21-1.13l-5.25,0A1.1,1.1,0,0,0,37.11,50Zm6.12.39.05,7.27-4.42,0-.06-7.26Z"/><path class="cls-1" d="M47.7,50l.1,8.08a1.27,1.27,0,0,0,1.2,1l5.25,0a1.15,1.15,0,0,0,1.23-1l-.1-7.83a1.16,1.16,0,0,0-1.2-1.13l-5.25,0C48,49.09,47.7,49.69,47.7,50Zm6.11.39,0,7.27-4.42,0,0-7.26Z"/><path class="cls-1" d="M67,36.18l.09,7.42a1.19,1.19,0,0,0,1.11.89l4.81,0a1,1,0,0,0,1.13-.93l-.08-7.19a1.09,1.09,0,0,0-1.11-1l-4.82,0C67.31,35.33,67,35.88,67,36.18Zm5.61.36,0,6.67-4.06,0,0-6.67Z"/><path class="cls-1" d="M67,47.73l.09,7.43a1.17,1.17,0,0,0,1.11.88L73,56a1.05,1.05,0,0,0,1.13-.93l-.08-7.19a1.08,1.08,0,0,0-1.11-1l-4.82,0C67.31,46.89,67,47.43,67,47.73Zm5.61.37,0,6.67-4.06,0,0-6.67Z"/><path class="cls-1" d="M20.27,67.32H20c-2.07-.14-2.55-1.24-2.63-1.45l-.05-.17.12-6.33a8.94,8.94,0,0,1-2.78.52c-2.86,0-4.84-.62-6-1.88a5.18,5.18,0,0,1-1.29-4A6.93,6.93,0,0,1,8.9,50.28a5,5,0,0,1-1.56-3.82,6.53,6.53,0,0,1,5.86-5.92,6.91,6.91,0,0,1,7-5.83,7.17,7.17,0,0,1,7,5,8.09,8.09,0,0,1,5.08,2.73,5.07,5.07,0,0,1,1,4.12h0a5.63,5.63,0,0,1-1.89,3.57,6.65,6.65,0,0,1,1,2.81,6.18,6.18,0,0,1-1.62,4.7,7.34,7.34,0,0,1-5.4,2.2,4.65,4.65,0,0,1-2.17-.56l0,6.58-.19.26A3.35,3.35,0,0,1,20.27,67.32Zm-1-2.18a2.36,2.36,0,0,0,.81.17,1.83,1.83,0,0,0,1.09-.22l0-9.49,1.91,1.27a4.14,4.14,0,0,0,2.27,1,5.35,5.35,0,0,0,3.94-1.56,4.11,4.11,0,0,0,1.08-3.2,4.9,4.9,0,0,0-.71-2,6.1,6.1,0,0,1-.38-.78L29,49.68l.86-.85a3.85,3.85,0,0,0,1.46-2.62,3.09,3.09,0,0,0-.65-2.53,6.14,6.14,0,0,0-4.37-2l-.77-.05-.15-.76a5.15,5.15,0,0,0-5.21-4.11,4.92,4.92,0,0,0-5.08,4.78l0,.85-.86.08c-2.93.27-4.52,1.68-4.86,4.29-.13,1,.89,2.07,1.5,2.71l.87.94-.79.68a5.5,5.5,0,0,0-1.62,3A3.25,3.25,0,0,0,10,56.62c.8.85,2.3,1.26,4.58,1.26A7.39,7.39,0,0,0,17.9,57l1.56-1Z"/><path class="cls-1" d="M59.71,66.88H32.8a2.29,2.29,0,0,1-2.3-2.29V61.07l2.55-2v5.31H59.46l-.15-44.57H32.9l.15,19.92-2.55-1v-19a2.3,2.3,0,0,1,2.3-2.29H59.71A2.3,2.3,0,0,1,62,19.67V64.59A2.29,2.29,0,0,1,59.71,66.88Z"/><path class="cls-1" d="M79.33,50.59V60.92H62.05V31.34H79.33V43.59s0,.79,1.12.79,1.21-.79,1.21-.79V31.42a2.3,2.3,0,0,0-2.29-2.29H61.79a2.3,2.3,0,0,0-2.29,2.29v29.5a2.3,2.3,0,0,0,2.29,2.29H79.37a2.3,2.3,0,0,0,2.29-2.29V50.59s-.12-.79-1.21-.79S79.33,50.59,79.33,50.59Z"/><path class="cls-1" d="M80.45,45.81A1.22,1.22,0,1,0,81.67,47a1.22,1.22,0,0,0-1.22-1.22"/></svg>