<svg xmlns="http://www.w3.org/2000/svg" xml:space="preserve" viewBox="0 0 100 100">
  <path d="M86.83 39.24c-.86-1.62-2.45-2.75-3.3-3.26.02-1.06-.19-3.14-1.85-4.45-2.01-1.58-6.33-2.01-7.24-1.61-.38.17-1.87.49-2.97.65 1.09-2 3.06-5.8 3.28-7.31.32-2.23-.91-3.77-.96-3.83l-.29-.35-26.08.34c-.32.02-3.2.27-4.45.89-.42.21-.76.49-1.05.82-1.49-1.45-6.57-5.95-12.29-5.95-7.35 0-11.56 4.7-13.06 9.1-1.3 3.82-2.43 17.24-2.43 18.96 0 .92.3 1.49.9 1.7.79.29 1.51-.34 1.85-.73.79-.51 6.16-3.91 11.25-3.74 5.97.2 10.06 3.06 12.02 4.43.67.47 1.03.72 1.38.82.75.21 1.22-.14 1.38-.3.57-.56.45-1.47.34-1.93l-.79-18.25c0-.68.26-2.73 1.34-3.27.69-.35 2.67-.61 3.7-.7l25.04-.32c.21.4.48 1.13.35 2.04-.16 1.09-1.93 4.6-3.24 7-2.59-1.47-5.72-3.27-6.27-3.66-2.62-1.89-5.35-2.47-9.19-2.82-6.23-.58-8.54 5.54-8.85 8.86l-.01.11 2.02 14.72a.934.934 0 0 0 1.85-.25l-1.99-14.5c.11-.95 1.11-7.58 6.8-7.07 3.52.32 6 .83 8.27 2.47.24.17.84.54 1.59.98a3.312 3.312 0 0 0-1.96 3.01c0 1.27.72 2.35 1.77 2.91-.07.03-.15.07-.21.09-3.18 1.06-6.52 2.42-7.22 4.52-.77 2.3.63 3.67 2.41 5.4l.73.72c.13.13.23.25.34.38.08.18.21.32.37.41 1.38 1.76 1.49 3.41 1.4 4.7-.05.83-.51 2.08-.94 3.3-.54 1.5-1.05 2.92-1.05 4.04 0 .3.02.79.04 1.4.1 2.91.34 9.73-.98 12.18-.71 1.32-2.01 2.53-3.4 3.5-.18.02-.35.08-.49.2-.09.08-.15.17-.21.26-1.52.96-3.05 1.61-3.98 1.78-2.14.38-4.58.38-4.6.38h-1.05l.12 1.04c0 .03.29 2.74-2.06 3.65-3.28 1.29-5.73 1.34-7.96.18-1.76-.92-3.3-2.24-4.13-3.02 8.99-.72 16.1-8.26 16.1-17.43 0-9.65-7.85-17.5-17.5-17.5s-17.5 7.85-17.5 17.5c0 9.3 7.29 16.91 16.46 17.45l-3.46 5.32.39.52c.19.25 4.71 6.11 16.88 4.47 1.39-.19 2.84-.83 4.12-1.39.93-.41 2.67-1.17 2.98-.92.96.77 2.88 2.06 4.95 2.06 1.12 0 2.08-.4 2.63-.7 1.25.6 4.69 2.15 7.03 2.15 2.22 0 3.62-.67 4.22-1.03 1.26.08 5.63.12 9.26-2.3.87-.58 1.6-.98 2.24-1.34 1.77-.98 2.93-1.63 3.81-4.16.99-2.84.31-4.13-.1-4.9-.04-.07-.07-.13-.1-.19.12-.25.46-.74.74-1.14.82-1.17 1.95-2.78 2.52-4.81.54-1.95.19-4.12-.02-5.06.64-.86 2.07-3.02 2.3-5.42.2-2.11-.17-3.74-.41-4.54.62-.85 1.83-2.83 1.6-5.04-.24-2.29-2.32-4.93-3.19-5.95.36-1.25 1.06-4.39.06-6.27zm-45.59 4.14c-2.11-1.48-6.5-4.55-13.03-4.77-.14 0-.29-.01-.43-.01-5.24 0-10.44 3.11-11.74 3.94.17-3.21 1.2-14.4 2.31-17.65.62-1.84 3.29-7.84 11.29-7.84 5.86 0 11.3 5.73 11.36 5.79h.01a8.41 8.41 0 0 0-.39 2.44l.79 18.19a.556.556 0 0 1-.17-.09zm43.94-3.26c.62 1.16.15 3.8-.3 5.26l-21.51 4.3c-.1-1.39-.51-2.64-1.25-3.79l20.44-8.32c.74.46 2 1.38 2.62 2.55zm-27.13-.15c.23-.68 1.46-1.81 6.16-3.38 1.53-.51 5.58-3.31 6.67-4.08 1.77-.05 4.24-.85 4.23-.85.57-.11 3.94.17 5.42 1.33 1.01.8 1.14 2.19 1.13 2.91L60.9 44.37c-.06-.06-.11-.13-.17-.19l-.74-.73c-1.74-1.7-2.32-2.34-1.94-3.48zM14.42 62.46c0-8.28 6.74-15.01 15.01-15.01s15.01 6.73 15.01 15.01-6.74 15.01-15.01 15.01-15.01-6.73-15.01-15.01zm36.05 23.99c-1.2-.96-2.91-.21-4.9.67-1.22.54-2.49 1.1-3.61 1.25-9.14 1.24-13.43-2.01-14.71-3.27l2.43-3.73c.93.86 2.56 2.22 4.43 3.2 2.71 1.42 5.73 1.39 9.51-.09 2.35-.92 3.12-3.04 3.24-4.59.95-.03 2.48-.13 3.93-.38l3.77 8.57c-.1.01-.2.02-.31.02-1.1 0-2.48-.61-3.78-1.65zm6.79.92-.51-.26-.44.31-3.73-8.46c.82-.33 1.72-.78 2.61-1.32l10.08 11.79c-.4.07-.85.12-1.37.12-1.98 0-5.46-1.57-6.64-2.18zm10.71 1.13-.38-.03-.29.22c-.01.01-.06.04-.13.08L56.75 76.58c1.15-.87 2.2-1.88 2.96-2.97l16.57 12.62c.09.07.19.11.29.15-.08.05-.15.09-.22.14-3.63 2.43-8.33 1.98-8.38 1.98zm13.71-6.52c-.65 1.86-1.32 2.23-2.95 3.14-.29.16-.61.34-.96.54a.931.931 0 0 0-.34-.9L60.6 71.94c.37-1.01.6-2.28.74-3.72l20.25 10.12c.04.07.06.14.1.22.32.6.71 1.35-.01 3.42zm3.02-10.93c-.48 1.72-1.5 3.18-2.25 4.24-.27.39-.51.73-.7 1.05L61.48 66.2c.05-1.22.05-2.52.03-3.85l23.29 5.29c.14.91.23 2.24-.1 3.41zm2.22-10.16c-.23 2.44-2.15 4.76-2.17 4.78l-.03.03-23.27-5.29c-.01-.25-.02-.5-.02-.74-.02-.59-.04-1.05-.04-1.34 0-.41.13-.96.31-1.56l25 .76c.18.73.36 1.9.22 3.36zm1.19-9.21c.2 1.87-1.17 3.65-1.44 3.98l-24.34-.74c.41-1.15.82-2.32.97-3.32l22.36-4.47c.95 1.17 2.3 3.12 2.45 4.55zM55.48 33.31a1.92 1.92 0 1 1 .001-3.841 1.92 1.92 0 0 1-.001 3.841zm33.65-4.39c-1.92-2.05-4.54-3.23-6.46-4.09-.74-.33-1.67-.75-1.83-.89-.32-.53-.04-2.68.39-3.13 7.4-5.98 4.65-18.57 4.53-19.11l-.22-.96-.98-.01C83.1.71 48.87.33 45.03.6c-3.53.24-7.39 3.85-8.87 5.36-2.89-.91-12.76-3.22-21.36 4.2C5.43 18.24 4.52 30.74 4.13 36.08l-.08 1.11c-.36 4.27 1.51 9.2 2.15 10.73-.77 2.21-3.7 11.32-1.84 17.52.95 3.16 4.32 8.58 7.08 10.58 1.17.85 2.69 1.58 4.03 2.24 1.06.52 2.67 1.3 2.94 1.68.14.21.47 1.14.73 1.89 1.02 2.87 2.56 7.21 5.29 9.27 9.92 7.5 19.88 3.01 23.16 1.53.35-.16.62-.29.81-.35.54.07 1.33.72 3.62 2.65l.23.19c3.33 2.81 8.69 4.39 14.2 4.39 1.95 0 3.91-.2 5.81-.61 8.06-1.74 14.24-6.65 16.14-12.8 1.1-3.58 1.63-9.76 1.05-12.48-.16-.77.69-1.94 1.68-3.3 1.13-1.55 2.54-3.48 3.42-6.05 1.88-5.55 4.23-25.02-5.42-35.35zm3.05 34.53c-.76 2.21-1.99 3.9-3.08 5.39-1.34 1.84-2.5 3.42-2.11 5.28.49 2.31-.02 8.08-1 11.23-1.63 5.29-7.1 9.54-14.28 11.1-7.32 1.59-14.53-.43-17.87-3.25l-.23-.19c-2.95-2.49-3.85-3.24-5.33-3.24-.44 0-.84.18-1.73.58-3.25 1.47-11.89 5.36-20.63-1.25-2.13-1.61-3.57-5.68-4.44-8.12-.46-1.3-.72-2-1.01-2.44-.59-.89-1.88-1.54-3.92-2.54-1.25-.61-2.66-1.3-3.66-2.01-2.05-1.48-5.27-6.34-6.15-9.27-1.84-6.13 1.92-16.3 1.96-16.41l.18-.48-.21-.47c-.03-.05-2.51-5.59-2.14-9.97l.09-1.14c.4-5.46 1.22-16.81 9.81-24.22 8.82-7.61 19.2-3.66 19.63-3.49l.81.32.58-.64c1.23-1.37 5.03-4.96 7.76-5.15 3.38-.23 32.43.06 38.3.12.45 2.88 1.29 11.51-3.84 15.66-1.38 1.11-1.92 4.82-.94 6.4.46.74 1.44 1.18 2.92 1.84 1.72.77 4.09 1.84 5.66 3.52 8.88 9.52 6.64 27.66 4.87 32.84zm-62.75 2.31c-1.82 0-3.3-1.48-3.3-3.3 0-1.82 1.48-3.3 3.3-3.3s3.3 1.48 3.3 3.3c0 1.82-1.48 3.3-3.3 3.3z"/>
</svg>
