<svg id="Layer_1" data-name="Layer 1" xmlns="http://www.w3.org/2000/svg" viewBox="0 0 91.56 91.56"><defs><style>.cls-1{fill:#fff;}</style></defs><title>teatteri</title><path class="cls-1" d="M17.4,48a1.07,1.07,0,0,1-.25,0c-2.53-.64-4.16-1.77-4.83-3.37a5.77,5.77,0,0,1,0-3.65c.22-.92.33-1.51.06-2-.42-.72-1.78-1.12-3.84-1.12a1,1,0,0,1,0-2h0c2.91,0,4.73.69,5.56,2.11a4.45,4.45,0,0,1,.16,3.44,3.9,3.9,0,0,0-.06,2.43c.41,1,1.58,1.72,3.47,2.2a1,1,0,0,1-.24,2Z"/><circle class="cls-1" cx="21.02" cy="47.45" r="1.22"/><path class="cls-1" d="M72.46,50.59a1,1,0,0,1-.61-.2,25.63,25.63,0,0,0-4.12-2.59h0A25.11,25.11,0,0,0,63.2,46a1,1,0,0,1-.37-1.71,6.21,6.21,0,0,1,10.61,5.35,1,1,0,0,1-.58.84A1.14,1.14,0,0,1,72.46,50.59ZM65.79,44.8A29.18,29.18,0,0,1,68.62,46h0a26.8,26.8,0,0,1,2.67,1.53,3.88,3.88,0,0,0-5.5-2.77Z"/><path class="cls-1" d="M61.23,63.29a1,1,0,0,1-.74-.34,23.31,23.31,0,0,0-6.25-4.76,1,1,0,0,1,.95-1.74,27.9,27.9,0,0,1,5.2,3.61c-.45-1.82-2.23-3.88-4.77-5.31a1,1,0,0,1-.37-1.35A1,1,0,0,1,56.59,53c4.47,2.51,6.8,6.57,5.56,9.64a1,1,0,0,1-.75.6Z"/><path class="cls-1" d="M54.28,69.68a13.64,13.64,0,0,1-6.19-1.44,10.48,10.48,0,0,1-1.15-.67A1,1,0,0,1,48,65.91c.32.2.64.39,1,.57,4.21,2.12,9.54,1.46,15-1.86s10.67-9.17,14.23-16.24a54.63,54.63,0,0,0,3.85-10c-.71-.23-2.22-.56-3.58-.86-4-.87-9.4-2.06-13-3.87-3.76-1.89-8.31-5.85-11.33-8.46-.91-.8-1.85-1.61-2.37-2a52.64,52.64,0,0,0-5,7.7,1,1,0,1,1-1.74-.94C45.88,28.45,50,21,51.78,21h0c.59,0,1,.35,3.7,2.68,2.94,2.56,7.38,6.42,10.92,8.2,3.35,1.69,8.87,2.9,12.52,3.7,4,.88,4.64,1.06,5,1.7,1,1.75-3.87,11.87-3.92,12-3.73,7.39-9,13.45-15,17A21,21,0,0,1,54.28,69.68ZM82.43,38.52Z"/><path class="cls-1" d="M47.47,67.73A1,1,0,0,1,46.88,66a23.59,23.59,0,0,0,6.94-9.05,1,1,0,1,1,1.79.84,25.6,25.6,0,0,1-7.55,9.8A1,1,0,0,1,47.47,67.73Z"/><path class="cls-1" d="M54.72,58.31a.9.9,0,0,1-.42-.1,1,1,0,0,1-.48-1.31,34.78,34.78,0,0,0,1.35-3.34,1,1,0,1,1,1.87.65c-.42,1.2-.9,2.39-1.43,3.53A1,1,0,0,1,54.72,58.31Z"/><path class="cls-1" d="M56.11,54.87a1,1,0,0,1-.33,0,1,1,0,0,1-.61-1.26,44.23,44.23,0,0,0,2.31-14.32,45.34,45.34,0,0,0-1.16-10.32,47.1,47.1,0,0,1-10.25,2.47,1,1,0,1,1-.25-2,45,45,0,0,0,10.83-2.75,1,1,0,0,1,.81,0,.93.93,0,0,1,.51.63,46.84,46.84,0,0,1,1.49,11.89,46.29,46.29,0,0,1-2.42,15A1,1,0,0,1,56.11,54.87Z"/><path class="cls-1" d="M26.13,43.92a1,1,0,0,1-.77-.37,1,1,0,0,1-.14-1,6.69,6.69,0,0,1,5.94-4.4,6.69,6.69,0,0,1,5.95,4.4,1,1,0,0,1-.14,1,1,1,0,0,1-1,.35,26.31,26.31,0,0,0-9.69,0A.62.62,0,0,1,26.13,43.92Zm5-2.45a28.47,28.47,0,0,1,3.08.17,3.87,3.87,0,0,0-6.15,0A28.14,28.14,0,0,1,31.16,41.47Z"/><path class="cls-1" d="M42.8,43.92a1,1,0,0,1-.91-1.38,6.69,6.69,0,0,1,6-4.4,6.69,6.69,0,0,1,5.94,4.4,1,1,0,0,1-.14,1,1,1,0,0,1-1,.35,26.31,26.31,0,0,0-9.69,0A.62.62,0,0,1,42.8,43.92Zm5-2.45a28.14,28.14,0,0,1,3.07.17,3.87,3.87,0,0,0-6.15,0A28.33,28.33,0,0,1,47.84,41.47Z"/><path class="cls-1" d="M39.5,63.41c-5.37,0-9.78-5-10-11.41a1,1,0,0,1,1.61-.81,13.88,13.88,0,0,0,16.88,0A1,1,0,0,1,49,51.08a1,1,0,0,1,.54.92C49.29,58.4,44.87,63.41,39.5,63.41ZM31.69,54c.93,4.29,4.08,7.42,7.81,7.42S46.38,58.3,47.31,54a16.18,16.18,0,0,1-15.62,0Z"/><path class="cls-1" d="M21.81,43.48c0-2.27-.08-1.77,0-4.12a62.33,62.33,0,0,1,.9-10.13c.5.11,1.18,0,1.91.19,3.88,1,10.39,2.65,15,2.65a40.33,40.33,0,0,0,6.6-.66c1.47-.24,1.61-.47.83-.88-.49-.25-.55-.91-1.11-.85a50.27,50.27,0,0,1-6.32.41c-4.37,0-11-1.68-14.52-2.58-2.41-.62-2.79-.71-3.16-.64-.81.14-1.25.69-1.78,5.17a70.61,70.61,0,0,0-.62,7.36c0,2.64-.08,2.43,0,4.41a1.36,1.36,0,0,0,1.36.7A1.13,1.13,0,0,0,21.81,43.48Z"/><path class="cls-1" d="M48.26,66.15a1,1,0,0,0-1.38-.2,12.27,12.27,0,0,1-7.38,2.61c-7.55,0-13.94-6.71-16.6-17.48a1,1,0,0,0-1.24-.7,1.3,1.3,0,0,0-.94,1.19c2.88,11.74,10.29,19,18.78,19a14.15,14.15,0,0,0,8.56-3A1,1,0,0,0,48.26,66.15Z"/></svg>