<svg id="Layer_1" data-name="Layer 1" xmlns="http://www.w3.org/2000/svg" viewBox="0 0 91.56 91.56"><defs><style>.cls-1{fill:#fff;}</style></defs><title>tehdas</title><path class="cls-1" d="M68.06,19.83c-.21-.32.08-.68.17-.78h0c.94-1.66-.94-2.33-1.59-1.55A2.88,2.88,0,0,0,66.2,21a1.13,1.13,0,0,1,0,1.15v0c-.76,1.22.91,2.33,1.92,1.11a3.35,3.35,0,0,0-.12-3.45"/><path class="cls-1" d="M63,19.83c-.21-.32.07-.68.16-.78h0c1-1.66-.94-2.33-1.58-1.55A2.85,2.85,0,0,0,61.1,21a1.18,1.18,0,0,1,0,1.15v0c-.76,1.22.9,2.33,1.92,1.11A3.37,3.37,0,0,0,63,19.83"/><path class="cls-1" d="M61.74,63.4a1.11,1.11,0,1,0,1.11,1.11,1.11,1.11,0,0,0-1.11-1.11"/><path class="cls-1" d="M63,50.12a1.11,1.11,0,1,0,1.11,1.11A1.11,1.11,0,0,0,63,50.12"/><path class="cls-1" d="M56.77,72.15,57,69.93h7.86a1,1,0,0,0,1-1,1,1,0,0,0-1-1H57.2l1.94-20.16h5.28a1,1,0,0,0,1-1.05,1,1,0,0,0-1-1H59.35L59.7,42h9.43l.68,8.18H66.58a1,1,0,0,0-1.11,1,1,1,0,0,0,1.09,1H70l1,11.3H65.37a1.07,1.07,0,0,0-1.19,1,1.11,1.11,0,0,0,1.16,1h5.75l.56,6.66ZM27.58,54.4V43.3H57.34L56.26,54.4Zm27,17.75H19.82V56.62H56ZM35.71,36.91H39.4l.3,4.17H35.44Zm.35-4.28h3l.2,2.68H35.87Zm.32-4h2.38L38.93,31l-2.72,0ZM47,37h3.47l.37,4.08H46.53Zm.16-4.31h3l.24,2.62H47Zm.35-4h2.38l.21,2.29-2.78,0Zm13.09,4.44h7.72l.65,6.66h-9ZM61,28.65h6.86l.22,2.22h-7.3ZM74,73.17l-2.7-32.41L70,27.43a1.1,1.1,0,0,0-1.1-1H60a1.1,1.1,0,0,0-1.1,1L57.55,41.08H53L52,27.46a1.11,1.11,0,0,0-1.11-1H46.45a1.11,1.11,0,0,0-1.11,1l-1,13.62H41.93l-1-13.62a1.1,1.1,0,0,0-1.1-1H35.35a1.12,1.12,0,0,0-1.11,1l-1,13.62H26.47a1.11,1.11,0,0,0-1.11,1.11V54.4H18.71a1.1,1.1,0,0,0-1.11,1.11V73.26a1.1,1.1,0,0,0,1.11,1.11H72.85a1.11,1.11,0,0,0,.82-.36,1.08,1.08,0,0,0,.29-.84"/><path class="cls-1" d="M33.84,61.38H22.4a.91.91,0,0,0-.78,1v4.37a.91.91,0,0,0,.78,1H33.84a.91.91,0,0,0,.78-1V62.38A.91.91,0,0,0,33.84,61.38Zm-.66,5H23V62.75H33.18Z"/><path class="cls-1" d="M49.53,61.38H38.09a.91.91,0,0,0-.78,1v4.37a.91.91,0,0,0,.78,1H49.53a.91.91,0,0,0,.78-1V62.38A.91.91,0,0,0,49.53,61.38Zm-.66,5H38.68V62.75H48.87Z"/><path class="cls-1" d="M39.4,45.85l-8,0a1.15,1.15,0,0,0-1,1v4.37a1,1,0,0,0,1,1l7.72,0c.69-.06,1.13-.45,1.13-1V46.88A1,1,0,0,0,39.4,45.85ZM39,50.94H31.81V47.25H39Z"/></svg>