<svg id="Layer_1" data-name="Layer 1" xmlns="http://www.w3.org/2000/svg" viewBox="0 0 91.56 91.56"><defs><style>.cls-1{fill:none;}.cls-2{fill:#fdfefe;}.cls-3{fill:#fff;}</style></defs><title>koti</title><rect class="cls-1" x="19.54" y="34.98" width="34.73" height="23.58"/><path class="cls-2" d="M73.72,41l-8.49-6.21c0-3.31,0-11.31,0-11.31a1.4,1.4,0,0,0-1.39-1.4l-8,0a1.39,1.39,0,0,0-1.39,1.28.37.37,0,0,0,0,.11l0,3.43-7.36-5.38a1.46,1.46,0,0,0-1.73,0L18.68,41a1.46,1.46,0,0,0,1.73,2.36L46.2,24.51,72,43.4A1.46,1.46,0,1,0,73.72,41ZM57.23,24.88l5.25,0s0,5.28,0,7.89L57.21,29Z"/><path class="cls-2" d="M65.8,43.26a1.43,1.43,0,0,0-1.43,1.43V67.46H52.93V55a7.15,7.15,0,0,0-14.3,0V67.46H27.18V49.38a1.43,1.43,0,0,0-2.86,0V68.89a1.43,1.43,0,0,0,1.43,1.43H40.06A1.43,1.43,0,0,0,41.48,69a.41.41,0,0,0,0-.11V55a4.29,4.29,0,0,1,8.58,0V68.89a.41.41,0,0,0,0,.11,1.43,1.43,0,0,0,1.42,1.32H65.8a1.43,1.43,0,0,0,1.43-1.43V44.69A1.43,1.43,0,0,0,65.8,43.26Z"/><path class="cls-3" d="M25.88,43.23a1.53,1.53,0,1,0,1.53,1.53,1.54,1.54,0,0,0-1.53-1.53"/></svg>