<svg id="Layer_1" data-name="Layer 1" xmlns="http://www.w3.org/2000/svg" viewBox="0 0 91.56 91.56"><defs><style>.cls-1{fill:#fff;}</style></defs><title>juna</title><path class="cls-1" d="M51.42,63.66H40.24a12.27,12.27,0,0,1-12.47-12V37.25a1.5,1.5,0,0,1,3,0V51.63a9.27,9.27,0,0,0,9.47,9H51.42a9.27,9.27,0,0,0,9.47-9V37.25a1.5,1.5,0,0,1,3,0V51.63A12.27,12.27,0,0,1,51.42,63.66Z"/><path class="cls-1" d="M62.39,41.88a1.5,1.5,0,0,1-1.5-1.5v-18A5.61,5.61,0,0,0,55.15,17H36.51a5.61,5.61,0,0,0-5.74,5.45v18a1.5,1.5,0,0,1-3,0v-18A8.61,8.61,0,0,1,36.51,14H55.15a8.61,8.61,0,0,1,8.74,8.45v18A1.5,1.5,0,0,1,62.39,41.88Z"/><path class="cls-1" d="M39.54,54.38a2.32,2.32,0,1,1-2.32-2.32A2.32,2.32,0,0,1,39.54,54.38Z"/><path class="cls-1" d="M58,54.38a2.32,2.32,0,1,1-2.32-2.32A2.32,2.32,0,0,1,58,54.38Z"/><path class="cls-1" d="M55.77,21.44a1.83,1.83,0,1,1-1.83-1.82A1.83,1.83,0,0,1,55.77,21.44Z"/><rect class="cls-1" x="36.48" y="19.62" width="13.84" height="3.25" rx="1.56"/><path class="cls-1" d="M34.28,39a1,1,0,0,1-1-1V28a1,1,0,0,1,.82-1L45.63,24.9a1,1,0,0,1,.82.22,1,1,0,0,1,.36.76v10a1,1,0,0,1-.82,1L34.47,39Zm1-10.16v8l9.53-1.76v-8Zm10.53,7h0Z"/><path class="cls-1" d="M57.34,39l-.18,0L45.63,36.86a1,1,0,0,1-.82-1v-10a1,1,0,0,1,.36-.76A1,1,0,0,1,46,24.9L57.52,27a1,1,0,0,1,.82,1V38a1,1,0,0,1-.36.77A1,1,0,0,1,57.34,39Zm-10.53-4,9.53,1.76v-8l-9.53-1.76Z"/><path class="cls-1" d="M45.83,55.23a1,1,0,0,1-1-1c0-8.81-14.79-10.4-14.94-10.41a1,1,0,0,1,.19-2c.69.07,16.75,1.78,16.75,12.4A1,1,0,0,1,45.83,55.23Z"/><path class="cls-1" d="M45.88,55.23a1,1,0,0,1-1-1c0-10.62,16.06-12.33,16.75-12.4a1,1,0,0,1,1.09.9,1,1,0,0,1-.9,1.09c-.15,0-14.94,1.6-14.94,10.41A1,1,0,0,1,45.88,55.23Z"/><path class="cls-1" d="M21.89,77.59a1,1,0,0,1-.73-.32,1,1,0,0,1,.05-1.41l15-14.07a1,1,0,0,1,1.41,0,1,1,0,0,1,0,1.42l-15,14.07A1,1,0,0,1,21.89,77.59Z"/><path class="cls-1" d="M68.39,77.59a1,1,0,0,1-.68-.27L53.06,63.59a1,1,0,1,1,1.37-1.46L69.07,75.86a1,1,0,0,1,.05,1.41A1,1,0,0,1,68.39,77.59Z"/><path class="cls-1" d="M57.45,67.34H32.83a1,1,0,0,1,0-2H57.45a1,1,0,0,1,0,2Z"/><path class="cls-1" d="M61.92,71.52H28.36a1,1,0,0,1,0-2H61.92a1,1,0,0,1,0,2Z"/><path class="cls-1" d="M66.38,75.7H23.9a1,1,0,1,1,0-2H66.38a1,1,0,0,1,0,2Z"/></svg>