<svg id="Layer_1" data-name="Layer 1" xmlns="http://www.w3.org/2000/svg" viewBox="0 0 91.56 91.56"><defs><style>.cls-1{fill:#fff;}.cls-2{fill:none;}</style></defs><title>ambulanssi</title><path class="cls-1" d="M41.88,42.75H37.56a.9.9,0,0,1-.9-.91V39.51H34.28a.91.91,0,0,1-.91-.91V34.34a.91.91,0,0,1,.91-.91h2.38V31.1a.9.9,0,0,1,.9-.91h4.32a.91.91,0,0,1,.91.91v2.33h2.38a.91.91,0,0,1,.91.91V38.6a.91.91,0,0,1-.91.91H42.79v2.33A.91.91,0,0,1,41.88,42.75Zm-3.41-1.82H41V38.6a.9.9,0,0,1,.9-.91h2.38V35.24H41.88a.9.9,0,0,1-.9-.9V32H38.47v2.34a.9.9,0,0,1-.91.9H35.18v2.45h2.38a.91.91,0,0,1,.91.91Z"/><path class="cls-1" d="M80.56,47.34h-22a1,1,0,0,1-1-1V28.7a1,1,0,0,1,1-1h3a1,1,0,0,1,1,1,52.58,52.58,0,0,0,.82,5.8c1,4.85,2.08,5.07,2.09,5.07h7.84a1.05,1.05,0,0,1,1,.63A4.3,4.3,0,0,0,76.63,42a11.73,11.73,0,0,0,1.49.72c1.4.81,3,1.73,3.42,3.25a1.16,1.16,0,0,1,.07.37A1,1,0,0,1,80.56,47.34ZM62.35,34.82c-.41-2-.65-4-.77-5.09H60V45.27H79.37c-.41-.28-.88-.55-1.3-.8-.73-.42-3-.82-3.47-1.29a5.22,5.22,0,0,1-1-1.62H66.48"/><path class="cls-1" d="M73.24,41.56H65.73c-1.79,0-3.05-2.14-4-6.74a57.21,57.21,0,0,1-.82-6,1,1,0,0,1,.26-.78,1,1,0,0,1,.73-.34h6.63c.83,0,1.21.77,2,2.63.48,1.22,1,2.81,1.64,4.49.68,1.89,1.37,3.85,1.94,5.25a1,1,0,0,1,.12.49A1,1,0,0,1,73.24,41.56ZM63.05,29.73c.11,1.11.33,2.91.68,4.69,1,4.85,2,5.07,2,5.07h6c-.46-1.22-1-2.62-1.45-4-.73-2.08-1.71-4.83-2.19-5.77Z"/><path class="cls-1" d="M20.68,60.51H16a1,1,0,0,1-1-1V56.22a1,1,0,0,1,1-1h4.67a1,1,0,0,1,1,1v3.26A1,1,0,0,1,20.68,60.51Zm-3.63-2.07h2.59V57.25H17.05Z"/><path class="cls-1" d="M81.61,59.93H77a1,1,0,0,1-1-1V55.64a1,1,0,0,1,1-1h4.66a1,1,0,0,1,1,1V58.9A1,1,0,0,1,81.61,59.93ZM78,57.87h2.6v-1.2H78Z"/><path class="cls-1" d="M65.57,64.07A6.32,6.32,0,1,1,72,57.75,6.36,6.36,0,0,1,65.57,64.07Zm0-9.74a3.42,3.42,0,1,0,3.49,3.42A3.45,3.45,0,0,0,65.57,54.33Z"/><path class="cls-1" d="M66.35,29.73H61.73a1,1,0,0,1-1-1V25.29a1,1,0,0,1,1-1h4.62a1,1,0,0,1,1,1V28.7A1,1,0,0,1,66.35,29.73Zm-3.59-2.07h2.56V26.33H62.76Z"/><path class="cls-1" d="M81.06,58.7H72a1,1,0,0,1,0-2h7V47.25a1,1,0,0,1,2,0Z"/><path class="cls-1" d="M32.17,45.77a2,2,0,0,0-.08-.26,1.41,1.41,0,0,0-.13-.24,1.06,1.06,0,0,0-.17-.2.87.87,0,0,0-.21-.17,1,1,0,0,0-.23-.13,1.29,1.29,0,0,0-.26-.08,1.39,1.39,0,0,0-1.24.38,1.63,1.63,0,0,0-.17.2,1.34,1.34,0,0,0-.12.24,1.12,1.12,0,0,0-.08.26,1.24,1.24,0,0,0,0,.27,1.09,1.09,0,0,0,0,.26,1.12,1.12,0,0,0,.08.26,1.34,1.34,0,0,0,.12.24l.17.21a1.41,1.41,0,0,0,1,.4l.27,0a1.29,1.29,0,0,0,.26-.08,1,1,0,0,0,.23-.12,1.2,1.2,0,0,0,.21-.17A1.57,1.57,0,0,0,32,46.8a1.41,1.41,0,0,0,.13-.24,2,2,0,0,0,.08-.26,2.11,2.11,0,0,0,0-.26,2.45,2.45,0,0,0,0-.27"/><path class="cls-1" d="M58.27,47.37h0l-22.94,0a1.25,1.25,0,0,1,0-2.5h0l22.94,0a1.25,1.25,0,0,1,0,2.5Z"/><path class="cls-2" d="M30,54.87a3.48,3.48,0,0,0-3.33,2.52h6.67A3.48,3.48,0,0,0,30,54.87Z"/><path class="cls-2" d="M30,61.8a3.49,3.49,0,0,0,3.29-2.32H26.69A3.48,3.48,0,0,0,30,61.8Z"/><path class="cls-1" d="M26.52,58.77a3,3,0,0,1,0-.43,3.31,3.31,0,0,1,.15-1h-3a7.32,7.32,0,0,0-.07,1,5.37,5.37,0,0,0,.05.8,3.4,3.4,0,0,0,.07.34h3A3.34,3.34,0,0,1,26.52,58.77Z"/><path class="cls-2" d="M30.32,54.91a3.48,3.48,0,0,0-3.27,2.29H33.6A3.48,3.48,0,0,0,30.32,54.91Z"/><path class="cls-2" d="M30.32,52A6.37,6.37,0,0,1,36.6,57.2H57.23V28H18.11V57.2H24A6.37,6.37,0,0,1,30.32,52Z"/><path class="cls-2" d="M30.32,61.75a3.48,3.48,0,0,0,3.19-2H27.13A3.49,3.49,0,0,0,30.32,61.75Z"/><path class="cls-1" d="M58.52,25.07H16.9c-.8,0-1.45,0-1.45,1.22v32.2c0,1.22.65,1.21,1.45,1.21h7.19a6.19,6.19,0,0,1-.16-1.37A6.1,6.1,0,0,1,24,57.2H18.11V28H57.23V57.2H36.6a6.1,6.1,0,0,1,.11,1.13,6.19,6.19,0,0,1-.15,1.37h22c.81,0,1.46,0,1.46-1.21V26.29C60,25.07,59.33,25.07,58.52,25.07Z"/><path class="cls-1" d="M30.32,61.75a3.49,3.49,0,0,1-3.19-2h-3a6.4,6.4,0,0,0,12.47,0H33.51A3.48,3.48,0,0,1,30.32,61.75Z"/><path class="cls-1" d="M30.32,54.91A3.48,3.48,0,0,1,33.6,57.2h3A6.39,6.39,0,0,0,24,57.2h3A3.48,3.48,0,0,1,30.32,54.91Z"/><path class="cls-1" d="M26.84,58.33a3.28,3.28,0,0,1,.21-1.13H24a6.1,6.1,0,0,0-.11,1.13,6.19,6.19,0,0,0,.16,1.37h3A3.46,3.46,0,0,1,26.84,58.33Z"/><path class="cls-1" d="M36.6,57.2h-3a6.62,6.62,0,0,1-.09,2.5h3.05a6.19,6.19,0,0,0,.15-1.37A6.1,6.1,0,0,0,36.6,57.2Z"/></svg>