<svg id="Layer_1" data-name="Layer 1" xmlns="http://www.w3.org/2000/svg" viewBox="0 0 91.56 91.56"><defs><style>.cls-1{fill:#fff;}</style></defs><title>sieni</title><path class="cls-1" d="M48.08,46.94c-.74,0-1.51,0-2.3,0s-1.56,0-2.3,0c-9.95,0-16.09-1-21.19-3.59-3.12-1.56-3.37-6.52-2.17-9.12,2.28-4.94,9.33-16.43,25.63-16.74A28.07,28.07,0,0,1,71.43,34.22c1.21,2.61,1,7.57-2.16,9.13C64.17,45.9,58,46.94,48.08,46.94Zm-2.52-2.57,2.15,0c9,0,14.48-.9,19-3.11,2.22-1.08,2.16-4.88,1.39-6.51a24.83,24.83,0,0,0-45,0c-.78,1.64-.83,5.44,1.38,6.52C29.31,43.65,35.34,44.52,45.56,44.37Z"/><path class="cls-1" d="M47.71,52.09H42.59c-3.32,0-5.48-.83-6.41-2.37A4.07,4.07,0,0,1,36.12,46l1.3.66-.65-.33,1.69.33a1.34,1.34,0,0,0-.13,1.72c.65,1.05,1.33,1.47,4.06,1.5.92,0,5.41,0,6.33,0,2.74,0,3.78-.2,4.42-1.25a1.89,1.89,0,0,0,0-2L55.42,46a4.07,4.07,0,0,1-.06,3.69c-.93,1.54-3.09,2.33-6.42,2.37Z"/><path class="cls-1" d="M45.8,74.07c-5.16-.1-7.08-1.68-8.23-5.51-.75-2.52-.57-6.9,0-10,.24-1.43.54-2.61.81-3.62a25.39,25.39,0,0,0,.72-3.47l2.59.09C41.46,53,40.25,57.28,40,58.66a24.67,24.67,0,0,0,.12,9.25c.75,2.56,2.25,3.81,5.44,3.81s5-.55,5.94-3.75c.66-2.2.45-6.44-.06-9.5-.23-1.37-1.32-5.54-1.5-7l2.59,0a25.39,25.39,0,0,0,.72,3.47c.26,1,.53,2.05.77,3.49.52,3.13.74,7.64,0,10.16C52.92,72.23,51.21,74,45.8,74.07Z"/><circle class="cls-1" cx="36.82" cy="27.02" r="1.43"/><path class="cls-1" d="M27.44,38.92c-1.48-.1-1.55-1-1.23-2.45a11.83,11.83,0,0,1,5.06-7.68c1.39-.78,2.1-.32,2.57.41s-.39,1.63-1.12,2.1A9.85,9.85,0,0,0,29,37.13C28.78,37.92,29.09,39,27.44,38.92Z"/></svg>