<svg xmlns="http://www.w3.org/2000/svg" xml:space="preserve" viewBox="0 0 100 100">
  <path d="M13.98 35.02a2.4 2.4 0 0 1-2.4 2.4H2.96a2.4 2.4 0 0 1 0-4.8h8.62c1.33.01 2.4 1.08 2.4 2.4m83.06-2.39h-8.62a2.4 2.4 0 0 0 0 4.8h8.62a2.4 2.4 0 0 0 2.4-2.4 2.407 2.407 0 0 0-2.4-2.4M18.06 63.57l-6.27 6.27a2.39 2.39 0 0 0 0 3.39c.47.47 1.08.7 1.69.7.61 0 1.23-.24 1.7-.7l6.27-6.27c.94-.94.94-2.45 0-3.39-.94-.93-2.45-.93-3.39 0m57.97-52.18c.61 0 1.23-.23 1.69-.7l6.1-6.1c.93-.93.93-2.45 0-3.39a2.39 2.39 0 0 0-3.39 0l-6.1 6.1a2.39 2.39 0 0 0 0 3.39c.48.46 1.09.7 1.7.7m-53.76-.71c.47.47 1.08.7 1.69.7.61 0 1.23-.24 1.69-.7.93-.94.93-2.45 0-3.39L19.57 1.2c-.94-.93-2.45-.93-3.39 0a2.39 2.39 0 0 0 0 3.39l6.09 6.09zM81.96 63.6a2.39 2.39 0 0 0-3.39 0 2.39 2.39 0 0 0 0 3.39l6.25 6.24c.47.47 1.08.7 1.69.7.61 0 1.23-.23 1.69-.7.94-.94.94-2.45 0-3.39l-6.24-6.24zm-14.83-4.25c4.09-5.97 6.54-13.55 6.54-20.29 0-14.18-10.54-25.72-23.49-25.72S26.69 24.88 26.69 39.06c0 6.74 2.44 14.33 6.54 20.29 3.98 5.8 6.15 10.01 6.31 16.51h4.98l-1.68-20.62-4.29-9.51a2.39 2.39 0 0 1 .14-2.22c.41-.67 1.12-1.07 1.88-1.07h19.21c.76 0 1.47.4 1.88 1.07.41.67.46 1.51.14 2.22l-4.29 9.51-1.68 20.62h4.98c.17-6.5 2.34-10.71 6.32-16.51M48.34 76.41h3.08l2.24-22.73c.02-.32.11-.64.27-.93l3.85-7.41h-15.8l3.85 7.41c.15.29.24.61.27.93l2.24 22.73zm12.41 17.66V80.71H39.47l.1 4.19h7.36c1.23 0 2.01.33 2.01 2.12 0 1.66-.58 2.05-2.11 2.06h-7.36v4.99h21.28M50 7c16.56 0 30.03 14.1 30.03 31.42 0 8.05-2.89 16.72-7.91 23.78-3.86 5.42-5.91 9.11-5.91 15.1v17.41c0 2.64-2.15 4.79-4.79 4.79H38.58c-2.64 0-4.79-2.15-4.79-5.96V76.13c0-4.82-2.04-8.5-5.91-13.93-5.03-7.06-7.91-15.73-7.91-23.78C19.97 21.1 32.86 7.32 50 7m7.29 78.87a2.716 2.716 0 0 0-3.81-.44c-1.17.93-1.37 2.64-.44 3.81s2.64 1.37 3.81.44 1.37-2.63.44-3.81z"/>
</svg>
