<svg id="Layer_1" data-name="Layer 1" xmlns="http://www.w3.org/2000/svg" viewBox="0 0 91.56 91.56"><defs><style>.cls-1{fill:#fff;}</style></defs><title>kavu</title><path class="cls-1" d="M67.72,69.35h0L20.46,69.1a1.25,1.25,0,0,1-1-.49,1.27,1.27,0,0,1-.21-1.08c.07-.26,1.73-6.36,6.85-7.88,3.9-1.15,8.69.09,10.56.67a16.43,16.43,0,0,1,10.91-4.78C53.5,55.4,57.34,57,60,60.74c2.1.53,9.16,2.65,9,7.4A1.26,1.26,0,0,1,67.72,69.35ZM22.27,66.61l43.85.23c-1.24-2-5.5-3.41-7.17-3.77a1.24,1.24,0,0,1-.78-.54c-1.51-2.31-4-4.65-10.53-4.49A14,14,0,0,0,38,62.57a1.25,1.25,0,0,1-1.4.36c-.05,0-5.72-2.08-9.77-.88C24.41,62.76,23,65,22.27,66.61Z"/><path class="cls-1" d="M51.72,57.16h-.11c-.7-.08-1.1-.61-1.61-2.11-1.67-5-2.55-15.31,4.79-22.23a1.1,1.1,0,1,1,1.51,1.6c-7.87,7.41-4.72,18.95-3.91,20.71a1.1,1.1,0,0,1,.33,1.47A1.2,1.2,0,0,1,51.72,57.16Z"/><path class="cls-1" d="M50.17,51.83a1.16,1.16,0,0,1-.48-.11,1.1,1.1,0,0,1-.5-1.48c.05-.1,5.43-10.69,17.14-8.26a1.1,1.1,0,1,1-.45,2.16c-10-2.09-14.67,7-14.72,7.08A1.09,1.09,0,0,1,50.17,51.83Z"/><path class="cls-1" d="M49.22,46a.85.85,0,0,1-.23,0c-7.66-1.64-8.5-6.78-8.53-7a1.1,1.1,0,0,1,2.18-.32c0,.18.74,3.87,6.81,5.17A1.1,1.1,0,0,1,49.22,46Z"/><path class="cls-1" d="M67.7,51.18c-3.64,0-7-1.68-11.12-7.11a1.25,1.25,0,0,1,0-1.52c.16-.2,3.94-5,9.86-4.86,4.53.13,8.89,3.16,13,9a1.25,1.25,0,0,1-.69,1.92c-1,.29-2,.58-2.92.86A29.13,29.13,0,0,1,67.7,51.18Zm-8.49-7.79c5.47,6.84,9,5.77,15.86,3.7l1.24-.37c-3.25-4.23-6.58-6.43-9.91-6.53S60.37,42.24,59.21,43.39Z"/><path class="cls-1" d="M43.76,43.35l-.28,0C35.13,41.44,32.92,37.17,35.05,27a1.26,1.26,0,0,1,1.82-.84c12,6.41,8.09,16.32,8.05,16.42A1.26,1.26,0,0,1,43.76,43.35ZM37.17,29.22c-1.33,7.78.66,10,5.72,11.38C43.34,38.44,43.56,33.34,37.17,29.22Z"/><path class="cls-1" d="M51.69,40.56h0a1.25,1.25,0,0,1-.58-.15,1.26,1.26,0,0,1-1.34-.94c-.07-.3-1.83-7.53,2.26-13.36s14-5.46,14.47-5.44A1.25,1.25,0,0,1,67.65,22,28,28,0,0,1,62.76,34.7,14.51,14.51,0,0,1,51.69,40.56ZM65,23.17c-2.65.1-8.36.75-10.91,4.38-2.71,3.86-2.32,8.62-2,10.5a12.07,12.07,0,0,0,8.74-4.84A25.47,25.47,0,0,0,65,23.17Z"/><path class="cls-1" d="M25.21,61.1a1,1,0,0,1-.74-.33A11.09,11.09,0,0,1,22.22,53a1,1,0,0,1,1.05-.94,1,1,0,0,1,.94,1A9.06,9.06,0,0,0,26,59.43a1,1,0,0,1-.08,1.41A1,1,0,0,1,25.21,61.1Z"/><path class="cls-1" d="M59.35,29.21a1.25,1.25,0,1,0,0,1.77,1.27,1.27,0,0,0,0-1.77"/><path class="cls-1" d="M70.6,43.71a1.25,1.25,0,1,0,0,1.77,1.27,1.27,0,0,0,0-1.77"/><path class="cls-1" d="M20.3,54.71a7.28,7.28,0,0,1-3.75-1c-2.52-1.5-4-4.54-4.46-9a1.1,1.1,0,0,1,1.26-1.2c9.22,1.4,9.94,1.65,10.77,8,.06.44.12.91.19,1.41a1.1,1.1,0,0,1-.66,1.17A9.36,9.36,0,0,1,20.3,54.71Zm-5.83-8.83c.49,3,1.56,5,3.19,5.95A5.91,5.91,0,0,0,22,52.3c0-.17-.05-.34-.07-.51-.36-2.8-.53-3.8-1.34-4.38S17.92,46.41,14.47,45.88Z"/><path class="cls-1" d="M25.78,55.71A6.8,6.8,0,0,1,23,55.1,1.1,1.1,0,0,1,22.45,54l.14-1.29c.64-5.87,1.32-6.15,8.43-7.43a1.14,1.14,0,0,1,.94.26,1.11,1.11,0,0,1,.35.91c-.36,4.45-1.69,7.35-3.93,8.6A5.27,5.27,0,0,1,25.78,55.71Zm-2.24-1.59h0Zm1.19-.75a3.51,3.51,0,0,0,2.59-.25c1.32-.75,2.22-2.61,2.64-5.42-2.3.43-3.6.74-4.19,1.25s-.72,1.53-1,4Z"/><path class="cls-1" d="M40.76,35a1.25,1.25,0,0,0-.88-.36A1.27,1.27,0,0,0,39,35a1.27,1.27,0,0,0,0,1.77,1.27,1.27,0,0,0,.88.36A1.24,1.24,0,0,0,40.76,35"/></svg>