<svg id="Layer_1" data-name="Layer 1" xmlns="http://www.w3.org/2000/svg" viewBox="0 0 91.56 91.56"><defs><style>.cls-1{fill:#fff;}</style></defs><title>koira</title><path class="cls-1" d="M56,69.07c-3,0-5.49-1.33-5.49-4.21V56.2H33.05v8.66c0,2.88-1.81,4.31-5.48,4.21-3-.08-5.49-1.33-5.49-4.21l0-17.31-6.5-6.1c-1-.93-2-3.44-.81-5.16A3.73,3.73,0,0,1,17,35.1a3.61,3.61,0,0,1,2.67.72l5.72,5.36L49,41.24l12.48,5.84V64.86C61.45,67.74,59,69.07,56,69.07ZM30.68,54l22.19.07v11c0,1.73,1.43,1.71,3.32,1.71s3-.08,3-1.81l-.06-16.31L48.74,43.79H25.05l-6.5-5.93a1.66,1.66,0,0,0-1.68.12c-.53.84.2,1.88.47,2.19l7.15,6.7,0,18.21c0,1.73,1.65,1.84,3.53,1.84s2.63-.08,2.63-1.81Z"/><path class="cls-1" d="M62.3,44.86,50.8,39.73l3.12-5.34c.77-1.63,4.76-8.78,5-9.19A7.08,7.08,0,0,1,60.86,23a2.68,2.68,0,0,1,2.07-.47c1.07.3,1.87,2,2.39,5,.5.2.93.41,1.36.61s.89.43,1.43.64,1.27.49,1.91.72a42.29,42.29,0,0,1,4.54,1.89l.43.21a3.24,3.24,0,0,1,2.27,2.6,7.54,7.54,0,0,1-1,4.21,6.52,6.52,0,0,1-2.46,3.09c-1.09.59-7.18.33-8.66.34h-1Zm-8.5-6.07,7.88,3.44L63,39.79h2.17c1.49,0,7.15.2,7.69-.09a4.85,4.85,0,0,0,1.58-2.18,5.56,5.56,0,0,0,.77-3c-.07-.48-.24-.6-1.1-1-.17-.07-.33-.15-.5-.24-1.35-.69-7.34-3-7.82-3.22s-1.09-.51-1.74-.74l-.58-.21-.1-.62a13.46,13.46,0,0,0-1.07-3.87,3,3,0,0,0-.35.18,6,6,0,0,0-1.27,1.57c-.32.49-4.12,7.31-4.89,8.94Z"/><circle class="cls-1" cx="63.89" cy="33.73" r="1.68"/></svg>