<svg id="Layer_1" data-name="Layer 1" xmlns="http://www.w3.org/2000/svg" viewBox="0 0 91.56 91.56"><defs><style>.cls-1,.cls-2,.cls-3{fill:none;stroke:#fff;stroke-linecap:round;}.cls-1,.cls-2{stroke-linejoin:round;}.cls-1{stroke-width:1.5px;}.cls-2{stroke-width:1.3px;}.cls-3{stroke-miterlimit:10;stroke-width:2px;}.cls-4{fill:#fff;}</style></defs><title>tammerkoski</title><rect class="cls-1" x="21.54" y="31.75" width="47.46" height="7.72" rx="1"/><polyline class="cls-2" points="21.7 31.88 27.99 39.46 33.49 31.88 38.83 39.46 44.65 32.01 50.77 39.2 56.9 32.01 62.4 38.82 68.06 31.76"/><rect class="cls-1" x="68.97" y="23.3" width="11.39" height="37.95" rx="1"/><line class="cls-3" x1="71.74" y1="26.48" x2="71.74" y2="28.65"/><line class="cls-3" x1="74.57" y1="26.48" x2="74.57" y2="28.65"/><line class="cls-3" x1="77.42" y1="26.48" x2="77.42" y2="28.65"/><path class="cls-2" d="M25.89,42.5a13.62,13.62,0,0,0-1.09,6c.25,3.08,1.17,8.91.92,11.16a3.09,3.09,0,0,1-2,2.75"/><path class="cls-2" d="M34.47,44.25a17.68,17.68,0,0,0-.58,5.83c.25,3.08,1.41,8,1.16,10.25a3.09,3.09,0,0,1-2,2.75"/><path class="cls-2" d="M29.89,42.58s-.5,2.16-.59,3.08c-.16,1.75.26,3.68.17,4.92"/><path class="cls-2" d="M29.83,53.68A22.55,22.55,0,0,1,30,57"/><path class="cls-2" d="M38.39,41.83s-.5,2.16-.59,3.08c-.16,1.75.26,3.68.17,4.92"/><path class="cls-2" d="M38.33,52.93a22.55,22.55,0,0,1,.18,3.27"/><path class="cls-2" d="M43.3,43.16a13.73,13.73,0,0,0-1.08,6c.25,3.09,1.17,8.92.92,11.17a3.09,3.09,0,0,1-2,2.75"/><path class="cls-2" d="M47.3,47s-.49,2.15-.58,3.08c-.17,1.75.26,3.67.17,4.92"/><path class="cls-2" d="M47.24,58.1a21.1,21.1,0,0,1,.18,3.26"/><path class="cls-2" d="M52.47,42.41a13.73,13.73,0,0,0-1.08,6c.25,3.09,1.16,8.92.91,11.17a3.09,3.09,0,0,1-2,2.75"/><path class="cls-2" d="M56.39,41.33s-.5,2.16-.59,3.08c-.16,1.75.26,3.68.17,4.92"/><path class="cls-2" d="M56.33,52.43a22.55,22.55,0,0,1,.18,3.27"/><path class="cls-2" d="M62.05,43.58a13.73,13.73,0,0,0-1.08,6c.25,3.08,1.17,8.92.92,11.17a3.09,3.09,0,0,1-2,2.75"/><polyline class="cls-2" points="6.67 57.72 11.71 48.16 15.96 32.22 20.81 31.89 20.75 57.19 7.73 66.23"/><line class="cls-2" x1="13.31" y1="39.39" x2="5.87" y2="39.12"/><line class="cls-2" x1="89.09" y1="38.76" x2="80.85" y2="38.76"/><path class="cls-4" d="M38.91,80.3h0A4.44,4.44,0,0,1,35.6,79a.53.53,0,1,1,.8-.71,3.47,3.47,0,0,0,2.51.9h0a3.42,3.42,0,0,0,2.51-.9l.4-.45.4.45a3.44,3.44,0,0,0,2.51.9h0a3.39,3.39,0,0,0,2.5-.9l.41-.45.4.45a3.94,3.94,0,0,0,5,0,.55.55,0,0,1,.76,0,.54.54,0,0,1,0,.76,4.43,4.43,0,0,1-3.31,1.26,4.7,4.7,0,0,1-2.9-.89,4.75,4.75,0,0,1-2.91.89h0a4.73,4.73,0,0,1-2.91-.89A4.73,4.73,0,0,1,38.91,80.3Z"/><path class="cls-4" d="M62,75.39a4.4,4.4,0,0,1-2.6-.78,4.36,4.36,0,0,1-2.6.78h0a4.38,4.38,0,0,1-2.6-.78,4.4,4.4,0,0,1-2.6.78h0a4,4,0,0,1-3-1.15.54.54,0,0,1,.81-.71,3,3,0,0,0,2.2.79h0a3,3,0,0,0,2.2-.79l.4-.45.4.45a3,3,0,0,0,2.2.79h0a3,3,0,0,0,2.2-.79l.4-.45.4.45a3,3,0,0,0,2.2.79h0a3,3,0,0,0,2.2-.79.54.54,0,0,1,.75,0,.55.55,0,0,1,0,.76,4,4,0,0,1-3,1.15Z"/><path class="cls-4" d="M34,75a3.82,3.82,0,0,1-2.16-.62A3.84,3.84,0,0,1,29.7,75h0a3.82,3.82,0,0,1-2.16-.62,3.82,3.82,0,0,1-2.16.62h0a3.47,3.47,0,0,1-2.6-1,.59.59,0,0,1,0-.84.61.61,0,0,1,.84,0,2.34,2.34,0,0,0,1.71.6h0a2.34,2.34,0,0,0,1.71-.6l.45-.5.44.5a2.37,2.37,0,0,0,1.72.6h0a2.34,2.34,0,0,0,1.71-.6l.45-.5.44.5a2.37,2.37,0,0,0,1.72.6h0a2.36,2.36,0,0,0,1.71-.6.61.61,0,0,1,.84,0,.6.6,0,0,1,0,.84A3.49,3.49,0,0,1,34,75Z"/></svg>