<svg xmlns="http://www.w3.org/2000/svg" xmlns:xlink="http://www.w3.org/1999/xlink" id="Layer_1" data-name="Layer 1" viewBox="0 0 91.56 91.56">
  <defs>
    <path id="reuse-0" d="M46.66 44.9a1.23 1.23 0 1 0 .37.88 1.26 1.26 0 0 0-.37-.88" class="cls-1"/>
  </defs>
  <defs/>
  <path d="m67.22 47.38-4.43 2.39-8.92-8.69h.88a1.25 1.25 0 1 0 0-2.49h-8.19a1.29 1.29 0 0 0-.61.16L35.77 44.5a1.92 1.92 0 0 1-2.3-3l9.44-9.34a9.41 9.41 0 0 1 6.67-2.74h17.64Zm-3.4 9.15a1.64 1.64 0 0 1-2.31 0l-4.14-4-4.07-4a1.25 1.25 0 0 0-1.74 1.79L58 56.65A1.64 1.64 0 0 1 55.74 59l-6.47-6.29-3.1-3a1.26 1.26 0 0 0-1.77 0 1.24 1.24 0 0 0 0 1.76l6.47 6.29a1.64 1.64 0 0 1 0 2.31 1.6 1.6 0 0 1-1.15.5 1.62 1.62 0 0 1-1.16-.46l-1.81-1.76-.13-.11-.07-.06a3.92 3.92 0 0 0-2.79-.89 4 4 0 0 0-1.41-2.57 3.91 3.91 0 0 0-2.78-.89 3.95 3.95 0 0 0-4.2-3.46 4 4 0 0 0-7-2l-1 1.23a2.43 2.43 0 0 0-.24.32 7.17 7.17 0 0 0-2.81-1.16v-18.7h4.96l10.19-2a15.29 15.29 0 0 1 5.18-.12 11.79 11.79 0 0 0-3.51 2.42L31.7 39.7a4.42 4.42 0 0 0 5.28 7l9.89-5.59h3.43l13.49 13.11a1.64 1.64 0 0 1 0 2.31m-18.61 5.61-1 1.23a1.4 1.4 0 0 1-1 .53 1.44 1.44 0 0 1-1.08-.33 1.46 1.46 0 0 1-.2-2.07l1-1.23a1.5 1.5 0 0 1 1-.53h.14a1.47 1.47 0 0 1 1.13 2.4M41 58.69l-1 1.23a1.48 1.48 0 0 1-1 .53 1.47 1.47 0 0 1-1.61-1.33 1.48 1.48 0 0 1 .33-1.07l1-1.23a1.44 1.44 0 0 1 1.13-.54A1.48 1.48 0 0 1 41 58.69m-4.2-3.46-1 1.23a1.47 1.47 0 0 1-2.07.2 1.44 1.44 0 0 1-.53-1 1.46 1.46 0 0 1 .33-1.08l1-1.23a1.48 1.48 0 0 1 1-.53h.15a1.44 1.44 0 0 1 .93.34 1.48 1.48 0 0 1 .53 1 1.46 1.46 0 0 1-.33 1.08m-4.21-3.47-1 1.23a1.47 1.47 0 0 1-2.27-1.87l1-1.23a1.5 1.5 0 0 1 1-.53h.14a1.46 1.46 0 0 1 1.14 2.4m43.83-15.92a1.25 1.25 0 0 0 1.25-1.24V26.4a1.25 1.25 0 0 0-1.25-1.25h-6.73a2.49 2.49 0 0 0-2.37 1.74H49.8A17.66 17.66 0 0 0 39 25.6l-10.07 2h-4.6a2.5 2.5 0 0 0-2.49-2.42h-6.72a1.25 1.25 0 0 0-1.25 1.25v8a1.25 1.25 0 1 0 2.49 0v-6.78h5.49v23.63h-5.49v-6.65a1.25 1.25 0 0 0-2.49 0v7.89a1.25 1.25 0 0 0 1.25 1.25h6.73a2.5 2.5 0 0 0 2.49-2.49 4.67 4.67 0 0 1 1.59.8l.58.45A4 4 0 0 0 30.44 56h.27a4 4 0 0 0 1.41 2.57 4 4 0 0 0 2.52.9h.27A4 4 0 0 0 38.83 63h.27a4 4 0 0 0 3.9 3.4h.39A4 4 0 0 0 46.1 65l1-1.23a3.86 3.86 0 0 0 .67-1.18 4.16 4.16 0 0 0 1.94.48h.06a4.08 4.08 0 0 0 2.9-1.25 4.34 4.34 0 0 0 .9-1.41l.43.42a4.13 4.13 0 0 0 6.8-1.7 4.13 4.13 0 0 0 4.72-6.66l-.87-.84 2.56-1.38v1.07a2.5 2.5 0 0 0 2.49 2.49h6.73a1.25 1.25 0 0 0 1.25-1.25v-8.3a1.25 1.25 0 1 0-2.49 0v7h-5.48V27.65h5.49v7a1.24 1.24 0 0 0 1.24 1.24" class="cls-1"/>
  <use xlink:href="#reuse-0" class="cls-1"/>
  <use xlink:href="#reuse-0" class="cls-1"/>
</svg>
