<svg id="Layer_1" data-name="Layer 1" xmlns="http://www.w3.org/2000/svg" viewBox="0 0 91.56 91.56"><defs><style>.cls-1{fill:#fff;}</style></defs><title>nuotio</title><path class="cls-1" d="M67.26,65.13a2.22,2.22,0,0,0,.24-1.65l-1-3.83a2.16,2.16,0,0,0-1-1.34,2.21,2.21,0,0,0-1.65-.24L46,62.63h0L28.09,58a2.16,2.16,0,0,0-1.63.23,2.13,2.13,0,0,0-1,1.31l-1,3.9A2.14,2.14,0,0,0,26,66l3.28.85-3.67.93a2.15,2.15,0,0,0-1.55,2.6l1,3.91a2.16,2.16,0,0,0,2.08,1.61,2,2,0,0,0,.53-.07L45.58,71.3l17.87,4.64A2.48,2.48,0,0,0,64,76a2.18,2.18,0,0,0,2.11-1.63l1-3.82a2.18,2.18,0,0,0-1.56-2.66l-3.24-.84,3.63-.92A2.19,2.19,0,0,0,67.26,65.13ZM27.07,63.64l.79-3L40.8,64l-6.45,1.64v-.06Zm37.42,6.65-.79,3L50.77,70l6.33-1.61Zm-37,3-.78-3,37.45-9.53.78,3.06Z"/><path class="cls-1" d="M57.92,26a1.29,1.29,0,0,0-2.38.91,20.33,20.33,0,0,1,0,7,3.66,3.66,0,0,1-1.7,2.67c-.26.11-.7.19-1.39-.33-1.1-.82-1-1.42-.16-3.84.2-.56.42-1.2.62-1.88,4-13.46-6-19.26-6.14-19.32a1.29,1.29,0,0,0-1.3,0,1.3,1.3,0,0,0-.62,1.15c0,.08.24,7.57-3.38,12-.57.69-1.14,1.35-1.69,2S38.54,27.76,38,28.46c0-.88-.35-1.48.23-3,.22-.57.52-1.15,0-1.51a1.31,1.31,0,0,0-1.63.1c-.08.08-5.31,2.31-6.83,9.72a1.17,1.17,0,0,0,1.07,1.45,1.46,1.46,0,0,0,1.45-.44,10,10,0,0,1,3-5.84,13.86,13.86,0,0,0,.66,3.4,1.27,1.27,0,0,0,1.11.82,1.31,1.31,0,0,0,1.22-.65A29.09,29.09,0,0,1,41.72,28c.56-.64,1.14-1.31,1.73-2,2.81-3.41,3.65-8.16,3.88-11.09,2.25,2.18,5.45,6.89,3.1,14.91-.18.61-.39,1.18-.58,1.74-.79,2.22-1.68,4.74,1,6.77A3.94,3.94,0,0,0,54.8,39a6.12,6.12,0,0,0,3.28-4.64c.06-.34.11-.69.15-1,1.05,3.42,1.74,7.8.37,11.76a13.17,13.17,0,0,1-6.18,7.14c.55-2.43.3-5.31-2.41-7.14-4.63-3.12-4.82-6.56-4.26-7.94a1.29,1.29,0,0,0-2.08-1.42c-.09.08-8,7.6-3.14,16.73A15.87,15.87,0,0,1,33.1,46.5,9.14,9.14,0,0,1,31.5,43a1.26,1.26,0,0,0-1.25-1.14c-1.22-.12-1.39,1.2-1.39,1.2,0,2.22.27,2.15,1.53,4.47,3.9,7.17,12.69,8.42,13.09,8.51a1.33,1.33,0,0,0,.28,0,1.29,1.29,0,0,0,1-2.13C40,48.47,41.45,43.43,43.22,40.43c.56,2.11,2.07,4.55,5.35,6.76s.47,6.71.36,6.91A1.29,1.29,0,0,0,50.51,56c5.43-2.14,9-5.53,10.53-10.08C64.18,36.76,58.18,26.39,57.92,26Z"/><circle class="cls-1" cx="30.17" cy="38.54" r="1.29"/></svg>