<svg id="Layer_1" data-name="Layer 1" xmlns="http://www.w3.org/2000/svg" viewBox="0 0 91.56 91.56"><defs><style>.cls-1{fill:#fff;}</style></defs><title>koulu</title><path class="cls-1" d="M45.89,54.55A4.59,4.59,0,1,1,50.48,50,4.59,4.59,0,0,1,45.89,54.55Zm0-7.79A3.22,3.22,0,1,0,49.12,50,3.23,3.23,0,0,0,45.91,46.76Z"/><path class="cls-1" d="M44.9,51.59a.57.57,0,0,1-.43-.19.6.6,0,0,1,0-.85l.9-.85V48a.6.6,0,0,1,1.2,0v2a.6.6,0,0,1-.19.44l-1.08,1A.63.63,0,0,1,44.9,51.59Z"/><path class="cls-1" d="M68.1,57.46a1.23,1.23,0,1,0,1.22,1.22,1.22,1.22,0,0,0-1.22-1.22"/><path class="cls-1" d="M73.56,44.69a1.17,1.17,0,0,0-.37-.87L61.84,30.73a1.13,1.13,0,0,0-.87-.41H54.91l-8-6.15V20.44H54a1.14,1.14,0,0,0,1.14-1.15V13.85A1.14,1.14,0,0,0,54,12.66H45.69a1.14,1.14,0,0,0-1.14,1.19V24.17l-8,6.15H30.45a1.09,1.09,0,0,0-.91.46L18.14,43.91a1.16,1.16,0,0,0,.14,1.65,1.12,1.12,0,0,0,.73.27h3.2v25H19.74a1.13,1.13,0,0,0-1.14,1.14,1.14,1.14,0,0,0,1.14,1.19H71.68a1.15,1.15,0,0,0,1.15-1.19,1.14,1.14,0,0,0-1.15-1.14H69.21V62.11a1.32,1.32,0,0,0-2.33,0v8.67H51v-11a1.17,1.17,0,0,0-1.14-1.19H41.62a1.18,1.18,0,0,0-1.15,1.19v11H24.55v-25H37a.81.81,0,0,0,.22,0,1.15,1.15,0,0,0,.76-.37l7.7-6.54,7.75,6.54a1.11,1.11,0,0,0,.5.32h0a1,1,0,0,0,.42,0h12.5v9.41s.1.58,1.14.58,1.19-.58,1.19-.58V45.83h3.16A1.14,1.14,0,0,0,73.56,44.69ZM46.88,15h5.95V18.1H46.88ZM42.1,60.22h7.19V70.78H42.1ZM68,43.5H54.75l-8.28-7a1.17,1.17,0,0,0-1.51,0l-8.28,7H21.57L31,32.65h5.9a1.2,1.2,0,0,0,.83-.34l8-6.11,8,6.11a1.17,1.17,0,0,0,.82.34h5.91L69.85,43.5Z"/><path class="cls-1" d="M29.09,50.06l.07,6.41a1,1,0,0,0,1,.76l4.16,0a.91.91,0,0,0,1-.8l-.07-6.21a1,1,0,0,0-1-.9l-4.16,0C29.35,49.33,29.08,49.8,29.09,50.06Zm4.84.52L34,56l-3.5,0,0-5.38Z"/><path class="cls-1" d="M29.09,60l.07,6.41a1,1,0,0,0,1,.76l4.16,0a.9.9,0,0,0,1-.8l-.07-6.21a.93.93,0,0,0-1-.89l-4.16,0C29.35,59.3,29.08,59.77,29.09,60Zm4.84.46L34,66l-3.5,0,0-5.5Z"/><path class="cls-1" d="M56.21,50.06l.08,6.41a1,1,0,0,0,1,.76l4.16,0a.92.92,0,0,0,1-.8l-.08-6.21a.93.93,0,0,0-1-.9l-4.15,0C56.47,49.33,56.21,49.8,56.21,50.06Zm4.87.47V56h-3.5V50.53Z"/><path class="cls-1" d="M56.21,60l.08,6.41a1,1,0,0,0,1,.76l4.16,0a.91.91,0,0,0,1-.8l-.08-6.21a.92.92,0,0,0-1-.89l-4.15,0C56.47,59.3,56.21,59.77,56.21,60Zm4.85.46,0,5.47-3.51,0,0-5.47Z"/></svg>