<svg xmlns="http://www.w3.org/2000/svg" xml:space="preserve" viewBox="0 0 100 100">
  <path d="M13.29 52.91c-.1 0-.21-.01-.32-.04-3.28-.83-5.38-2.29-6.24-4.36-.73-1.74-.35-3.39-.05-4.72.28-1.19.43-1.96.07-2.56-.54-.93-2.31-1.45-4.96-1.45a1.295 1.295 0 0 1 0-2.59c3.77.01 6.12.9 7.19 2.73.89 1.53.54 3.08.22 4.45-.27 1.16-.5 2.16-.09 3.14.53 1.27 2.05 2.23 4.49 2.85.69.18 1.11.88.94 1.57-.14.59-.67.98-1.25.98zm4.69-2.32c-.87 0-1.57.7-1.57 1.57s.7 1.57 1.57 1.57 1.57-.7 1.57-1.57-.7-1.57-1.57-1.57zm67.05 5.52c.43-.2.72-.61.75-1.09.23-3.81-1.42-7.09-4.3-8.54-2.88-1.45-6.49-.83-9.42 1.62-.36.3-.53.79-.43 1.25.1.46.45.83.9.96 1.96.55 3.93 1.32 5.86 2.3 1.92.97 3.71 2.09 5.33 3.35a1.253 1.253 0 0 0 1.31.15zm-4.7-7.34c1.32.66 2.25 1.94 2.67 3.55-1.1-.72-2.26-1.38-3.46-1.98-1.2-.61-2.42-1.14-3.65-1.6 1.54-.63 3.12-.64 4.44.03zm-55.5-1.2c4-.78 8.53-.78 12.53 0 .47.09.94-.08 1.24-.45.3-.37.37-.87.18-1.31-1.51-3.51-4.46-5.69-7.69-5.69-3.23 0-6.18 2.18-7.69 5.69-.19.43-.12.94.18 1.31.24.3.61.48.99.48.1 0 .18-.01.26-.03zm2.29-2.93c1.1-1.25 2.51-1.97 3.98-1.97s2.88.72 3.98 1.97c-1.3-.14-2.63-.21-3.98-.21s-2.68.07-3.98.21zm19.27 2.93c4-.78 8.53-.78 12.53 0 .47.09.94-.08 1.24-.45.3-.37.37-.87.18-1.31-1.51-3.51-4.45-5.69-7.69-5.69-3.23 0-6.17 2.18-7.69 5.69-.19.44-.12.94.18 1.31.24.3.61.48.99.48.1 0 .18-.01.26-.03zm2.29-2.93c1.1-1.25 2.51-1.97 3.98-1.97s2.88.72 3.98 1.97c-1.3-.14-2.63-.21-3.98-.21s-2.68.07-3.98.21zm45.58 9.87c-4.82 9.56-11.7 17.39-19.37 22.04-4.77 2.89-9.5 4.35-13.89 4.35-2.85 0-5.54-.62-8.01-1.86-.25-.12-.5-.26-.76-.42-3.27 2.24-6.74 3.39-10.35 3.39-10.97 0-20.57-9.35-24.29-24.53 0 0 .07-1.3 1.22-1.54 1.33-.28 1.6.91 1.6.91 3.44 13.93 11.71 22.61 21.47 22.61 3.31 0 6.52-1.14 9.55-3.38 3.52-2.61 6.62-6.65 8.97-11.7.65-1.39 1.24-2.84 1.75-4.31v-.01c1.95-5.63 2.98-12.04 2.98-18.53 0-4.6-.5-9.08-1.49-13.35-3.83 1.4-7.92 2.41-12.17 3.03-.25.07-.55.13-.94.2-2.84.48-5.76.85-8.54.85-5.97 0-14.38-2.14-19.41-3.42-.94-.24-1.82-.1-2.46-.25-.57 2.2-1.09 8.48-1.17 13.1-.05 3.04 0 2.4.05 5.33 0 0-.05 1.12-1.22 1.33s-1.76-.91-1.76-.91c-.11-2.56 0-2.28 0-5.7 0-2.6.41-6.27.79-9.52.69-5.79 1.26-6.51 2.31-6.69.48-.08.96.03 4.09.82 4.59 1.17 13.13 3.34 18.78 3.34 2.37 0 4.8-.15 7.23-.43 1.28-2.33 6.33-11.3 8.55-11.3h.02c.76.01 1.31.45 4.78 3.47 3.8 3.3 9.54 8.29 14.12 10.6 4.34 2.19 11.47 3.75 16.19 4.79 5.15 1.13 6.01 1.37 6.46 2.19 1.25 2.29-5.02 15.37-5.08 15.5zM63.38 25.54c-.89-.76-1.74-1.5-2.5-2.16-1.18-1.03-2.39-2.08-3.07-2.6-1.04 1.11-3.26 4.41-5.18 7.67 3.76-.65 7.36-1.62 10.75-2.91zm-.19 38.85c2.13 1.24 4.09 2.63 5.71 4.08-.5-2.03-2.3-4.3-4.9-6.08-.25.68-.53 1.34-.81 2zm33.76-23.95c-.92-.29-2.87-.72-4.63-1.1-5.13-1.13-12.17-2.67-16.8-5.01-2.96-1.49-6.3-3.97-9.34-6.45 1 4.37 1.5 8.96 1.5 13.66 0 6.4-.98 12.72-2.81 18.37 5.18 3.27 7.81 8.17 6.29 11.93-.17.41-.53.71-.97.78-.07.01-.14.02-.21.02-.36 0-.72-.16-.96-.44-1.68-1.92-4.11-3.84-6.92-5.5-2.1 4.15-4.71 7.64-7.64 10.21 5.39 2.55 12.16 1.66 19.1-2.54 7.27-4.4 13.81-11.86 18.41-21.01 2.2-4.35 4.62-10.87 4.98-12.92zM54.88 58.05c-.34 8.27-6.05 14.75-13 14.75s-12.65-6.48-13-14.75c-.02-.5.25-.97.7-1.19.45-.22.99-.17 1.38.15 2.95 2.38 6.83 3.69 10.92 3.69s7.97-1.31 10.92-3.69c.39-.32.93-.37 1.38-.15.44.22.72.69.7 1.19zm-2.9 2.59c-2.98 1.7-6.47 2.61-10.1 2.61s-7.13-.91-10.1-2.61c1.2 5.56 5.28 9.6 10.1 9.6 4.82 0 8.9-4.04 10.1-9.6z"/>
</svg>
