<svg id="Layer_1" data-name="Layer 1" xmlns="http://www.w3.org/2000/svg" viewBox="0 0 91.56 91.56"><defs><style>.cls-1{fill:#fff;}</style></defs><title>kattaus</title><path class="cls-1" d="M79.71,47.67s0-1.68,0-2.25c0-5.88-.1-23.53-.1-23.53s-1.08-2.16-2.67.61-4.09,17.79-1.23,22.33A7.59,7.59,0,0,1,76.29,46a12.38,12.38,0,0,1,.29,1.73S74.16,70.4,78,70.4C81.3,70.4,79.71,47.67,79.71,47.67Z"/><path class="cls-1" d="M19,34.18c.7-3.12-.55-13.17-.55-13.17h-.7v10h-.94V21h-1v10h-1V21h-1v10h-.93V21h-.7s-1.25,10-.55,13.17a6.29,6.29,0,0,0,2.81,4.2s-3.66,31.94.85,31.94.86-31.94.86-31.94A6.32,6.32,0,0,0,19,34.18Z"/><path class="cls-1" d="M60.55,40.13a15.66,15.66,0,0,0-1.43-2.64,15,15,0,0,0-1.9-2.3,14.43,14.43,0,0,0-2.3-1.9,15.66,15.66,0,0,0-2.64-1.43,15.49,15.49,0,0,0-12.1,0,15.66,15.66,0,0,0-2.64,1.43,15.37,15.37,0,0,0-2.3,1.9,15.9,15.9,0,0,0-3.33,4.94,15.46,15.46,0,0,0,1.44,14.74,15.28,15.28,0,0,0,4.19,4.19,15.71,15.71,0,0,0,2.64,1.44,15.61,15.61,0,0,0,12.1,0,15.71,15.71,0,0,0,2.64-1.44,14.92,14.92,0,0,0,2.3-1.89,15.45,15.45,0,0,0,3.33-4.94,15.61,15.61,0,0,0,0-12.1ZM46.28,59.76A13.61,13.61,0,1,1,59.89,46.15,13.62,13.62,0,0,1,46.28,59.76Z"/><path class="cls-1" d="M52.87,22.6c-13.44-4-26,3.11-30.1,16a24.49,24.49,0,0,0,15.82,30.8,24.83,24.83,0,0,0,31.08-15.9c2.52-7.84.7-16.93-4-22.22a1.72,1.72,0,0,0-2.66,0c-1.13,1.29.39,3.19.39,3.19a21.53,21.53,0,0,1,2.54,18A20.86,20.86,0,0,1,26.21,39.69C29.69,28.84,39.73,23,50.93,25.45c0,0,2.63,1.06,3.28.16.92-1.29.51-2.22-.84-2.8"/><circle class="cls-1" cx="59.08" cy="27.87" r="1.68"/></svg>