<svg id="Layer_1" data-name="Layer 1" xmlns="http://www.w3.org/2000/svg" viewBox="0 0 91.56 91.56"><defs><style>.cls-1,.cls-2{fill:#fff;}.cls-2{fill-rule:evenodd;}</style></defs><title>tehtava</title><path class="cls-1" d="M26.81,18.57H63.07a3,3,0,0,1,3,3V35.16l-3.38,4.35V22.29a.34.34,0,0,0-.33-.33H27.56a.34.34,0,0,0-.33.33V71.54a.35.35,0,0,0,.1.24.32.32,0,0,0,.23.09H55.5l7.15-6.37V55.74c.56-.33,1.64-.91,1.65-.92l.56-.56L66,52.53v14l-.39.39-7.92,7.9-.93.39h-30a3,3,0,0,1-3-3V21.54a3,3,0,0,1,3-3Z"/><path class="cls-1" d="M77.18,26.61l-4.13,5.65L65.11,43.1l-5,6.84-.32,2.16,2.09-.83L74.38,34.18,79,27.89l-.71-.57a6.3,6.3,0,0,0-1.1-.71ZM70.93,30.7l4.62-6.3.33-.46.57-.07.29,0a5.84,5.84,0,0,1,3.16,1.4,5,5,0,0,1,1.93,2.55h0a1.79,1.79,0,0,1,0,.21v.41l-.25.36c-.82,1.12-2.82,3.86-5.1,7L63.76,53.13l-.22.3-.36.14L59.1,55.2s-1.55.66-2.07.14c-.36-.36-.51-.7-.28-1.78l.79-4.32,0-.32.2-.27L63,41.54,70.93,30.7Zm8.3-2.56h0l0,.32Z"/><path class="cls-2" d="M32.27,48.6l18.5-.05c1,0,1.75.34,1.77,1.31S52,51.31,51,51.33l-18.55.1c-1.42,0-1.87-.42-1.87-1.34S31,48.67,32.27,48.6Z"/><path class="cls-2" d="M32.18,56.38l18.5-.05c1,0,1.74.34,1.77,1.31s-.59,1.45-1.55,1.47l-18.55.1c-1.43,0-1.88-.42-1.88-1.33S30.86,56.45,32.18,56.38Z"/><path class="cls-2" d="M32.18,40.63l24.5-.05c1,0,1.75.34,1.77,1.31s-.59,1.45-1.55,1.47l-24.55.1c-1.43,0-1.88-.42-1.88-1.33S30.86,40.7,32.18,40.63Z"/><path class="cls-2" d="M32.18,32.76l24.5,0c1,0,1.75.34,1.77,1.3s-.59,1.45-1.55,1.48l-24.55.09c-1.43,0-1.88-.42-1.88-1.33S30.86,32.83,32.18,32.76Z"/></svg>