<svg xmlns="http://www.w3.org/2000/svg" xml:space="preserve" viewBox="0 0 100 100">
  <path d="M79.74 54.63c-.04.03-4.44 2.66-8.65 4.76-2.79 1.39-21.18 9.27-24.6 10.54-3.35 1.24-10.97 3.74-11.05 3.77-.18.06-.3.23-.3.43l.13 3.02c.01.13.07.25.17.32.08.06.17.09.26.09.03 0 .06 0 .09-.01.01 0 1.16-.26 3.27-.76 2.16-.51 22.91-9.12 26.75-11.1 3.85-1.99 19.83-10.35 19.99-10.43.18-.09.27-.29.22-.49a.43.43 0 0 0-.43-.32l-5.66.13c-.05-.01-.12.01-.19.05zm4.05.71c-4.19 2.19-15.24 7.97-18.36 9.58-3.82 1.97-24.41 10.52-26.55 11.03-1.3.31-2.24.52-2.76.64l-.09-2.18c1.47-.48 7.79-2.57 10.77-3.68 3.43-1.27 21.89-9.18 24.68-10.58 3.89-1.94 7.93-4.33 8.6-4.73l3.71-.08zm13.9-16.01c-1.04-.38-1.32-.32-1.48-.11l-7.2 9.54-.51-2.43a.643.643 0 0 0-.3-.42.61.61 0 0 0-.32-.08c-.14-.35-.29-.7-.46-1.04a.95.95 0 0 0 .1-.17c.07-.19.05-.4-.06-.56l-1.55-2.47c-.16-.26-.48-.36-.77-.26-.31-.37-.63-.73-.97-1.07a.617.617 0 0 0-.21-.78l-3.22-2.31a.63.63 0 0 0-.59-.08c-.27-.16-.54-.32-.82-.48a.638.638 0 0 0-.34-.67l-3.76-1.99a.642.642 0 0 0-.85.23l-.07.11c-.44-.17-.89-.34-1.33-.49l.11-.24c.08-.17.08-.37 0-.54a.632.632 0 0 0-.4-.35l-3.44-1.02c-.32-.1-.66.07-.79.39l-.18.48c-2.74-.56-5.52-.77-8.4-.67l2.47-9.87a.543.543 0 0 0-.52-.67h-1.51c-.25 0-.46.17-.52.41-.1.41-1.52 7.33-2.13 10.28-1.07.1-2.15.23-3.26.42-.37.06-.95.17-1.7.31l-.38-5.27a.385.385 0 0 0-.16-.28.366.366 0 0 0-.32-.06l-1.17.31a.391.391 0 0 0-.27.49l1.55 4.97c-.55.11-1.16.23-1.83.37 0-.03.03-.06.02-.09l-.54-5.28a.367.367 0 0 0-.17-.28.397.397 0 0 0-.32-.05l-1.12.3c-.1.03-.18.1-.23.19a.35.35 0 0 0-.02.3l1.7 4.94c.01.03.03.04.05.07-.73.15-1.51.32-2.35.51.09-.08.15-.18.14-.31l-.5-5.28a.367.367 0 0 0-.17-.28.397.397 0 0 0-.32-.05l-1.17.33c-.1.03-.19.1-.23.19a.35.35 0 0 0-.02.3l1.67 4.95c.04.12.14.19.24.23-.68.15-1.38.31-2.12.48.16-.08.26-.25.21-.43l-1.25-5.16c-.03-.11-.1-.2-.2-.25a.42.42 0 0 0-.33-.01l-1.1.49a.38.38 0 0 0-.21.22c-.03.1-.03.21.02.3l2.35 4.67c.06.12.18.2.31.21-.91.21-1.86.43-2.84.67.04-.07.06-.15.05-.24l-.89-5.23a.403.403 0 0 0-.19-.27.364.364 0 0 0-.32-.03l-1.14.42a.38.38 0 0 0-.22.21.39.39 0 0 0 0 .3l2.03 4.82c.03.07.07.12.13.16-.73.18-1.47.36-2.23.55.01-.05.04-.09.03-.15l-.7-5.26a.361.361 0 0 0-.18-.27.368.368 0 0 0-.32-.04l-1.15.38c-.1.03-.18.11-.23.2a.35.35 0 0 0-.01.3l1.85 4.88c.02.05.05.08.08.11-.64.16-1.28.33-1.93.5.13-.09.21-.22.18-.38l-1.1-5.19a.377.377 0 0 0-.2-.26.398.398 0 0 0-.32-.02l-1.12.46a.389.389 0 0 0-.2.52l2.23 4.73c.06.12.17.18.29.21-.81.21-1.63.43-2.46.66.15-.08.25-.23.21-.4l-1.06-5.2a.364.364 0 0 0-.19-.26.42.42 0 0 0-.33-.02l-1.12.45c-.1.04-.17.12-.21.21-.04.1-.04.21.01.3l2.18 4.75c.06.12.18.21.31.22h.02c-.82.22-1.65.45-2.47.69 0-.02.01-.04.01-.06l-1.08-5.87a.364.364 0 0 0-.19-.26.333.333 0 0 0-.32-.02l-1.28.49a.38.38 0 0 0-.22.21.39.39 0 0 0 0 .3l2.36 5.38c.01.01.02.02.02.03l-2.34.69v-.02l-1.21-5.85a.364.364 0 0 0-.19-.26.362.362 0 0 0-.32-.02l-1.27.51c-.1.04-.17.12-.21.21-.04.1-.04.21.01.3l2.47 5.33c-.79.24-1.58.49-2.36.75 0-.04.03-.07.02-.12l-1.16-5.86a.364.364 0 0 0-.19-.26.362.362 0 0 0-.32-.02l-1.27.5c-.1.04-.17.11-.21.21-.04.1-.04.21.01.3l2.43 5.35c.02.04.05.06.07.09-.79.26-1.57.52-2.34.79 0-.01.01-.02.01-.04l-1.33-6.25a.402.402 0 0 0-.2-.27.42.42 0 0 0-.33-.01l-1.27.6c-.1.05-.17.13-.21.24-.04.11-.03.22.02.33l2.6 5.65.01.01c-2.19.78-4.24 1.6-6.06 2.44-.2-.96-.81-2.82-2.24-6.67-1.28-3.44-2.63-6.87-2.64-6.91a.517.517 0 0 0-.32-.31.52.52 0 0 0-.44.04L7.7 30.63c-.22.13-.32.39-.24.64.12.36 4.37 10.28 5.62 13.2-.62.33-1.22.65-1.76.98l-1.17-1.06a.64.64 0 0 0-.85-.01l-3.39 2.89a.643.643 0 0 0 .33 1.13c.14.05.45.23.84.49-.4.42-.78.85-1.15 1.3l-.88-.33c-.3-.11-.65.02-.8.31l-1.51 2.89a.63.63 0 0 0-.03.52c.06.17.19.31.36.38l.33.14c-.29.57-.54 1.15-.77 1.73l-.6-.09a.65.65 0 0 0-.72.49L.56 59.5a.644.644 0 0 0 .58.79l.35.02c-.1.82-.13 1.63-.1 2.42h-.06c-.2.01-.39.12-.5.28-.11.17-.14.38-.08.57l1.45 4.24c.08.25.31.41.55.43.21.42.43.82.68 1.22.15.24.31.48.47.72l-.1.04c-.21.07-.37.24-.43.45s0 .44.14.6l3.44 3.8a.658.658 0 0 0 .78.14l.2-.1c4.02 3.82 9.9 6.69 19.65 6.69 2.1 0 4.37-.13 6.85-.42 6.36-.74 23.1-7.61 48.4-19.88l.11-.05c3.45-1.67 5.64-5 5.99-9.01L99.38 40.9c.1-.13.14-.29.11-.45-.04-.16-1.8-1.12-1.8-1.12zm-46.4-11.3.34-.09.11 1.53-.45-1.44zm-2.69.46.34-.1.16 1.53-.5-1.43zm-2.88.42.34-.1.15 1.53-.49-1.43zm-3.05.7.33-.14.36 1.49-.69-1.35zm-2.88.76.33-.12.26 1.51-.59-1.39zm-2.64.71.33-.11.2 1.52-.53-1.41zm-2.75.56.32-.13.32 1.5-.64-1.37zm-2.65.69.33-.13.31 1.5-.64-1.37zm-3.04.45.47-.18.4 2.16-.87-1.98zm-3.14.99.47-.19.44 2.15-.91-1.96zm-3.02.84.47-.19.43 2.15-.9-1.96zm-3.15.8.47-.22.49 2.3-.96-2.08zm67.57 12.32c.03.11.06.22.09.32.07.29.14.58.19.87l-2.79.23-.3-1 2.7-.75c.03.12.08.22.11.33zm-2.37-4.72.55-.27.8 1.28-.55.18-2.63.84-.65-.82 2.48-1.21zm-4.47-4.19.32-.31 2 1.44-.45.28-2.23 1.4-1.35-1.13 1.71-1.68zm-5.37-2.76.44-.71 2.46 1.3-.5.5-1.69 1.7-1.77-1.05 1.06-1.74zm-5.72-1.87.45-1.17 2.15.64-.51 1.09-.79 1.69-1.87-.78.57-1.47zm-8.25-11.84h.39l-2.22 8.88c.68-3.35 1.54-7.55 1.83-8.88zm-52.18 9 .81-.46c2.2 5.61 4.45 11.72 4.66 13.01l-.09.06c-1.98-4.61-4.68-10.94-5.38-12.61zm1.06 14.39.5.46 1.15 1.04.95.86-1.74 1.66c-.47-.35-.89-.65-1.26-.92-.51-.36-.93-.65-1.27-.87-.2-.13-.38-.25-.54-.34l2.21-1.89zm11.76 2.24c3.4-1.47 29.43-8.96 32.99-9.78 4.62-1.07 12.98.22 19.39 4.71 3.26 2.28 4.57 6.61 3.11 10.3-.67 1.69-11.32 5.74-17.69 8.15-2.29.87-4.27 1.62-5.59 2.17-14.57 6.1-19.99 7.45-21.97 7.51-.63.02-3.4.06-6.57-.5l-1.97-5.05a.536.536 0 0 0-.41-.33.558.558 0 0 0-.5.17l-2.01 2.26c-.14.16-.18.39-.08.59l.54 1.14c-2.62-1.04-4.98-2.69-6.06-5.31-2.29-5.53-1.07-12.63 6.82-16.03zm-5.2-.74 3.11-1.83.86 1.12-2.96 1.85-1.01-1.14zm3.33 23.25-.12 1.15-4.24-1.89.8-.79 3.56 1.53zM11.6 58.72l.48 3.37-2.69.82c-.19-.51-.46-1.37-.55-2.37-.06-.7.03-1.45.12-1.92l2.64.1zm-2.61-2.25c.05-.54.19-1.43.55-2.37.25-.66.67-1.28.95-1.67l2.32 1.25-1.05 3.24-2.77-.45zm3.32 7.92c.2.53.55 1.27 1.04 1.84.37.43.7.79.95 1.06l-1.11 1.04c-.41-.19-1.13-.63-1.71-1.5-.42-.63-.75-1.31-.95-1.78l1.78-.66zm1.38-12.63-2.06-1.27 2.43-2.26 1.31 1.39-1.68 2.14zM7.45 50.7c.28-.32.56-.64.86-.94.57.4 1.18.84 1.75 1.27-.08.04-.16.09-.23.16-.01.02-.14.16-.31.39-.04-.02-.07-.05-.11-.07l-2.01-.76c.01-.02.03-.03.05-.05zm-2.35.58 1.44.54h.01l1.72.64-1 1.85-1.87-.77h-.01l-1.21-.5.92-1.76zm-.4 3.52c.02-.04.04-.09.06-.13h.01l2.54 1.05c.08.03.16.05.25.05.08 0 .16-.03.23-.06-.07.44-.1.8-.12 1.02a.63.63 0 0 0-.41-.23l-3.14-.45c.18-.42.38-.84.58-1.25zm3.26 7.87c-.05-.01-.1-.02-.15-.02-.15 0-2.93 0-4.94.04h-.02c-.01-.18 0-.37 0-.56 0-.17-.01-.34 0-.51.02-.4.05-.8.1-1.21h.01l3.8.25h.04c.25 0 .47-.15.58-.37.21 1.43.58 2.38.58 2.38zm-6.02-3.61.45-1.95 1.27.18h.01l2.78.4-.22 1.66-3.06-.2h-.01l-1.22-.09zm1.78 7.73H3.7l-.5.09L2.22 64c.23-.01.48-.01.75-.02h.02c1.54-.03 3.52-.04 4.39-.04l.8 2.01-4.46.84zM4.27 68h.02l4.89-.92c.19-.04.35-.15.45-.32.08-.15.09-.33.04-.5.2.41.45.86.74 1.3.13.19.26.36.4.52a.651.651 0 0 0-.31.01l-5.12 1.64h-.01c-.23-.34-.47-.69-.7-1.05-.14-.23-.27-.45-.4-.68zm4.1 5.43-.8.41-2.43-2.69 1.02-.33h.01l4.36-1.39 1.96 1.88-4.11 2.12h-.01zm4.88 2.38L15.1 74l3.83 1.3-1.54 2.32-4.14-1.81zm4.8 3.3c.06-.05.12-.08.16-.15l2.41-3.63a.77.77 0 0 0 .09-.66.727.727 0 0 0-.45-.47l-5.13-1.73a.682.682 0 0 0-.69.16l-2.95 2.89c-.11.11-.17.26-.2.42-.12-.09-.24-.18-.37-.27-.16-.12-.33-.24-.49-.36-.25-.2-.49-.41-.74-.62l-.36-.3h.01l4.53-2.34a.65.65 0 0 0 .15-1.04l-1.8-1.72c.52.3.9.41.94.42.06.02.11.02.17.02.06 0 .13-.02.19-.04-.06.12-.09.25-.07.39.04.21.18.39.37.47l5.91 2.64c.08.04.17.06.26.06.11 0 .22-.03.32-.09.18-.1.3-.29.32-.49l.24-2.37c.1.04.2.08.31.12l4.61 9.84c.01.01.02.02.02.03-2.85-.12-5.43-.51-7.76-1.18zm4.53-8.28-.48-1.02-.83-1.78 1.19-1.34 1.4 3.59.37.95 2.92 7.47-.65.49-3.92-8.36zm64.84-18.46c-.01.07-.01.14-.02.21 0 .04-.01.07-.02.1v.01l-.64.71-.05-.06.73-1.11.01-.02c0 .05 0 .11-.01.16zm.03-1.83-1.88 2.5c-.15.2-.14.48.02.67l.75.88c.1.12.25.19.41.19h.01c.05 0 .1-.01.14-.03h.02c-.06.17-.13.33-.19.49-.04.11-.08.22-.12.32-.15.34-.31.66-.5.98-.06.1-.13.2-.19.3-.15.24-.31.47-.48.69l-.21.27c-.24.28-.49.56-.76.81a10.628 10.628 0 0 1-.91.74l-.27.18c-.32.21-.66.41-1.01.59l-.11.05C57.37 72.18 40.35 79.19 34.25 79.9c-2.66.31-5.12.43-7.42.39l1.3-.97c.19-.14.27-.4.18-.63l-2.82-7.23c2.36.38 4.44.45 5.54.45.32 0 .56-.01.69-.01 2.99-.09 10.49-2.64 22.28-7.58 1.3-.54 3.27-1.29 5.56-2.16 9.51-3.61 17.44-6.74 18.18-8.64 1.6-4.05.16-8.82-3.42-11.32-6.61-4.63-15.28-5.95-20.08-4.84-3.4.79-27.34 7.67-32.51 9.58.02-.04.04-.08.05-.12a.666.666 0 0 0-.12-.51l-1.63-2.14a.64.64 0 0 0-.84-.16l-4.27 2.51c-.15.09-.25.24-.29.41l-.04-.05a.646.646 0 0 0-.91-.03l-.41.38-.79-.72c10.79-6.35 38.35-12 42.25-12.65.56-.09 1.11-.17 1.65-.24l.51-.06.59-.06c.02.08.05.15.11.21.1.13.25.2.42.2h1.01c.25 0 .46-.17.52-.41l.04-.16h.05c.2-.01.39-.01.59-.02.34-.01.67-.02 1-.02h.58c.33 0 .67.01 1 .03l.56.03c.34.02.67.04 1.01.07.18.02.35.03.53.05.35.04.69.08 1.03.13.16.02.33.04.49.07.36.05.72.12 1.07.18.1.02.21.03.31.05l-.72 1.87c-.13.33.03.69.35.83l3.02 1.26a.637.637 0 0 0 .83-.32l1.12-2.4c.01 0 .02.01.03.01l.57.21c.19.07.38.14.58.21l-1.29 2.11a.638.638 0 0 0 .22.89l2.77 1.63c.1.06.22.09.33.09.17 0 .33-.07.46-.19l2.34-2.36c.22.12.43.24.64.36l-2 1.96c-.13.13-.2.3-.19.49.01.18.09.35.23.47l2.26 1.89c.12.1.27.15.41.15.12 0 .24-.03.34-.1l2.92-1.84c.27.27.53.56.79.84l-2.93 1.42c-.18.09-.3.25-.35.44-.04.19 0 .39.12.54l1.42 1.8c.12.16.31.25.51.25.07 0 .13-.01.2-.03l3.31-1.05c.01.01.01.03.02.04.13.26.24.54.35.8l-3.23.9a.641.641 0 0 0-.44.81l.63 2.14c.08.28.33.46.62.46h.05l3.38-.28c.01.1.03.2.03.3-.05.01-.04.02-.05.03zm1.49-.32-.03-.26c.02-.01.03-.03.05-.04-.02.1-.02.2-.02.3zm.04 1c0-.2 0-.4-.01-.6 0-.07-.01-.13-.01-.2 0-.03 0-.06-.01-.08l7.64-10.13h.01l.18-.24 1.29.65-9.09 10.6zm-20.82 2.54L54.21 41.81a.629.629 0 0 0-.59-.13L26.5 49.36a.65.65 0 0 0-.43.38.64.64 0 0 0 .04.57l9.39 16.33a.65.65 0 0 0 .79.28l31.68-12.07a.66.66 0 0 0 .41-.49.64.64 0 0 0-.22-.6zM36.6 65.53l-.02-.03-.22.09-8.7-15.13 25.98-7.37.01.01.23-.07 12.87 11.01L36.6 65.53z"/>
</svg>
