<svg id="Layer_1" data-name="Layer 1" xmlns="http://www.w3.org/2000/svg" viewBox="0 0 91.56 91.56"><defs><style>.cls-1{fill:#fff;}</style></defs><title>chat</title><circle class="cls-1" cx="39.36" cy="44.18" r="2.86"/><circle class="cls-1" cx="47.83" cy="44.18" r="2.86"/><circle class="cls-1" cx="56.57" cy="44.18" r="2.86"/><path class="cls-1" d="M74.48,44.26c0-6.31-2.62-12.94-5.86-15a1.94,1.94,0,0,0-2.44.48,1.82,1.82,0,0,0,0,2.23,19.34,19.34,0,0,1,4.46,12.25,18.57,18.57,0,0,1-6.72,14,25.32,25.32,0,0,1-16.58,5.93,27.39,27.39,0,0,1-5.82-.62,26.13,26.13,0,0,1-5.43-1.85,1.87,1.87,0,0,0-1.68,0L25.21,66l3.5-8.24a1.9,1.9,0,0,0-.36-2,18.56,18.56,0,0,1-3.16-5.43,17.22,17.22,0,0,1-1.09-6.06,18.54,18.54,0,0,1,6.72-14c4.83-4.45,12.16-6.86,23.63-4.65,1.18.23,2.73.42,3.08-1.12C58,22.35,56.3,22,56.3,22c-14.45-2-21.08-.35-28,5.41a22.31,22.31,0,0,0-8,16.87,21.11,21.11,0,0,0,1.34,7.38,22.68,22.68,0,0,0,3.14,5.7L19.82,69h0a1.89,1.89,0,0,0,2.52,2.46l13-6a28.86,28.86,0,0,0,5.42,1.75,30.34,30.34,0,0,0,6.63.73,29.06,29.06,0,0,0,19-6.87,22.29,22.29,0,0,0,8-16.87"/><circle class="cls-1" cx="61.54" cy="27.15" r="1.87"/></svg>