<svg id="Layer_1" data-name="Layer 1" xmlns="http://www.w3.org/2000/svg" viewBox="0 0 91.56 91.56"><defs><style>.cls-1{fill:#fff;}</style></defs><title>paikka</title><path class="cls-1" d="M58.51,45.57l0,.06L45.86,64.35,33.25,45.63l0-.06a15.71,15.71,0,1,1,25.3,0M45.78,16.73A19.39,19.39,0,0,0,26.42,36.09a19.19,19.19,0,0,0,3.76,11.46L44.84,69.32a1.14,1.14,0,0,0,.94.5,1.12,1.12,0,0,0,.93-.5L61.38,47.55a19.19,19.19,0,0,0,3.76-11.46A19.39,19.39,0,0,0,45.78,16.73"/><path class="cls-1" d="M53.68,34.84A1.13,1.13,0,0,0,52.55,36a6.77,6.77,0,1,1-6.77-6.77,6.69,6.69,0,0,1,3.78,1.16,1.14,1.14,0,0,0,1.57-.31,1.12,1.12,0,0,0-.3-1.56,9,9,0,1,0,4,7.48,1.14,1.14,0,0,0-1.13-1.13"/><path class="cls-1" d="M59.32,72.07H32.24a1.13,1.13,0,0,0,0,2.26H59.32a1.13,1.13,0,0,0,0-2.26"/><path class="cls-1" d="M45.79,31.13h0a1.13,1.13,0,1,0,0,2.26h0a1.13,1.13,0,1,0,0-2.26"/></svg>