<svg id="Layer_1" data-name="Layer 1" xmlns="http://www.w3.org/2000/svg" viewBox="0 0 91.56 91.56"><defs><style>.cls-1{fill:#fff;}</style></defs><title>nuija</title><path class="cls-1" d="M80.23,70.89l-.13-.14a4.91,4.91,0,0,0-4.84-4.19H49.33a4.91,4.91,0,0,0-4.84,4.19l-.09.17c-1.86.07-1.65,2.25-.08,2.25H80.25A1.14,1.14,0,0,0,80.23,70.89Zm-33.08-.17a2.81,2.81,0,0,1,2.58-2.08H74.48c1.68,0,2.83.5,3.17,2.08Z"/><path class="cls-1" d="M53.44,51.64a3.54,3.54,0,0,0-.86,1.51,4.27,4.27,0,0,0,.16,3.29l0,.11A4.36,4.36,0,0,0,56.7,59a4.28,4.28,0,0,0,1.85-.42l15-7.12a4.33,4.33,0,0,0,2-5.75l0-.1a4.35,4.35,0,0,0-3.91-2.47,3.15,3.15,0,0,0-.44,0L63,25.87A4.34,4.34,0,0,0,63.81,21l-.05-.1A4.34,4.34,0,0,0,58,18.8L43,25.92A4.35,4.35,0,0,0,41,31.68l.05.1a4.36,4.36,0,0,0,3.91,2.46l.44,0L48.11,40,32.24,46.76A1.51,1.51,0,0,0,32,48.3a1.22,1.22,0,0,0,1.29.67L49,42.14l.79,1.66-33,17c-1.53.72-3,1-3.75-.54-.66-1.37,0-2.52,1.5-3.25L25.48,52.3a1.43,1.43,0,0,0,.33-1.5,1.72,1.72,0,0,0-1.37-.91l-12,5.29h0c-2.38,1.14-2.73,4.1-1.6,6.49a4.13,4.13,0,0,0,4,2.5,7.49,7.49,0,0,0,2.5-.75l-.76.4L50.81,46.05ZM71.23,45.3a2.15,2.15,0,0,1,2.58,1.59c.42,1-1,2.46-1.61,2.77L58.65,56.15a6.09,6.09,0,0,1-1.59.49,2.47,2.47,0,0,1-2.12-1.15,1.8,1.8,0,0,1-.21-1.69,3.54,3.54,0,0,1,1.75-1.66L69.73,45.8A6.61,6.61,0,0,1,71.23,45.3ZM45.3,32A2.18,2.18,0,0,1,43,30.77a2.83,2.83,0,0,1-.05-2.16c.25-.7,1-.89,1.66-1.2l13.61-6.35a4,4,0,0,1,1.42-.45,2.67,2.67,0,0,1,1.85,1.05,2.39,2.39,0,0,1-1.15,3.45L46.88,31.55A10.86,10.86,0,0,1,45.3,32Zm2.47,1.75L61.3,27.22l7.77,16.19L55.37,50Z"/><path class="cls-1" d="M46.66,44.9a1.23,1.23,0,1,0,.37.88,1.26,1.26,0,0,0-.37-.88"/></svg>