<svg xmlns="http://www.w3.org/2000/svg" xml:space="preserve" viewBox="0 0 100 100">
  <path d="m87.74 51.42-34.1 34.09a5.094 5.094 0 0 1-7.19 0L12.14 51.2c-4.22-4.23-6.55-9.84-6.55-15.82s2.33-11.6 6.55-15.82C16.36 15.33 21.98 13 27.96 13c5.97 0 11.59 2.33 15.82 6.56l2.68 2.68-4.11 4.11c-.99.99-.99 2.6 0 3.59.5.5 1.15.74 1.8.74.65 0 1.3-.25 1.8-.75l10.38-10.38A22.23 22.23 0 0 1 72.15 13c6.07 0 11.75 2.39 16 6.74 8.52 8.72 8.34 22.93-.41 31.68m4.04-35.23c-5.21-5.33-12.19-8.27-19.63-8.27-7.33 0-14.23 2.86-19.42 8.04l-2.68 2.68-2.68-2.68c-5.19-5.19-12.08-8.04-19.41-8.04s-14.23 2.86-19.42 8.04C3.36 21.15.5 28.04.5 35.38s2.86 14.23 8.04 19.41l34.32 34.32c1.98 1.98 4.59 2.97 7.19 2.97 2.6 0 5.21-.99 7.19-2.97l34.1-34.09c10.71-10.71 10.9-28.13.44-38.83m-63.2 2.99a2.99 2.99 0 0 0 2.63 5.37 2.99 2.99 0 0 0-2.63-5.37zM16.29 33.76c.45-3.14 2.38-5.47 5.05-7.16 1.21-.77 2.14-2.05 1.37-3.27-.77-1.21-2.85-1.45-4.06-.68-3.87 2.46-5.42 4.49-6.83 9.03s.2 9.44 2.65 13.32c.77 1.21 2.43 1.98 3.5 1.02 1.67-1.51.68-3.74-.06-4.97-1.36-2.26-2.08-4.15-1.62-7.29z"/>
</svg>
