<svg xmlns="http://www.w3.org/2000/svg" xml:space="preserve" viewBox="0 0 100 100">
  <path fill-rule="evenodd" d="m46.14 38.31 24.52-.07c1.28-.03 2.31.45 2.34 1.73.03 1.28-.78 1.92-2.06 1.95l-24.58.13c-1.89.01-2.49-.55-2.49-1.77.01-1.27.52-1.88 2.27-1.97zm-2.26 18.31c0 1.21.59 1.78 2.49 1.77l24.58-.13c1.28-.03 2.09-.67 2.06-1.95-.03-1.28-1.06-1.76-2.34-1.73l-24.52.07c-1.76.08-2.27.69-2.27 1.97zm0 16.03c0 1.21.59 1.78 2.49 1.77l24.58-.13c1.28-.03 2.09-.67 2.06-1.95-.03-1.28-1.06-1.76-2.34-1.73l-24.52.07c-1.76.08-2.27.69-2.27 1.97zm36.01-62.1h-6.43s-2.27.53-2.38 2.85 2.38 2.93 2.38 2.93h5.85v77.39H20.69V16.33h5.81s2.41-.6 2.38-2.88-2.38-2.9-2.38-2.9h-6.39c-2.89 0-5.24 2.33-5.24 5.2V94.3c0 2.87 2.35 5.2 5.24 5.2h59.78c2.89 0 5.24-2.33 5.24-5.2V15.75c0-2.87-2.35-5.2-5.24-5.2zm-48.01 2.9v-2.5c0-1.01.83-1.84 1.84-1.84h7.65c0-4.75 3.85-8.61 8.61-8.61s8.61 3.85 8.61 8.61h7.65c1.01 0 1.84.83 1.84 1.84v2.5c0 3.66-2.97 6.63-6.63 6.63H38.51c-3.66 0-6.63-2.97-6.63-6.63zm14.56-4.34a3.53 3.53 0 1 0 7.059.001 3.53 3.53 0 0 0-7.059-.001zM39.8 66.59c-.22-.22-.51-.34-.83-.34s-.61.12-.83.34l-5.99 5.99-2.6-2.6c-.22-.22-.51-.34-.83-.34-.31 0-.61.12-.83.34l-.99.99c-.46.46-.46 1.2 0 1.65l4.41 4.41c.22.22.51.34.83.34.31 0 .61-.12.83-.34l7.81-7.81c.22-.22.34-.51.34-.83s-.12-.61-.34-.83l-.98-.97zm.99-14.89-.99-.99c-.22-.22-.51-.34-.83-.34s-.61.12-.83.34l-5.99 5.99-2.6-2.6c-.22-.22-.51-.34-.83-.34-.31 0-.61.12-.83.34l-.99.99c-.46.46-.46 1.2 0 1.65l4.41 4.41c.22.22.51.34.83.34.31 0 .61-.12.83-.34l7.81-7.81c.22-.22.34-.51.34-.83.01-.3-.11-.59-.33-.81zm0-15.88-.99-.99c-.22-.22-.51-.34-.83-.34s-.61.12-.83.34l-5.99 5.99-2.6-2.6c-.22-.22-.51-.34-.83-.34-.31 0-.61.12-.83.34l-.99.99c-.46.46-.46 1.2 0 1.65l4.41 4.41c.22.22.51.34.83.34.31 0 .61-.12.83-.34l7.81-7.81c.22-.22.34-.51.34-.83s-.11-.59-.33-.81z" clip-rule="evenodd"/>
</svg>
