<svg xmlns="http://www.w3.org/2000/svg" xml:space="preserve" viewBox="0 0 100 100">
  <path d="M8.46 34.05c-2.01 1.45-5.04 1.38-6.93-.17l-.01-.01c-2.05-1.68-.72-5.26 1.46-6.83 12.91-9.3 28.55-14.14 47.04-14.14s34 4.57 46.91 13.87c2.18 1.57 3.64 5.41 1.59 7.09l-.01.01c-1.89 1.55-4.92 1.61-6.93.17-11.11-7.99-25.66-12.83-41.56-12.83-15.91 0-30.45 4.85-41.56 12.84zm41.13 7.17c10.29 0 19.73 3.1 27.07 8.23 1.91 1.33 4.72 1.2 6.48-.27 2-1.68.82-5.2-1.36-6.72-9.02-6.3-19.55-9.34-32.19-9.34-12.64 0-23.25 3.18-32.27 9.47-2.18 1.52-3.28 4.91-1.28 6.58 1.76 1.47 4.57 1.6 6.48.27 7.34-5.13 16.77-8.22 27.07-8.22zm0 19.12c5.38 0 10.34 1.48 14.37 3.98 1.95 1.21 4.65 1.1 6.37-.35 2.1-1.77.98-5.14-1.41-6.63-5.64-3.51-11.78-5.13-19.33-5.13-7.54 0-13.63 1.49-19.27 5-2.39 1.49-3.57 5-1.46 6.77 1.72 1.44 4.41 1.56 6.37.35 4.02-2.51 8.98-3.99 14.36-3.99zm.13 12.03a7.36 7.36 0 1 0 7.36 7.36c0-4.07-3.29-7.36-7.36-7.36z"/>
</svg>
