<svg id="Layer_1" data-name="Layer 1" xmlns="http://www.w3.org/2000/svg" viewBox="0 0 91.56 91.56"><defs><style>.cls-1{fill:#fff;}</style></defs><title>jaakiekko</title><path class="cls-1" d="M69.52,71c0-2.8-9.39-3.1-13.43-3.1-5.05,0-13.53.41-13.53,3.1a1.29,1.29,0,0,0,.19.63,1,1,0,0,0,0,.17v7c0,2.7,8.48,3.1,13.53,3.1,4,0,13.43-.3,13.43-3.1v-7a1,1,0,0,0-.21-.59A.72.72,0,0,0,69.52,71ZM56.09,70a41.62,41.62,0,0,1,10.6,1,41.62,41.62,0,0,1-10.6,1A42.27,42.27,0,0,1,45.4,71,42.27,42.27,0,0,1,56.09,70Zm11.52,8.55c-.89.52-4.75,1.33-11.36,1.33s-10.57-.81-11.46-1.33V73c2.86,1,7.87,1.15,11.3,1.15,2.88,0,8.47-.16,11.44-1.26h.08Z"/><path class="cls-1" d="M54.85,57.31l5.56-9.41L79.74,15.21c-.65-.64-1.33-1.25-2-1.85L57.65,47.9l-4.3,7.41C48,64.45,27.78,64,19.44,63.46c-3.69-.23-4.33-2.81-4.94-7-.13-1.72.36-3.63,1.7-3.81,8.57.25,18.79.09,29.7-3a17.23,17.23,0,0,0,4.2-1.78,21.79,21.79,0,0,0,5.8-5.57l7.53-12.15a1.31,1.31,0,0,0-.66-1.54,1.69,1.69,0,0,0-1.63,0L53.85,40.51c-2.62,3.27-4.4,5.64-8.88,6.92-.58.17-1.18.32-1.8.47-10.59,2.56-25.06,2.4-27.07,2.28s-4.57,1.6-4.25,5.88c.55,3.73,1.92,9.52,7.5,9.87,2,.13,4.36-.25,6.85-.25C36.85,65.68,50.19,65.2,54.85,57.31Z"/><path class="cls-1" d="M66.14,23.14a1.62,1.62,0,0,0,1.71-.08l7.29-11.81c-.76-.56-1.54-1.1-2.33-1.62l-7.34,12A1.57,1.57,0,0,0,66.14,23.14Z"/><path class="cls-1" d="M64.56,27.1a1.3,1.3,0,1,0-1.3-1.3A1.31,1.31,0,0,0,64.56,27.1Z"/></svg>