<svg xmlns="http://www.w3.org/2000/svg" xml:space="preserve" viewBox="0 0 100 100">
  <path
      d="M41.22 46.06a5.16 5.16 0 1 1-10.32-.18 5.16 5.16 0 0 1 10.32.18zm10.23-5.25a5.16 5.16 0 1 0-.18 10.32 5.16 5.16 0 0 0 .18-10.32zm15.78 0a5.16 5.16 0 1 0-.18 10.32 5.16 5.16 0 0 0 .18-10.32zm32.27 5.32c0-11.41-4.73-23.37-10.58-27.02 0 0-2.53-1.43-4.41.86-1.58 1.94.09 4.03.09 4.03 5.37 5.95 8.05 15.04 8.05 22.13 0 9.86-4.64 18.82-12.14 25.32-7.63 6.62-18.22 10.72-29.95 10.72-3.67 0-7.2-.39-10.52-1.12-3.44-.76-6.73-1.89-9.8-3.35a3.437 3.437 0 0 0-3.05.07L10.5 85.43l6.32-14.88c.55-1.28.24-2.72-.65-3.67-2.45-2.97-4.39-6.27-5.71-9.81a31.214 31.214 0 0 1-1.97-10.95c0-9.86 4.64-18.82 12.14-25.32 8.73-8.04 21.97-12.4 42.69-8.41 2.13.41 4.94.76 5.56-2.01.86-3.84-2.21-4.51-2.21-4.51-26.12-3.67-38.08-.63-50.51 9.77C7.19 23.42 1.64 34.2 1.64 46.13c0 4.63.85 9.11 2.42 13.33 1.37 3.67 3.29 7.13 5.67 10.29L.77 90.87c-.36.85-.38 1.84.04 2.75.78 1.71 2.8 2.47 4.52 1.68L28.8 84.53a52.61 52.61 0 0 0 9.79 3.16A55.9 55.9 0 0 0 50.58 89c13.41 0 25.58-4.74 34.41-12.4 8.96-7.77 14.51-18.54 14.51-30.47m-23.38-34.3c-1.86 0-3.37 1.51-3.37 3.37s1.51 3.37 3.37 3.37 3.37-1.51 3.37-3.37-1.51-3.37-3.37-3.37z"/>
</svg>
