<svg xmlns="http://www.w3.org/2000/svg" xml:space="preserve" viewBox="0 0 100 100">
  <path d="m40.21 26.62.13 10.76c0 .44.73 1.29 1.61 1.28l6.98-.05c.88-.01 1.59-.55 1.64-1.35l-.13-10.42c-.11-.93-.73-1.51-1.61-1.51l-6.98.05c-1.2.01-1.64.8-1.64 1.24zm8.14.53.07 9.66-5.89.04-.07-9.66 5.89-.04zm5.95-.53.13 10.76c0 .44.73 1.29 1.61 1.28l6.98-.05c.88-.01 1.59-.55 1.64-1.35l-.13-10.42c-.11-.93-.73-1.51-1.61-1.51l-6.98.05c-1.2.01-1.64.8-1.64 1.24zm8.13.53.07 9.66-5.89.04-.07-9.66 5.89-.04zM40.21 43.37l.13 10.76c0 .44.73 1.29 1.61 1.28l6.98-.05c.88-.01 1.59-.55 1.64-1.35l-.13-10.42c-.11-.93-.73-1.51-1.61-1.51l-6.98.05c-1.2.01-1.64.8-1.64 1.24zm8.14.53.07 9.66-5.89.04-.07-9.66 5.89-.04zm5.95-.53.13 10.76c0 .44.73 1.29 1.61 1.28l6.98-.05c.88-.01 1.59-.55 1.64-1.35l-.13-10.42c-.11-.93-.73-1.51-1.61-1.51l-6.98.05c-1.2.01-1.64.8-1.64 1.24zm8.13.53.07 9.66-5.89.04-.07-9.66 5.89-.04zM40.21 60.2l.13 10.76c0 .44.73 1.29 1.61 1.28l6.98-.05c.88-.01 1.59-.55 1.64-1.35l-.13-10.42c-.11-.93-.73-1.51-1.61-1.51l-6.98.05c-1.2.02-1.64.81-1.64 1.24zm8.14.54.07 9.66-5.89.04-.07-9.66 5.89-.04zm5.95-.54.13 10.76c0 .44.73 1.29 1.61 1.28l6.98-.05c.88-.01 1.59-.55 1.64-1.35l-.13-10.42c-.11-.93-.73-1.51-1.61-1.51l-6.98.05c-1.2.02-1.64.81-1.64 1.24zm8.13.54.07 9.66-5.89.04-.07-9.66 5.89-.04zM80 41.79l.12 9.88c0 .4.67 1.18 1.47 1.18L88 52.8c.81-.01 1.46-.5 1.5-1.24l-.12-9.57c-.1-.85-.67-1.39-1.48-1.38l-6.41.05c-1.08 0-1.49.73-1.49 1.13zm7.47.49.07 8.87-5.4.04-.07-8.87 5.4-.04zM80 57.17l.12 9.88c0 .4.67 1.18 1.47 1.18l6.41-.05c.81-.01 1.46-.5 1.5-1.24l-.12-9.57c-.1-.85-.67-1.39-1.48-1.38l-6.41.05c-1.08 0-1.49.73-1.49 1.13zm7.47.49.07 8.87-5.4.04-.07-8.87 5.4-.04zM17.79 83.23c-.14 0-.27 0-.42-.01-2.76-.18-3.4-1.64-3.5-1.93l-.08-.22.17-8.42c-1.23.42-2.58.68-3.7.68-3.81 0-6.43-.82-8.03-2.5C.98 69.51.4 67.71.51 65.46c.1-1.94 1.25-3.78 2.15-4.9C1.6 59.37.32 57.58.59 55.47c.56-4.36 3.31-7.13 7.79-7.88.77-4.55 4.53-7.75 9.3-7.75 4.42 0 8.11 2.69 9.31 6.65 2.75.4 5.28 1.75 6.76 3.63 1.26 1.6 1.74 3.49 1.38 5.48-.47 2.65-1.41 3.68-2.51 4.76.48.89 1.14 2.11 1.25 3.73.17 2.37-.59 4.6-2.14 6.27-1.73 1.86-4.35 2.93-7.19 2.93-1.12 0-2.06-.32-2.89-.75l.03 8.76-.26.35c-.13.17-1.25 1.58-3.63 1.58zm-1.32-2.89c.18.08.51.19 1.07.23.71.05 1.19-.14 1.46-.3l-.04-12.63 2.55 1.69c1.07.73 1.92 1.3 3.02 1.3 2.1 0 4.01-.76 5.24-2.08 1.06-1.14 1.56-2.61 1.44-4.26-.08-1.06-.54-1.92-.95-2.67-.21-.38-.39-.73-.51-1.04l-.32-.81 1.14-1.13c1.06-1.02 1.59-1.54 1.94-3.49.22-1.23-.07-2.37-.86-3.37-1.2-1.53-3.43-2.57-5.82-2.72l-1.03-.07-.19-1.02c-.61-3.22-3.46-5.46-6.93-5.46-3.76 0-6.54 2.61-6.77 6.35L10.84 50l-1.14.1c-3.9.36-6.02 2.23-6.47 5.71-.17 1.32 1.19 2.75 2 3.61l1.16 1.24-1.06.9c-.43.37-2.07 2.32-2.16 4.04-.07 1.51.25 2.62.99 3.4 1.07 1.12 3.06 1.67 6.1 1.67 1.32 0 3.28-.55 4.38-1.23l2.08-1.29-.25 12.19zm79.92-28.69v-16.3h-23v39.37h23V60.97s.05-1.05 1.5-1.05c1.44 0 1.61 1.05 1.61 1.05v13.75c0 1.68-1.37 3.05-3.05 3.05H73.33v1.84c0 1.68-1.38 3.05-3.08 3.05H34.12c-1.7 0-3.08-1.37-3.08-3.05v-4.69l3.42-2.71v7.06h35.45l-.2-59.31H34.26l.2 26.51-3.42-1.35v-25.3c0-1.68 1.38-3.05 3.08-3.05h36.14c1.7 0 3.08 1.37 3.08 3.05v12.6h23.12c1.68 0 3.05 1.37 3.05 3.05v16.19s-.06 1.05-1.61 1.05c-1.51-.01-1.51-1.06-1.51-1.06z"/>
</svg>
