<svg xmlns="http://www.w3.org/2000/svg" xml:space="preserve" viewBox="0 0 100 100">
  <path d="M5.56 1.63h61.87c1.39 0 2.66.57 3.58 1.49A5.04 5.04 0 0 1 72.5 6.7v23.25l-5.78 7.42V7.97a.56.56 0 0 0-.17-.4c-.1-.1-.24-.17-.4-.17H6.84a.56.56 0 0 0-.4.17c-.1.1-.17.24-.17.4v84.06c0 .15.06.29.17.4.1.1.24.17.4.17h47.68l12.19-10.88V65.05c.96-.56 2.81-1.55 2.82-1.56l.96-.96 2-2.96v23.98l-.67.67-13.51 13.49-1.58.66H5.56c-1.39 0-2.66-.57-3.58-1.49A5.04 5.04 0 0 1 .49 93.3V6.69c0-1.39.57-2.66 1.49-3.58.92-.91 2.19-1.48 3.58-1.48zm85.97 13.72c.55.25 1.23.71 1.87 1.21.49.38.92.73 1.21.98-1.31 1.79-4.1 5.59-7.86 10.73-7.92 10.81-18.72 25.55-21.37 29.17l-3.57 1.42.56-3.68 8.56-11.69 13.55-18.5 7.05-9.64zm-10.68 6.98L67.3 40.83c-4.31 5.88-7.84 10.71-8.89 12.14l-.33.45-.08.54-1.34 7.38c-.4 1.84-.14 2.42.48 3.04.88.88 3.52-.24 3.52-.24l6.97-2.78.61-.24.38-.51c1.77-2.42 13.37-18.25 21.75-29.68 3.88-5.29 7.3-9.96 8.69-11.88l.44-.6v-.72c0-.07-.01-.19-.03-.35-.16-1.2-1.58-2.99-3.31-4.35-1.66-1.29-3.74-2.39-5.38-2.39-.17 0-.34.01-.5.03l-.96.12-.57.78-7.9 10.76zm14.24-3.84-.07-.56v.02l.07.54zM11.97 55.42c0 1.56.76 2.29 3.2 2.27l31.65-.16c1.65-.04 2.69-.86 2.65-2.51-.04-1.65-1.37-2.27-3.02-2.23l-31.58.09c-2.24.12-2.9.9-2.9 2.54zm-.16 13.28c0 1.56.76 2.29 3.2 2.27l31.65-.16c1.65-.04 2.69-.86 2.65-2.51-.04-1.65-1.37-2.27-3.02-2.23l-31.58.09c-2.24.12-2.9.9-2.9 2.54zm0-26.88c0 1.56.76 2.29 3.2 2.27l41.9-.16c1.65-.04 2.69-.86 2.65-2.51-.04-1.65-1.37-2.27-3.02-2.23l-41.82.09c-2.25.12-2.91.9-2.91 2.54zm0-13.44c0 1.56.76 2.29 3.2 2.27l41.9-.16c1.65-.04 2.69-.86 2.65-2.51-.04-1.65-1.37-2.27-3.02-2.23l-41.82.09c-2.25.11-2.91.9-2.91 2.54z"/>
</svg>
