<svg id="Layer_1" data-name="Layer 1" xmlns="http://www.w3.org/2000/svg" viewBox="0 0 91.56 91.56"><defs><style>.cls-1{fill:#fff;}</style></defs><title>puisto</title><path class="cls-1" d="M65.05,55.54H46.62s-.81,0-.8,1.4.8,1.36.8,1.36H65.05s.79,0,.79-1.39S65.05,55.54,65.05,55.54Z"/><path class="cls-1" d="M65.05,51.59H46.62s-.79-.12-.78,1.3.78,1.46.78,1.46H65.05s.76-.09.77-1.41S65.05,51.59,65.05,51.59Z"/><path class="cls-1" d="M68.48,52.93a.8.8,0,0,0-.91.88v6.66H44.08V53.81c0-.64-.45-.88-1-.88s-1,.24-1,.88V65s0,.06,0,.09h1.92s0-.06,0-.09V62.53H67.57V65s0,.06,0,.09h1.93s0-.06,0-.09V53.81C69.52,53.17,69,52.93,68.48,52.93Z"/><path class="cls-1" d="M26.39,67.29l-.75,0c-1.88-.13-2.69-.31-2.89-1.09l0-.12.17-11.24a10.86,10.86,0,0,1-7.2,0,6.38,6.38,0,0,1-3.72-5,7.85,7.85,0,0,1,1.08-5.07,7.07,7.07,0,0,1-2.25-6.71c.69-4.3,3.54-6.7,7.73-6.55.6-4.53,3.4-7.19,7.63-7.19,3.92,0,6.79,2.37,7.83,6.41a8.79,8.79,0,0,1,6.32,2.7A6.39,6.39,0,0,1,42,38.92a10.59,10.59,0,0,1-2.42,5,6.87,6.87,0,0,1,.24,7.1,8,8,0,0,1-5.15,4,8.59,8.59,0,0,1-5-.51l0,12.08-.6.26A6.81,6.81,0,0,1,26.39,67.29Zm-1.66-2.12,1.05.1a7.54,7.54,0,0,0,1.93-.1l0-14.21L29.24,52a7.17,7.17,0,0,0,5,1A6,6,0,0,0,38.06,50c1.59-2.62-.39-5.32-.62-5.62l-.81-1,1.17-.47A8.35,8.35,0,0,0,40,38.58h0a4.42,4.42,0,0,0-1.15-3.81,7,7,0,0,0-5.56-2l-.91.08-.16-.89c-.39-2.1-1.69-5.62-6.05-5.62s-5.56,3.44-5.73,6.32l-.06,1.07-1.06-.14c-3.65-.45-6,1.25-6.53,4.81a4.86,4.86,0,0,0,2,5.18l1.47.61-1.15,1.08a6.25,6.25,0,0,0-1.19,4.22A4.36,4.36,0,0,0,16.48,53c2.66,1.15,6.34-.15,6.9-.5l1.56-1Zm13-22.3Z"/><path class="cls-1" d="M75.74,67.58h0l-59.19-.15a1.25,1.25,0,1,1,0-2.5h0l59.18.15a1.25,1.25,0,0,1,0,2.5Z"/><path class="cls-1" d="M44.6,46.64a2.61,2.61,0,0,1-1.78-.42,1,1,0,0,1,.1-1.41,1,1,0,0,1,.86-.22c.29,0,5.13.72,6-3.28.38-1.75-1.09-3.65-1.1-3.67l-.62-.77.77-.63s2.16-1.81,2-4a4.38,4.38,0,0,0-1.68-3.54c-1.73-1.11-4.33-.19-4.36-.18l-1.1.39-.22-1.15c-.06-.28-.71-2.81-4.54-2.08-2,.38-2.29,1.55-2.31,1.68a1,1,0,0,1-1.16.8,1,1,0,0,1-.82-1.13c0-.1.45-2.65,3.91-3.31a6.28,6.28,0,0,1,4.88.73,4.81,4.81,0,0,1,1.64,1.92,7,7,0,0,1,5.15.64c1.52,1,2.4,2.67,2.6,5.06a6.89,6.89,0,0,1-2,5,6.6,6.6,0,0,1,1,4.58,5.85,5.85,0,0,1-4.55,4.61A12.35,12.35,0,0,1,44.6,46.64Z"/></svg>