<svg xmlns="http://www.w3.org/2000/svg" xml:space="preserve" viewBox="0 0 100 100">
  <path d="M68.65 32.31v3.82c0 .15-.03.29-.1.42l-3.68 7.63c-.13.26-.37.46-.65.52l-9.09 2.13-.02.75c1.24.36 3.38 1.25 3.38 3.18 0 1.75-1.83 2.45-3 2.73l2.26 44.99c.03.53-.39.99-.92 1.02-.5.05-.99-.38-1.02-.92l-2.3-45.84c-.03-.51.36-.96.87-1.01.98-.1 2.18-.56 2.18-.96 0-.67-1.67-1.3-2.6-1.46a.971.971 0 0 1-.8-.98l.05-2.28a.97.97 0 0 1 .75-.92l9.37-2.19 3.38-7.02v-2.8l-8.65-1.62a.969.969 0 0 1-.68-.5l-3.09-5.92-6.48-.05-3.5 5.73c-.15.25-.4.41-.69.45l-8.39 1.24v3.15l2.26 7.22 9.87 2.25c.44.1.75.49.75.95v2.15c0 .4-.25.76-.62.91-1.05.4-2.23 1.22-2.24 1.71-.01.31 1.18.99 2.46 1.27.46.1.78.52.76 1L46.2 98.58c-.03.52-.45.92-.97.92h-.05a.972.972 0 0 1-.92-1.02l2.25-44.75c-1.22-.39-3.22-1.28-3.18-2.99.04-1.63 1.82-2.72 2.86-3.21v-.74l-9.66-2.2a.969.969 0 0 1-.71-.66l-2.47-7.9a.925.925 0 0 1-.04-.29V31.6c0-.48.35-.89.83-.96l8.77-1.3 3.55-5.81c.18-.29.49-.46.83-.46h.01l2.7.03V1.47a.97.97 0 0 1 1.94 0v21.64l2.96.02c.36 0 .69.2.85.52l3.14 6.01 8.97 1.69c.46.09.79.49.79.96zm-27.3 5.78v-2.17c0-.53-.44-.97-.97-.97h-.41c-.53 0-.97.44-.97.97v2.17c0 .53.44.97.97.97h.41c.53-.01.97-.44.97-.97zm7.13 0v-2.17c0-.53-.44-.97-.97-.97h-.41c-.53 0-.97.44-.97.97v2.17c0 .53.44.97.97.97h.41c.54-.01.97-.44.97-.97zm7.5 0v-2.17c0-.53-.44-.97-.97-.97h-.41c-.53 0-.97.44-.97.97v2.17c0 .53.44.97.97.97h.41c.53-.01.97-.44.97-.97zm-11.15 2.77v-2.17c0-.53-.44-.97-.97-.97h-.41c-.53 0-.97.44-.97.97v2.17c0 .53.44.97.97.97h.41c.53-.01.97-.44.97-.97zm7.42 0v-2.17c0-.53-.44-.97-.97-.97h-.41c-.53 0-.97.44-.97.97v2.17c0 .53.44.97.97.97h.41c.53-.01.97-.44.97-.97zm7.46 0v-2.17c0-.53-.44-.97-.97-.97h-.41c-.53 0-.97.44-.97.97v2.17c0 .53.44.97.97.97h.41c.53-.01.97-.44.97-.97zm3.64-2.46v-2.17c0-.53-.44-.97-.97-.97h-.41c-.53 0-.97.44-.97.97v2.17c0 .53.44.97.97.97h.41c.54-.01.97-.44.97-.97zm-38.12.01c.1 2.74-2.14 4.98-4.9 4.98H7.11c-2.73 0-4.96-2.21-4.9-4.92.05-2.31 1.76-4.24 4.01-4.63.27-2.4 2.33-4.27 4.81-4.27 1.34 0 2.6.54 3.51 1.49a4.852 4.852 0 0 1 6.55 2.75c2.3.34 4.06 2.26 4.14 4.6zm-1.35.2a3.519 3.519 0 0 0-3.34-3.53l-.44-.02-.11-.42a3.524 3.524 0 0 0-3.42-2.62c-.63 0-1.25.17-1.8.49l-.46.27-.32-.42a3.52 3.52 0 0 0-2.81-1.38c-1.95 0-3.54 1.57-3.54 3.51V35.06l-.57.03c-1.88.11-3.35 1.67-3.33 3.54.02 1.93 1.64 3.48 3.59 3.48h12.96c1.95-.01 3.58-1.56 3.59-3.5zM12.1 57.18c-.07 2.08 1.65 3.78 3.76 3.78h10.15c2.09 0 3.81-1.68 3.76-3.73-.04-1.75-1.35-3.22-3.08-3.51-.21-1.82-1.79-3.24-3.69-3.24-1.03 0-1.99.41-2.69 1.13-.48-.21-1-.32-1.53-.32-1.58 0-2.97.98-3.5 2.41-1.77.25-3.11 1.71-3.18 3.48zm1.65.11c-.01-1.35 1.06-2.47 2.43-2.54l.32-.02.08-.3c.29-1.11 1.32-1.89 2.49-1.89.46 0 .91.12 1.31.35l.33.19.24-.3c.49-.63 1.24-.99 2.04-.99 1.42 0 2.57 1.13 2.57 2.53V54.73l.41.02c1.37.08 2.44 1.2 2.43 2.55-.01 1.39-1.2 2.5-2.61 2.5h-9.43c-1.41 0-2.6-1.11-2.61-2.51zm61.11-4.49c-.09 2.74 2.06 4.98 4.71 4.98h12.69c2.62 0 4.76-2.21 4.71-4.92-.05-2.31-1.69-4.24-3.85-4.63-.26-2.4-2.23-4.27-4.62-4.27-1.29 0-2.49.54-3.37 1.49-.6-.28-1.25-.43-1.91-.43-1.97 0-3.72 1.29-4.37 3.18-2.22.34-3.91 2.27-3.99 4.6zm1.49.22c-.01-1.83 1.39-3.34 3.18-3.44l.42-.02.11-.41c.39-1.5 1.72-2.55 3.26-2.55.6 0 1.19.16 1.71.47l.44.26.31-.41a3.33 3.33 0 0 1 2.67-1.34c1.85 0 3.36 1.53 3.36 3.42v.56l.54.03c1.79.1 3.19 1.62 3.17 3.45a3.423 3.423 0 0 1-3.42 3.38H79.77a3.44 3.44 0 0 1-3.42-3.4zm6.92 18.93c.07 2.04-1.48 3.71-3.39 3.71h-9.15c-1.89 0-3.44-1.65-3.39-3.67.04-1.73 1.22-3.16 2.78-3.45.19-1.79 1.61-3.18 3.33-3.18.93 0 1.8.4 2.43 1.11.43-.21.9-.32 1.38-.32 1.42 0 2.68.96 3.15 2.37 1.58.26 2.8 1.69 2.86 3.43zm-1.12.16c.01-1.34-.97-2.45-2.21-2.52l-.29-.02-.07-.3c-.27-1.1-1.2-1.87-2.27-1.87-.42 0-.83.12-1.19.35l-.3.19-.21-.3c-.45-.63-1.13-.98-1.86-.98-1.29 0-2.34 1.12-2.34 2.5V69.57l-.37.02c-1.25.08-2.22 1.19-2.21 2.53.01 1.38 1.09 2.48 2.38 2.48h8.58c1.27-.01 2.35-1.11 2.36-2.49z"/>
</svg>
