<svg id="Layer_1" data-name="Layer 1" xmlns="http://www.w3.org/2000/svg" viewBox="0 0 91.56 91.56"><defs><style>.cls-1{fill:#fff;}</style></defs><title>osaaminen</title><path class="cls-1" d="M23.14,39.78h6.59a4.68,4.68,0,0,1,.1,1,4.9,4.9,0,0,1-.1,1H25.5v2.52h3.36a5.74,5.74,0,0,1,.1,1,5.67,5.67,0,0,1-.1,1H25.5v3.07h4.34a4.68,4.68,0,0,1,.1,1,4.9,4.9,0,0,1-.1,1h-6.7Z"/><path class="cls-1" d="M38.84,43.14a4.63,4.63,0,0,1,.1,1,4.68,4.68,0,0,1-.1,1H32a4.85,4.85,0,0,1,0-2Zm0,3.3a4.5,4.5,0,0,1,.1,1,4.59,4.59,0,0,1-.1,1H32a5.23,5.23,0,0,1-.1-1,5.34,5.34,0,0,1,.1-1Z"/><path class="cls-1" d="M41.41,43.05a3.54,3.54,0,0,1,.45-.08l.5,0,.49,0a3.58,3.58,0,0,1,.43.08.55.55,0,0,1,.09.23,3,3,0,0,1,.07.32,2.33,2.33,0,0,1,.06.33c0,.11,0,.2,0,.28a3.35,3.35,0,0,1,.34-.49,2.63,2.63,0,0,1,.5-.43A2.7,2.7,0,0,1,45,43a2.55,2.55,0,0,1,.81-.12,2.38,2.38,0,0,1,2.51,1.49,3,3,0,0,1,.91-1,2.38,2.38,0,0,1,1.49-.45,2.57,2.57,0,0,1,2.09.79,3.67,3.67,0,0,1,.67,2.44V51.4a7.4,7.4,0,0,1-1.14.09,7.52,7.52,0,0,1-1.15-.09V46.68A3.19,3.19,0,0,0,51,45.34a.87.87,0,0,0-.88-.47,2,2,0,0,0-.54.08,1.22,1.22,0,0,0-.48.3,1.57,1.57,0,0,0-.36.61,3.28,3.28,0,0,0-.14,1V51.4a7.4,7.4,0,0,1-1.14.09,7.52,7.52,0,0,1-1.15-.09V46.68a3.19,3.19,0,0,0-.22-1.34.87.87,0,0,0-.88-.47,2.15,2.15,0,0,0-.55.08,1.16,1.16,0,0,0-.49.32,1.6,1.6,0,0,0-.35.65A4.09,4.09,0,0,0,43.7,47V51.4a7.4,7.4,0,0,1-1.14.09,7.52,7.52,0,0,1-1.15-.09Z"/><path class="cls-1" d="M61.21,49.43a3.26,3.26,0,0,1,.33.75,3.7,3.7,0,0,1,.13,1,5.32,5.32,0,0,1-1.22.33,8.86,8.86,0,0,1-1.17.07,4.64,4.64,0,0,1-1.83-.33,3.46,3.46,0,0,1-1.28-.91A3.88,3.88,0,0,1,55.4,49a5.76,5.76,0,0,1-.26-1.74,5.52,5.52,0,0,1,.25-1.71,4,4,0,0,1,.76-1.39,3.54,3.54,0,0,1,1.27-.94,4.35,4.35,0,0,1,1.76-.34l.65,0a5.42,5.42,0,0,1,.58.06l.54.13c.19,0,.39.13.62.21a3.67,3.67,0,0,1-.1.83,3.41,3.41,0,0,1-.31.88,5.13,5.13,0,0,0-.84-.21,5.26,5.26,0,0,0-.84-.06,1.82,1.82,0,0,0-1.51.65,3,3,0,0,0-.5,1.87A2.81,2.81,0,0,0,58,49.14a2,2,0,0,0,1.49.59h.44a1.75,1.75,0,0,0,.4,0l.4-.09Z"/><path class="cls-1" d="M63,46.16l2.15-2.35a3,3,0,0,0,1-1.72.62.62,0,0,0-.26-.51,1.16,1.16,0,0,0-.72-.2,3.85,3.85,0,0,0-.73.07,4.24,4.24,0,0,0-.73.27c-.09-.23-.18-.46-.26-.71a4,4,0,0,1-.17-.79,6.49,6.49,0,0,1,1-.32,4.52,4.52,0,0,1,1.1-.12,3.17,3.17,0,0,1,1.94.56A1.88,1.88,0,0,1,68,41.91a2.46,2.46,0,0,1-.4,1.39,13,13,0,0,1-1,1.36l-.26.28h2a3.15,3.15,0,0,1,.07.74,3.62,3.62,0,0,1-.07.79H63.14Z"/><path class="cls-1" d="M74.33,64.56H17.22a2.5,2.5,0,0,1-2.5-2.5V29.5a2.5,2.5,0,0,1,2.5-2.5H74.33a2.5,2.5,0,0,1,2.5,2.5V62.06A2.5,2.5,0,0,1,74.33,64.56Zm-56.61-3H73.83V30H17.72Z"/></svg>