<svg xmlns="http://www.w3.org/2000/svg" xml:space="preserve" viewBox="0 0 100 100">
  <path d="M41.67 39.22c-.37.68-1.22.93-1.91.56-.68-.37-.93-1.22-.56-1.91.37-.68 1.22-.93 1.91-.56.68.38.93 1.23.56 1.91zM99.5 69.13c0 1.97-1.76 3.64-4.59 4.74-2.29.89-5.11 1.4-8.01 1.53-.28 1.75-1.96 3.22-4.55 4.23-5.36 2.09-13.64 2.09-19 0-2.83-1.1-4.59-2.76-4.59-4.74v-1.04c-2.44-.21-4.78-.69-6.73-1.45-1.94-.76-3.36-1.78-4.07-2.98 0 0 0-.01-.01-.01l-22.56 9.14h-.01c-.14.06-.29.1-.45.14-.15.04-.3.06-.45.08-.77.08-1.54-.12-2.16-.55L2.26 66.63l-.01-.01a3.9 3.9 0 0 1-.59-.43c-.18-.17-.34-.35-.47-.55-.69-1-.78-2.35-.14-3.47l.01-.01c.06-.1.12-.19.18-.28.06-.09.13-.17.2-.26.36-.41.82-.72 1.32-.9l.53-.2-1.02-.59-.01-.01a3.9 3.9 0 0 1-.59-.43c-.18-.17-.34-.35-.47-.55-.69-1-.78-2.35-.14-3.47l.01-.01c.06-.1.12-.19.18-.28.06-.09.13-.17.2-.26.36-.41.82-.72 1.32-.9l.53-.2-1.02-.59-.01-.01a3.9 3.9 0 0 1-.59-.43c-.18-.17-.34-.35-.47-.55-.69-1-.78-2.35-.14-3.47l.01-.01c.06-.1.12-.19.18-.28.06-.09.13-.17.2-.26.36-.41.82-.72 1.32-.9l.12-.04-.61-.35-.05-.03c-.22-.13-.42-.27-.59-.43-.18-.17-.34-.35-.47-.55-.69-1-.78-2.35-.14-3.47l.01-.01c.06-.1.12-.19.18-.28.06-.09.13-.17.2-.26.36-.41.82-.72 1.32-.9l44.38-16.54.01-.01c.12-.04.25-.08.39-.12.12-.03.26-.05.4-.07.68-.07 1.35.07 1.92.38v.01l19.44 10.61.02.01c.79.44 1.33 1.15 1.56 1.94.24.8.17 1.69-.26 2.48l-.01.01v.01c-.06.11-.12.21-.17.28-.06.09-.13.18-.19.26-.15.18-.32.33-.5.47-.02 0-.39.17-.76.34.73.19 1.43.4 2.08.66.1.04.19.08.28.11v-1.05c0-1.97 1.75-3.64 4.58-4.75 5.36-2.09 13.64-2.09 19 0 2.83 1.1 4.58 2.77 4.58 4.75v28.35zM4.21 43.99l19.84 11.45.03.02 14.54-5.89-19.45-11.15-14.96 5.57zm35.4 21.95-14.31 5.8h-.01c-.14.06-.29.1-.45.14-.15.04-.3.06-.45.08-.77.08-1.54-.13-2.16-.55L7.06 62.65l-2.85 1.06 19.84 11.45.03.02 15.53-6.29v-2.95zm0-6.71-14.31 5.8h-.01c-.14.06-.29.1-.45.14-.15.04-.3.06-.45.08-.77.08-1.54-.13-2.16-.55L7.06 55.95l-2.85 1.06 19.84 11.45.03.02 15.53-6.29v-2.96zm0-6.32-14.31 5.8h-.01c-.14.06-.29.1-.45.14-.15.04-.3.06-.45.08-.77.08-1.54-.12-2.16-.55L6.65 49.4l-2.44.91 19.84 11.45.03.01 15.53-6.29v-2.57zm5.14-12.8c.43-.2.93-.18 1.34.06l4.18 2.39c-.01 0-.01.01-.02.01.53-.32 1.13-.61 1.79-.87 2.87-1.12 6.58-1.63 10.23-1.55l5.01-2.05-19.02-10.38-14.47 5.39 2.65 1.52c1.04.59.97 2.11-.12 2.61l-.03.01c-.43.2-.93.18-1.34-.06l-4.79-2.73-7.26 2.7 19.63 11.26-.04 19.45 4.97-2.01V46.45c0-.6.18-1.18.49-1.72l.06-.09-3.38-1.93c-1.04-.59-.97-2.11.12-2.6zm5.35 6.34c.03 1.17 2.08 1.97 2.89 2.29 4.74 1.85 12.36 1.85 17.1 0 .28-.11.75-.29 1.24-.55v-3.47c-.36-.19-.78-.38-1.24-.56-4.74-1.85-12.36-1.85-17.1 0-1.78.7-2.91 1.52-2.89 2.29zm8.68 20.25c-2.44-.21-4.78-.69-6.73-1.45-.71-.28-1.36-.59-1.93-.94 0 1.36 0 2.83-.01 3.36 0 .77 1.1 1.57 2.89 2.27 1.66.65 3.66 1.06 5.78 1.26v-4.5zm.22-7.07c-2.52-.2-4.95-.69-6.96-1.47-.71-.28-1.36-.59-1.93-.94 0 1.35 0 2.77-.01 3.3 0 .77 1.1 1.57 2.89 2.27 1.66.65 3.67 1.07 5.78 1.26v-3.22c.01-.41.09-.81.23-1.2zm2.33-2.54c.59-.37 1.27-.71 2.03-1 2.28-.89 5.08-1.4 7.97-1.53v-3.47c-.09.04-.19.08-.28.11-5.36 2.09-13.64 2.09-19 0-.72-.28-1.37-.6-1.94-.95 0 1.06.03 2.12 0 3.18 0 .77 1.1 1.57 2.89 2.27 2.31.9 5.32 1.36 8.33 1.39zM84.3 71.6c-.57.35-1.22.66-1.94.94-1.14.44-2.41.79-3.75 1.04-.81.15-1.57-.47-1.57-1.3 0-.63.44-1.18 1.06-1.29 1.2-.22 2.32-.53 3.31-.91 1.79-.7 2.89-1.5 2.89-2.28.01-1.06 0-2.12 0-3.17-.57.35-1.22.67-1.94.95-5.36 2.09-13.64 2.09-19 0-.72-.28-1.37-.6-1.94-.95 0 1.06.03 2.12 0 3.18 0 .77 1.1 1.57 2.89 2.27 1 .39 2.12.69 3.32.92.62.12 1.06.66 1.06 1.29 0 .83-.76 1.45-1.57 1.3-1.35-.25-2.62-.6-3.75-1.04-.71-.28-1.36-.59-1.93-.94 0 1.35 0 2.77-.01 3.3 0 .93 1.6 1.9 4.07 2.68a24.48 24.48 0 0 0 13.73.29c3.04-.81 5.08-1.93 5.08-2.98-.01-.53-.01-1.96-.01-3.3zm0-10.77c0-.77-1.11-1.58-2.89-2.28-4.74-1.85-12.36-1.85-17.1 0-1.79.7-2.92 1.51-2.9 2.28.03 1.17 2.08 1.97 2.89 2.29 4.74 1.85 12.36 1.85 17.1 0 .75-.29 2.93-1.16 2.9-2.29zM73.97 47.75c0 .77 1.1 1.57 2.89 2.27 4.74 1.85 12.36 1.85 17.1 0 1.79-.7 2.89-1.5 2.89-2.28.01-1.06 0-2.12 0-3.17-.57.35-1.22.67-1.94.95-5.36 2.09-13.64 2.09-19 0-.72-.28-1.37-.6-1.94-.95 0 1.06.03 2.12 0 3.18zm22.88 18.03c-.57.35-1.22.66-1.94.94-2.28.89-5.08 1.4-7.97 1.53v4.5c2.56-.13 5.04-.58 7.02-1.35 1.79-.7 2.89-1.5 2.89-2.28.01-.52.01-1.98 0-3.34zm0-7.15c-.57.35-1.22.66-1.94.94-2.28.89-5.09 1.4-7.97 1.53v4.51c2.56-.13 5.04-.58 7.02-1.35 1.79-.7 2.89-1.5 2.89-2.28.01-.53.01-1.99 0-3.35zm0-7.09c-.57.35-1.22.66-1.94.94-5.36 2.09-13.64 2.09-19 0-.71-.28-1.36-.59-1.93-.94 0 1.14 0 2.33-.01 2.99 3.03.1 5.99.62 8.38 1.55 1.62.63 2.89 1.45 3.67 2.4 2.88-.06 5.72-.52 7.93-1.38 1.79-.7 2.89-1.5 2.89-2.28.02-.52.02-1.94.01-3.28zm.01-10.78c0-.77-1.11-1.58-2.89-2.28-4.74-1.85-12.36-1.85-17.1 0-1.79.7-2.92 1.51-2.9 2.28.03 1.17 2.08 1.97 2.89 2.29 4.74 1.85 12.36 1.85 17.1 0 .75-.29 2.92-1.15 2.9-2.29zM73.53 71.52c-.68-.37-1.53-.12-1.91.56-.37.68-.12 1.53.56 1.91.68.37 1.53.12 1.91-.56s.12-1.54-.56-1.91z"/>
</svg>
