<svg id="Layer_1" data-name="Layer 1" xmlns="http://www.w3.org/2000/svg" viewBox="0 0 91.56 91.56"><defs><style>.cls-1{fill:#fff;}</style></defs><title>kavely</title><path class="cls-1" d="M55.77,21.89a6.7,6.7,0,1,0-6.69,6.7A6.7,6.7,0,0,0,55.77,21.89Zm-2.23,0a4.38,4.38,0,1,1-4.37-4.37A4.38,4.38,0,0,1,53.54,21.9Z"/><path class="cls-1" d="M38.57,49.93a4.77,4.77,0,0,0,.35,1.18L29.3,68.86a5.1,5.1,0,0,0,2.05,6.89,5.15,5.15,0,0,0,2.46.61h0a5,5,0,0,0,4.41-2.63l8.05-14.89c1.35,1.37,2.53,2.61,3,3.14l5,11.11a5.31,5.31,0,0,0,4.45,3.22,5,5,0,0,0,2.44-.47A5.24,5.24,0,0,0,63.57,69L58.23,57a5.18,5.18,0,0,0-1-1.44L50.94,49l.11-1.74,5.32,4.52A5.08,5.08,0,1,0,62.94,44s-7.71-6.36-10.56-8.66a5.5,5.5,0,0,1-1.28-1.44c-1.16-1.92-3.69-3.31-5.73-4.27a6.19,6.19,0,0,0-2.55-.57,4.9,4.9,0,0,0-4.21,2.21,39.26,39.26,0,0,1-2.25,3.77,1.26,1.26,0,0,0,.54,1.24,1.22,1.22,0,0,0,1.34,0l2.26-3.78a2.68,2.68,0,0,1,2.32-1.18,3.69,3.69,0,0,1,1.59.36c1.78.83,5.17,2.57,5.07,4.51l-.83,13.34a1.84,1.84,0,0,1,0,.25l7,7.36a2.57,2.57,0,0,1,.54.8L61.6,70.08a2.82,2.82,0,1,1-5.15,2.31L51.21,60.7S46.74,56,44,53.39c-2.15-2.09-3.26-2.66-3.26-4.34l.46-7.3-7,10.71a2.82,2.82,0,1,1-4.72-3.09l4.25-6.51a1.13,1.13,0,0,0-.46-1.42,1.51,1.51,0,0,0-1.33,0c-1.87,2.87-3.05,4.71-4.24,6.52a5.23,5.23,0,0,0,.42,6.42,5.09,5.09,0,0,0,5.16,1.41,5.33,5.33,0,0,0,2.92-2.26Zm12.66-5.51.44-7,9.82,8.29A2.82,2.82,0,0,1,57.83,50ZM40.4,53.09c.28.28.58.55.89.83s.73.67,1.16,1.09c.65.62,1.4,1.38,2.17,2.15L36.25,72.62a2.8,2.8,0,0,1-2.46,1.48h0a2.82,2.82,0,0,1-2.48-4.16Z"/><circle class="cls-1" cx="34.93" cy="38.83" r="1.16"/></svg>