<svg xmlns="http://www.w3.org/2000/svg" xml:space="preserve" viewBox="0 0 100 100">
  <path d="M.7 39.31c-.29.7-.27 1.53.07 2.24l7.18 15.23c-.66 1.25-.89 2.8-.51 4.35.76 3.17 3.73 5.18 6.62 4.5l5.12-1.22 17.75.69c.2.01.39-.01.59-.06l2.75-.66c1.3 1.2 3.06 1.76 4.79 1.35L63 61.45c1.73-.41 3.05-1.71 3.65-3.36l17.52-4.18c3.56-.85 6.91-2.33 9.97-4.39 2.72-1.84 6.08-6.64 5.24-10.12-.84-3.47-5.62-4.61-8.88-5.02-3.67-.46-7.33-.26-10.89.59L24.88 48.02l-2.93-1.34c-3.27-1.49-6.19-3.87-8.44-6.89-1.75-2.35-4.58-3.46-7.21-2.83l-4.03.96c-.7.18-1.28.68-1.57 1.39zm42.13 20.96c-.49-1.9.16-2.62.51-2.7l17.95-4.23c.35-.08 1.15.86 1.47 2.19.32 1.33.04 2.55-.31 2.63L44.5 62.38c-.35.08-1.18-.21-1.67-2.11zm-18.42.33c.14-.93.27-2.12.03-3.12-.85-3.53-3.63-6.01-6.59-5.31l-7.06 1.68-5.92-13.08 1.17-.28c.88-.21 2.28-.16 2.89.7 2.93 4.18 6.82 7.18 11.01 9.3l4.35 1.42c.48.24 1 .31 1.49.19l55.46-13.13c.58-.14 1.07-.34 1.65-.44-.12.48.12 1.91.25 2.45.37 1.55 1.73 2.56 3.03 2.25l9.4-2.29c.09.23-.64 3.39-3.18 5.28-2.63 1.96-5.59 3.25-8.72 4L66.54 54.3c-1.3-2.47-3.72-4.52-6.14-3.94l-18.36 4.38c-2.41.58-4 2.98-4.03 5.77l-1.72.41-11.88-.32zm-11.33 1.44c-.35.08-1.67-.89-2-2.25-.33-1.36.46-2.6.81-2.68l7.61-1.79c.35-.08 1.11.75 1.44 2.1.33 1.36.1 2.74-.25 2.83l-7.61 1.79zm66.63-17.22c.24 1.01-.38 2.02-1.39 2.26-1.01.24-2.02-.38-2.26-1.39s.38-2.02 1.39-2.26c1.01-.24 2.02.38 2.26 1.39zm-5.99 1.43c.24 1.01-.38 2.02-1.39 2.26-1.01.24-2.02-.38-2.26-1.39s.38-2.02 1.39-2.26c1.01-.25 2.02.38 2.26 1.39zm0 0"/>
</svg>
