<svg xmlns="http://www.w3.org/2000/svg" xml:space="preserve" viewBox="0 0 100 100">
  <path d="M9.66 23.11h11.69l1.91-5.47c.6-1.71 1.56-3.34 3.04-4.53 1.34-1.07 3.01-1.75 5.07-1.75h37.26c2.07 0 3.74.67 5.07 1.75 1.47 1.19 2.44 2.82 3.04 4.53l1.91 5.47h11.69c2.51 0 4.8 1.03 6.46 2.69l.01.01a9.126 9.126 0 0 1 2.69 6.46v47.21c0 2.52-1.03 4.81-2.69 6.47a9.132 9.132 0 0 1-6.47 2.69H9.66c-2.51 0-4.8-1.03-6.46-2.69l-.01-.01A9.126 9.126 0 0 1 .5 79.48V32.27c0-2.51 1.03-4.8 2.69-6.46l.01-.01h-.01a9.132 9.132 0 0 1 6.47-2.69zm13.73 5.85H9.8c-.9 0-1.71.37-2.31.97l-.01-.01c-.59.6-.96 1.43-.96 2.34v47.21c0 .91.37 1.74.96 2.34.59.6 1.41.97 2.31.97h79.7c.9 0 1.71-.37 2.31-.97.59-.6.96-1.43.96-2.33V32.27c0-.91-.37-1.74-.96-2.34-.59-.6-1.41-.97-2.31-.97H75.91v-.01c-1.19 0-2.3-.75-2.72-1.96l-2.57-7.44c-.27-.77-.65-1.48-1.17-1.9-.34-.27-.79-.44-1.4-.44h-36.8c-.61 0-1.07.17-1.4.44-.52.42-.9 1.13-1.17 1.9l-2.49 7.21a2.892 2.892 0 0 1-2.8 2.2zm26.39-3.91c7.43 0 14.17 3.02 19.04 7.89a26.862 26.862 0 0 1 7.89 19.04c0 7.43-3.02 14.17-7.89 19.04a26.862 26.862 0 0 1-19.04 7.89c-7.43 0-14.17-3.02-19.04-7.89a26.862 26.862 0 0 1-7.89-19.04c0-7.43 3.02-14.17 7.89-19.04 4.87-4.87 11.6-7.89 19.04-7.89zm15.06 11.87a21.245 21.245 0 0 0-15.06-6.24c-5.88 0-11.21 2.38-15.06 6.24a21.245 21.245 0 0 0-6.24 15.06c0 5.88 2.38 11.2 6.24 15.06 3.85 3.85 9.18 6.24 15.06 6.24 5.88 0 11.21-2.38 15.06-6.24 3.85-3.85 6.24-9.18 6.24-15.06a21.287 21.287 0 0 0-6.24-15.06zm-2.39 3.6c0 1.86-1.51 3.37-3.37 3.37s-3.37-1.51-3.37-3.37 1.51-3.37 3.37-3.37 3.37 1.51 3.37 3.37zM37.72 54.73c.17 1.55.52 3.33-1.82 4-1.49.43-2.4-.88-2.57-2.43-.54-4.94.36-10.69 3.89-14.44 3.53-3.75 6.44-4.99 11.38-5.53 1.55-.17 3.39.72 3.56 2.26.17 1.55-1.92 2.29-3.47 2.46-3.41.37-6.38 1.72-8.32 4.56s-3.03 5.71-2.65 9.12z"/>
</svg>
