<svg id="Layer_1" data-name="Layer 1" xmlns="http://www.w3.org/2000/svg" xmlns:xlink="http://www.w3.org/1999/xlink" viewBox="0 0 91.56 91.56"><defs><style>.cls-1{fill:none;}.cls-2{fill:#fff;}.cls-3{clip-path:url(#clip-path);}.cls-4{fill:#fdfefe;}</style><clipPath id="clip-path"><rect class="cls-1" x="37.36" y="41.6" width="16.04" height="16.22"/></clipPath></defs><title>tori</title><path class="cls-2" d="M22.43,70.34c-.91,0-1.66-.48-1.66-1.08V45c0-.59.75-1.08,1.66-1.08s1.66.49,1.66,1.08V69.26C24.09,69.86,23.35,70.34,22.43,70.34Z"/><path class="cls-2" d="M72.62,70.82H19.11c-.62,0-1.12-.73-1.12-1.64s.5-1.63,1.12-1.63H72.62c.61,0,1.11.73,1.11,1.63S73.23,70.82,72.62,70.82Z"/><path class="cls-2" d="M72.45,32.88a1.1,1.1,0,0,1-.83-.37L63.07,23H28.33l-8.56,9.56a1.11,1.11,0,0,1-1.57.09,1.09,1.09,0,0,1-.09-1.55L27,21.11a1.13,1.13,0,0,1,.83-.37H63.56a1.13,1.13,0,0,1,.83.37l8.89,9.94a1.1,1.1,0,0,1-.83,1.83Z"/><path class="cls-2" d="M29.49,32.88a1.11,1.11,0,0,1-1-1.62l5.34-9.93a1.11,1.11,0,0,1,2,1L30.47,32.3A1.11,1.11,0,0,1,29.49,32.88Z"/><path class="cls-2" d="M40.12,32.88h-.19a1.1,1.1,0,0,1-.9-1.28l1.78-9.94A1.11,1.11,0,0,1,43,22L41.22,32A1.11,1.11,0,0,1,40.12,32.88Z"/><path class="cls-2" d="M51.18,32.88a1.11,1.11,0,0,1-1.1-.91L48.31,22a1.11,1.11,0,0,1,2.18-.39l1.78,9.94a1.1,1.1,0,0,1-.9,1.28Z"/><path class="cls-2" d="M62.23,32.88a1.12,1.12,0,0,1-1-.58l-5.33-9.93a1.1,1.1,0,0,1,.46-1.5,1.12,1.12,0,0,1,1.5.46l5.33,9.93a1.09,1.09,0,0,1-.46,1.49A1.06,1.06,0,0,1,62.23,32.88Z"/><path class="cls-2" d="M66.9,41.71a6.66,6.66,0,0,1-5-2.27,6.68,6.68,0,0,1-5,2.27,8.58,8.58,0,0,1-5.83-2.27,8.61,8.61,0,0,1-5.84,2.27,6.68,6.68,0,0,1-5-2.27,8.34,8.34,0,0,1-5.74,2.27,6.68,6.68,0,0,1-5-2.27,6.65,6.65,0,0,1-5,2.27,6.44,6.44,0,0,1-1.35-.13,6.65,6.65,0,0,1-5.31-6.49V31.78a1.11,1.11,0,0,1,1.11-1.1H72.45a1.1,1.1,0,0,1,1.11,1.1v3.31a6.64,6.64,0,0,1-5.33,6.49A6.12,6.12,0,0,1,66.9,41.71Zm-5-5.36a1.09,1.09,0,0,1,1,.63,4.38,4.38,0,0,0,4,2.52,3.9,3.9,0,0,0,.87-.08,4.44,4.44,0,0,0,3.57-4.33V32.88H20.05v2.21a4.44,4.44,0,0,0,3.55,4.33,4.21,4.21,0,0,0,.89.08,4.38,4.38,0,0,0,4-2.52,1.09,1.09,0,0,1,1-.63,1.12,1.12,0,0,1,1,.63,4.37,4.37,0,0,0,4,2.52c1.73,0,4-1,4.74-2.52a1.09,1.09,0,0,1,1-.63,1.12,1.12,0,0,1,1,.63,4.37,4.37,0,0,0,4,2.52c1.73,0,4.09-1,4.83-2.52a1.12,1.12,0,0,1,1-.63,1.09,1.09,0,0,1,1,.63c.74,1.56,3.11,2.52,4.83,2.52a4.37,4.37,0,0,0,4-2.52A1.12,1.12,0,0,1,61.9,36.35Z"/><path class="cls-2" d="M63.56,58.32H27.83a1,1,0,0,1-1.11-1v-18a1.12,1.12,0,0,1,2.22,0v17H62.45v-17a1.13,1.13,0,0,1,2.23,0v18A1.06,1.06,0,0,1,63.56,58.32Z"/><g class="cls-3"><path class="cls-4" d="M45.24,50.07a3.87,3.87,0,1,0-3.87-3.87A3.88,3.88,0,0,0,45.24,50.07Zm0-6.46a2.58,2.58,0,1,1-2.58,2.58A2.58,2.58,0,0,1,45.23,43.61Z"/><path class="cls-4" d="M48.84,64.67h1a.62.62,0,0,0,.43-.18.5.5,0,0,0,.14-.42L50,62.78h0a1.36,1.36,0,0,0,1.4-1.31V54.58a4,4,0,0,0-4.08-3.81H43.55a4,4,0,0,0-4.08,3.81v6.89a1.36,1.36,0,0,0,1.4,1.31h0l-.4,1.29a.5.5,0,0,0,.15.42.58.58,0,0,0,.42.18h1m1.15,0h4.51m-2.25.4,4.62-3.74h0a.24.24,0,0,1-.24.23h-.14l-1-7.49a.55.55,0,0,0-.61-.45.53.53,0,0,0-.49.57L49,63.36H41.88l1.44-9.17a.53.53,0,0,0-.49-.57.55.55,0,0,0-.61.45l-1,7.49h-.14a.24.24,0,0,1-.25-.23v-6.6a2.73,2.73,0,0,1,2.81-2.62h3.62a2.72,2.72,0,0,1,2.8,2.62v6.6Z"/></g><path class="cls-2" d="M69.06,70.34c-.92,0-1.66-.48-1.66-1.08V45c0-.59.74-1.08,1.66-1.08s1.66.49,1.66,1.08V69.26C70.72,69.86,70,70.34,69.06,70.34Z"/></svg>