<svg xmlns="http://www.w3.org/2000/svg" id="koti" viewBox="0 0 91.56 91.56"><path d="M73.72 41l-8.49-6.21V23.48a1.4 1.4 0 00-1.39-1.4h-8a1.39 1.39 0 00-1.39 1.28.37.37 0 000 .11v3.43l-7.36-5.38a1.46 1.46 0 00-1.73 0L18.68 41a1.46 1.46 0 001.73 2.36L46.2 24.51 72 43.4a1.46 1.46 0 101.72-2.4zM57.23 24.88h5.25v7.89L57.21 29z"/><path d="M65.8 43.26a1.43 1.43 0 00-1.43 1.43v22.77H52.93V55a7.15 7.15 0 00-14.3 0v12.46H27.18V49.38a1.43 1.43 0 00-2.86 0v19.51a1.43 1.43 0 001.43 1.43h14.31A1.43 1.43 0 0041.48 69a.41.41 0 000-.11V55a4.29 4.29 0 018.58 0v13.89a.41.41 0 000 .11 1.43 1.43 0 001.42 1.32H65.8a1.43 1.43 0 001.43-1.43v-24.2a1.43 1.43 0 00-1.43-1.43z"/><path d="M25.88 43.23a1.53 1.53 0 101.53 1.53 1.54 1.54 0 00-1.53-1.53"/></svg>
