<svg id="Layer_1" data-name="Layer 1" xmlns="http://www.w3.org/2000/svg" viewBox="0 0 91.56 91.56"><defs><style>.cls-1{fill:#fff;}</style></defs><title>sydan</title><path class="cls-1" d="M66.68,46.57,47.8,65.44a2.81,2.81,0,0,1-4,0l-19-19A12.39,12.39,0,1,1,42.33,28.92l1.49,1.49-2.28,2.27a1.42,1.42,0,0,0,0,2,1.36,1.36,0,0,0,1,.41,1.4,1.4,0,0,0,1-.41l5.74-5.75A12.39,12.39,0,0,1,66.9,29a12.53,12.53,0,0,1-.22,17.55m2.23-19.51a15.2,15.2,0,0,0-21.62-.13l-1.48,1.49-1.49-1.49a15.2,15.2,0,0,0-21.5,21.5l19,19a5.63,5.63,0,0,0,8,0L68.67,48.56a15.34,15.34,0,0,0,.24-21.5"/><circle class="cls-1" cx="34.65" cy="30.2" r="1.66"/><path class="cls-1" d="M28,40.82c.41.69,1,1.92,0,2.75-.59.54-1.51.11-1.94-.56-1.36-2.14-2.24-4.86-1.47-7.37a7.66,7.66,0,0,1,3.79-5,1.75,1.75,0,0,1,2.25.37c.42.67-.09,1.39-.76,1.81a5.64,5.64,0,0,0-2.8,4A5.44,5.44,0,0,0,28,40.82Z"/></svg>