<svg xmlns="http://www.w3.org/2000/svg" xml:space="preserve" viewBox="0 0 100 100">
  <path d="M22.26 44.65H11.12v-6.68h11.14v6.68zm.44-10.54H10.67c-1.89 0-3.42 1.53-3.42 3.42v7.57c0 1.89 1.53 3.42 3.42 3.42H22.7c1.89 0 3.42-1.53 3.42-3.42v-7.57c0-1.89-1.53-3.42-3.42-3.42m-.44 10.54H11.12v-6.68h11.14v6.68zm.44-10.54H10.67c-1.89 0-3.42 1.53-3.42 3.42v7.57c0 1.89 1.53 3.42 3.42 3.42H22.7c1.89 0 3.42-1.53 3.42-3.42v-7.57c0-1.89-1.53-3.42-3.42-3.42zm23.38 10.54H34.94v-6.68h11.14v6.68zm.44-10.54H34.49c-1.89 0-3.42 1.53-3.42 3.42v7.57c0 1.89 1.54 3.42 3.42 3.42h12.03c1.89 0 3.42-1.53 3.42-3.42v-7.57c0-1.89-1.53-3.42-3.42-3.42m-.44 10.54H34.94v-6.68h11.14v6.68zm.44-10.54H34.49c-1.89 0-3.42 1.53-3.42 3.42v7.57c0 1.89 1.54 3.42 3.42 3.42h12.03c1.89 0 3.42-1.53 3.42-3.42v-7.57c0-1.89-1.53-3.42-3.42-3.42zM69.9 44.65H58.76v-6.68H69.9v6.68zm.44-10.54H58.31c-1.89 0-3.42 1.54-3.42 3.42v7.57c0 1.89 1.54 3.42 3.42 3.42h12.03c1.89 0 3.42-1.53 3.42-3.42v-7.57c.01-1.89-1.53-3.42-3.42-3.42m-.44 10.54H58.76v-6.68H69.9v6.68zm.44-10.54H58.31c-1.89 0-3.42 1.54-3.42 3.42v7.57c0 1.89 1.54 3.42 3.42 3.42h12.03c1.89 0 3.42-1.53 3.42-3.42v-7.57c.01-1.89-1.53-3.42-3.42-3.42zM95.63 52.6l-4.93-3.4a16.076 16.076 0 0 0-9.17-2.86c-.8 0-1.44-.65-1.44-1.44V30.59h1.23c7.89 0 14.31 6.42 14.31 14.31v7.7zm0 10.11h-1.96c-2.26 0-1.82 1.06-1.82 3.32v3.73h-3.77c-.54-4.63-4.48-8.23-9.25-8.23s-8.71 3.6-9.25 8.23H31.76c-.54-4.63-4.48-8.23-9.25-8.23s-8.71 3.6-9.25 8.23H8.83v-3.73c0-2.2.5-3.58-1.7-3.58H4.37v-6.59h53.67a1.931 1.931 0 0 0 0-3.86H4.37V33.72c0-1.73 1.4-3.13 3.13-3.13h68.73V44.9c0 2.93 2.38 5.31 5.31 5.31 2.5 0 4.91.75 6.97 2.18l7.12 4.92v5.4zM83.52 73.62a5.44 5.44 0 0 1-4.69 2.67c-1.99 0-3.74-1.07-4.69-2.67a5.436 5.436 0 0 1-.65-3.87c.51-2.48 2.71-4.36 5.34-4.36a5.458 5.458 0 0 1 5.45 5.45c.01 1.02-.27 1.97-.76 2.78m-56.32 0a5.44 5.44 0 0 1-4.69 2.67c-1.99 0-3.73-1.07-4.69-2.67a5.436 5.436 0 0 1-.65-3.87c.51-2.48 2.71-4.36 5.34-4.36a5.458 5.458 0 0 1 5.45 5.45c0 1.02-.28 1.97-.76 2.78M45 24.86c0-.64.52-1.16 1.16-1.16h15.08c.64 0 1.16.52 1.16 1.16v1.86H45v-1.86zm36.32 1.86H66.26v-1.86c0-2.77-2.25-5.02-5.02-5.02H46.16c-2.77 0-5.02 2.25-5.02 5.02v1.86H7.5c-3.86 0-7 3.14-7 7v35.55c0 2.4 1.95 4.35 4.35 4.35h8.77c1.19 3.78 4.72 6.54 8.89 6.54 4.17 0 7.71-2.75 8.89-6.54h38.54c1.19 3.78 4.72 6.54 8.89 6.54s7.71-2.75 8.89-6.54h7.84c2.16 0 3.93-1.76 3.93-3.93V44.9c.01-10.02-8.14-18.18-18.17-18.18M66.4 53.36c-.03-.13-.07-.26-.11-.38-.05-.12-.12-.24-.19-.36-.08-.11-.16-.21-.26-.31-.09-.09-.2-.18-.31-.25a2.37 2.37 0 0 0-.35-.19c-.13-.05-.25-.09-.38-.12a2.07 2.07 0 0 0-1.85.56 2.049 2.049 0 0 0-.44.67c-.05.12-.09.25-.12.38s-.04.27-.04.4.02.27.04.4c.03.13.07.26.12.38.05.12.11.24.19.35.07.11.16.22.25.31.38.38.91.6 1.44.6.13 0 .27-.02.4-.04.13-.03.26-.06.38-.12.12-.05.24-.11.35-.19.11-.07.22-.16.31-.25s.18-.2.26-.31c.07-.11.14-.23.19-.35.05-.12.09-.25.11-.38.03-.13.04-.27.04-.4.01-.13-.01-.26-.03-.4"/>
</svg>
