<svg xmlns="http://www.w3.org/2000/svg" xml:space="preserve" viewBox="0 0 100 100">
  <path d="M99.35 52.69a2.38 2.38 0 0 0-2.23-1.54H78.77l-6.66-13.33c-1.08-2.28-3.47-2.38-3.47-2.38l-13.24.14-.06-1.81a2.38 2.38 0 0 0-2.38-2.35h-.03a2.38 2.38 0 0 0-2.35 2.41l.06 1.74h-5.56l-.06-4.47a2.38 2.38 0 0 0-2.38-2.35h-.03a2.38 2.38 0 0 0-2.35 2.41l.06 4.41h-5.56l-.06-1.81a2.38 2.38 0 0 0-2.38-2.35h-.03a2.38 2.38 0 0 0-2.35 2.41l.06 1.74-17.71-.2H11.2a2.38 2.38 0 0 0-2.38 2.38l-.05 13.4H2.88c-.75 0-1.46.35-1.91.95-.45.6-.59 1.38-.38 2.1l4.46 15.35c.3 1.02 1.23 1.72 2.29 1.72h72.24c.58 0 1.13-.21 1.57-.59l17.53-15.35c.75-.66 1.02-1.71.67-2.63zM12.6 39.2h55.6l6.66 11.87H12.6V39.2zm65.67 28.13H9.6L6.06 55.01h85.78L78.27 67.33zM63.01 61.2a2.3 2.3 0 1 1-4.6 0 2.3 2.3 0 0 1 4.6 0zm-12.09 0a2.3 2.3 0 1 1-4.6 0 2.3 2.3 0 0 1 4.6 0zm-12.09 0a2.3 2.3 0 1 1-4.6 0 2.3 2.3 0 0 1 4.6 0zm-12.08 0a2.3 2.3 0 1 1-4.6 0 2.3 2.3 0 0 1 4.6 0zm36.84-14.32-8.88-.05-.08-3.76 6.35.03 2.61 3.78zm-9.16-5.77c-1.06 0-1.91.82-1.91 1.84v4.07c0 1.01.86 1.84 1.91 1.84h9.39c1.06 0 2.55-.37 2.1-2.18l-2.77-4.37c-.61-1.07-.94-1.19-1.99-1.19h-6.73zm-8.68 5.75h-8.18v-3.77h8.18v3.77zm.03-5.74h-8.31c-1.01 0-1.83.82-1.83 1.82v4.04c0 1.01.82 1.82 1.83 1.82h8.31c1.01 0 1.82-.82 1.82-1.82v-4.04c0-1.01-.79-1.84-1.8-1.84m-16.86 5.76h-8.18v-3.77h8.18v3.77zm.03-5.74h-8.31c-1.01 0-1.83.82-1.83 1.82v4.04c0 1.01.82 1.82 1.83 1.82h8.31c1.01 0 1.82-.82 1.82-1.82v-4.04c0-1.01-.79-1.84-1.8-1.84"/>
</svg>
