<svg id="Layer_1" data-name="Layer 1" xmlns="http://www.w3.org/2000/svg" viewBox="0 0 91.63 91.56"><defs><style>.cls-1{fill:#fff;}</style></defs><title>idea</title><path class="cls-1" d="M23.93,37.49A1.46,1.46,0,0,0,22.48,36H17.24a1.46,1.46,0,0,0,0,2.91h5.24a1.45,1.45,0,0,0,1.45-1.45"/><path class="cls-1" d="M74.39,36H69.15a1.46,1.46,0,0,0,0,2.91h5.24a1.46,1.46,0,0,0,0-2.91"/><path class="cls-1" d="M26.41,54.83l-3.8,3.81a1.45,1.45,0,1,0,2.05,2.06l3.81-3.81a1.46,1.46,0,0,0-2.06-2.06"/><path class="cls-1" d="M61.63,23.13a1.45,1.45,0,0,0,1-.43l3.7-3.7a1.46,1.46,0,1,0-2.06-2.06l-3.7,3.71a1.46,1.46,0,0,0,1,2.48"/><path class="cls-1" d="M29,22.7a1.43,1.43,0,0,0,1,.43,1.46,1.46,0,0,0,1-2.49l-3.7-3.7A1.46,1.46,0,1,0,25.27,19Z"/><path class="cls-1" d="M65.23,54.85a1.46,1.46,0,1,0-2.06,2.06L67,60.7a1.45,1.45,0,0,0,1,.43,1.49,1.49,0,0,0,1-.43,1.47,1.47,0,0,0,0-2.06Z"/><path class="cls-1" d="M56.22,52.27c-2.41,3.52-3.74,6.08-3.83,10h-3l1-12.53L53,44a1.46,1.46,0,0,0-.08-1.35A1.34,1.34,0,0,0,51.76,42H40.09a1.33,1.33,0,0,0-1.14.65A1.46,1.46,0,0,0,38.86,44l2.61,5.77,1,12.53h-3c-.09-3.95-1.41-6.51-3.83-10a22.71,22.71,0,0,1-4-12.33c0-8.62,6.4-15.63,14.27-15.63s14.26,7,14.26,15.63a22.71,22.71,0,0,1-4,12.33M43.45,48.82a1.45,1.45,0,0,0-.17-.56l-2.34-4.5h9.6l-2.34,4.5a1.43,1.43,0,0,0-.16.56L46.68,62.63H44.81Zm8.9,24.54H39.42v-3h4.47c.93,0,1.28-.25,1.28-1.25S44.7,67.79,44,67.79H39.48l-.06-2.55H52.35v8.12h0M45.82,20.47C35.4,20.66,27.57,29,27.57,39.55A25.57,25.57,0,0,0,32.38,54C34.72,57.3,36,59.53,36,62.46V73c0,2.31,1.3,3.62,2.91,3.62H52.76a2.92,2.92,0,0,0,2.91-2.91V63.18c0-3.65,1.24-5.88,3.58-9.18a25.57,25.57,0,0,0,4.81-14.45c0-10.52-8.18-19.08-18.24-19.08"/><circle class="cls-1" cx="48.95" cy="69.41" r="1.65"/></svg>