<svg xmlns="http://www.w3.org/2000/svg" xml:space="preserve" viewBox="0 0 100 100">
  <path d="m52.61 16.54-7.68 30.58c-.08.33-.25.62-.45.86-.02.11-.03.22-.06.33-.44 1.74-1.79 3.05-3.61 3.74-1.66.63-3.74.76-5.85.23-2.12-.53-3.9-1.63-5.06-2.97-1.28-1.47-1.85-3.26-1.41-5 .44-1.74 1.79-3.05 3.61-3.74 1.66-.63 3.74-.76 5.85-.23 1.13.28 2.16.74 3.05 1.3l5.82-23.27c-7.99-.99-14.87-2.24-22.39-5.11l-7.87 30.85c-.08.33-.25.62-.46.86-.65 1.15-1.75 2.02-3.13 2.55-1.66.63-3.74.76-5.85.23-2.12-.51-3.9-1.61-5.06-2.95-1.28-1.47-1.85-3.26-1.41-5 .44-1.74 1.79-3.05 3.61-3.74 1.66-.63 3.74-.76 5.85-.23 1.02.26 1.95.65 2.78 1.13l7.63-28.42C20.8 7.4 22.58 6.71 23.71 7c.13.03.25.08.37.13 8.44 3.69 17.42 5.77 26.57 6.69.19-.03.39.01.58.08.26.1.5.26.71.44.64.57.88 1.37.67 2.2zm8.47 49.97s-.09-1.91-2.5-2.21c-2.42-.3-3.17 1.81-3.17 1.81l-1.48 11.77c-1.32-.64-2.84-1.08-4.47-1.26-2.75-.29-5.36.24-7.35 1.34-2.18 1.21-3.65 3.09-3.89 5.37-.24 2.28.8 4.43 2.68 6.06 1.71 1.49 4.15 2.55 6.92 2.85 2.75.29 5.36-.24 7.35-1.34 2.18-1.21 3.65-3.09 3.89-5.37.05-.46.03-.92-.02-1.37l2.04-17.65zm38.4-21.84c.12-1.1-.33-2.06-1.25-2.67-.29-.19-.63-.35-.97-.43-.25-.06-.51-.07-.75 0-11.72.48-23.44-.54-34.76-3.69a2.694 2.694 0 0 0-3.45 2.3l-1.21 9.18s0 1.66 2.57 1.96c2.57.3 2.77-1.41 2.77-1.41l.91-6.11c10.02 2.28 20.22 3.42 30.49 3.24l-3.38 31.99c-1.49-.85-3.27-1.45-5.22-1.66-2.75-.29-5.36.24-7.35 1.34-2.18 1.21-3.65 3.09-3.89 5.37-.24 2.28.8 4.43 2.68 6.06 1.71 1.49 4.15 2.55 6.92 2.85 2.75.29 5.36-.24 7.35-1.34 2.18-1.21 3.65-3.09 3.89-5.37.02-.15.01-.29.02-.43.22-.34.38-.73.42-1.16l4.21-40.02zM59.09 54.75a2.791 2.791 0 0 0 0 5.58 2.791 2.791 0 0 0 0-5.58z"/>
</svg>
