<svg xmlns="http://www.w3.org/2000/svg" xml:space="preserve" viewBox="0 0 100 100">
  <path d="M66.18 11.34C66.18 5.37 61.32.5 55.34.5 49.37.5 44.5 5.36 44.5 11.34s4.86 10.84 10.84 10.84c5.97-.01 10.84-4.87 10.84-10.84zm-3.61.01c0 3.91-3.18 7.08-7.08 7.08-3.91 0-7.08-3.18-7.08-7.08 0-3.91 3.18-7.08 7.08-7.08s7.08 3.17 7.08 7.08zM38.33 56.72c.11.7.31 1.32.57 1.9-.06.09-15.57 28.74-15.57 28.74-2.15 3.99-.66 8.99 3.32 11.14 1.2.65 2.55.99 3.98.99 2.98 0 5.72-1.63 7.13-4.25l13.04-24.1c2.17 2.22 4.09 4.21 4.92 5.07l8.05 17.99c1.3 2.9 4.03 5.03 7.2 5.21 1.37.08 2.71-.18 3.96-.77 4.12-1.93 5.72-7 3.86-11.15L70.15 68.2c-.38-.86-.91-1.65-1.56-2.33l-10.23-10.7.18-2.82 8.6 7.32a8.192 8.192 0 0 0 5.33 1.96c2.42 0 4.7-1.06 6.27-2.9 2.94-3.45 2.52-8.65-.95-11.6 0 0-12.48-10.29-17.1-14.01-.82-.66-1.53-1.43-2.07-2.32-1.88-3.12-5.97-5.36-9.28-6.91-1.3-.61-2.73-.93-4.13-.93-2.84 0-5.32 1.3-6.81 3.57 0 0-.98 2.01-3.65 6.11 0 0-.23 1.27.89 2.01 1.12.74 2.17 0 2.17 0l3.66-6.12c.87-1.33 2.28-1.92 3.75-1.92.87 0 1.76.21 2.58.59 2.88 1.35 8.37 4.17 8.21 7.31L54.66 56.1c-.01.14-.05.27-.07.41l11.38 11.91c.36.38.65.81.87 1.29l8.79 19.64c1.03 2.3 0 5.01-2.3 6.04-.61.27-1.24.4-1.86.4a4.57 4.57 0 0 1-4.17-2.7l-8.5-18.94s-7.24-7.57-11.65-11.84c-3.48-3.37-5.28-4.3-5.28-7.02l.74-11.82-11.32 17.34a4.575 4.575 0 0 1-6.32 1.33 4.568 4.568 0 0 1-1.33-6.32l6.89-10.54s.63-1.54-.75-2.31c-1.04-.58-2.15.01-2.15.01-3.03 4.64-4.94 7.61-6.85 10.55-2.11 3.23-1.97 7.59.68 10.4 2.15 2.28 5.31 3.15 8.35 2.28 1.97-.56 3.61-1.95 4.73-3.66l3.79-5.83zm20.49-8.93.71-11.29 15.9 13.42a4.565 4.565 0 0 1 .52 6.44 4.563 4.563 0 0 1-6.44.52l-10.69-9.09zM41.3 61.83c.45.45.94.89 1.43 1.35.56.51 1.18 1.08 1.88 1.76 1.05 1.02 2.27 2.23 3.51 3.49L34.58 93.45a4.541 4.541 0 0 1-3.98 2.39h-.04a4.564 4.564 0 0 1-4.01-6.74L41.3 61.83zm-8.86-24.95c1.04 0 1.88.84 1.88 1.88s-.84 1.88-1.88 1.88-1.88-.84-1.88-1.88.85-1.88 1.88-1.88z"/>
</svg>
