<svg id="Layer_1" data-name="Layer 1" xmlns="http://www.w3.org/2000/svg" viewBox="0 0 91.56 91.56"><defs><style>.cls-1{fill:#fff;}</style></defs><title>leikkipuisto</title><path class="cls-1" d="M74.64,22.61a1.15,1.15,0,0,0-1.15,1.16v8H16.75v-8a1.16,1.16,0,1,0-2.31,0V67.39a1.16,1.16,0,1,0,2.31,0V63.18H30.33v4.21a1.16,1.16,0,1,0,2.31,0V34.07H73.49V67.39a1.15,1.15,0,1,0,2.3,0V23.77A1.15,1.15,0,0,0,74.64,22.61ZM16.75,41.33H30.33v4.93H16.75Zm0,7.24H30.33v5H16.75Zm0,12.3v-5H30.33v5ZM30.33,39H16.75V34.07H30.33Z"/><path class="cls-1" d="M74.85,68.91a1.48,1.48,0,0,1-1.58-1.52V34.57H33.14V67.39a1.44,1.44,0,0,1-1.54,1.52,1.34,1.34,0,0,1-1.4-1.52V63.68H17v3.71a1.66,1.66,0,0,1-1.66,1.66,1.47,1.47,0,0,1-1.41-1.66V23.77c0-.91.42-1.66,1.33-1.66a1.66,1.66,0,0,1,1.65,1.66v7.5H73.27v-7.5c0-.91.46-1.66,1.37-1.66a1.66,1.66,0,0,1,1.65,1.66V67.39A1.37,1.37,0,0,1,74.85,68.91ZM32.14,33.57H74V67.39a.65.65,0,1,0,1.3,0V23.77a.65.65,0,1,0-1.3,0v8.5H16.25v-8.5a.67.67,0,0,0-.66-.66.66.66,0,0,0-.65.66V67.39a.66.66,0,0,0,.65.66.67.67,0,0,0,.66-.66V62.68H30.83v4.71a.66.66,0,0,0,.65.66.67.67,0,0,0,.66-.66Z"/><path class="cls-1" d="M39.5,46a4,4,0,1,1,4-4A4,4,0,0,1,39.5,46Zm0-6.31a2.4,2.4,0,1,0,2.39,2.4A2.41,2.41,0,0,0,39.51,39.66Z"/><path class="cls-1" d="M38.67,37.81a3.46,3.46,0,0,1,.92-.13,3.6,3.6,0,0,1,.93.13V34.07H38.67Z"/><path class="cls-1" d="M40.68,38.47l-.54-.18a2.16,2.16,0,0,0-1.33,0l-.54.17V33.57h2.41Zm-1.51-3.9v2.64a4,4,0,0,1,.85,0V34.57Z"/><path class="cls-1" d="M48.15,46a4,4,0,1,1,4-4A4,4,0,0,1,48.15,46Zm0-6.46a2.47,2.47,0,1,0,2.46,2.47A2.48,2.48,0,0,0,48.15,39.58Z"/><path class="cls-1" d="M47.41,37.81a2.4,2.4,0,0,1,1.56,0V34.07H47.41Z"/><path class="cls-1" d="M47,38.47v-4.9H49.4v4.89l-.54-.17a2.19,2.19,0,0,0-1.34,0Zm1.2-1.29a2.19,2.19,0,0,1,.36,0V34.57h-.72v2.64A2.19,2.19,0,0,1,48.19,37.18Z"/><path class="cls-1" d="M61.29,61.7a21.6,21.6,0,0,1-8-1.53,1.54,1.54,0,1,1,1.13-2.86,18.53,18.53,0,0,0,13.7,0,1.54,1.54,0,0,1,1.13,2.86A21.64,21.64,0,0,1,61.29,61.7Z"/><path class="cls-1" d="M61.29,62.2a22.25,22.25,0,0,1-8.17-1.56A2,2,0,0,1,52,58a2,2,0,0,1,2.64-1.14,18.06,18.06,0,0,0,13.33,0,2,2,0,0,1,1.51,3.79A22.29,22.29,0,0,1,61.29,62.2Zm-7.42-4.5a1,1,0,0,0-.41.09,1,1,0,0,0-.55.57,1,1,0,0,0,.58,1.35,21.23,21.23,0,0,0,15.6,0,1,1,0,1,0-.77-1.93,19.08,19.08,0,0,1-14.06,0A1.09,1.09,0,0,0,53.87,57.7Z"/><path class="cls-1" d="M56.16,57.9V34.07H54.32v23.2l.12,0C55,57.54,55.58,57.73,56.16,57.9Z"/><path class="cls-1" d="M56.66,58.56,56,58.38c-.6-.17-1.19-.38-1.76-.6l-.36-.11-.08-.4V33.57h2.84Zm-1.84-1.64c.27.11.56.21.84.3V34.57h-.84Z"/><path class="cls-1" d="M68.26,57.27V34.07H66.42V57.9c.58-.17,1.15-.36,1.72-.59Z"/><path class="cls-1" d="M65.92,58.56v-25h2.84V57.64l-.44.14c-.57.22-1.17.43-1.77.6Zm1-24V57.22q.42-.13.84-.3V34.57Z"/></svg>