<svg id="Layer_1" data-name="Layer 1" xmlns="http://www.w3.org/2000/svg" viewBox="0 0 91.56 91.56"><defs><style>.cls-1{fill:#fff;}</style></defs><title>lehti</title><path class="cls-1" d="M41.74,61a39,39,0,0,1-11.45-1.87c-.47-.17-.22-.92-.11-1.4s.27-.76.76-.65c4.64,1,10.76,1.91,14.58,1.3a23.38,23.38,0,0,0,8.53-2.92,20.37,20.37,0,0,0,5.16-4.13l-3-.4a.9.9,0,0,1-.78-.79.92.92,0,0,1,.59-1c4.14-1.51,6.64-5.37,7.62-7.2l-1.73-.37a.9.9,0,0,1-.48-1.48A13.88,13.88,0,0,0,64.8,34.3,5.8,5.8,0,0,0,65,32.77l-1.79-.19a.92.92,0,0,1-.68-.43.87.87,0,0,1-.06-.8c1.64-4,1.47-9.3,1.33-11.32a28.41,28.41,0,0,0-8.47,1.72,14.77,14.77,0,0,0-3.05,1.55.89.89,0,0,1-1.43-.59l-.19-1.3a24.89,24.89,0,0,0-8,5.64.9.9,0,0,1-1.57-.6V25.09a22.41,22.41,0,0,0-4.51,5.83.9.9,0,0,1-1.68-.15l-.29-1.06c-1.31,2.62-2.8,6.33-2.82,6.38a.87.87,0,0,1-.77.56.9.9,0,0,1-.84-.44l-.73-1.27a23.59,23.59,0,0,0-1.7,14.51,18.55,18.55,0,0,0,2.47,6.3A.9.9,0,0,1,30,57a8.59,8.59,0,0,0-1,.73c-.81.73-2.76-3.61-3.67-7.89-.83-3.92-.41-10.11,3.23-17.24a.88.88,0,0,1,.77-.49.91.91,0,0,1,.81.45l.67,1.17a53.85,53.85,0,0,1,3.33-6.88.89.89,0,0,1,.89-.39.9.9,0,0,1,.73.65l.31,1.13a25.76,25.76,0,0,1,5.35-5.82.9.9,0,0,1,1.46.7v1.19a24,24,0,0,1,8.23-5,.89.89,0,0,1,.76.09.91.91,0,0,1,.41.63l.15,1a20.1,20.1,0,0,1,2.15-1,30.23,30.23,0,0,1,10-1.91.89.89,0,0,1,.92.79,32,32,0,0,1-1,11.92l1.36.14a.91.91,0,0,1,.77.64c0,.14,1,3.47-2.94,8.49l1.4.3a.89.89,0,0,1,.61.46.92.92,0,0,1,0,.76,19,19,0,0,1-6.46,7.82l1.55.21a.88.88,0,0,1,.68.47.91.91,0,0,1,0,.82,18.12,18.12,0,0,1-6.26,6.36,23.43,23.43,0,0,1-8.81,3.26A30.1,30.1,0,0,1,41.74,61Z"/><path class="cls-1" d="M25.63,73.13c-1.17-.62-.82-2.47-.74-3,1.1-6.09,2.29-8.75,5.39-14.74a83.88,83.88,0,0,1,9.2-14A81.36,81.36,0,0,1,51.42,29.22c.39-.31.88-.63,1.83.3.6.59-.47,1.95-.86,2.25A92.29,92.29,0,0,0,41,43.93a82.34,82.34,0,0,0-9,13.68c-3,5.83-3.73,9-4.79,14.93C27.12,73,26.79,73.76,25.63,73.13Z"/><path class="cls-1" d="M55.24,34.35h0l-6.93-.18a.9.9,0,0,1-.88-.9v-4a.9.9,0,0,1,1.8,0v3.13l6.06.16a.9.9,0,0,1,.88.92A.91.91,0,0,1,55.24,34.35Z"/><path class="cls-1" d="M53.89,41.4h-.07L42.2,40.5a.9.9,0,0,1-.83-.9V32.74a.9.9,0,1,1,1.8,0v6L54,39.61a.89.89,0,0,1,.83,1A.9.9,0,0,1,53.89,41.4Z"/><path class="cls-1" d="M45.22,47.86h-.07l-8.64-.67a.9.9,0,0,1-.83-.82L35,37.59a.88.88,0,0,1,.82-1,.9.9,0,0,1,1,.82l.65,8,7.88.61a.89.89,0,0,1,.83,1A.9.9,0,0,1,45.22,47.86Z"/><path class="cls-1" d="M36.88,54.25h-.07l-4.6-.37a.89.89,0,0,1-.82-.78l-.77-5.89A.9.9,0,1,1,32.4,47l.68,5.17,3.87.3a.9.9,0,0,1,.82,1A.89.89,0,0,1,36.88,54.25Z"/><circle class="cls-1" cx="56.89" cy="27.02" r="1.82"/></svg>