<svg id="Layer_1" data-name="Layer 1" xmlns="http://www.w3.org/2000/svg" viewBox="0 0 91.56 91.56"><defs><style>.cls-1{fill:#fff;}</style></defs><title>ykkossija</title><path class="cls-1" d="M43.26,78.36a4.4,4.4,0,0,1-.8-.07A5,5,0,0,1,39,75.91a5,5,0,0,1-4.27-.51A5.06,5.06,0,0,1,32.39,72,5,5,0,0,1,28,65.76a5,5,0,0,1-2.66-3.37,5.08,5.08,0,0,1,.79-4,5.06,5.06,0,0,1-1.09-4,5,5,0,0,1,2.39-3.51,5,5,0,0,1,.5-4.27,5.1,5.1,0,0,1,3.41-2.29,5,5,0,0,1,6.23-4.4A5,5,0,0,1,45,38a5,5,0,0,1,7.53,1.3,5,5,0,0,1,4.27.51A5,5,0,0,1,59,43.22a5,5,0,0,1,4.41,6.23,5,5,0,0,1,2.65,3.38h0a5,5,0,0,1-.79,4A5,5,0,0,1,64,64.38a5,5,0,0,1-3.91,6.55,5,5,0,0,1-6.24,4.41,5,5,0,0,1-7.4,1.86A5,5,0,0,1,43.26,78.36Zm-3.83-4.77a1,1,0,0,1,.35.06,1,1,0,0,1,.6.63,3,3,0,0,0,2.4,2,3.08,3.08,0,0,0,2.86-1.1,1,1,0,0,1,.74-.38,1,1,0,0,1,.77.32,3.08,3.08,0,0,0,2.9.89,3,3,0,0,0,2.26-2.23,1,1,0,0,1,.56-.67,1,1,0,0,1,.86,0,3,3,0,0,0,4.38-3,1,1,0,0,1,.26-.79.93.93,0,0,1,.77-.32,3,3,0,0,0,2.7-4.6,1,1,0,0,1,.54-1.47,3,3,0,0,0,.95-5.25A1,1,0,0,1,63,57a1,1,0,0,1,.32-.77,3.05,3.05,0,0,0,.89-2.9h0A3,3,0,0,0,61.93,51a1,1,0,0,1-.67-.55,1,1,0,0,1,0-.86,3,3,0,0,0-3.05-4.39,1,1,0,0,1-.78-.26,1,1,0,0,1-.32-.76,3.05,3.05,0,0,0-1.43-2.68,3,3,0,0,0-3.17,0,1,1,0,0,1-.87.08,1,1,0,0,1-.6-.62A3,3,0,0,0,45.8,40a1,1,0,0,1-1.51.06,3,3,0,0,0-5.17,1.34,1,1,0,0,1-1.41.65,3,3,0,0,0-4.39,3.05,1,1,0,0,1-1,1.11,3.07,3.07,0,0,0-2.68,1.42,3,3,0,0,0,0,3.18,1,1,0,0,1,.08.86,1,1,0,0,1-.62.6,3,3,0,0,0-.94,5.26,1,1,0,0,1,.37.74,1,1,0,0,1-.31.77,3.05,3.05,0,0,0-.89,2.9,3,3,0,0,0,2.23,2.26,1,1,0,0,1,.67.56,1,1,0,0,1,0,.86A3,3,0,0,0,33.21,70a1,1,0,0,1,1.11,1,3.07,3.07,0,0,0,1.42,2.68,3,3,0,0,0,3.18,0A1.06,1.06,0,0,1,39.43,73.59Zm6.17-.37a15.59,15.59,0,0,1-3.46-30.78,15.58,15.58,0,1,1,7,30.37h0A15.66,15.66,0,0,1,45.6,73.22Zm3.3-1.38h0ZM45.63,44.05a13.82,13.82,0,0,0-3,.34,13.61,13.61,0,1,0,3-.34Z"/><path class="cls-1" d="M35.87,40.82a1.28,1.28,0,0,1-1.09-.63L22.7,19.26a1.25,1.25,0,0,1,.45-1.71l7.68-4.43a1.26,1.26,0,0,1,1-.13,1.28,1.28,0,0,1,.76.59L46.29,37.41a1.25,1.25,0,1,1-2.16,1.25L31,15.91l-5.51,3.18L37,38.94a1.26,1.26,0,0,1-.46,1.71A1.29,1.29,0,0,1,35.87,40.82Z"/><path class="cls-1" d="M55.88,40.5a1.29,1.29,0,0,1-.63-.17,1.25,1.25,0,0,1-.46-1.71L66.07,19.09l-5.51-3.18L48.11,37.48a1.25,1.25,0,0,1-2.17-1.25L59,13.58a1.28,1.28,0,0,1,.76-.59,1.26,1.26,0,0,1,.95.13l7.67,4.43a1.24,1.24,0,0,1,.46,1.71L57,39.87A1.25,1.25,0,0,1,55.88,40.5Z"/><path class="cls-1" d="M55.67,23.13H35.89a1.25,1.25,0,0,1,0-2.5H55.67a1.25,1.25,0,0,1,0,2.5Z"/><path class="cls-1" d="M60.11,15.45H31.45a1.25,1.25,0,0,1,0-2.5H60.11a1.25,1.25,0,0,1,0,2.5Z"/><path class="cls-1" d="M51.09,66.93H41.45a.9.9,0,0,1-.9-.9v-3.2a.91.91,0,0,1,.9-.91H43V55.3l-1.12.53a.88.88,0,0,1-.71,0,.93.93,0,0,1-.51-.5l-1.11-2.67A.9.9,0,0,1,40,51.54l.4-.2a8.73,8.73,0,0,0,3.52-2.73.92.92,0,0,1,.69-.32h4.29a.9.9,0,0,1,.9.9V61.92h1.34a.9.9,0,0,1,.9.91V66A.9.9,0,0,1,51.09,66.93Zm-8.74-1.8h7.84v-1.4H48.85a.9.9,0,0,1-.9-.9V50.09H45a10,10,0,0,1-3.48,2.69l.42,1,1.56-.73a.9.9,0,0,1,1.28.82v8.94a.9.9,0,0,1-.9.9H42.35Z"/></svg>