<svg xmlns="http://www.w3.org/2000/svg" xml:space="preserve" viewBox="0 0 100 100">
  <path d="M81.34 84.11c.02-.11.04-.23.04-.35 0-4.03-13.54-4.47-19.36-4.47-7.28 0-19.51.58-19.51 4.47 0 .33.12.62.28.91-.01.08-.05.16-.05.24v10.13c0 3.89 12.22 4.47 19.51 4.47 5.82 0 19.36-.44 19.36-4.47V84.91c0-.3-.11-.57-.27-.8zm-19.31-1.84c7.82 0 12.97.8 15.28 1.49-2.3.7-7.46 1.49-15.28 1.49-7.9 0-13.1-.79-15.42-1.49 2.32-.69 7.51-1.49 15.42-1.49zm16.6 12.33c-1.28.74-6.85 1.92-16.38 1.92-9.63 0-15.24-1.18-16.53-1.92v-8.04c4.13 1.39 11.35 1.66 16.3 1.66 4.16 0 12.26-.22 16.54-1.82l.06-.01v8.21zm-1.37-78.05 9.21-15.12c.61-1 1.96-1.24 2.88-.5.76.61.95 1.7.44 2.54l-9.25 14.98c.08.09-1.34.8-2.35.11-1.04-.69-1.02-2.02-.93-2.01zM23.2 77.12c-3.43 0-6.61.52-9.43.34-7.67-.48-9.57-8.45-10.32-13.59-.45-5.89 2.92-8.26 5.84-8.09 2.93.17 25.06.41 39.75-3.79 6.17-1.76 8.61-5.02 12.22-9.52L71.3 26.12s1.16-.67 2.24 0c1.38.86.92 2.12.92 2.12L64.07 44.98c-3.87 4.84-6.92 8.15-13.77 10.11-15 4.29-29.08 4.51-40.86 4.15-1.86.25-2.52 2.88-2.35 5.25.84 5.71 1.72 9.26 6.8 9.58 11.47.72 39.25 1.36 46.67-11.23L93.18 6.72c.56-.97 1.86-1.21 2.73-.51.71.57.89 1.58.43 2.36L62.63 65.59C56.22 76.45 37.86 77.12 23.2 77.12zm54.25-54.78c0 1.04-.84 1.88-1.88 1.88s-1.88-.84-1.88-1.88.84-1.88 1.88-1.88 1.88.84 1.88 1.88z"/>
</svg>
