<svg xmlns="http://www.w3.org/2000/svg" xml:space="preserve" viewBox="0 0 100 100">
  <path d="M78.42 24.49c-.65 0-1.17-.52-1.17-1.17v-2.54c0-.65.52-1.17 1.17-1.17s1.17.52 1.17 1.17v2.54c0 .65-.52 1.17-1.17 1.17zm4.49-1.17v-2.54c0-.65-.52-1.17-1.17-1.17s-1.17.52-1.17 1.17v2.54c0 .65.52 1.17 1.17 1.17s1.17-.52 1.17-1.17zm3.33 0v-2.54c0-.65-.52-1.17-1.17-1.17s-1.17.52-1.17 1.17v2.54c0 .65.52 1.17 1.17 1.17s1.17-.52 1.17-1.17zM22.38 63.6c.1-.03 2.55-.76 2.89-3.87.21-1.89-.24-5.72-.63-9.09-.18-1.54-.35-3-.44-4.13-.27-3.36 1.19-6.62 1.2-6.65.17-.38 0-.83-.38-1.01a.764.764 0 0 0-1.01.38c-.07.15-1.64 3.64-1.34 7.41.09 1.15.26 2.62.45 4.18.38 3.3.82 7.03.63 8.75-.23 2.07-1.74 2.56-1.79 2.57-.4.12-.64.54-.52.94a.768.768 0 0 0 .94.52zm10.93.79c.1-.03 2.55-.76 2.89-3.87.19-1.72-.27-4.59-.71-7.37-.27-1.68-.54-3.42-.66-4.78-.28-3.42.64-6.52.65-6.55.12-.4-.11-.83-.51-.95s-.83.11-.95.51c-.04.14-1.01 3.4-.71 7.12.12 1.42.4 3.19.67 4.9.43 2.68.87 5.44.7 6.96-.23 2.07-1.74 2.56-1.79 2.57-.4.12-.64.54-.52.94.1.33.4.55.73.55l.21-.03zm-3.65-15.32c.05-.71-.02-1.55-.1-2.44-.09-1.05-.2-2.23-.1-3.3.1-1.02.66-3.49.67-3.51a.759.759 0 1 0-1.48-.34c-.02.11-.59 2.59-.7 3.71-.11 1.21 0 2.47.1 3.58.07.83.14 1.61.1 2.19-.03.42.28.78.7.82h.06a.77.77 0 0 0 .75-.71zm.63 7.48c.13-1.15-.18-3.71-.21-4a.763.763 0 0 0-.85-.66c-.42.05-.71.43-.66.85.09.73.3 2.82.21 3.65-.05.42.26.79.67.84h.08c.39 0 .72-.29.76-.68zm9.75-8.36c.05-.71-.02-1.55-.1-2.44-.09-1.05-.2-2.23-.1-3.3.1-1.02.66-3.49.67-3.51a.759.759 0 1 0-1.48-.34c-.02.11-.59 2.59-.7 3.71-.11 1.21 0 2.47.1 3.58.07.83.14 1.61.1 2.19-.03.42.28.78.7.82h.06c.38-.01.72-.31.75-.71zm.21 7.49c.13-1.15-.18-3.71-.21-4a.758.758 0 0 0-.85-.66c-.42.05-.71.43-.66.85.09.73.3 2.82.21 3.65-.05.42.26.79.67.84h.08c.38-.01.71-.29.76-.68zm2.53 8.71c.1-.03 2.55-.76 2.89-3.87.21-1.89-.24-5.72-.63-9.1-.18-1.54-.35-2.99-.44-4.13-.27-3.36 1.19-6.62 1.2-6.65.17-.38 0-.83-.38-1.01a.753.753 0 0 0-1.01.38c-.07.15-1.64 3.64-1.33 7.41.09 1.15.26 2.62.45 4.18.38 3.3.82 7.04.63 8.75-.23 2.07-1.74 2.56-1.79 2.57-.4.12-.64.54-.52.94.1.33.4.55.73.55.06 0 .13-.01.2-.02zm7.29-10.15c.05-.71-.02-1.55-.1-2.44-.09-1.05-.2-2.23-.09-3.31.1-1.02.66-3.49.67-3.51a.759.759 0 1 0-1.48-.34c-.02.11-.59 2.59-.7 3.71-.12 1.21 0 2.47.09 3.59.07.83.14 1.61.1 2.19-.03.42.28.78.7.82h.06c.38 0 .72-.31.75-.71zm.62 7.49c.13-1.15-.18-3.71-.21-4a.763.763 0 0 0-.85-.66c-.42.05-.71.43-.66.85.09.73.3 2.82.21 3.65-.05.42.26.79.67.84h.08c.39 0 .72-.29.76-.68zm2.83 1.78c.1-.03 2.55-.76 2.89-3.87.21-1.89-.24-5.72-.63-9.1-.18-1.54-.35-2.99-.44-4.13-.27-3.36 1.19-6.62 1.2-6.65.17-.38 0-.83-.38-1.01a.753.753 0 0 0-1.01.38c-.07.15-1.64 3.64-1.33 7.41.09 1.15.26 2.62.44 4.18.38 3.3.82 7.04.63 8.76-.23 2.07-1.74 2.56-1.79 2.57-.4.12-.64.54-.52.94a.768.768 0 0 0 .94.52zm7.19-15.32c.05-.71-.02-1.55-.1-2.44-.09-1.05-.2-2.23-.1-3.3.1-1.02.66-3.49.67-3.51a.759.759 0 1 0-1.48-.34c-.02.11-.59 2.59-.7 3.71-.11 1.21 0 2.47.1 3.58.07.83.14 1.61.1 2.19-.03.42.28.78.7.82h.06c.38-.01.72-.31.75-.71zm.62 7.49c.13-1.15-.18-3.71-.21-4a.758.758 0 0 0-.85-.66c-.42.05-.71.43-.66.85.09.73.3 2.82.21 3.65-.05.42.26.79.67.84h.08c.39-.01.72-.29.76-.68zm3.41 9.19c.1-.03 2.55-.76 2.89-3.87.21-1.89-.24-5.72-.63-9.1-.18-1.54-.35-2.99-.44-4.13-.27-3.36 1.19-6.62 1.2-6.65.17-.38 0-.83-.38-1.01a.75.75 0 0 0-1.01.38c-.07.15-1.64 3.64-1.33 7.41.09 1.15.26 2.62.45 4.18.38 3.3.82 7.03.63 8.75-.23 2.07-1.74 2.56-1.79 2.57-.4.12-.64.54-.52.94.1.33.4.55.73.55.06.01.13 0 .2-.02zM99.5 35.16c0 .42-.34.76-.76.76h-9.35v24.41c0 1.13-.92 2.05-2.05 2.05H76.35c-1.13 0-2.05-.92-2.05-2.05V36.85c-.08.01-.17.03-.25.03H20.8c-.49 0-.94-.18-1.29-.47l-.05 20.36c0 .25-.12.48-.33.62L3.87 67.97a.756.756 0 0 1-1.06-.19.766.766 0 0 1 .19-1.06l14.92-10.36.08-28.43-4.32.29-4.84 18.15c-.01.06-.04.11-.06.16l-5.91 11.2c-.2.37-.66.51-1.03.32a.772.772 0 0 1-.32-1.03L7.39 45.9l2.46-9.23-8.62-.31a.754.754 0 0 1-.73-.79c.01-.42.37-.71.79-.73l8.71.3c.09 0 .17.03.24.06l2.11-7.9c.08-.32.36-.54.68-.56l5.68-.38c.22-.01.42.06.57.2.01-.01.02-.03.03-.04.13-.11.3-.16.46-.16.3-.17.64-.28 1.02-.28h53.25c.09 0 .17.02.25.03v-7.89c0-1.13.92-2.05 2.05-2.05h10.99c1.13 0 2.05.92 2.05 2.05V34.4h9.35c.43 0 .77.34.77.76zm-70.76-.04h9.59l-4.72-6.7-4.87 6.7zm3.4-7.28H21.4l5.73 6.9 5.01-6.9zm7.76 6.87 5.36-6.87H35.05l4.85 6.87zm1.61.41h10.86l-5.67-6.65-5.19 6.65zm12.35-.61 5.69-6.67H48.18l5.68 6.67zm1.48.61h11.07l-5.39-6.67-5.68 6.67zm12.14-1.1 4.95-6.18h-9.94l4.99 6.18zm-46.69 1.1h4.67l-4.96-5.98v5.69c0 .15.14.29.29.29zm53.51-.19v-6.89c-.01-.02-.01-.04-.02-.06l-5.72 7.14h5.49c.11 0 .2-.09.25-.19zm13.33-16.71a.29.29 0 0 0-.29-.29H76.35a.29.29 0 0 0-.29.29v9.5c.03.13.04.27.04.41v6.69c0 .14-.01.28-.04.41v25.1c0 .16.13.29.29.29h10.99c.16 0 .29-.13.29-.29V18.22zM43.37 82.78c.85.66 2.07 1.04 3.4 1.04 1.34 0 2.56-.38 3.41-1.04.85.66 2.07 1.04 3.41 1.04 1.61 0 3.06-.55 3.88-1.48.23-.26.21-.66-.05-.88a.619.619 0 0 0-.88.05c-.58.65-1.7 1.06-2.94 1.06-1.23 0-2.36-.4-2.94-1.06l-.47-.53-.47.53c-.58.65-1.7 1.06-2.94 1.06-1.23 0-2.36-.41-2.93-1.06l-.47-.53-.47.53c-.58.65-1.7 1.06-2.94 1.06-1.23 0-2.36-.41-2.94-1.06a.611.611 0 0 0-.88-.05.62.62 0 0 0-.05.88c.82.93 2.27 1.48 3.87 1.48 1.33.01 2.55-.37 3.4-1.04zm23.64-4.71c1.46 0 2.77-.5 3.51-1.35.23-.26.21-.66-.05-.88a.619.619 0 0 0-.88.05c-.5.57-1.49.92-2.58.92s-2.08-.35-2.58-.92l-.47-.53-.47.53c-.5.57-1.49.92-2.57.92-1.09 0-2.07-.35-2.58-.92l-.47-.53-.47.53c-.5.57-1.49.92-2.58.92s-2.08-.35-2.58-.92a.632.632 0 0 0-.89-.05c-.26.23-.28.63-.05.89.75.84 2.06 1.34 3.52 1.34 1.19 0 2.28-.33 3.05-.91.77.58 1.86.91 3.05.91 1.19 0 2.28-.33 3.04-.91.76.58 1.86.91 3.05.91zm-32.78-.47c1.26 0 2.4-.44 3.05-1.17a.695.695 0 0 0-1.04-.92c-.38.44-1.15.7-2 .7-.85 0-1.62-.27-2.01-.7l-.52-.59-.52.59c-.38.44-1.15.7-2 .7-.85 0-1.62-.27-2.01-.7l-.52-.59-.52.59c-.38.44-1.15.7-2 .7-.85 0-1.62-.27-2.01-.7a.696.696 0 0 0-.98-.06c-.29.26-.31.7-.06.98.65.74 1.79 1.17 3.05 1.17.97 0 1.87-.26 2.53-.72.66.46 1.56.72 2.53.72.97 0 1.87-.26 2.52-.72.64.46 1.54.72 2.51.72z"/>
</svg>
