<svg id="Layer_1" data-name="Layer 1" xmlns="http://www.w3.org/2000/svg" viewBox="0 0 91.56 91.56"><defs><style>.cls-1{fill:none;}.cls-2{fill:#fff;}</style></defs><title>lukko</title><rect class="cls-1" x="28.41" y="33.99" width="34.73" height="23.58"/><path class="cls-2" d="M48.28,57.13v3.44c-.09,1.77-.91,2.16-2.31,2.3a2.31,2.31,0,0,1-2.62-2.3V57.26A5,5,0,0,1,41,53.11a4.86,4.86,0,0,1,4.87-4.76,4.7,4.7,0,0,1,4.69,4.76A4.6,4.6,0,0,1,48.28,57.13Z"/><path class="cls-2" d="M62.92,39.66H35.76a4,4,0,0,1-.08-.77V29.44c.19-7.83,3.79-9.58,9.13-9.5l2.64-.07c5.83,0,8.45,1.84,8.82,7l.12,2.58c0,.84.68,1.67,2.15,1.57s2-1,2-1.83l-.06-1.7c0-7.77-4.09-11.72-12.6-11.72h-3c-3.57,0-7.14.76-9.69,3.29s-3.61,6.33-3.61,10.13l0,10.52H28.63A4.29,4.29,0,0,0,24.35,44V67.56a4.28,4.28,0,0,0,4.28,4.28H62.92a4.28,4.28,0,0,0,4.29-4.28V44A4.29,4.29,0,0,0,62.92,39.66Zm.17,27.79H28.36V43.88H63.09Z"/><circle class="cls-2" cx="58.42" cy="35.32" r="2.14"/></svg>