<svg id="Layer_1" data-name="Layer 1" xmlns="http://www.w3.org/2000/svg" viewBox="0 0 91.56 91.56"><defs><style>.cls-1{fill:#fff;fill-rule:evenodd;}</style></defs><title>kannykka</title><path class="cls-1" d="M31.7,13.33H59.86A4.14,4.14,0,0,1,64,17.46V70.69a4.15,4.15,0,0,1-4.14,4.14H31.7a4.15,4.15,0,0,1-4.14-4.14V17.46a4.14,4.14,0,0,1,4.14-4.13Zm-1,6.7V63.15H60.56V20Zm12.07-4.44c-.32,0-.58.51-.58,1.13v.07c0,.63.26,1.14.58,1.14H49.3c.32,0,.58-.51.58-1.14v-.07c0-.62-.26-1.13-.58-1.13ZM45.81,66a2.55,2.55,0,1,0,2.55,2.54A2.54,2.54,0,0,0,45.81,66Z"/></svg>