<svg xmlns="http://www.w3.org/2000/svg" xml:space="preserve" viewBox="0 0 100 100">
  <path d="M54.76 44.22c-.04 0-3.6-.19-5.05-1.47l1.55-1.76c.5.45 2.5.84 3.6.88l-.1 2.35zm-6.32.52c-1.28-.19-2.53-.4-3.72-.79.98-.62 1.87-1.36 2.65-2.22l1.18-1.3-1.74-.2c-1.93-.22-3.51-.81-4.47-1.35 1.23-.21 2.75-.73 3.7-1.95l.76-.98-1.16-.42c-.36-.13-.73-.25-1.11-.37-1.86-.59-3.05-1.03-3.33-2.29 2.2.1 3.33-1.36 3.91-2.09l.65-.81-1.36-.78c-2.19-1.25-4.08-2.33-4.63-5.17l-.28-1.48-1.17.95c-.16.13-.35.3-.58.51-1.28 1.16-3.67 3.31-7.1 3.87l-.89.15.14.89c.27 1.66 2.22 2.36 3.79 2.66-1.05.7-2.59 1.4-4.43 1.41h-.81l-.08.81c-.08.84.16 2.1 1.12 2.9.63.52 1.47.78 2.46.75-1.14.8-2.7 1.23-3.13 1.11l-.99-.27-.13 1.02c-.07.51.2 1.13.74 1.69.33.34 1.04.95 2.23 1.33-1.16.42-2.92.95-5.57 1.59l-.19.05-.69 1.05c.19 1.1 4.32 3.21 10.37 2.58l-.18-1.79c-3.15.32-5.47-.14-6.91-.65 5.77-1.53 6.53-2.48 6.8-2.81l.35-.56-.62-1.01-.55.04c-1.59.13-2.63-.24-3.25-.65 1.15-.3 2.41-.95 3.24-1.64 1.11-.94 1.27-1.8 1.21-2.37l-.08-.46-.71-.46-.39.11c-1.35.39-2.34.37-2.87-.06-.2-.16-.32-.38-.39-.58 3.05-.34 5.33-2.15 6.17-3.15l.34-.55-.53-1.02-.56.01c-.97.04-2.39-.26-3.25-.68 2.73-.81 4.76-2.41 6-3.5.91 2.39 2.74 3.58 4.59 4.65-.53.47-1.29.82-2.51.5l-1.03-.27-.09 1.06c-.29 3.26 2.07 4.3 4.07 4.95-1.08.48-2.4.55-2.97.52l-1.08-.06.14 1.07c.21 1.54 2.61 2.84 5.27 3.46a11.5 11.5 0 0 1-2.51 1.52l-1.68.75 1.62.86c.72.38 1.45.67 2.19.9-2.26.41-4.8.57-6.32.05-.02-.62-.01-1.29.03-2.04.03-.5-.35-.92-.85-.95-.47 0-.92.35-.95.85-.15 2.79.14 4.73.4 6.1.08.43.46.73.88.73.06 0 .11-.01.17-.02.49-.09.8-.57.71-1.05-.1-.49-.19-1.07-.27-1.74.74.16 1.57.23 2.45.23 2.88 0 6.19-.74 7.97-1.44l3.12-1.23-3.31-.47zm-24.46-5.15c-.71-.03-2.01-.39-3.04-.83.56-.13 1.03-.35 1.4-.59 1.48-.95 2.3-2.71 2.31-3.56l.01-1.17-1.16.11c-1.25.12-2.26.06-3.03-.07.6-.51 1.02-1.24 1.23-2.17l.22-.97-.96-.28c-3.53-1.01-3.96-2.24-4.12-2.71l-.93-2.66-1.05 2.61c-.39.97-2.28 3.07-3.69 3.64l-1.1.45.57 1.04c.32.58.74 1.02 1.27 1.31-.74.16-1.64.18-2.27.07l-1.27-.22.03 1.29c.06 2.31 1.68 3.59 3.04 4.26-.84.25-2.19.41-4.08.26l-1.66-.13.58 1.55c1.06 2.85 4.03 4.72 7.19 4.72.57 0 1.14-.06 1.71-.19l-.46-2.06c-2.1.46-4.28-.26-5.57-1.73 2.25-.05 4.8-.57 5.34-2.54l.29-1.09-1.1-.23c-.02-.01-2-.43-2.83-1.73 1.17-.04 2.52-.3 3.41-1 .59-.46.94-1.07.99-1.77l.09-1.18-1.18.04c-.3.01-.54-.01-.74-.04.89-.66 1.76-1.52 2.41-2.36.76.82 1.88 1.49 3.4 2.03-.28.32-.75.51-1.54.45L15.65 32l1.03 1.76c.69 1.18 2.7 1.91 5.24 1.96-.22.28-.51.55-.86.75-.66.37-1.4.36-2.25-.02l-1.11-.5-.33 1.17c-.13.46-.17 1.16.37 1.92.85 1.18 2.9 1.96 4.46 2.36-.89 1.13-2.52 2.53-4.7 1.73-.01-.11-.01-.22-.02-.34-.03-.5-.5-.88-.95-.84a.89.89 0 0 0-.84.95c.09 1.44.04 2.55-.16 3.6-.09.49.23.96.72 1.05.06.01.11.02.17.02.42 0 .8-.3.88-.73.09-.49.15-.98.19-1.5 3.97.96 6.67-2.66 7.41-4.25l.67-1.44-1.59-.06zm41.64-1.38-.37-.94-.89.48c-.67.36-1.18.63-1.64.81 1.6-1.06 1.93-2.6 2-3.17l.02-.58-.33-.31c-.43-.4-.96-.3-1.52-.19-.59.11-1.4.27-2.16 0-.12-.04-.22-.08-.32-.13 1.53-.62 1.86-1.76 2.04-2.37l.46-1.5-1.53.37c-1.83.44-3.16-.98-3.94-2.24l-.94-1.5-.66 1.64c-.55 1.37-2.03 2.95-4.55 3.3l-.57.08-.17.55c-.06.19-.21.86.29 1.55.38.53 1.01.89 1.92 1.09-.35.23-.81.45-1.41.61-1.8.47-2.14 1.35-2.1 2.01.07 1.35 1.87 2.28 2.85 2.43l.26-1.78c-.45-.07-1.03-.43-1.25-.67.11-.07.32-.16.69-.26 2.82-.74 3.58-2.64 3.61-2.72l.45-1.18-1.27-.03c-.78-.02-1.32-.11-1.67-.22 1.6-.51 2.96-1.49 3.86-2.77.91 1.03 1.97 1.68 3.08 1.9-.24.11-.55.21-.98.27l-.2.03-.17.11c-.45.31-.67.76-.61 1.25.1.75.84 1.37 2.22 1.86.9.32 1.78.28 2.46.18-.38.64-1.16 1.29-2.71 1.55-1.11.18-2.16.36-2.2 1.3-.03.9.92 1.13 1.69 1.32 1.58.38 2.57.37 3.59.04-.56.59-1.45 1.17-2.86 1.4-.01 0-1.09.28-2.87.36 0-.37.01-.75.04-1.15.03-.5-.35-.92-.85-.95-.49 0-.92.35-.95.85-.15 2.79.14 4.73.4 6.1.08.43.46.73.88.73.06 0 .11-.01.17-.02a.89.89 0 0 0 .71-1.05c-.14-.72-.29-1.61-.36-2.72 1.99-.09 3.2-.4 3.19-.4 2.63-.43 3.94-1.85 4.57-2.96.39-.62.83-1.76.6-2.36zM52.61 69.8c1 .78 2.44 1.23 4.01 1.23 1.57 0 3.02-.45 4.02-1.23 1 .78 2.44 1.23 4.02 1.23 1.9 0 3.6-.65 4.57-1.75a.74.74 0 0 0-.06-1.04.732.732 0 0 0-1.04.06c-.68.77-2.01 1.25-3.46 1.25-1.46 0-2.78-.48-3.46-1.25l-.55-.63-.55.63c-.68.77-2.01 1.25-3.46 1.25-1.46 0-2.78-.48-3.46-1.25l-.55-.63-.55.62c-.68.77-2.01 1.25-3.47 1.25-1.45 0-2.78-.48-3.46-1.25a.723.723 0 0 0-1.04-.06c-.31.27-.34.74-.06 1.04.97 1.09 2.67 1.74 4.57 1.75 1.54.01 2.98-.44 3.98-1.22zm20.97-5.56c1.72 0 3.27-.59 4.14-1.59a.74.74 0 0 0-.06-1.04.732.732 0 0 0-1.04.06c-.59.67-1.76 1.09-3.04 1.09s-2.45-.42-3.04-1.09l-.55-.62-.55.63c-.59.67-1.76 1.09-3.04 1.09s-2.45-.42-3.04-1.09l-.55-.62-.55.63c-.59.67-1.76 1.09-3.04 1.09s-2.45-.42-3.04-1.09a.723.723 0 0 0-1.04-.06.74.74 0 0 0-.06 1.04c.88.99 2.43 1.58 4.15 1.58 1.4 0 2.69-.39 3.59-1.08.91.68 2.19 1.08 3.59 1.08s2.69-.39 3.59-1.08c.89.67 2.18 1.07 3.58 1.07zm-31.75-.56c1.48 0 2.83-.52 3.59-1.38a.822.822 0 0 0-1.23-1.09c-.45.51-1.36.83-2.36.83-1.01 0-1.91-.32-2.37-.83l-.62-.69-.62.69c-.45.51-1.36.83-2.36.83-1.01 0-1.91-.32-2.37-.83l-.62-.69-.62.69c-.45.51-1.36.83-2.36.83-1 0-1.91-.32-2.37-.83a.822.822 0 0 0-1.23 1.09c.77.87 2.11 1.38 3.6 1.38 1.14 0 2.2-.31 2.98-.84.78.54 1.84.84 2.98.84s2.2-.31 2.98-.84c.8.54 1.86.84 3 .84zm25.54 13.13c31.12-2.85 31.61-6.94 31.77-8.28.3-2.54-3.37-4.13-6.56-5.22-2.51-.96-3.03-1.76-3.01-1.96.04-.6 2.01-1.89 5.45-2.65 2.68-.6 3.75-1.8 4.18-2.7.45-.96.41-2.06-.11-3.09-.86-1.7-2.95-3.04-6.41-4.11-7.59-2.34-16.81-2.9-23.48-1.44-2.6.57-4.89 1.35-7.32 2.17-3.63 1.23-7.39 2.5-12.41 3.1-5.83.69-10.37.15-15.17-.43-2.41-.29-4.89-.59-7.66-.75C25.7 51.4 3.53 50.24.69 61.58c-.43 1.71-.11 3.41.94 5.05 2.77 4.32 9.83 6.97 15.03 7.93 11.63 2.15 24.06 2.92 34.65 2.92 6.15-.01 11.68-.27 16.06-.67zM34.68 55.19c6.45.98 15.54.23 15.54.23 5.26-.62 9.15-2.07 12.89-3.34 2.36-.8 11.74-5.18 27.98-.46 3.47 1.01 4.13 1.6 4.51 2.34.3.59.14.92.08 1.03-.28.6-1.22 1.11-2.56 1.41-1.65.37-7.06 1.8-7.28 4.77-.19 2.52 3.35 3.88 4.55 4.34 4.81 1.64 5.03 2.72 5.03 2.73-.08 1.36-7.17 3.85-28.62 5.82-2.61.24-24.32 2.07-48.24-2.36-6.14-1.14-11.9-3.23-13.82-6.22-.7-1.09-1.13-2.55-.86-3.63 1.74-6.97 13.98-7.71 20.9-7.71.88.01 7.54.69 9.9 1.05z"/>
</svg>
