<svg id="Layer_1" data-name="Layer 1" xmlns="http://www.w3.org/2000/svg" viewBox="0 0 91.56 91.56"><defs><style>.cls-1{fill:#fff;}</style></defs><title>sauna</title><path class="cls-1" d="M63.22,76.32H28.34A2.47,2.47,0,0,1,25.77,74v-37a2.48,2.48,0,0,1,2.57-2.37H63.22a2.48,2.48,0,0,1,2.57,2.37V74A2.47,2.47,0,0,1,63.22,76.32ZM28.27,73.81h35V37.08h-35Zm35.07-36.7h0Z"/><path class="cls-1" d="M58.74,43.76h-15a1.25,1.25,0,0,1,0-2.5h15a1.25,1.25,0,0,1,0,2.5Z"/><path class="cls-1" d="M58.16,69.16H33.4a.76.76,0,0,1-.75-.75V52.84a.76.76,0,0,1,.75-.75,15.69,15.69,0,0,0,5.9-1.7,16.93,16.93,0,0,1,6.48-1.83,17,17,0,0,1,6.48,1.83,15.69,15.69,0,0,0,5.9,1.7.76.76,0,0,1,.75.75V68.41A.76.76,0,0,1,58.16,69.16Zm-4.56-1.5h3.81V53.56a19.8,19.8,0,0,1-5.74-1.79,15.67,15.67,0,0,0-5.89-1.71,15.67,15.67,0,0,0-5.89,1.71,19.8,19.8,0,0,1-5.74,1.79v14.1h3.41A6.66,6.66,0,0,1,37,61.41c.18-.5.37-.92.54-1.29a3.23,3.23,0,0,0,.15-3.24.76.76,0,0,1,.19-.83c.23-.21,4,2.84,3.19,4.86-.71,1.81,1.16,3.4,1.45,3.67a1.18,1.18,0,0,0,1.09.39c.16-.08.23-.36.2-.76a5.3,5.3,0,0,0-.5-1c-.64-1.12-1.84-3.21.68-4.77.47-.3.92-.55,1.33-.79,2.25-1.29,2.93-1.68,1.82-4.08-.11-.25-.36-.64-.19-.86s.75.28,1,.4a4.22,4.22,0,0,1,2.44,2.22,3.3,3.3,0,0,1-.82,3.57A2.93,2.93,0,0,0,49,61.16a2,2,0,0,0,1.63,1.5c.69,0,2-1,1.87-3.66,0-.34-.26-1.15.06-1.25s.53.24.71.52C56.25,63,55,66,53.6,67.66Z"/><path class="cls-1" d="M39.22,23.63a1,1,0,0,1-.67-.25A4.67,4.67,0,0,1,38,17.19a2.57,2.57,0,0,0-.23-3.44,1,1,0,0,1,1.44-1.4,4.56,4.56,0,0,1,.4,6,2.7,2.7,0,0,0,.3,3.52A1,1,0,0,1,40,23.3,1,1,0,0,1,39.22,23.63Z"/><path class="cls-1" d="M45.72,22.94a1,1,0,0,1-.6-.2,4.82,4.82,0,0,1-1.94-3.36,5.1,5.1,0,0,1,1.19-3.77A2.73,2.73,0,0,0,44,11.49,1,1,0,0,1,45.36,10a4.73,4.73,0,0,1,.53,6.93,3,3,0,0,0-.72,2.26,2.84,2.84,0,0,0,1.16,2,1,1,0,0,1,.19,1.4A1,1,0,0,1,45.72,22.94Z"/><path class="cls-1" d="M52.47,23.63a1,1,0,0,1-.67-.25,4.68,4.68,0,0,1-.57-6.19A2.58,2.58,0,0,0,51,13.75a1,1,0,1,1,1.43-1.4,4.56,4.56,0,0,1,.41,6,2.7,2.7,0,0,0,.29,3.52,1,1,0,0,1-.67,1.74Z"/><circle class="cls-1" cx="39.04" cy="42.53" r="1.44"/><path class="cls-1" d="M28.92,37.31a.89.89,0,0,1-.67-.3.91.91,0,0,1-.22-.72c.36-2.9.87-4.62,1.52-5.1A9.4,9.4,0,0,1,31,30.27a.87.87,0,0,1,.8,0l.92.46c.29-1.05.87-1.89,1.85-1.89a38.25,38.25,0,0,0,3.85-.49.89.89,0,0,1,.83.3l.57.67,2.89-1.24a.86.86,0,0,1,.36-.08h4.66a.87.87,0,0,1,.45.13l2.57,1.48.35-.34a.7.7,0,0,1,.16-.13,6.46,6.46,0,0,1,3.72-.8,9.1,9.1,0,0,1,3.56,1.13,1,1,0,0,1,.24.22l.94,1.21,3.3.45a.89.89,0,0,1,.73.6l1.17,3.5a.9.9,0,0,1-.12.81.91.91,0,0,1-.72.38l-35.16.66Zm2.52-5.22a8.71,8.71,0,0,0-.81.54A13.56,13.56,0,0,0,30,35.49l32.89-.63-.61-1.81-3.11-.42a.9.9,0,0,1-.59-.34l-1-1.36a7.46,7.46,0,0,0-2.65-.8,4.77,4.77,0,0,0-2.54.5l-.74.75a.92.92,0,0,1-1.09.14l-3-1.71H43.27l-3.33,1.42a.89.89,0,0,1-1-.24l-.67-.78c-.88.14-2.65.4-3.53.43a3.79,3.79,0,0,0-.38,1.5.9.9,0,0,1-.46.71.89.89,0,0,1-.84,0Z"/></svg>