<svg id="Layer_1" data-name="Layer 1" xmlns="http://www.w3.org/2000/svg" viewBox="0 0 91.56 91.56"><defs><style>.cls-1{fill:#fff;}</style></defs><title>timantti</title><path class="cls-1" d="M73.47,34.27,62.82,23.61a1.18,1.18,0,0,0-.81-.33H29.55a1.16,1.16,0,0,0-.81.33L18.09,34.27A1.13,1.13,0,0,0,18,35.82l8.54,10.1A1.47,1.47,0,0,0,28,45.71a1.05,1.05,0,0,0,.42-1.16L21.76,36.7H35l8.2,25.54L34.47,51.86a1.2,1.2,0,0,0-1.37.23,1.27,1.27,0,0,0-.48,1.14L44.9,67.87a1.15,1.15,0,0,0,1.76,0L73.54,35.82A1.15,1.15,0,0,0,73.47,34.27ZM60.38,25.58,54,33.28l-6.67-7.7Zm-8.45,8.81H40l6-6.88Zm-7.34-8.81-6.67,7.7-6.36-7.7ZM21.22,34.39l8-8h0l6.62,8Zm24.5,28.22L37.4,36.7H53.87Zm2.46-.13,8.1-25.75a0,0,0,0,1,0,0H69.8Zm7.91-28.09,6.45-7.8,7.8,7.8Z"/><circle class="cls-1" cx="30.49" cy="49.07" r="1.4"/></svg>