<svg id="Layer_1" data-name="Layer 1" xmlns="http://www.w3.org/2000/svg" xmlns:xlink="http://www.w3.org/1999/xlink" viewBox="0 0 91.56 91.56"><defs><style>.cls-1{fill:none;}.cls-2,.cls-3{fill:#fff;}.cls-3{fill-rule:evenodd;}.cls-4{clip-path:url(#clip-path);}.cls-5{fill:#010101;}</style><clipPath id="clip-path"><rect class="cls-1" x="668.34" y="45.18" width="16.04" height="16.22"/></clipPath></defs><title>kello</title><path class="cls-2" d="M45.78,15.05A30.73,30.73,0,1,0,76.51,45.78,30.73,30.73,0,0,0,45.78,15.05Zm0,57.37A26.65,26.65,0,1,1,72.42,45.78,26.64,26.64,0,0,1,45.78,72.42Z"/><circle class="cls-2" cx="45.78" cy="45.78" r="3.16"/><path class="cls-3" d="M48.05,39.12l6.58-8.86a1.71,1.71,0,0,1,2.37-.4,1.84,1.84,0,0,1,.54,2.45L51.06,41.1c-.82,1.11-1.51,1.18-2.39.64A1.81,1.81,0,0,1,48.05,39.12Z"/><path class="cls-3" d="M56.8,66.13,47,52a1.69,1.69,0,0,1,.37-2.37,1.83,1.83,0,0,1,2.49.26l9.8,14c.79,1.13.64,1.82-.15,2.47A1.79,1.79,0,0,1,56.8,66.13Z"/><circle class="cls-2" cx="23.03" cy="45.76" r="2.07"/><circle class="cls-2" cx="68.35" cy="45.76" r="2.07"/><circle class="cls-2" cx="45.42" cy="68.4" r="2.07"/><circle class="cls-2" cx="45.27" cy="23.08" r="2.07"/><g class="cls-4"><path class="cls-5" d="M44.89,55.31A3.87,3.87,0,1,0,41,51.44,3.87,3.87,0,0,0,44.89,55.31Zm0-6.67a2.8,2.8,0,1,1-2.8,2.8A2.81,2.81,0,0,1,44.89,48.64Z"/><path class="cls-5" d="M48.49,69.91h1a.58.58,0,0,0,.43-.18.52.52,0,0,0,.14-.41l-.4-1.3h0a1.36,1.36,0,0,0,1.4-1.31V59.82A4,4,0,0,0,47,56H43.2a4,4,0,0,0-4.08,3.81v6.89A1.36,1.36,0,0,0,40.52,68h0l-.4,1.3a.49.49,0,0,0,.14.41.58.58,0,0,0,.43.18h1m1.15,0h4.51m-2.26.4,4.82-3.6h0a.25.25,0,0,1-.25.24h-.14l-1.06-7.81a.57.57,0,0,0-1.14.11l1.51,9.59H41.35l1.51-9.59a.56.56,0,0,0-.51-.59.57.57,0,0,0-.64.48L40.66,67h-.14a.25.25,0,0,1-.26-.24V59.82a2.85,2.85,0,0,1,2.94-2.74H47a2.84,2.84,0,0,1,2.93,2.74v6.89Z"/></g></svg>