<svg xmlns="http://www.w3.org/2000/svg" xml:space="preserve" viewBox="0 0 100 100">
  <path d="m97.55 70.08-1.29 1.69L55.3 23.6s-1.2-1.62-2.48-1.62-2.79 1.82-2.79 1.82L36.69 37.83s-.57 1.36.7 2.48c1.44 1.26 2.74.31 2.74.31 3.92-4.23 7.83-8.75 12.38-14.02 4.03 4.78 21.81 25.94 28.2 32.84v14.93l-8.35.08c-.08-.08-.17-.15-.27-.2-10.94-5.33-18.48-26.05-18.56-26.26-.16-.44-.55-.71-.97-.69-.43.02-.79.34-.91.79-4.6 17.49-16.6 25.8-16.72 25.89-.18.12-.31.29-.39.48l-10.64-.08.1-17.13c1.21-1.27 1.67-1.72 7.44-7.78 0 0 .78-1.17-.55-2.43-1.45-1.37-2.66-.55-2.66-.55L4 72.79l-1.93-1.46L.5 73.44l5.95 4.91 1.43-2-1.11-.95L19.8 61.31v16.73h64.91l-.09-14.46 9.4 10.97-.94 1.57 1.96 1.54 4.46-6.08-1.95-1.5zm-45.44 4.38H37.75c3.26-2.73 10.19-9.56 14.35-21.09v21.09zm.99 0v-22.1c2.43 5.68 7.84 16.65 15.23 22.1H53.1zM36.43 43.73a2.09 2.09 0 1 1-4.18 0c0-1.16.93-2.09 2.09-2.09 1.15.01 2.09.94 2.09 2.09z"/>
</svg>
