<svg xmlns="http://www.w3.org/2000/svg" xml:space="preserve" viewBox="0 0 100 100">
  <path d="M69.78 26.86c.34.34.54.81.54 1.29s-.19.95-.54 1.29c-.34.34-.81.54-1.29.54a1.842 1.842 0 0 1-1.83-1.83 1.842 1.842 0 0 1 1.83-1.83c.48 0 .95.19 1.29.54m16.49 21.25c-.34-.34-.81-.54-1.29-.54s-.95.19-1.29.54c-.34.34-.54.81-.54 1.29a1.842 1.842 0 0 0 1.83 1.83 1.842 1.842 0 0 0 1.83-1.83c0-.48-.2-.95-.54-1.29m13.12 6.06c-.2.56-.66.98-1.23 1.14-1.51.42-2.93.85-4.28 1.26-4.41 1.33-8.22 2.48-11.86 2.48-4.97 0-9.62-2.14-15.09-8.87-5.17 2.59-8.07 7.04-8.9 8.47.44 3.08 1.17 5.37 1.54 6.19.45.3.7.79.71 1.3 4.5 1.05 7.85 3.31 10.41 6.94 3.09.77 13.43 3.88 13.18 10.85-.03.99-.84 1.77-1.83 1.77h-.01l-69.26-.37c-.57 0-1.1-.27-1.44-.72-.35-.45-.46-1.03-.32-1.58.09-.33 1.93-7.08 7.31-10.33-.79-1.05-2.71-4.07-2.96-8.76-.79.17-1.75.3-2.81.3-1.7 0-3.65-.34-5.5-1.45C3.37 60.6 1.17 56.14.52 49.53c-.06-.5.12-.99.48-1.33.36-.34.86-.5 1.35-.43 10.77 1.63 13.63 2.2 14.96 7.09 1.38-2.64 4.16-3.26 10.94-4.48.5-.09 1 .06 1.37.39.37.34.56.83.52 1.33-.54 6.53-2.48 10.77-5.77 12.61-1.3.73-2.63.97-3.81.97-.79 0-1.5-.11-2.11-.25.6 3.63 2.29 5.61 2.38 5.71.09.1.13.22.19.33.01 0 .02-.01.03-.01 5.72-1.69 12.73.13 15.47.99 2.09-2.07 7.77-6.82 15.99-7.01 1.36-.03 2.64.01 3.85.1-.1-.25-.19-.51-.29-.81-1.1-3.29-1.97-8.14-1.62-13.41-3.91-.86-6.59-2.34-8.43-3.92-11.82-2.82-14.94-9.1-11.87-23.81.12-.56.5-1.04 1.02-1.28.53-.24 1.13-.23 1.64.05 15.06 8.07 13 19.92 12.08 23.2 1.39.99 3.3 1.91 5.93 2.53.29-1.77.73-3.57 1.36-5.34-.23-.23-.41-.52-.49-.86-.11-.45-2.7-11.04 3.3-19.58 6.1-8.69 20.61-8.01 21.22-7.98.5.03.96.26 1.29.63.32.38.48.87.44 1.37-.04.42-1.04 10.3-7.17 18.56-5.35 7.2-12.86 8.37-15.39 8.55-1.29 3.46-1.72 6.99-1.72 10.18 1.73-2.08 4.29-4.53 7.71-6.28.03-.33.14-.66.36-.94.23-.3 5.77-7.37 14.45-7.12 6.65.18 13.03 4.63 18.99 13.22.34.49.42 1.11.22 1.67zM42.48 42.48c-.29-.78-.38-1.31-.39-1.39-.13-.88.48-1.7 1.36-1.83.89-.14 1.69.48 1.83 1.35.01.08.14.7.58 1.57.38-3.64-.4-10.03-8.59-15.31-1.64 9.59.18 13.45 5.21 15.61zM19.04 62.27c.96.24 2.44.4 3.79-.38 1.94-1.1 3.26-3.83 3.87-7.94-3.37.63-5.27 1.09-6.13 1.84-.87.75-1.06 2.24-1.45 5.83l-.08.65zm-4-1.57c-.03-.26-.07-.5-.1-.75-.54-4.11-.78-5.57-1.96-6.43-1.3-.94-3.93-1.46-8.99-2.24.73 4.36 2.3 7.29 4.68 8.72 2.28 1.37 4.9 1.06 6.37.7zm37.57 8.41c-8.65.2-14.09 6.57-14.15 6.64-.5.59-1.32.81-2.04.54-.08-.03-8.39-3.06-14.32-1.3-3.53 1.05-5.62 4.39-6.68 6.69l64.29.34c-1.82-2.99-8.07-4.99-10.51-5.53-.47-.1-.88-.39-1.14-.79-2.22-3.39-5.85-6.82-15.45-6.59zm6.17-31.7c1.16-1.85 2.58-3.63 4.33-5.27a1.612 1.612 0 1 1 2.21 2.35 23.071 23.071 0 0 0-4.01 4.99c2.8-.6 7.17-2.24 10.53-6.77C75.8 27.37 77.4 21.13 77.99 18c-3.87.14-12.25 1.09-15.98 6.42-3.1 4.41-3.44 9.61-3.23 12.99zm35.87 15.11c-4.76-6.2-9.65-9.42-14.53-9.57-2.93-.09-5.48.98-7.44 2.22 2.23-.24 4.67-.15 7.34.41a1.613 1.613 0 1 1-.66 3.16c-3.33-.69-6.25-.54-8.79.1 7.46 8.69 12.65 7.13 22.25 4.24.6-.19 1.21-.38 1.83-.56zM42.54 35.29c-.34-.34-.81-.54-1.29-.54s-.95.19-1.29.54c-.34.34-.54.81-.54 1.29a1.842 1.842 0 0 0 1.83 1.83 1.842 1.842 0 0 0 1.83-1.83c-.01-.49-.2-.95-.54-1.29"/>
</svg>
