<svg xmlns="http://www.w3.org/2000/svg" xml:space="preserve" viewBox="0 0 100 100">
  <path d="M62.3 82.62c0 1.01-.82 1.82-1.82 1.82s-1.82-.82-1.82-1.82a1.82 1.82 0 0 1 3.64 0zM39.34 11.16C39.34 5.28 44.12.5 50 .5s10.66 4.78 10.66 10.66S55.88 21.82 50 21.82s-10.66-4.78-10.66-10.66zm2.95 0c0 4.25 3.46 7.71 7.71 7.71s7.71-3.46 7.71-7.71S54.25 3.45 50 3.45s-7.71 3.46-7.71 7.71zm26.77 24.81v23.4c0 2.11-1.74 3.83-3.88 3.83h-.05l1.1 7.45c.05.44-.09.89-.4 1.22-.3.33-.73.52-1.18.52h-2.68v4.5c0 .87-.71 1.57-1.59 1.57s-1.59-.7-1.59-1.57v-4.5H41.21v23.29c0 .38.32.7.71.7h5.79c.39 0 .71-.31.71-.7V75.11c0-.87.71-1.57 1.59-1.57s1.59.7 1.59 1.57v20.56c0 .38.32.7.71.7h5.79c.39 0 .71-.31.71-.7v-7.28c0-.87.71-1.57 1.59-1.57.88 0 1.59.7 1.59 1.57v7.28c0 2.11-1.74 3.83-3.88 3.83H52.3c-.86 0-1.65-.28-2.3-.75-.64.47-1.44.75-2.3.75h-5.79c-2.14 0-3.88-1.72-3.88-3.83V72.38h-2.68c-.45 0-.88-.19-1.18-.52-.3-.33-.44-.77-.4-1.22l1.1-7.45h-.05c-2.14 0-3.88-1.72-3.88-3.83v-23.4c0-6.14 5.06-11.14 11.29-11.14h15.55c6.22.02 11.28 5.01 11.28 11.15zm-3.17 23.4v-23.4c0-4.41-3.64-8-8.11-8H42.23c-4.47 0-8.11 3.59-8.11 8v23.4c0 .38.32.7.71.7h.4l2.91-26.1c.1-.86.88-1.48 1.75-1.39.87.09 1.5.87 1.41 1.73l-4.16 34.94H62.89l-4.16-34.94c-.1-.86.53-1.63 1.41-1.73.87-.09 1.66.53 1.75 1.39l2.91 26.1h.4c.37 0 .69-.32.69-.7z"/>
</svg>
