<svg id="Layer_1" data-name="Layer 1" xmlns="http://www.w3.org/2000/svg" viewBox="0 0 91.56 91.56"><defs><style>.cls-1,.cls-2{fill:#fff;}.cls-1{fill-rule:evenodd;}</style></defs><title>muistilista</title><path class="cls-1" d="M43.34,37.48l15.49,0c.81,0,1.46.29,1.48,1.1s-.49,1.21-1.3,1.23l-15.52.08c-1.2,0-1.57-.35-1.57-1.12S42.24,37.54,43.34,37.48Z"/><path class="cls-1" d="M43.34,47.8l15.49,0c.81,0,1.46.29,1.48,1.1s-.49,1.21-1.3,1.23l-15.52.08c-1.2,0-1.57-.35-1.57-1.11S42.24,47.86,43.34,47.8Z"/><path class="cls-1" d="M43.34,57.92l15.49,0c.81,0,1.46.28,1.48,1.09s-.49,1.21-1.3,1.24l-15.52.08c-1.2,0-1.57-.35-1.57-1.12S42.24,58,43.34,57.92Z"/><path class="cls-2" d="M64.66,20H60.59a2,2,0,0,0-1.5,1.8,1.94,1.94,0,0,0,1.5,1.85h3.7V72.48h-37V23.6h3.67a2,2,0,0,0,1.5-1.81A2.06,2.06,0,0,0,30.94,20h-4a3.31,3.31,0,0,0-3.31,3.29V72.85a3.3,3.3,0,0,0,3.31,3.28H64.66A3.3,3.3,0,0,0,68,72.85V23.24A3.31,3.31,0,0,0,64.66,20Z"/><path class="cls-2" d="M38.52,26H53a4.19,4.19,0,0,0,4.19-4.19V20.2A1.16,1.16,0,0,0,56,19H51.2a5.44,5.44,0,1,0-10.87,0H35.5a1.17,1.17,0,0,0-1.17,1.16v1.58A4.2,4.2,0,0,0,38.52,26Zm7.24-9.16A2.23,2.23,0,1,1,43.53,19,2.23,2.23,0,0,1,45.76,16.81Z"/><path class="cls-2" d="M39.34,55.34a.76.76,0,0,0-1.05,0l-3.78,3.79-1.64-1.64a.74.74,0,0,0-1,0l-.62.62a.73.73,0,0,0,0,1L34,61.94a.72.72,0,0,0,1,0L40,57a.72.72,0,0,0,0-1Z"/><path class="cls-2" d="M40,45.94l-.62-.62a.74.74,0,0,0-1.05,0L34.51,49.1l-1.64-1.64a.74.74,0,0,0-1,0l-.62.62a.74.74,0,0,0,0,1.05L34,51.91a.72.72,0,0,0,1,0L40,47a.72.72,0,0,0,0-1Z"/><path class="cls-2" d="M40,35.91l-.62-.62a.74.74,0,0,0-1.05,0l-3.78,3.78-1.64-1.64a.76.76,0,0,0-1,0l-.62.63a.73.73,0,0,0,0,1L34,41.89a.75.75,0,0,0,1,0L40,37a.74.74,0,0,0,0-1.05Z"/></svg>