<svg id="Layer_1" data-name="Layer 1" xmlns="http://www.w3.org/2000/svg" viewBox="0 0 91.56 91.56"><defs><style>.cls-1{fill:#fff;}</style></defs><title>info</title><path class="cls-1" d="M70.69,35.26a26.21,26.21,0,0,0-2.49-4.6,27.16,27.16,0,0,0-7.3-7.3,26.21,26.21,0,0,0-4.6-2.49,27.07,27.07,0,0,0-21,0,26.49,26.49,0,0,0-4.59,2.49,27.16,27.16,0,0,0-7.3,7.3,26.21,26.21,0,0,0-2.49,4.6,27,27,0,0,0,0,21,26.21,26.21,0,0,0,2.49,4.6,27.16,27.16,0,0,0,7.3,7.3,26.49,26.49,0,0,0,4.59,2.49,27.07,27.07,0,0,0,21,0,26.21,26.21,0,0,0,4.6-2.49,27.16,27.16,0,0,0,7.3-7.3,26.21,26.21,0,0,0,2.49-4.6,27,27,0,0,0,0-21ZM45.78,68.14A22.36,22.36,0,1,1,68.14,45.78,22.38,22.38,0,0,1,45.78,68.14Z"/><path class="cls-1" d="M49.25,34.27a3.48,3.48,0,1,1-3.47-3.47A3.47,3.47,0,0,1,49.25,34.27Z"/><path class="cls-1" d="M48.47,58.05a2.51,2.51,0,0,1-2.69,2.71h0a2.51,2.51,0,0,1-2.69-2.71V43.68c0-1.84,1.21-2.5,2.69-2.5h0c1.48,0,2.69.66,2.69,2.5Z"/></svg>