<svg id="Layer_1" data-name="Layer 1" xmlns="http://www.w3.org/2000/svg" viewBox="0 0 91.56 91.56"><defs><style>.cls-1{fill:#fff;}</style></defs><title>raha</title><path class="cls-1" d="M45.68,54.17V52.62l-4.22,1.72,0-11.78L29.59,35.74,34,34.1l11.77,6.71a2.83,2.83,0,0,1,1-1.45L36.19,33.28,45,30,56.47,36.3l-3,1.23a19.17,19.17,0,0,1,4.45.34H58a1.64,1.64,0,0,0,.31-.28l.12-.16a1.94,1.94,0,0,0,.1-.17h0a2,2,0,0,0-.79-2.68h0L45.91,28.15h0a1.93,1.93,0,0,0-1.16-.23l-.24,0h0l-.24.07h0l-26.89,10a2,2,0,0,0-.8.55l-.12.15h0l-.11.17h0A2,2,0,0,0,16.44,41a1.75,1.75,0,0,0,.28.33,2.09,2.09,0,0,0,.36.26h0l.37.22-.08,0a2,2,0,0,0-.8.54l-.12.16h0l-.11.17h0a2,2,0,0,0,.09,2.1,1.75,1.75,0,0,0,.28.33,1.69,1.69,0,0,0,.36.27h0l.61.36-.32.12a2.06,2.06,0,0,0-.8.54l-.12.16h0l-.11.17h0a2,2,0,0,0,.09,2.1,1.81,1.81,0,0,0,.28.34,2.09,2.09,0,0,0,.36.26h0l.61.36-.32.12a2.06,2.06,0,0,0-.8.54l-.12.16h0l-.11.17h0a2,2,0,0,0,.09,2.1,1.81,1.81,0,0,0,.28.34,2.09,2.09,0,0,0,.36.26h0l12.16,7a2,2,0,0,0,1.31.33l.27,0,.27-.09h0l14.7-6A1.86,1.86,0,0,1,45.68,54.17ZM45,30h0Zm-.07,0ZM27.4,36.56l11.78,6.75-8.81,3.57h0l-12-6.94ZM39.78,55l-9.41,3.81h0l-12-6.94,1.72-.64,9.19,5.3a2,2,0,0,0,1.31.33l.27,0,.27-.09h0l8.67-3.51Zm0-4.06-9.41,3.81h0l-12-6.94,1.72-.64,9.19,5.3a2,2,0,0,0,1.31.33,1.28,1.28,0,0,0,.27-.05l.27-.08h0l8.67-3.51Zm0-4.07-9.41,3.82h0l-12-6.94,1.47-.55,9.44,5.44a2,2,0,0,0,1.31.33,1.26,1.26,0,0,0,.27,0,1.71,1.71,0,0,0,.27-.09h0l8.67-3.51Z"/><path class="cls-1" d="M76.05,55.06c0,1.19-1.06,2.2-2.78,2.87a15.6,15.6,0,0,1-4.85.93c-.16,1.06-1.19,2-2.75,2.56a17.86,17.86,0,0,1-11.51,0c-1.71-.67-2.78-1.67-2.78-2.87v-.63A14.66,14.66,0,0,1,47.31,57c-1.72-.67-2.78-1.67-2.78-2.87V41.32c0-1.19,1.06-2.21,2.78-2.87a17.86,17.86,0,0,1,11.51,0l.17.07v-.64c0-1.2,1.06-2.21,2.77-2.88a18,18,0,0,1,11.51,0c1.72.67,2.78,1.68,2.78,2.88V55.06Zm-7.6,2.19a14,14,0,0,0,4.25-.81c1.08-.42,1.75-.91,1.75-1.38V53a7.62,7.62,0,0,1-1.18.57,15.52,15.52,0,0,1-4.82.93v2.72Zm0-4.33a13.67,13.67,0,0,0,4.26-.81c1.08-.42,1.75-.91,1.75-1.38v-2a7.62,7.62,0,0,1-1.18.57,15.53,15.53,0,0,1-4.83.93v2.72Zm-.55-4.31a14.44,14.44,0,0,0,4.81-.83c1.08-.43,1.75-.91,1.75-1.38v-2a7.62,7.62,0,0,1-1.18.57,17.86,17.86,0,0,1-11.51,0,8.36,8.36,0,0,1-1.16-.56c0,.68,0,1.41,0,1.81a15.62,15.62,0,0,1,5.08.94,5.29,5.29,0,0,1,2.22,1.45ZM59,46.23v-2.1l-.17.07a18,18,0,0,1-11.51,0,6.82,6.82,0,0,1-1.18-.58c0,.65,0,1.29,0,1.93,0,.47.67,1,1.75,1.37a14.64,14.64,0,0,0,5,.84,7,7,0,0,1,1.23-.6A15.53,15.53,0,0,1,59,46.23Zm-7.47,3.08a15.23,15.23,0,0,1-4.21-.89,7.49,7.49,0,0,1-1.17-.57c0,.81,0,1.68,0,2s.67.95,1.75,1.37a13.34,13.34,0,0,0,3.51.76V50a2,2,0,0,1,.13-.72Zm-.14,4.28a15.11,15.11,0,0,1-4.07-.88,7.49,7.49,0,0,1-1.17-.57c0,.83,0,1.71,0,2s.67,1,1.75,1.37a13,13,0,0,0,3.5.76V53.59Zm15.46,3a7.5,7.5,0,0,1-1.17.58,18,18,0,0,1-11.51,0A8,8,0,0,1,53,56.56v2c0,.46.66.95,1.75,1.37a16.36,16.36,0,0,0,10.35,0c1.09-.42,1.75-.91,1.75-1.38,0-.32,0-1.18,0-2Zm-12.1-5.13a16.5,16.5,0,0,0,10.35,0c.45-.18,1.77-.7,1.76-1.39,0-.47-.67-1-1.76-1.38a16.36,16.36,0,0,0-10.35,0C53.65,49.07,53,49.56,53,50c0,.71,1.26,1.19,1.76,1.39ZM53,52.33c0,.64,0,1.29,0,1.93,0,.47.66,1,1.75,1.37a16.36,16.36,0,0,0,10.35,0c1.09-.42,1.75-.91,1.75-1.37,0-.64,0-1.29,0-1.93h0a6.71,6.71,0,0,1-1.17.58,18,18,0,0,1-11.51,0A6.38,6.38,0,0,1,53,52.33Zm6-9.95v-2.1a6.66,6.66,0,0,0-.75-.34,16.36,16.36,0,0,0-10.35,0c-1.09.42-1.77.92-1.76,1.38,0,.71,1.26,1.19,1.75,1.39a16.53,16.53,0,0,0,10.36,0c.17-.07.45-.18.75-.33Zm3.35-3.12a16.39,16.39,0,0,0,10.36,0c.45-.17,1.76-.69,1.75-1.38,0-.47-.67-1-1.75-1.38a16.39,16.39,0,0,0-10.36,0c-1.08.42-1.77.91-1.75,1.38,0,.71,1.25,1.19,1.75,1.38Zm-1.75.92c0,.64,0,1.29,0,1.93,0,.47.67,1,1.75,1.37a16.39,16.39,0,0,0,10.36,0c1.08-.42,1.75-.91,1.75-1.38V40.18h0a7.63,7.63,0,0,1-1.18.58,18,18,0,0,1-11.51,0,7.5,7.5,0,0,1-1.17-.58Z"/></svg>