<svg id="Layer_1" data-name="Layer 1" xmlns="http://www.w3.org/2000/svg" viewBox="0 0 91.56 91.56"><defs><style>.cls-1{fill:#fff;}</style></defs><title>sairaala</title><path class="cls-1" d="M38.72,39.13a8.71,8.71,0,1,0-8.7-8.7A8.71,8.71,0,0,0,38.72,39.13Zm0-14.72a6,6,0,1,1-6,6A6,6,0,0,1,38.73,24.41Z"/><path class="cls-1" d="M55.76,58.5a1.33,1.33,0,0,0-1.32,1.33v9.85a.86.86,0,0,1-.86.86H50.34V51.7a1.33,1.33,0,1,0-2.66,0V75.76a.85.85,0,0,1-.86.85H32c-.47,0-.76-.72-.76-.72s.12-10,.12-10.21c0-1.42-1.07-1.3-1.07-1.3l-5.05,0a.85.85,0,0,1-.85-.85V51.7a7.91,7.91,0,0,1,7.91-7.91h14.2a7.91,7.91,0,0,1,7.91,7.91,1.33,1.33,0,1,0,2.65,0A10.58,10.58,0,0,0,46.52,41.13H32.33A10.58,10.58,0,0,0,21.76,51.7V63.49A3.52,3.52,0,0,0,25.27,67h3.24v8.76A3.52,3.52,0,0,0,32,79.27H46.82a3.52,3.52,0,0,0,3.52-3.51V73.2h3.24a3.52,3.52,0,0,0,3.51-3.52V59.83A1.33,1.33,0,0,0,55.76,58.5Z"/><path class="cls-1" d="M43.23,60.14a4,4,0,0,0-2.65-.59l-3-.06s-.1-.11-.11-.11l-6.12-15.9-2.95.35,8.26,20.66-7.91-.11v2.71l9.56.06s.9,0,1.25-.34h.92a6.49,6.49,0,0,0,2.18-.29c1.32-.73,1.77-1.54,1.8-3.43A3.08,3.08,0,0,0,43.23,60.14Zm-3.07,4.13-.76,0L38.51,62l1.8,0a1.22,1.22,0,0,1,1.24,1.12C41.58,64,40.53,64.27,40.16,64.27Z"/><path class="cls-1" d="M55.82,54.53h0a1.25,1.25,0,1,0,0,2.49h0a1.25,1.25,0,1,0,0-2.49"/><path class="cls-1" d="M67.54,25.05H59.36a1.1,1.1,0,0,0-.71,1,1.19,1.19,0,0,0,.71,1.06h8.18A1.29,1.29,0,0,0,68.23,26a1,1,0,0,0-.69-.95"/><path class="cls-1" d="M62.41,22.05l0,8a1.15,1.15,0,0,0,1,.7,1.2,1.2,0,0,0,1.07-.69l.05-8a1.33,1.33,0,0,0-1.13-.68,1,1,0,0,0-1,.67"/><path class="cls-1" d="M71.42,17.51h-16a.74.74,0,0,0-.75.74V33.92a.74.74,0,0,0,.75.74h16a.75.75,0,0,0,.75-.74V18.25A.75.75,0,0,0,71.42,17.51Zm-1.73,14a.74.74,0,0,1-.75.74h-11a.75.75,0,0,1-.75-.74V20.68a.75.75,0,0,1,.75-.74h11a.74.74,0,0,1,.75.74Z"/></svg>