<svg xmlns="http://www.w3.org/2000/svg" xml:space="preserve" viewBox="0 0 100 100">
  <path d="M39.86 47.5h-6.32c-.73 0-1.33-.59-1.33-1.33v-3.42h-3.48c-.73 0-1.33-.59-1.33-1.33v-6.24c0-.73.59-1.33 1.33-1.33h3.48v-3.42c0-.73.59-1.33 1.33-1.33h6.32c.73 0 1.33.59 1.33 1.33v3.42h3.48c.73 0 1.33.59 1.33 1.33v6.24c0 .73-.59 1.33-1.33 1.33h-3.48v3.42c0 .74-.6 1.33-1.33 1.33zm-4.99-2.65h3.67v-3.42c0-.73.59-1.33 1.33-1.33h3.48v-3.58h-3.48c-.73 0-1.33-.59-1.33-1.33v-3.42h-3.67v3.42c0 .73-.59 1.33-1.33 1.33h-3.48v3.58h3.48c.73 0 1.33.59 1.33 1.33v3.42zm-9.22 7.07a1.815 1.815 0 0 0-.3-.73 1.81 1.81 0 0 0-.25-.3c-.09-.09-.19-.18-.31-.25a2.211 2.211 0 0 0-.72-.3 2.013 2.013 0 0 0-2.06.85c-.07.11-.14.23-.19.35-.05.12-.09.25-.12.38-.02.13-.04.26-.04.39s.01.26.04.39.06.25.12.38c.05.12.11.24.19.35.07.11.16.21.25.31.37.37.89.59 1.42.59.13 0 .26-.01.39-.04s.25-.06.38-.11c.12-.05.23-.11.34-.18.11-.07.21-.16.31-.25.09-.09.18-.19.25-.31.07-.11.13-.22.19-.35.05-.12.09-.25.11-.38.02-.13.04-.26.04-.39 0-.14-.02-.27-.04-.4m72.34 13.77h-.87l.06-11.6v-.03c.58-.25 1.07-.76 1.07-1.36 0-.19-.03-.36-.1-.53-.64-2.23-2.95-4.29-5.27-4.76-2.17-.44-5.57-3.29-6.36-5.15-.72-1.88-1.54-4.18-2.34-6.42-.88-2.46-1.71-4.79-2.41-6.57-1.08-2.73-1.64-3.84-2.85-3.84h-1.75v-3.47c0-.83-.68-1.51-1.51-1.51H68.9c-.83 0-1.51.68-1.51 1.51v3.47h-1.06v-2.01c0-1.79-.95-1.78-2.12-1.78H3.31c-1.17 0-2.12-.01-2.12 1.78v42.52c-.42.27-.69.73-.69 1.26v4.77c0 .83.68 1.51 1.51 1.51h6.82c.72 0 1.32-.5 1.47-1.18h3.52c.93 4.14 4.66 7.25 9.12 7.25s8.19-3.11 9.12-7.25H65.4c.93 4.14 4.67 7.25 9.12 7.25 4.48 0 8.23-3.13 9.14-7.3.07.03.14.05.21.05h5.82c.15.67.75 1.18 1.47 1.18h6.82c.83 0 1.51-.68 1.51-1.51V67.2a1.5 1.5 0 0 0-1.5-1.51zM66.33 54.21h27.92v.05l-27.92-.01v-.04zm15.11-17.32a345.3 345.3 0 0 0 2.12 5.85h-8.81c-.01 0-1.53-.32-2.93-7.42-.51-2.6-.83-5.23-1-6.86h7.41c.7 1.37 2.13 5.4 3.21 8.43zM70.41 23.47h3.74v1.96h-3.74v-1.96zm-2.52 4.98c.16 1.65.5 4.53 1.07 7.44 1.32 6.73 3.16 9.86 5.79 9.86H85.2c.71 1.55 1.71 2.06 2.52 2.37 1.27.49 4.01 1.28 5.08 1.9.32.18.65.38.98.58l-27.45-.01V28.45h1.56zM27.61 72.3c-.79 1.76-2.58 3-4.67 3-2.08 0-3.88-1.24-4.67-3-.28-.61-.43-1.29-.43-2 0-.58.12-1.13.31-1.65.7-1.94 2.57-3.35 4.79-3.35s4.09 1.41 4.79 3.35c.2.52.16 3.04-.12 3.65zm4.53-3.65c-.79-4.31-4.61-7.6-9.19-7.6s-8.4 3.28-9.19 7.6h-3.41V67.2c0-.83-.68-1.51-1.51-1.51H5.07V25.85h57.24v24.73l-32.05-.02a1.83 1.83 0 0 0 0 3.66l32.05.02v14.4H32.14zm42.38 6.65c-2.81 0-5.1-2.24-5.1-5s2.29-5 5.1-5c2.81 0 5.1 2.24 5.1 5s-2.29 5-5.1 5zm0-14.25c-3.52 0-6.6 1.94-8.19 4.8V54.26h27.92l-.31 11.43h-2.77c-.83 0-1.51.68-1.51 1.51v1.44h-5.94c-.8-4.31-4.62-7.59-9.2-7.59z"/>
</svg>
