<svg id="Layer_1" data-name="Layer 1" xmlns="http://www.w3.org/2000/svg" viewBox="0 0 91.56 91.56"><defs><style>.cls-1{fill:#fff;}.cls-2{fill:none;stroke:#4a8ecc;stroke-miterlimit:10;stroke-width:0.5px;}</style></defs><title>pyora</title><path class="cls-1" d="M68.93,65.18a9.89,9.89,0,0,1-3.73-19l.54,2.15A7.7,7.7,0,1,0,74.61,60.5a1.4,1.4,0,0,0-2.06-1.9,4.9,4.9,0,1,1-6.11-7.52l1.14,4.55a1.39,1.39,0,0,0,1.35,1.06,1.27,1.27,0,0,0,.34,0,1.39,1.39,0,0,0,1-1.7L69.15,50.4A4.94,4.94,0,0,1,72.58,52a1.4,1.4,0,1,0,2.08-1.87,7.72,7.72,0,0,0-5.72-2.55l-.48,0-.54-2.15c.33,0,.67-.05,1-.05a9.89,9.89,0,0,1,0,19.77M63.87,35.37l-.08-.32-.62-2.73,0-.16.75-.17,0,.18.62,2.73.68,3,.16.7-.75.17-.07-.3ZM59.5,39.1l-.09-.34a1.4,1.4,0,0,0-2.29-.67l-9,8.23A3.24,3.24,0,0,0,47,48.57a3.33,3.33,0,0,0,.13,1l-1.16,1a6.23,6.23,0,0,0-3.85-1.33,5.32,5.32,0,0,0-.69,0L38.81,40,61.05,35.6l.41,1.83Zm-8.89,10A.46.46,0,0,1,50,49a.45.45,0,0,1,0-.64l7.31-6.68.27,1Zm-5.15,7.57-1.07-1-1.3-1.16a1.09,1.09,0,0,0-.17-.13,1.4,1.4,0,0,0-1.7,2.21l.59.53.29.26,1.49,1.33a3.43,3.43,0,0,1-1.43.31,3.46,3.46,0,0,1-3.47-3.47,3.58,3.58,0,0,1,.22-1.23,3.5,3.5,0,0,1,.75-1.17,3.45,3.45,0,0,1,2.5-1.07h.11a3.45,3.45,0,0,1,1.53.41,3.48,3.48,0,0,1,1.66,4.14M36,54.32H34.26a12.16,12.16,0,0,0-3.1-6.76l5.2-5.92,2.46,8.6A6.26,6.26,0,0,0,36,54.32m-10.78,0,.58-.66a4,4,0,0,1,.31.66Zm-4.49,1.44s0,.06,0,.08a.17.17,0,0,0,0,.07.13.13,0,0,0,0,.06s0,0,0,.08a1978004512776.92,1978004512776.92,0,0,0,0,.12.64.64,0,0,0,0,.07l0,.06,0,.06,0,.06a.21.21,0,0,0,0,.06l0,.05,0,.06.05.05,0,0,.06.06,0,0h0l0,0,.06,0,.05,0,.06,0,.05,0,.07,0,.05,0,.07,0,.06,0,.07,0h4.34a4.25,4.25,0,1,1-2.47-5.28l-2.6,3h0l0,.07,0,.05L21,55l0,.05,0,.07,0,.06,0,.06s0,0,0,.06a.64.64,0,0,1,0,.07.64.64,0,0,0,0,.07v.06s0,.05,0,.07v.06s0,.06,0,.08v.06m1.4,9.43a9.41,9.41,0,1,1,5.05-17.34L25.6,49.65a7,7,0,1,0,3.45,7.46h2.4a9.42,9.42,0,0,1-9.31,8.06m7.16-15.5a9.32,9.32,0,0,1,2.13,4.64H29a7,7,0,0,0-1.31-2.84ZM32,34l-.91-3c4.63-.84,8.13-1.23,9.37-1,.74.11,1.08.33,1.14.48a1.58,1.58,0,0,1-.16,1C38.22,31.1,34.6,32.59,32,34m36.92,8.63a13.73,13.73,0,0,0-1.7.11l-.4-1.59a2,2,0,0,0,1.47-2.36l-1.87-8.21a2,2,0,0,0-2.36-1.49l-.07,0-.4-1.86a.49.49,0,0,1,.08-.36A.44.44,0,0,1,64,26.7l5.35-.31a.62.62,0,0,1,.62.39.63.63,0,0,1-.25.75l-1.52.94a1.4,1.4,0,0,0,1.47,2.38l1.52-1a3.42,3.42,0,0,0-2-6.31l-5.36.32a3.21,3.21,0,0,0-2.38,1.27,3.26,3.26,0,0,0-.59,2.63l.42,2a1.8,1.8,0,0,0-.8.72A1.89,1.89,0,0,0,60.22,32l.21.9L38,37.33l-.74-2.58a8.94,8.94,0,0,1,4.57-.43,1.41,1.41,0,0,0,1.47-.55c.17-.24,1.7-2.46.86-4.44-.34-.81-1.19-1.84-3.3-2.16s-6.72.41-10.31,1.06a2.77,2.77,0,0,0-1.88,1.29,2.8,2.8,0,0,0-.29,2.26l.93,3a2.8,2.8,0,0,0,2.67,2,2.7,2.7,0,0,0,1.32-.34c.45-.24.9-.47,1.34-.67l.77,2.66-6.39,7.28A12.2,12.2,0,0,0,9.94,55.77a12.2,12.2,0,0,0,24.33,1.35h1.81a6.27,6.27,0,0,0,9.69,3.55l1.06.95-.89.83a1.4,1.4,0,0,0,1,2.42,1.38,1.38,0,0,0,1-.38l3.88-3.64a1.4,1.4,0,1,0-1.91-2l-.95.88-1.24-1.11a6.22,6.22,0,0,0,.14-5.8L49,51.72A3.33,3.33,0,0,0,50.3,52a3.23,3.23,0,0,0,2.19-.85l7.59-6.93a1.37,1.37,0,0,0,.41-1.39l-.19-.71,1.89-1.61a2,2,0,0,0,.77.93,2,2,0,0,0,1.05.3h.08l.42,1.68a12.7,12.7,0,1,0,4.42-.79"/><path class="cls-2" d="M68.93,65.18a9.89,9.89,0,0,1-3.73-19l.54,2.15A7.7,7.7,0,1,0,74.61,60.5a1.4,1.4,0,0,0-2.06-1.9,4.9,4.9,0,1,1-6.11-7.52l1.14,4.55a1.39,1.39,0,0,0,1.35,1.06,1.27,1.27,0,0,0,.34,0,1.39,1.39,0,0,0,1-1.7L69.15,50.4A4.94,4.94,0,0,1,72.58,52a1.4,1.4,0,1,0,2.08-1.87,7.72,7.72,0,0,0-5.72-2.55l-.48,0-.54-2.15c.33,0,.67-.05,1-.05a9.89,9.89,0,0,1,0,19.77ZM63.87,35.37l-.08-.32-.62-2.73,0-.16.75-.17,0,.18.62,2.73.68,3,.16.7-.75.17-.07-.3ZM59.5,39.1l-.09-.34a1.4,1.4,0,0,0-2.29-.67l-9,8.23A3.24,3.24,0,0,0,47,48.57a3.33,3.33,0,0,0,.13,1l-1.16,1a6.23,6.23,0,0,0-3.85-1.33,5.32,5.32,0,0,0-.69,0L38.81,40,61.05,35.6l.41,1.83Zm-8.89,10A.46.46,0,0,1,50,49a.45.45,0,0,1,0-.64l7.31-6.68.27,1Zm-5.15,7.57-1.07-1-1.3-1.16a1.09,1.09,0,0,0-.17-.13,1.4,1.4,0,0,0-1.7,2.21l.59.53.29.26,1.49,1.33a3.43,3.43,0,0,1-1.43.31,3.46,3.46,0,0,1-3.47-3.47,3.58,3.58,0,0,1,.22-1.23,3.5,3.5,0,0,1,.75-1.17,3.45,3.45,0,0,1,2.5-1.07h.11a3.45,3.45,0,0,1,1.53.41,3.48,3.48,0,0,1,1.66,4.14ZM36,54.32H34.26a12.16,12.16,0,0,0-3.1-6.76l5.2-5.92,2.46,8.6A6.26,6.26,0,0,0,36,54.32Zm-10.78,0,.58-.66a4,4,0,0,1,.31.66Zm-4.49,1.44s0,.06,0,.08a.17.17,0,0,0,0,.07.13.13,0,0,0,0,.06s0,0,0,.08a1978004512776.92,1978004512776.92,0,0,0,0,.12.64.64,0,0,0,0,.07l0,.06,0,.06,0,.06a.21.21,0,0,0,0,.06l0,.05,0,.06.05.05,0,0,.06.06,0,0h0l0,0,.06,0,.05,0,.06,0,.05,0,.07,0,.05,0,.07,0,.06,0,.07,0h4.34a4.25,4.25,0,1,1-2.47-5.28l-2.6,3h0l0,.07,0,.05L21,55l0,.05,0,.07,0,.06,0,.06s0,0,0,.06a.64.64,0,0,1,0,.07.64.64,0,0,0,0,.07v.06s0,.05,0,.07v.06s0,.06,0,.08v.06Zm1.4,9.43a9.41,9.41,0,1,1,5.05-17.34L25.6,49.65a7,7,0,1,0,3.45,7.46h2.4A9.42,9.42,0,0,1,22.14,65.18Zm7.16-15.5a9.32,9.32,0,0,1,2.13,4.64H29a7,7,0,0,0-1.31-2.84ZM32,34l-.91-3c4.63-.84,8.13-1.23,9.37-1,.74.11,1.08.33,1.14.48a1.58,1.58,0,0,1-.16,1C38.22,31.1,34.6,32.59,32,34Zm36.92,8.63a13.73,13.73,0,0,0-1.7.11l-.4-1.59a2,2,0,0,0,1.47-2.36l-1.87-8.21a2,2,0,0,0-2.36-1.49l-.07,0-.4-1.86a.49.49,0,0,1,.08-.36A.44.44,0,0,1,64,26.7l5.35-.31a.62.62,0,0,1,.62.39.63.63,0,0,1-.25.75l-1.52.94a1.4,1.4,0,0,0,1.47,2.38l1.52-1a3.42,3.42,0,0,0-2-6.31l-5.36.32a3.21,3.21,0,0,0-2.38,1.27,3.26,3.26,0,0,0-.59,2.63l.42,2a1.8,1.8,0,0,0-.8.72A1.89,1.89,0,0,0,60.22,32l.21.9L38,37.33l-.74-2.58a8.94,8.94,0,0,1,4.57-.43,1.41,1.41,0,0,0,1.47-.55c.17-.24,1.7-2.46.86-4.44-.34-.81-1.19-1.84-3.3-2.16s-6.72.41-10.31,1.06a2.77,2.77,0,0,0-1.88,1.29,2.8,2.8,0,0,0-.29,2.26l.93,3a2.8,2.8,0,0,0,2.67,2,2.7,2.7,0,0,0,1.32-.34c.45-.24.9-.47,1.34-.67l.77,2.66-6.39,7.28A12.2,12.2,0,0,0,9.94,55.77a12.2,12.2,0,0,0,24.33,1.35h1.81a6.27,6.27,0,0,0,9.69,3.55l1.06.95-.89.83a1.4,1.4,0,0,0,1,2.42,1.38,1.38,0,0,0,1-.38l3.88-3.64a1.4,1.4,0,1,0-1.91-2l-.95.88-1.24-1.11a6.22,6.22,0,0,0,.14-5.8L49,51.72A3.33,3.33,0,0,0,50.3,52a3.23,3.23,0,0,0,2.19-.85l7.59-6.93a1.37,1.37,0,0,0,.41-1.39l-.19-.71,1.89-1.61a2,2,0,0,0,.77.93,2,2,0,0,0,1.05.3h.08l.42,1.68a12.7,12.7,0,1,0,4.42-.79Z"/><path class="cls-1" d="M76.3,54.23l-.23-.17a1.16,1.16,0,0,0-.24-.14,1.49,1.49,0,0,0-1.11,0,1.23,1.23,0,0,0-.25.14,1.84,1.84,0,0,0-.22.17,1.45,1.45,0,0,0-.42,1,1.33,1.33,0,0,0,0,.28.92.92,0,0,0,.08.27,1.19,1.19,0,0,0,.13.25,1.24,1.24,0,0,0,.18.22l.22.18.25.13a.92.92,0,0,0,.27.08,1.33,1.33,0,0,0,.28,0,1.43,1.43,0,0,0,.29,0,.92.92,0,0,0,.27-.08,1.83,1.83,0,0,0,.24-.13l.23-.18.18-.22a2,2,0,0,0,.13-.25,2.76,2.76,0,0,0,.08-.27,1.33,1.33,0,0,0,0-.28,1.45,1.45,0,0,0-.42-1"/></svg>