<svg xmlns="http://www.w3.org/2000/svg" xml:space="preserve" viewBox="0 0 100 100">
  <path d="M32.26 27.24c-.13 0-.27-.03-.39-.1a.788.788 0 0 1-.41-.68l-.07-12.99c0-.31.18-.6.47-.73l16.28-7.36c.2-.09.43-.09.63-.01l16.66 6.98c.3.12.49.41.49.73l-.02 13.16c0 .27-.14.52-.36.66-.23.15-.51.17-.76.06l-16.13-7.21c-6.22 2.83-15.38 7.02-15.97 7.37-.13.08-.27.12-.42.12zm.72-13.27.06 11.21c3.3-1.57 12.2-5.62 15.28-7.02.21-.1.44-.09.65 0l15.34 6.85.01-11.41-15.85-6.63-15.49 7zm36.43-1.41c-.1 0-.21-.02-.31-.06L48.47 3.66 31.03 11.9c-.12.06-.25.09-.38.07l-2.2-.13a.787.787 0 0 1-.73-.64c-.07-.35.11-.71.44-.87L48.12.9c.09-.04.18-.07.28-.07.26-.02 6.44-.43 12.15 2.19 4.77 2.19 9.3 8.01 9.49 8.25.22.29.22.68 0 .97-.16.21-.39.32-.63.32zM49.54 2.4l16.98 7.28c-1.71-1.8-4.18-4.07-6.64-5.2-4.01-1.85-8.39-2.08-10.34-2.08zm8.95 18.29a.66.66 0 0 1-.27-.06l-3.75-1.81a.61.61 0 0 1-.34-.55v-5.94c0-.2.1-.4.27-.51.17-.11.38-.13.58-.05l3.62 1.55c.22.1.36.31.37.55l.13 6.2c0 .21-.1.41-.28.53-.1.05-.22.09-.33.09zm-3.14-2.8 2.51 1.21-.1-4.81-2.41-1.03v4.63zm-12.64 1.22a.62.62 0 0 1-.32-.09.596.596 0 0 1-.29-.51l-.09-6.07c0-.25.14-.47.36-.57l3.83-1.68c.19-.08.41-.06.58.05.17.11.28.3.28.51v5.94c0 .23-.13.45-.34.55l-3.75 1.81c-.08.04-.17.06-.26.06zm.53-6.28.07 4.71 2.54-1.23v-4.63l-2.61 1.15zm-7.94 9.13c-.12 0-.23-.03-.34-.1a.595.595 0 0 1-.27-.52l.08-5.87c0-.23.14-.44.35-.54l3.2-1.52c.19-.09.41-.08.58.03.18.11.28.3.29.5l.15 5.87c.01.25-.14.47-.36.57l-3.43 1.52c-.08.04-.16.06-.25.06zm.69-6.09-.06 4.54 2.19-.97-.12-4.53-2.01.96zM90.76 33.3c-.01 0-.01 0 0 0a4.871 4.871 0 0 0-4.59-3.2c-.69 0-1.38.15-2.01.43a4.86 4.86 0 0 0-3.53-1.5c-2.5 0-4.57 1.88-4.84 4.29a4.863 4.863 0 0 0-4.04 4.66c-.06 2.72 2.19 4.95 4.93 4.95h13.31c2.78 0 5.03-2.26 4.93-5.01a4.846 4.846 0 0 0-4.16-4.62zm-.81 8.33H76.91c-1.96 0-3.6-1.55-3.61-3.5-.02-1.89 1.46-3.46 3.35-3.57l.57-.03v-.58c0-1.95 1.6-3.53 3.56-3.53 1.12 0 2.15.51 2.83 1.39l.33.42.46-.27c.55-.32 1.17-.49 1.81-.49 1.62 0 3.04 1.09 3.44 2.64l.11.42.44.02c1.9.1 3.38 1.67 3.36 3.56-.01 1.96-1.64 3.52-3.61 3.52zm-5.04 11.68c.53-1.45 1.93-2.43 3.52-2.43.53 0 1.06.11 1.54.33.7-.73 1.67-1.14 2.71-1.14 1.92 0 3.51 1.43 3.72 3.26 1.74.29 3.06 1.77 3.1 3.53.05 2.07-1.68 3.75-3.79 3.75H85.5c-2.13 0-3.86-1.71-3.79-3.8.07-1.78 1.42-3.25 3.2-3.5zM86 59.45h9.49c1.43 0 2.62-1.12 2.63-2.52a2.554 2.554 0 0 0-2.44-2.56l-.41-.02v-.42c0-1.4-1.16-2.54-2.59-2.54-.81 0-1.56.36-2.06 1l-.24.3-.34-.19c-.4-.23-.85-.35-1.32-.35-1.18 0-2.21.78-2.51 1.9l-.08.31-.32.02c-1.38.07-2.46 1.2-2.45 2.56.02 1.39 1.21 2.51 2.64 2.51zM7.92 26.89c.66-1.91 2.42-3.2 4.4-3.2.67 0 1.32.15 1.93.43.88-.96 2.09-1.5 3.39-1.5 2.4 0 4.38 1.88 4.65 4.29 2.18.39 3.82 2.33 3.87 4.66.06 2.72-2.1 4.95-4.74 4.95H8.66c-2.67 0-4.83-2.26-4.74-5.01.08-2.35 1.78-4.29 4-4.62zm.94 8.26h12.41c1.87 0 3.42-1.51 3.44-3.4.02-1.84-1.39-3.36-3.19-3.47l-.54-.03v-.56c0-1.9-1.52-3.44-3.39-3.44-1.06 0-2.04.49-2.69 1.35l-.31.41-.44-.26c-.52-.31-1.11-.48-1.72-.48-1.54 0-2.89 1.06-3.28 2.57l-.11.41-.42.02c-1.8.1-3.21 1.62-3.2 3.46.01 1.9 1.57 3.42 3.44 3.42zm4.8 10.96c-.48-1.42-1.74-2.39-3.18-2.39-.48 0-.96.11-1.39.32-.64-.72-1.51-1.12-2.44-1.12-1.73 0-3.16 1.4-3.35 3.2-1.57.29-2.76 1.74-2.79 3.47-.04 2.03 1.52 3.69 3.42 3.69h9.21c1.92 0 3.48-1.68 3.42-3.74-.07-1.73-1.3-3.18-2.9-3.43zm-.63 6.11H4.39c-1.3 0-2.38-1.11-2.39-2.5-.01-1.35.97-2.47 2.22-2.54l.38-.02V46.75c0-1.39 1.06-2.52 2.36-2.52.74 0 1.42.36 1.87.99l.22.3.31-.19c.36-.23.78-.35 1.2-.35 1.07 0 2.01.77 2.28 1.88l.07.3.29.02c1.26.07 2.24 1.19 2.23 2.54-.02 1.39-1.1 2.5-2.4 2.5zm3.43 8.82c.35-1 1.29-1.68 2.35-1.68.36 0 .71.08 1.03.23.47-.51 1.11-.79 1.81-.79 1.28 0 2.34.99 2.48 2.26 1.16.2 2.04 1.23 2.07 2.45.03 1.43-1.12 2.6-2.53 2.6h-6.81c-1.42 0-2.58-1.19-2.53-2.64.04-1.24.95-2.26 2.13-2.43zm.82 4.23h6.21c.93 0 1.71-.76 1.72-1.71.01-.93-.7-1.69-1.6-1.75l-.27-.02v-.28c0-.95-.76-1.73-1.7-1.73-.53 0-1.02.25-1.35.68l-.16.21-.22-.13c-.26-.16-.56-.24-.86-.24-.77 0-1.45.53-1.64 1.29l-.05.21-.21.01c-.9.05-1.61.82-1.6 1.74.02.95.8 1.72 1.73 1.72zm48.24-35.81a.785.785 0 0 0-.46-.67L49.2 21.61c-.21-.1-.45-.1-.66 0L32.7 28.85c-.29.13-.48.43-.46.75 0 .06.01.11.03.16-.02.06-.03.13-.03.2V89.6c0 .44.35.79.79.79s.79-.36.79-.79v-6.52l9.43 12.57c.1.14.25.23.4.28v2.2c0 .44.36.79.79.79.44 0 .79-.36.79-.79l-.07-63.31 3.72 1.35V98.4c0 .44.35.79.79.79.44 0 .79-.35.79-.79v-4.3l7.1-7.52 6.31 5.27-.01 1.57c0 .44.35.79.79.8.44 0 .79-.35.79-.79l.17-43.57v-.66l.07-19.23c.02-.2-.05-.38-.16-.51zM50.48 66.77V52.86l6.06 6.13-6.06 7.78zm7.18-6.64 5.54 5.61-6.86 6.74-4.99-4.24 6.31-8.11zm-7.01-9.88 8.37-11.29 3.94 5.76-12.48 6.3v-.6c.06-.06.12-.11.17-.17zm-.17-2.44V36.05L55.63 34l2.45 3.57-7.6 10.24zm6.65-14.42 5.73-2.29-3.79 5.11-1.94-2.82zm5.58-3.93-6.49 2.59-5.49-8.02 11.98 5.43zM43.63 71.93l.01 8.19-3.11-5.56 3.1-2.63zm-3.89 1.22-4.24-7.58 2.73-4.09 4.64 9.01-3.13 2.66zm-.5-13.18 4.37-6.56.02 15.09-4.39-8.53zm.4-21.04 3.16-4.98.79.29.01 10.75-3.96-6.06zm3.96 8.96V51l-8.08-5.58 3.19-5.02 4.89 7.49zm-4.9-10.61-4.87-6.57 7.36 2.94-2.49 3.63zm-4.87-4.34 3.92 6-3.92 6.18V32.94zm0 13.2c.05.06.1.11.16.15l8.53 5.89-4.12 6.17-4.36-8.47a.696.696 0 0 0-.22-.26v-3.48zm0 6.79 3.57 6.93-3.49 5.23c-.03.05-.06.11-.08.17V52.93zm0 12.88c.01.04.03.07.05.11l4.63 8.27-4.68 3.97V65.81zm.13 14.81a.864.864 0 0 0-.13-.14v-.24l.01-.01 5.45-4.63 3.58 6.4-4.33 4.72-4.58-6.1zm5.55 7.39 4.14-4.5.01 10.03-4.15-5.53zm2.63-55.98-7.01-2.55 12.14-5.55-5.13 8.1zm7.58 2.62-.18.07-.09-.03-5.78-2.1 5.29-8.33 5.76 8.41-5 1.98zm.76 57.13V80.64l5.88 4.91-5.88 6.23zm6.97-7.38-5.93-4.96 4.91-4.82-1.22-1.02-4.71 4.63v-8.65l5.94 5.04 5.74 4.78-4.73 5zm6.44 5.38-5.23-4.37 4.71-4.99.55.46-.03 8.9zm.05-12.21c-.07.04-.13.08-.19.14l-.5.54-5.69-4.74 6.42-6.31-.04 10.37zm.05-13.3-5.35-5.41 5.39-6.93-.04 12.34zm.05-14.94-6.53 8.39-5.6-5.67 12.14-6.12-.01 3.4zm.03-5.81-4.05-5.91 4.09-5.52-.04 11.43z"/>
</svg>
