<svg xmlns="http://www.w3.org/2000/svg" xml:space="preserve" viewBox="0 0 100 100">
  <path d="M21.5 76.72h38.16c5.89-4.67 9.2-12.52 12.57-19.16 2.85.54 6.09.75 9.28.3C93.31 56.2 100.6 47.76 99.36 39c-.61-4.29-2.44-7.44-6.82-9.38-3.75-1.66-7.67-1.86-12.14-2.13.02-.86-.17-3.34-.17-4.21H.5c.11 10.35 1.96 18.29 5.25 28.13 4.6 13.76 9.6 20.44 15.75 25.31zm57.61-42.55c2.88-.1 5.67-.02 8.02.44 3.25.65 4.76 2.52 5.16 4.7 1.17 6.51-5.04 11.92-11.84 12.19-1.74.07-3.84-.45-5.38-.74 1.79-6.59 2.68-10.51 4.04-16.59zM7.24 29h66.44c1.06.33-.92 12.19-5.95 23.88-4.66 10.84-10.54 17.24-12.26 18.73H26.49c-4.9-4.05-9.16-8.36-13.3-18.89C9.76 43.99 7.04 33.62 7.24 29zm11.22 15.86c2.29-.63 2.87 2.5 2.87 2.5s1.22 3.41 3.12 7.12c2.16 4.21 4.89 5.34 5.98 6.68 1.6 1.98-.56 4.04-1.64 3.91-1.08-.12-4.94-1.53-7.91-7.01s-3.95-9.6-3.95-9.6-1.03-3.03 1.53-3.6zm1.18-5.75c-.01 1.54-1.26 2.77-2.8 2.76s-2.77-1.26-2.76-2.8 1.26-2.77 2.8-2.76 2.77 1.27 2.76 2.8z"/>
</svg>
