<svg id="Layer_1" data-name="Layer 1" xmlns="http://www.w3.org/2000/svg" viewBox="0 0 91.56 91.56"><defs><style>.cls-1{fill:#fff;}.cls-2{fill:none;}</style></defs><title>ratinanstadion</title><path class="cls-1" d="M18.87,39.94a.43.43,0,0,1-.4-.27c-.77-1.79-4.62-10.77-4.72-11.08a.43.43,0,0,1,.19-.52l1.44-.82a.45.45,0,0,1,.36,0,.43.43,0,0,1,.26.25s1.11,2.83,2.15,5.62c2.21,6,2,6.1,1.7,6.35a4,4,0,0,1-.84.48Zm-4.16-11.3c.57,1.36,2.77,6.51,4.38,10.26l.07,0c-.17-1-2-6-3.79-10.6Z"/><path class="cls-1" d="M55.71,30.73h-.82a.44.44,0,0,1-.43-.53c.08-.36,1.85-9,1.95-9.43a.44.44,0,0,1,.42-.33h1.23a.44.44,0,0,1,.43.54L56.13,30.4A.44.44,0,0,1,55.71,30.73Zm1.48-9.41c-.23,1.08-.94,4.5-1.5,7.23l1.81-7.23Z"/><path class="cls-1" d="M38.11,57a.52.52,0,0,1-.46-.26L30,43.46A.53.53,0,0,1,30,43a.54.54,0,0,1,.35-.31L52.4,36.44a.52.52,0,0,1,.48.1l11.36,9.73a.52.52,0,0,1,.17.49.54.54,0,0,1-.33.4L38.29,57A.57.57,0,0,1,38.11,57ZM31.25,43.53l7.09,12.31,24.54-9.35-10.48-9Z"/><path class="cls-2" d="M19,42.26a.51.51,0,0,1-.16.39l-2.15,2a.5.5,0,0,1-.67,0c-.5-.37-1-.76-1.54-1.11a16.19,16.19,0,0,0-3.72,6A10.77,10.77,0,0,0,11.5,59a18.76,18.76,0,0,0,7.86,7.36c4.13,2,9.43,2.56,16.22,1.77,5-.57,18.82-6.28,39-16.07l.09,0a7.7,7.7,0,0,0,4.23-7c.07-4.45-2.82-8.74-7.52-11.2a28.85,28.85,0,0,0-19.16-3.11c-3.17.53-25.61,5.13-34.39,10.3l1,.89A.49.49,0,0,1,19,42.26Z"/><path class="cls-2" d="M15.57,40.35l-1.81,1.54.44.28A17.5,17.5,0,0,1,16,40.73Z"/><path class="cls-2" d="M17.69,42.27l-.77-.7a16.44,16.44,0,0,0-1.68,1.31l1,.75Z"/><path class="cls-1" d="M14.2,42.17l-.44-.28,1.81-1.54.41.38.61-.41.3-.19-1-.86a.51.51,0,0,0-.69,0l-2.76,2.35a.53.53,0,0,0,.27.92,4.77,4.77,0,0,1,.69.4C13.68,42.67,13.94,42.41,14.2,42.17Zm-1.38.36Z"/><path class="cls-1" d="M16.92,41.57l.77.7-1.42,1.36-1-.75c-.27.24-.52.49-.78.74.5.35,1,.74,1.54,1.11a.5.5,0,0,0,.67,0l2.15-2a.51.51,0,0,0,.16-.39.49.49,0,0,0-.17-.38l-1-.89-.59.36Z"/><path class="cls-1" d="M16,40.73l.94.84.33-.22.59-.36-.95-.86-.3.19Z"/><path class="cls-1" d="M15.24,42.88c-.41-.29-.76-.53-1-.71-.26.24-.52.5-.76.76l1,.69C14.72,43.37,15,43.12,15.24,42.88Z"/><path class="cls-2" d="M14.43,45.82,13,45.3a16.29,16.29,0,0,0-.94,1.4l1.53.63Z"/><path class="cls-1" d="M14.46,43.62l-1-.69c-.33.34-.64.69-.94,1l1.22.46C14,44.16,14.21,43.89,14.46,43.62Z"/><path class="cls-1" d="M11.78,43.72a.51.51,0,0,0-.64.25L9.91,46.32a.51.51,0,0,0,0,.42.55.55,0,0,0,.29.31l.27.11A18.2,18.2,0,0,1,12.5,44Z"/><path class="cls-1" d="M14.43,45.82l-.81,1.51-1.53-.63c-.18.31-.35.61-.51.93l2.07.85a.51.51,0,0,0,.2,0,.52.52,0,0,0,.46-.27l1.34-2.46a.54.54,0,0,0,0-.43.53.53,0,0,0-.31-.31l-1.65-.61c-.24.28-.47.56-.69.86Z"/><path class="cls-1" d="M12.09,46.7l-1-.4.74-1.44L13,45.3c.22-.3.45-.58.69-.86L12.5,44a18.2,18.2,0,0,0-2.06,3.18l1.14.47C11.74,47.31,11.91,47,12.09,46.7Z"/><path class="cls-2" d="M13,50.08l-2.27-.32a12,12,0,0,0-.41,1.5l2.5.17Z"/><path class="cls-1" d="M11.58,47.63l-1.14-.47q-.34.69-.63,1.41l1.25.18C11.22,48.37,11.39,48,11.58,47.63Z"/><path class="cls-1" d="M9.81,48.57l-.49-.07a.52.52,0,0,0-.58.4l-.62,2.66a.54.54,0,0,0,.09.43.51.51,0,0,0,.39.21l.28,0a15,15,0,0,1,.7-3C9.66,49,9.73,48.77,9.81,48.57Z"/><path class="cls-1" d="M10.69,49.76l2.27.32-.18,1.35-2.5-.17c-.07.35-.13.7-.17,1l3.09.21h0a.52.52,0,0,0,.52-.46l.31-2.35a.53.53,0,0,0-.45-.59l-2.56-.36c-.11.27-.22.55-.32.83C10.72,49.64,10.71,49.7,10.69,49.76Z"/><path class="cls-1" d="M10.28,51.26l-1-.06.37-1.59,1,.15c0-.06,0-.12.05-.18.1-.28.21-.56.32-.83l-1.25-.18c-.08.2-.15.41-.23.61a15,15,0,0,0-.7,3l1.23.08C10.15,52,10.21,51.61,10.28,51.26Z"/><path class="cls-2" d="M13.7,55.17l-3.58,0a9.64,9.64,0,0,0,.6,2.29l3.64-.68Z"/><path class="cls-1" d="M10.11,52.3l-1.23-.08a11.94,11.94,0,0,0-.08,2l1.22,0A11.7,11.7,0,0,1,10.11,52.3Z"/><path class="cls-1" d="M13.7,55.17l.66,1.64-3.64.68a8,8,0,0,0,.46,1l4-.75a.53.53,0,0,0,.39-.71l-1-2.56a.53.53,0,0,0-.49-.33c-.13,0-2.4,0-4,0,0,.35.05.7.1,1Z"/><path class="cls-1" d="M8.75,54.2a.51.51,0,0,0-.4.23.5.5,0,0,0-.07.46l1.18,3.45a.53.53,0,0,0,.45.35,11.06,11.06,0,0,1-1.11-4.5Z"/><path class="cls-1" d="M10.06,58.69l1.12-.22a8,8,0,0,1-.46-1l-.41.08-.8-2.35.61,0c0-.34-.08-.69-.1-1l-1.22,0a11.06,11.06,0,0,0,1.11,4.5h.15Z"/><path class="cls-2" d="M16.27,59.64l-3.55,1.14a21.3,21.3,0,0,0,1.8,2.12l3.35-1.73Z"/><path class="cls-1" d="M11.5,59c-.11-.18-.22-.37-.32-.56l-1.12.22H9.91c.17.34.36.67.56,1l.39.59,1.21-.39C11.88,59.61,11.69,59.32,11.5,59Z"/><path class="cls-1" d="M16.27,59.64l1.6,1.53L14.52,62.9c.26.27.53.52.8.77L19,61.77a.52.52,0,0,0,.27-.4.51.51,0,0,0-.15-.45l-2.36-2.25a.52.52,0,0,0-.52-.12l-4.18,1.33c.22.31.43.61.65.9Z"/><path class="cls-1" d="M10.86,60.27l-.07,0a.56.56,0,0,0-.35.37.55.55,0,0,0,.12.49l2.8,3.09a.56.56,0,0,0,.39.17.5.5,0,0,0,.24-.06l.16-.08A23.06,23.06,0,0,1,10.86,60.27Z"/><path class="cls-1" d="M14.52,62.9l-.65.33-2-2.18.83-.27c-.22-.29-.43-.59-.65-.9l-1.21.39a23.06,23.06,0,0,0,3.29,4l1.17-.6C15.05,63.42,14.78,63.17,14.52,62.9Z"/><path class="cls-1" d="M22.06,67.66a.54.54,0,0,1-.21,0l-4.62-2a.57.57,0,0,1-.34-.45.62.62,0,0,1,.17-.55l2.41-2.35a.52.52,0,0,1,.55-.13l4.18,1.41a.57.57,0,0,1,.36.38.61.61,0,0,1-.07.54l-2,3A.57.57,0,0,1,22.06,67.66Zm-3.57-2.82,3.37,1.47,1.25-1.89L20,63.37Z"/><path class="cls-2" d="M65,32.79l.65-1.38c-.57-.17-1.14-.32-1.71-.46l-.46,1.2Z"/><path class="cls-1" d="M67.23,30.42a.56.56,0,0,0,0-.44.53.53,0,0,0-.33-.29l-2.8-.83a.52.52,0,0,0-.64.32l-.15.38a28.78,28.78,0,0,1,3.83,1.06Z"/><path class="cls-1" d="M65,32.79l-1.52-.64L63.9,31l-1-.22-.59,1.52a.53.53,0,0,0,.29.68L65,34a.51.51,0,0,0,.2,0,.53.53,0,0,0,.48-.3l.91-2-1-.32Z"/><path class="cls-1" d="M63.31,29.56l-.44,1.17,1,.22.37-.94,1.75.52-.41.88,1,.32.53-1.11A28.78,28.78,0,0,0,63.31,29.56Z"/><polygon class="cls-2" points="67.69 33.9 69.13 34.75 70.91 32.95 68.91 31.9 67.69 33.9"/><path class="cls-2" d="M69.13,34.75l1.38-1.39c-.65-.32-1.3-.61-2-.88l-.87,1.42Z"/><path class="cls-1" d="M67.14,30.62l-.53,1.11,1,.35L68.22,31C67.86,30.88,67.5,30.74,67.14,30.62Z"/><path class="cls-1" d="M72.3,32.9a.43.43,0,0,0,0-.16.49.49,0,0,0-.27-.38L69,30.74a.53.53,0,0,0-.7.19l0,.09A35.11,35.11,0,0,1,72,32.72Z"/><path class="cls-1" d="M70.51,33.36l-1.38,1.39-1.44-.85.87-1.42-1-.4-1,1.72a.54.54,0,0,0-.07.41.57.57,0,0,0,.25.32L69,35.86a.5.5,0,0,0,.27.07.53.53,0,0,0,.37-.15l1.9-1.92-.1-.06Z"/><path class="cls-1" d="M72.3,32.9,72,32.72A35.11,35.11,0,0,0,68.22,31l-.65,1.06,1,.4.35-.58,2,1.05-.4.41.88.44.1.06.67-.67A.53.53,0,0,0,72.3,32.9Z"/><polygon class="cls-2" points="71.53 36.09 72.64 37.01 74.83 35.64 73.19 34.47 71.53 36.09"/><path class="cls-1" d="M52,29.48c-3.24.54-26.41,5.3-35.14,10.65l.95.86c8.78-5.17,31.22-9.77,34.39-10.3a29.23,29.23,0,0,1,10.64,0l.44-1.17A30.7,30.7,0,0,0,52,29.48Z"/><path class="cls-2" d="M72.64,37l1.81-1.14a14.76,14.76,0,0,0-1.52-1.15l-1.4,1.37Z"/><path class="cls-1" d="M73,33.29l-.67-.39a.53.53,0,0,1-.14.29l-.67.67.53.29.75-.74A.59.59,0,0,1,73,33.29Z"/><path class="cls-1" d="M76.24,35.87a.41.41,0,0,0,.05-.19.52.52,0,0,0-.22-.44l-2.62-1.88a.5.5,0,0,0-.48-.07A16.85,16.85,0,0,1,76.24,35.87Z"/><path class="cls-1" d="M72.64,37l-1.11-.92,1.4-1.37c-.29-.2-.6-.39-.91-.57l-1.64,1.6a.54.54,0,0,0,0,.78l1.85,1.53a.51.51,0,0,0,.33.13.47.47,0,0,0,.28-.09l2.38-1.49c-.25-.25-.52-.5-.8-.74Z"/><path class="cls-1" d="M76.24,35.87A16.85,16.85,0,0,0,73,33.29a.59.59,0,0,0-.2.12l-.75.74c.31.18.62.37.91.57l.26-.25,1.64,1.17-.38.23c.28.24.55.49.8.74l.8-.5A.5.5,0,0,0,76.24,35.87Z"/><path class="cls-2" d="M75.08,39.78l2.14-.68c-.2-.33-.42-.65-.65-1l-2,1Z"/><path class="cls-1" d="M77,36.75c-.25-.3-.51-.59-.79-.88a.5.5,0,0,1-.19.24l-.8.5c.22.22.43.45.64.69L77,36.77Z"/><path class="cls-2" d="M78.27,46.55l0,0,.54-.67c0-.05,0-.11,0-.17Z"/><path class="cls-2" d="M86.75,36.07l-.42-.21L80.11,44.1c0,.08,0,.15,0,.23Z"/><path class="cls-1" d="M78.31,46.59l0,0,.63-1a3.7,3.7,0,0,0,0-.58c0-.24,0-.49,0-.74l-1.54,2a.44.44,0,0,0,0,.55l.61.71a.44.44,0,0,0,.33.16h0a.28.28,0,0,0,.13,0A7.74,7.74,0,0,0,78.84,46Z"/><path class="cls-1" d="M88.69,36.05a10.56,10.56,0,0,0-1.46-.92c-.85-.31-1.07-.26-1.2-.09l-5.89,7.81c.07.42-.07.93,0,1.35l6.39-8.54,1.05.53-7.41,8.63c0,.23-.06.8-.08,1l8.55-9.45A.4.4,0,0,0,88.69,36.05Z"/><path class="cls-1" d="M78.85,45.92l1.28-1.59c0-.08,0-.15,0-.23l-1.24,1.65C78.86,45.81,78.86,45.87,78.85,45.92Z"/><path class="cls-1" d="M78.46,47.69a7.32,7.32,0,0,1-3.78,4.36l-.09,0c-20.19,9.79-34,15.5-39,16.07-6.79.79-12.09.21-16.22-1.77a16.76,16.76,0,0,1-4-2.72l-1.17.6c3.27,3.11,8.07,5.45,16,5.45a49.22,49.22,0,0,0,5.57-.34c5.18-.6,18.8-6.2,39.4-16.18l.09-.05a8.79,8.79,0,0,0,4.89-7.39l-1.44,1.79A.41.41,0,0,1,78.46,47.69Z"/><path class="cls-1" d="M78.88,39.57a.45.45,0,0,1-.25.18l-.89.28a11.06,11.06,0,0,1,1.16,4.23L80,42.85A12.14,12.14,0,0,0,78.88,39.57Z"/><path class="cls-1" d="M78.87,45.75l1.24-1.65A10.65,10.65,0,0,0,80,42.85L78.9,44.26c0,.25,0,.5,0,.74S78.89,45.51,78.87,45.75Z"/><path class="cls-1" d="M80.13,44.33l-1.28,1.59a8.44,8.44,0,0,1-.39,1.77.41.41,0,0,0,.2-.14l1.44-1.79c0-.24,0-.49,0-.74S80.14,44.56,80.13,44.33Z"/><path class="cls-1" d="M79,39.43a.48.48,0,0,0,0-.45l-1.25-2a.54.54,0,0,0-.63-.21,13.7,13.7,0,0,1,1.85,2.82A.47.47,0,0,0,79,39.43Z"/><path class="cls-1" d="M75.08,39.78l-.53-.67,2-1c-.21-.29-.44-.57-.68-.84l-2.38,1.16a.53.53,0,0,0-.29.35.56.56,0,0,0,.1.44l1.16,1.47a.54.54,0,0,0,.41.2.45.45,0,0,0,.16,0L77.74,40c-.15-.31-.33-.62-.52-.93Z"/><path class="cls-1" d="M78.88,39.57A13.7,13.7,0,0,0,77,36.75l0,0-1.09.53c.24.27.47.55.68.84l.45-.22.64,1-.44.14c.19.31.37.62.52.93l.89-.28A.45.45,0,0,0,78.88,39.57Z"/><path class="cls-1" d="M76.07,44.22a.52.52,0,0,1-.5-.37l-.51-1.74a.52.52,0,0,1,.36-.66l3.68-1a.52.52,0,0,1,.42.06.53.53,0,0,1,.24.34l.51,2.45a.52.52,0,0,1-.09.42.49.49,0,0,1-.38.21l-3.68.31Zm.14-1.9.24.82,2.67-.22-.28-1.33Z"/><path class="cls-2" d="M25,58.51,25.69,60q.72.22,1.44.39L26,57.42Z"/><path class="cls-2" d="M29.27,67.59l.53-.4-2.37-6.08q-.67-.13-1.35-.33Z"/><path class="cls-2" d="M24.17,58.14l1.64-1.84a.43.43,0,0,1,.4-.14.44.44,0,0,1,.33.27l1.6,4.11a28.36,28.36,0,0,0,5.35.41c1.61-.05,6-1.15,17.89-6.11,1.06-.45,2.68-1.06,4.54-1.77,5.19-2,13.86-5.26,14.4-6.64a7.13,7.13,0,0,0-2.53-8.38c-5.22-3.65-12-4.7-15.79-3.84-2.89.67-24.08,6.77-26.85,8-6.43,2.77-7.42,8.55-5.55,13a8.34,8.34,0,0,0,4.94,4.32l-.44-.93A.44.44,0,0,1,24.17,58.14Z"/><path class="cls-1" d="M68.19,37.48c-5.39-3.77-12.44-4.85-16.35-3.95-2.9.67-24.18,6.8-27,8C18,44.49,17,50.68,19,55.5c1.07,2.56,3.45,4.06,6,4.94l-.41-.89a8.34,8.34,0,0,1-4.94-4.32c-1.87-4.5-.88-10.28,5.55-13,2.77-1.2,24-7.3,26.85-8,3.76-.86,10.57.19,15.79,3.84a7.13,7.13,0,0,1,2.53,8.38c-.54,1.38-9.21,4.67-14.4,6.64-1.86.71-3.48,1.32-4.54,1.77C39.52,59.8,35.1,60.9,33.49,61a28.36,28.36,0,0,1-5.35-.41l.3.75a29.4,29.4,0,0,0,4.51.37h.56c2.44-.07,8.54-2.15,18.14-6.17,1.05-.44,2.66-1,4.52-1.76,7.74-2.93,14.2-5.49,14.8-7A7.84,7.84,0,0,0,68.19,37.48Z"/><path class="cls-1" d="M29.8,67.19l-.53.4-3.19-6.81c-.38-.1-.75-.21-1.13-.34l3.75,8a.45.45,0,0,0,.3.24l.1,0a.41.41,0,0,0,.26-.09l1.23-.92a.44.44,0,0,0,.15-.51l-2.3-5.89-1-.18Z"/><path class="cls-1" d="M25,58.51l1-1.09,1.14,2.92,1,.2-1.6-4.11a.44.44,0,0,0-.33-.27.43.43,0,0,0-.4.14l-1.64,1.84a.44.44,0,0,0-.07.48l.44.93a12,12,0,0,0,1.15.4Z"/><path class="cls-1" d="M25.69,60a12,12,0,0,1-1.15-.4l.41.89c.38.13.75.24,1.13.34Z"/><path class="cls-1" d="M27.13,60.34l.3.77,1,.18-.3-.75Z"/><path class="cls-1" d="M21.63,43.71a.5.5,0,0,1-.39-.18L19.7,41.79a.53.53,0,0,1,.13-.8l3.48-2a.51.51,0,0,1,.68.13l1.33,1.74a.51.51,0,0,1,.1.41.47.47,0,0,1-.24.35l-3.27,2.05A.48.48,0,0,1,21.63,43.71Zm-.72-2.13.82.92L24.14,41l-.7-.91Z"/><path class="cls-1" d="M19,46.47a.58.58,0,0,1-.28-.07L16,44.76a.53.53,0,0,1-.08-.83l2.87-2.66a.52.52,0,0,1,.74,0l1.74,1.84a.53.53,0,0,1,0,.69l-1.95,2.46A.5.5,0,0,1,19,46.47Zm-1.8-2.24,1.68,1,1.37-1.74-1.07-1.13Z"/><path class="cls-1" d="M17.64,50.57h-.08l-3.18-.51a.53.53,0,0,1-.44-.52,8.56,8.56,0,0,1,.55-2.75,7.71,7.71,0,0,1,1.22-2,.51.51,0,0,1,.64-.12L19,46.1a.51.51,0,0,1,.25.62L18.14,50.2A.53.53,0,0,1,17.64,50.57ZM15,49.09l2.26.36.85-2.63-1.89-1a6.45,6.45,0,0,0-.77,1.36A7.46,7.46,0,0,0,15,49.09Z"/><path class="cls-1" d="M15.05,55.5a.51.51,0,0,1-.47-.3,8.18,8.18,0,0,1-.72-2.7,7.94,7.94,0,0,1,.21-2.34.55.55,0,0,1,.53-.39l3,.12a.53.53,0,0,1,.5.45L18.64,54a.53.53,0,0,1-.37.58l-3.07.93A.4.4,0,0,1,15.05,55.5ZM15,50.84a6.19,6.19,0,0,0-.1,1.56,7.75,7.75,0,0,0,.45,1.93l2.19-.67-.4-2.74Z"/><path class="cls-1" d="M36.78,66.25a.34.34,0,0,1-.22-.07.33.33,0,0,1-.13-.26l-.11-2.46a.36.36,0,0,1,.24-.34c.07,0,6.27-2.06,9-3.07s17.75-7.45,20-8.58c3.43-1.71,7-3.86,7-3.88a.34.34,0,0,1,.17-.05l4.6-.1a.36.36,0,0,1,.35.26.34.34,0,0,1-.18.4c-.13.07-13.13,6.88-16.27,8.5s-20,8.62-21.77,9l-2.67.62ZM37,63.7l.08,1.77L39.36,65c1.74-.41,18.5-7.37,21.61-9,2.54-1.31,11.53-6,15-7.8l-3,.07c-.55.33-3.84,2.27-7,3.86-2.27,1.13-17.3,7.57-20.09,8.61C43.38,61.6,38.23,63.3,37,63.7Z"/><path class="cls-1" d="M18.56,59.88l-.14,0a4.29,4.29,0,0,1-2.24-1.75A10.84,10.84,0,0,1,15.1,56a.52.52,0,0,1,.31-.67l2.45-.92a.58.58,0,0,1,.43,0,.55.55,0,0,1,.27.33,4.84,4.84,0,0,0,.81,1.64c.59.69,1.09,1.2,1.1,1.2a.54.54,0,0,1,.15.38.52.52,0,0,1-.17.38l-1.53,1.43A.54.54,0,0,1,18.56,59.88Zm-2.28-3.8a10,10,0,0,0,.77,1.45,3.57,3.57,0,0,0,1.39,1.22l.91-.85c-.21-.22-.48-.52-.78-.86a5.24,5.24,0,0,1-.84-1.51Z"/><path class="cls-1" d="M24,62.75a.54.54,0,0,1-.21,0L19,60.55a.51.51,0,0,1-.3-.38.54.54,0,0,1,.14-.47l1.44-1.43a.51.51,0,0,1,.57-.11l3.59,1.53a.53.53,0,0,1,.31.54l-.2,2a.53.53,0,0,1-.26.4A.5.5,0,0,1,24,62.75ZM20.09,59.9l3.44,1.54.1-.94-2.9-1.24Z"/><path class="cls-1" d="M25.14,36.71a.29.29,0,0,1-.24-.18l-2.11-4.59a.36.36,0,0,1,0-.27.29.29,0,0,1,.17-.19l1-.5a.32.32,0,0,1,.27,0,.31.31,0,0,1,.16.22l1.08,5.09a.35.35,0,0,1-.2.4A.26.26,0,0,1,25.14,36.71ZM23.5,31.94l.78,1.7-.4-1.88Z"/><path class="cls-1" d="M27.58,35.79a.31.31,0,0,1-.25-.18l-2-4.35a.36.36,0,0,1,0-.25.29.29,0,0,1,.17-.17l1-.41a.3.3,0,0,1,.26,0,.33.33,0,0,1,.16.22l.94,4.76a.31.31,0,0,1-.21.36A.28.28,0,0,1,27.58,35.79ZM26.06,31.3l.73,1.6-.35-1.75Z"/><path class="cls-1" d="M30.08,35.09a.31.31,0,0,1-.26-.18l-2-4.34a.33.33,0,0,1,0-.24.35.35,0,0,1,.18-.18l1-.42a.3.3,0,0,1,.26,0,.31.31,0,0,1,.16.21l1,4.76a.31.31,0,0,1-.21.36A.25.25,0,0,1,30.08,35.09Zm-1.56-4.48.74,1.6-.36-1.76Z"/><path class="cls-1" d="M32.55,34.33a.34.34,0,0,1-.26-.19l-1.92-4.38a.36.36,0,0,1,0-.25.33.33,0,0,1,.18-.17l1-.39a.3.3,0,0,1,.26,0,.36.36,0,0,1,.16.22L32.89,34a.31.31,0,0,1-.22.35A.25.25,0,0,1,32.55,34.33Zm-1.47-4.52.7,1.61-.32-1.76Z"/><path class="cls-1" d="M34.87,33.26a.32.32,0,0,1-.25-.17l-1.77-3.87a.29.29,0,0,1,0-.24A.3.3,0,0,1,33,28.8l.92-.37a.27.27,0,0,1,.26,0,.29.29,0,0,1,.16.21l.86,4.23a.3.3,0,0,1-.2.36A.23.23,0,0,1,34.87,33.26Zm-1.32-4,.51,1.11-.24-1.22Z"/><path class="cls-1" d="M37,32.67a.3.3,0,0,1-.27-.18L35,28.64a.29.29,0,0,1,0-.24.3.3,0,0,1,.17-.18l.91-.38a.32.32,0,0,1,.27,0,.31.31,0,0,1,.16.21l.9,4.22a.31.31,0,0,1-.21.36A.2.2,0,0,1,37,32.67Zm-1.38-4,.53,1.11-.26-1.22Z"/><path class="cls-1" d="M39,32.33a.29.29,0,0,1-.26-.19l-1.51-4a.31.31,0,0,1,0-.25.32.32,0,0,1,.18-.16l.94-.31a.33.33,0,0,1,.26,0,.31.31,0,0,1,.15.22L39.36,32a.32.32,0,0,1-.23.35A.2.2,0,0,1,39,32.33ZM38,28.24l.43,1.15-.16-1.23Z"/><path class="cls-1" d="M41.3,31.71a.29.29,0,0,1-.26-.19L39.39,27.6a.25.25,0,0,1,0-.24.3.3,0,0,1,.18-.17l.93-.34a.34.34,0,0,1,.26,0,.31.31,0,0,1,.15.22l.72,4.26a.3.3,0,0,1-.22.35A.2.2,0,0,1,41.3,31.71Zm-1.21-4.05.48,1.14-.21-1.24Z"/><path class="cls-1" d="M43.91,31.18a.32.32,0,0,1-.26-.17l-1.91-3.8a.29.29,0,0,1,0-.24.3.3,0,0,1,.17-.18l.9-.4a.32.32,0,0,1,.27,0,.31.31,0,0,1,.16.21l1,4.2a.31.31,0,0,1-.19.37A.29.29,0,0,1,43.91,31.18Zm-1.47-3.95L43,28.32l-.29-1.21Z"/><path class="cls-1" d="M45.84,30.64a.29.29,0,0,1-.25-.21l-1.36-4a.29.29,0,0,1,0-.24.31.31,0,0,1,.19-.16l1-.27a.35.35,0,0,1,.26,0,.32.32,0,0,1,.13.23l.41,4.3a.31.31,0,0,1-.24.34Zm-.92-4.13.4,1.17-.12-1.25Z"/><path class="cls-1" d="M48.2,30.43a.3.3,0,0,1-.25-.2l-1.38-4a.29.29,0,0,1,0-.24.33.33,0,0,1,.19-.16l.95-.27a.32.32,0,0,1,.4.26l.44,4.3a.32.32,0,0,1-.25.34A.2.2,0,0,1,48.2,30.43Zm-.94-4.12.4,1.16-.12-1.24Z"/><path class="cls-1" d="M50.28,30.09a.31.31,0,0,1-.25-.22l-1.27-4.06a.33.33,0,0,1,0-.24.29.29,0,0,1,.19-.15l1-.25a.31.31,0,0,1,.26,0,.34.34,0,0,1,.13.23l.31,4.31a.32.32,0,0,1-.25.33Zm-.82-4.15.36,1.17-.09-1.24Z"/></svg>