<svg id="Layer_1" data-name="Layer 1" xmlns="http://www.w3.org/2000/svg" viewBox="0 0 91.56 91.56"><defs><style>.cls-1{fill:#fff;}</style></defs><title>kamera</title><path class="cls-1" d="M23.22,30.74h6.54l1.07-3.06a5.48,5.48,0,0,1,1.69-2.53,4.41,4.41,0,0,1,2.84-1H56.2a4.39,4.39,0,0,1,2.83,1,5.43,5.43,0,0,1,1.7,2.53l1.07,3.06h6.54A5.1,5.1,0,0,1,72,32.24h0a5.1,5.1,0,0,1,1.5,3.61V62.27a5.12,5.12,0,0,1-5.12,5.12H23.22a5.1,5.1,0,0,1-3.61-1.5h0a5.1,5.1,0,0,1-1.5-3.61V35.86a5.1,5.1,0,0,1,1.5-3.61h0a5.14,5.14,0,0,1,3.62-1.5ZM30.9,34H23.3a1.8,1.8,0,0,0-1.29.55h0a1.91,1.91,0,0,0-.53,1.31V62.27A1.91,1.91,0,0,0,22,63.58a1.85,1.85,0,0,0,1.3.54H67.87a1.8,1.8,0,0,0,1.29-.55,1.85,1.85,0,0,0,.54-1.3V35.86a1.88,1.88,0,0,0-.54-1.31A1.83,1.83,0,0,0,67.87,34h-7.6a1.6,1.6,0,0,1-1.52-1.1l-1.44-4.16a2.39,2.39,0,0,0-.65-1.06,1.21,1.21,0,0,0-.78-.25H35.29a1.21,1.21,0,0,0-.78.25,2.41,2.41,0,0,0-.66,1.06l-1.39,4A1.62,1.62,0,0,1,30.9,34Zm14.75-2.18A15.07,15.07,0,1,1,35,36.24a15,15,0,0,1,10.64-4.41Zm8.43,6.63a11.91,11.91,0,1,0,3.49,8.43,11.91,11.91,0,0,0-3.49-8.43Zm-1.34,2a1.89,1.89,0,1,1-1.89-1.89A1.89,1.89,0,0,1,52.74,40.48ZM38.91,48.42c.1.87.29,1.86-1,2.24-.83.24-1.34-.5-1.44-1.36-.3-2.76.2-6,2.18-8.08A8.93,8.93,0,0,1,45,38.13a1.74,1.74,0,0,1,2,1.27c.1.86-1.07,1.28-1.94,1.37a6.17,6.17,0,0,0-4.65,2.55A7.34,7.34,0,0,0,38.91,48.42Z"/></svg>