<svg xmlns="http://www.w3.org/2000/svg" xml:space="preserve" viewBox="0 0 100 100">
  <path d="M54.42 73.55v6.06c-.17 3.13-1.62 3.81-4.09 4.07 0 0-4.51.43-4.63-4.07v-5.82c-2.25-1.44-4.1-4.18-4.1-7.32 0-4.64 3.96-8.39 8.59-8.39 4.64 0 8.26 3.76 8.26 8.39.01 2.98-1.5 5.59-4.03 7.08zm33.37-23.26v41.65a7.55 7.55 0 0 1-7.55 7.55H19.76a7.55 7.55 0 0 1-7.55-7.55V50.29a7.55 7.55 0 0 1 7.55-7.55h5.16l.05-18.56c0-6.69 1.74-13.25 6.38-17.87C35.84 1.84 42.15.5 48.43.5h5.23c15 .01 22.21 6.97 22.21 20.69l.11 2.99c0 1.48-.88 3.06-3.47 3.23-2.59.18-3.79-1.3-3.79-2.78l-.22-4.54c-.64-9.02-5.27-12.26-15.55-12.26l-4.65.11c-9.42-.14-15.77 2.95-16.1 16.76v16.67c0 .54.07.99.13 1.36h47.92c4.16.01 7.54 3.39 7.54 7.56zm-7.26-.12H19.27v41.58h61.26V50.17zM72.3 31.29c-2.09 0-3.78 1.69-3.78 3.78s1.69 3.78 3.78 3.78 3.78-1.69 3.78-3.78-1.7-3.78-3.78-3.78z"/>
</svg>
