<svg xmlns="http://www.w3.org/2000/svg" xml:space="preserve" viewBox="0 0 100 100"><path d="M45.91 83.86c-1.62 0-3.07-.56-3.89-1.48a.632.632 0 0 1 .05-.89c.26-.23.66-.21.89.05.58.65 1.71 1.06 2.95 1.06 1.24 0 2.37-.41 2.95-1.06l.47-.54.47.53c.58.65 1.7 1.06 2.94 1.06s2.37-.41 2.95-1.06l.48-.53.47.53c.58.65 1.71 1.06 2.95 1.06 1.24 0 2.37-.41 2.95-1.06.23-.26.63-.29.89-.05.26.23.29.63.05.89-.82.93-2.28 1.48-3.89 1.48-1.34 0-2.57-.38-3.42-1.04-.85.66-2.08 1.04-3.42 1.04-1.34 0-2.57-.38-3.42-1.04-.85.66-2.08 1.05-3.42 1.05zm27.14-5.78c1.46 0 2.78-.51 3.53-1.35.23-.26.21-.66-.05-.89a.632.632 0 0 0-.89.05c-.51.57-1.5.92-2.59.92-1.09 0-2.08-.35-2.59-.93l-.47-.53-.47.53c-.51.57-1.49.92-2.58.92s-2.08-.35-2.59-.93l-.47-.53-.48.56c-.51.57-1.5.92-2.59.92-1.09 0-2.08-.35-2.59-.93a.623.623 0 0 0-.89-.05c-.26.23-.28.63-.05.89.75.84 2.07 1.35 3.53 1.35 1.19 0 2.29-.34 3.06-.92.77.58 1.87.92 3.06.92s2.29-.34 3.05-.92c.78.58 1.87.92 3.07.92zm-32.89-.47c1.26 0 2.4-.44 3.06-1.18.26-.29.23-.73-.06-.99a.708.708 0 0 0-.99.06c-.39.44-1.16.71-2.01.71-.86 0-1.63-.27-2.02-.71l-.52-.59-.52.59c-.39.44-1.16.71-2.01.71-.86 0-1.63-.27-2.02-.71l-.52-.59-.52.59c-.39.44-1.16.71-2.01.71-.85 0-1.63-.27-2.01-.71a.708.708 0 0 0-.99-.06c-.29.26-.31.7-.06.99.65.74 1.8 1.18 3.06 1.18.97 0 1.87-.26 2.53-.72.66.46 1.57.72 2.54.72s1.87-.26 2.53-.72c.66.46 1.56.72 2.54.72zm58.8-17.51c-2.2.52-3.89 4.13-4.36 5.48l-.17.51-5.36-.33-.18-.37c-.13-.27-3.25-6.53-11.66-6.53h-.25c-8.04.12-10.38 5.38-10.48 5.6l-.19.44-3.99-.11-.18-.41c-.09-.2-2.24-4.99-8.92-5.24h-.26c-4.55 0-6.27 4.56-6.28 4.61l-.16.44-3.75.21-.09-.64c-.03-.17-.69-4.16-5.37-4.16h-.07c-3.87.03-4.6 3.68-4.62 3.84l-.11.6-3.3-.14-.13-.51c-.04-.16-.98-3.79-3.97-3.79h-.1c-2.11.06-2.8 2.3-3.01 3.4.02.44-.11 1.14-.44 1.21L6.78 67.12c-.05.01-.1.02-.15.02a.708.708 0 0 1-.15-1.4l13.81-2.94c.05-.01.12-.03.19-.04v-7.47l-.08-13.71-6.37-1.81c-.04 0-.09-.01-.13-.02L1.02 36.23c-.38-.1-.6-.49-.49-.87.1-.37.49-.6.87-.49l9.24 2.52.22-3.68c.02-.29.21-.54.5-.63l28.95-8.94.52-20.71c-.22-.37-.61-1.05-.7-1.5-.05-.26.01-.52.18-.75C40.85.45 42.6.07 43.18.01c.87-.1 2.08.46 2.7 1.02.34.31.5.61.5.94 0 .53-.45 1.18-.81 1.61l.08 19.02c.96-.47 2.15-.99 2.72-.99.81 0 1.42.19 1.48.22L97.24 32.7c.38.09.62.47.53.84-.09.38-.47.61-.84.53L49.48 23.19c-.01 0-.02-.01-.03-.01l.26 29.98 26.5-1.15c-.35-.1-.62-.41-.62-.79l.02-19.8c0-.45.38-.82.85-.82l.13.01 3.3.73c.43.04.77.39.77.82l.02 19.31c0 .12-.03.24-.08.34l17.62-.76h.03c.38 0 .69.3.7.67.02.39-.28.72-.67.74l-76.39 3.3v3.95c.69-.87 1.69-1.51 3.06-1.55 3.09-.04 4.72 2.57 5.32 4.34l1.08.04c.55-1.77 2.26-4.36 5.85-4.39h.08c4.67 0 6.18 3.32 6.61 4.74l1.63-.09c.64-1.34 2.96-5.23 7.73-5.09 6.49.24 9.23 4.34 9.96 5.68l2.19.06c.79-1.45 3.85-5.91 11.54-6.02h.27c8.2 0 11.87 5.45 12.73 6.96l3.5.21c.57-1.4 2.35-5.23 5.17-5.89.37-.08.76.15.85.52s-.12.78-.5.87zm-22.19-9.21 2.74.21-.02-18.64-2.7-.6-.02 19.03zM21.29 40.37c.3.09.51.36.51.67l.08 13.32 26.41-1.14-.26-30.11c-.61.21-1.79.76-2.75 1.27-.22.12-.48.11-.69-.02a.713.713 0 0 1-.34-.6l-.09-20.43c0-.18.06-.34.18-.48.23-.26.47-.59.58-.79-.31-.27-1.16-.7-1.6-.65-.59.06-1.35.31-1.71.5.12.27.34.65.52.94.08.12.11.26.11.4l-.54 21.43c-.01.3-.21.57-.5.66l-28.97 8.95-.21 3.45 9.27 2.63zm18.93 9.71.02-21.79c0-.44.34-.8.77-.85l3.49-.84c.47 0 .86.38.86.85l.02 22.34c0 .46-.37.84-.83.85l-3.43.29c-.51 0-.9-.38-.9-.85zm1.18-.35 2.81-.24-.02-21.62-2.77.68-.02 21.18zm-7.32.94.15-20.9c0-.43.33-.78.75-.83l3.09-.83c.47 0 .85.38.85.84l.02 21.47c0 .46-.37.83-.82.85l-3.14.24c-.52 0-.9-.38-.9-.84zm1.18-.36 2.5-.2-.02-20.72-2.34.64-.14 20.28zm-6.78.74.11-19.71c0-.42.32-.77.73-.82l2.84-.68c.45 0 .83.37.83.83l.02 20.16c0 .45-.35.81-.79.83l-2.87.23c-.51-.02-.87-.39-.87-.84zm1.17-.38 2.18-.18-.02-19.38-2.05.51-.11 19.05zm-6.7.96.11-18.94c0-.42.31-.76.72-.81l2.7-.66c.45 0 .81.37.81.82l.02 19.37c0 .44-.35.8-.78.82l-2.71.22c-.51-.01-.87-.37-.87-.82zm1.18-.39 2-.16-.02-18.58-1.88.47-.1 18.27zm34.04-23.53.03 22.05c0 .47-.4.86-.9.86l-3.94-.29c-.48-.01-.87-.39-.87-.86l.02-22.6c0-.47.4-.86.89-.86l.13.01 3.82.83c.47.04.82.41.82.86zm-1.14 21.7L57 27.98l-3.3-.72-.02 21.91 3.35.24zm9.11-20.14.03 20.97c0 .47-.4.84-.89.84l-3.94-.28c-.48-.01-.87-.39-.87-.84l.02-21.49c0-.46.4-.84.89-.84l.12.01 3.82.79c.46.04.82.4.82.84zm-1.15 20.62-.03-20.33-3.3-.69-.02 20.78 3.35.24zm8.51-19.17.02 20.21c0 .46-.39.83-.87.83l-3.64-.27a.843.843 0 0 1-.84-.83l.02-20.71c0-.46.39-.83.87-.83l.12.01 3.53.76c.44.04.79.4.79.83zm-1.15 19.84-.02-19.55-2.97-.64-.02 19.97 3.01.22z"/></svg>
