<svg id="Layer_1" data-name="Layer 1" xmlns="http://www.w3.org/2000/svg" viewBox="0 0 91.56 91.56"><defs><style>.cls-1,.cls-2{fill:#fff;}.cls-1{fill-rule:evenodd;}</style></defs><title>latu</title><path class="cls-1" d="M17.1,22.55,64.73,74.28a3.57,3.57,0,0,0,2.58-.68,2.63,2.63,0,0,0,.83-2.55L18.47,21s-.33-.26-1,.15S17.1,22.55,17.1,22.55Z"/><path class="cls-1" d="M20,19.11l54.49,49A2.43,2.43,0,0,0,77,67.28a1.74,1.74,0,0,0,.43-2.14l-56-47.21a1.44,1.44,0,0,0-1,0A1,1,0,0,0,20,19.11Z"/><circle class="cls-2" cx="57.14" cy="77.62" r="2.96"/><circle class="cls-2" cx="62.77" cy="45.63" r="2.47"/><circle class="cls-2" cx="34.57" cy="51.68" r="2.52"/><circle class="cls-2" cx="38.54" cy="25.72" r="2.06"/><circle class="cls-2" cx="17.22" cy="31.04" r="2.37"/><path class="cls-2" d="M62.37,31.46a7.45,7.45,0,0,1-3.65-.76l.72-1.64c1.68.57,11.69.46,6.73-.28A11.66,11.66,0,0,1,64,28l-1.67-.75,1.62-.85a11.57,11.57,0,0,0,2.39-1.66c-2.67-.46-5.13-1.59-5.43-3.11l-.21-1,1.08,0a7.12,7.12,0,0,0,2.91-.7c-2-.52-4.42-1.4-4.34-4.66l0-1.05,1,.2a2.54,2.54,0,0,0,2.46-.65c-1.9-1-3.78-2-4.84-4.33a16.09,16.09,0,0,1-5.72,3.84,7.65,7.65,0,0,0,3.26.47l.55,0,.59,1-.3.57a10,10,0,0,1-5.91,3.51,1.22,1.22,0,0,0,.42.55c.55.4,1.53.36,2.84-.12l.38-.13.73.41.12.44a2.75,2.75,0,0,1-1.06,2.43,8.94,8.94,0,0,1-3.1,1.83,5.11,5.11,0,0,0,3.26.44l.54-.08.67,1-.31.58c-.25.35-.94,1.33-6.56,3.21a15.82,15.82,0,0,0,6.88.21l.3,1.76c-6,1-9.58-1.1-10-1.32-.79-.42-.42-1.66.16-1.68l.18-.06a51.49,51.49,0,0,0,5.41-1.92A5.17,5.17,0,0,1,50,25.07a6.1,6.1,0,0,1-1.37-1.34s-1.06-1.25-.42-1.39a17.78,17.78,0,0,1,2.34-.15,3.75,3.75,0,0,0,2.71-.87,3.62,3.62,0,0,1-2.48-.59A4.33,4.33,0,0,1,49,17.86a.65.65,0,0,1,.58-.74,3.65,3.65,0,0,1,.81-.06,7.83,7.83,0,0,0,4.29-1.67c-1.56-.19-3.54-.77-3.91-2.4l-.2-.87c.32-.62.58-.75.85-.59,3.37-.77,4.48-2.57,5.68-3.8.21-.22.38-1,.53-1.16a1.87,1.87,0,0,1,1.58-1.24c1.33-.22,1.71,2.43,1.71,2.43.71,2.78,2,3.5,4.23,4.61,0,0,1.26.45,1.19.71s-.4,1.1-.4,1.1a4.33,4.33,0,0,1-3.73,2.05c.36,1.23,1.57,1.59,3.44,2.06.38.1.59-.09.95,0,0,0,1.14,0,1.35.63s-.76,1.28-.76,1.28a5.22,5.22,0,0,1-3.47,1.9,10.93,10.93,0,0,0,4.25.94s1.8-.39,2,.21S68.87,25,68.87,25a11.31,11.31,0,0,1-2.5,2,16.81,16.81,0,0,0,3.21.3s2.19-.39,2.4.81S70.18,30,70.18,30A11.52,11.52,0,0,1,62.37,31.46ZM51,23.4"/><path class="cls-2" d="M59.72,33.91a.88.88,0,0,1-.91-.66,23.54,23.54,0,0,1-.78-6,.93.93,0,0,1,.88-.91.9.9,0,0,1,.9.89,22.18,22.18,0,0,0,.72,5.6.89.89,0,0,1-.64,1.08A.47.47,0,0,1,59.72,33.91Z"/></svg>