<svg xmlns="http://www.w3.org/2000/svg" xml:space="preserve" viewBox="0 0 100 100">
  <path d="M86.17 91.57c-1.7-1.33-1.69-1.53-1.65-2.47v-.08c.16-.32.77-1.07 1.26-1.69 2.02-2.53 5.4-6.76 5.39-11.77-.01-6.65-3.7-12.57-6.86-15.62-.99-.95-1.87-1.57-2.63-1.86l-.09-56.43S81.51.57 80.8.5s-1.27.5-1.27.5L33.44 60.42l-.32-.25c-.58-.45-1.42-.35-1.87.23L9.11 88.69c-.45.58-.35 1.42.23 1.87l2.64 2.06c.58.45 1.42.35 1.87-.23l18.5-23.64a7.912 7.912 0 0 0 2.74 4.11 7.938 7.938 0 0 0 11.14-1.36 7.938 7.938 0 0 0-1.36-11.14 7.942 7.942 0 0 0-7.1-1.37l3.27-4.18 1.8 1.41 1.09-1.39-1.8-1.41 7.4-9.45 1.8 1.41 1.09-1.39-1.81-1.41 7.4-9.45 1.81 1.41 1.09-1.39-1.8-1.41 7.4-9.45 1.8 1.41 1.09-1.39-1.81-1.41 6.52-8.44 1.2 1.04 1.22-1.22-1.31-1.22 4.54-6.66-.3 53.87c-3.33 1.73-9.1 9.01-9.09 17.3.01 5.04 3.1 9.5 4.95 12.17.4.58.9 1.3 1.05 1.6-.03.53-.29 1.04-1.34 2.08-.04.04-4.38 4.51-4.09 6.69.06.48.34.9.76 1.14.28.17.59.24.96.24.93 0 2.23-.49 4.36-1.33 1.18-.47 2.66-1.05 3.19-1.1.62-.06 3.09.71 4.57 1.18 3.46 1.08 4.49 1.37 5.33.75.4-.3.63-.76.64-1.28.04-1.89-3.6-5.37-4.58-6.14zM42.9 62.89a4.716 4.716 0 0 1 .81 6.63 4.716 4.716 0 0 1-6.63.81 4.716 4.716 0 0 1-.81-6.63 4.723 4.723 0 0 1 6.63-.81zm42.69 32.78c-2.78-.87-4.54-1.39-5.63-1.29-.85.08-2.05.54-3.92 1.27-.42.17-.95.38-1.47.57.71-1.01 1.67-2.2 2.37-2.88 1.05-1.03 2.17-2.29 2.15-4.17-.01-.78-.52-1.51-1.53-2.97-1.67-2.41-4.46-6.44-4.47-10.64-.01-7.77 5.98-14.31 7.7-14.97 1.44.58 7.68 6.8 7.69 14.95.01 4.07-2.89 7.69-4.8 10.09-1.17 1.46-1.81 2.27-1.84 3.15l-.01.2c-.07 1.75.17 2.73 2.68 4.7.77.61 1.66 1.54 2.36 2.37-.45-.12-.89-.26-1.28-.38zm-4.67-29.05c1.28 0 2.32 1.04 2.32 2.32 0 1.28-1.04 2.32-2.32 2.32-1.28 0-2.32-1.04-2.32-2.32 0-1.28 1.04-2.32 2.32-2.32z"/>
</svg>
