<svg xmlns="http://www.w3.org/2000/svg" xml:space="preserve" viewBox="0 0 100 100">
  <path d="M50.45 29.95c8.12 0 14.72-6.61 14.72-14.72C65.17 7.11 58.56.51 50.45.51c-8.12 0-14.72 6.61-14.72 14.72-.01 8.11 6.6 14.72 14.72 14.72zm-.12-24.32c5.3 0 9.61 4.31 9.61 9.61s-4.31 9.61-9.61 9.61-9.61-4.31-9.61-9.61c0-5.29 4.31-9.61 9.61-9.61zm33.4 16.2c3.64 3.42 4.21 8.49.79 12.13L69.67 49.28l-.06 15.09c0 1.87-.64 2.51-2.51 2.51s-2.64-.78-2.64-2.64l.03-15.23c0-.86.33-1.69.92-2.31l15.52-16.53c.87-.92.47-3.36-.92-4.65-1.57-1.2-4.27-1.23-5.14-.31L61.52 39.44c-.64.68-1.53 1.07-2.46 1.07l-17.76-.05c-.93 0-1.82-.39-2.46-1.07L24.99 25.16c-.87-.92-3.61-2-5.53-.08-1.92 1.77-1.42 3.94-.55 4.86l15.18 16.21c.59.63 1.18 1.79 1.18 2.65v42.62c0 1.14.01 3.14 1.71 3.11l10.41.02V70.22c0-1.87.46-2.88 2.33-2.88s2.49 1.01 2.49 2.88v24.46l10.72-.16c1.14 0 1.71-.57 1.71-1.71V82.47c0-1.87.62-3.11 2.49-3.11s2.49 1.03 2.49 2.9l.16 10.72c0 4.87-1.97 6.52-6.83 6.52H37.13c-4.87 0-6.83-2.43-6.83-7.3l-.03-42.68-14.61-15.56c-3.42-3.64-3.24-9.38.4-12.8s9.38-3.24 12.8.4l12.6 13.94h17.26l12.27-13.36c1.65-1.76 3.84-2.68 6.25-2.76 2.42-.07 4.72.8 6.49 2.45zM69.81 73.16c0 1.5-1.22 2.72-2.72 2.72-1.5 0-2.72-1.22-2.72-2.72 0-1.5 1.22-2.72 2.72-2.72 1.5 0 2.72 1.22 2.72 2.72z"/>
</svg>
