<svg xmlns="http://www.w3.org/2000/svg" xml:space="preserve" viewBox="0 0 100 100">
  <path d="M44.49 45.14c-6.14 1.41-11.36 5.13-14.71 10.47-3.34 5.34-4.41 11.66-2.99 17.8 1.41 6.14 5.13 11.36 10.47 14.71a23.427 23.427 0 0 0 17.8 2.99c12.67-2.91 20.61-15.6 17.7-28.27s-15.6-20.6-28.27-17.7zm25.32 18.38c2.54 11.05-4.38 22.1-15.43 24.64-5.35 1.23-10.86.3-15.52-2.61-4.65-2.91-7.89-7.47-9.12-12.82-1.23-5.35-.3-10.86 2.61-15.51 2.91-4.65 7.47-7.89 12.82-9.12 1.54-.35 3.09-.52 4.61-.52 9.36-.01 17.85 6.44 20.03 15.94zm15.13-53.48c.25-.43.32-.95.19-1.44-.13-.48-.45-.9-.88-1.15L72.63.75c-.03-.02-.07-.03-.11-.05-.05-.03-.11-.05-.17-.08-.06-.02-.12-.04-.19-.06-.05-.01-.11-.03-.16-.04-.07-.01-.14-.02-.22-.02-.04 0-.07-.01-.1-.01H28.31c-.03 0-.07.01-.1.01-.07 0-.15.01-.22.02-.06.01-.11.02-.17.04-.06.02-.12.03-.18.06-.06.02-.12.05-.18.08-.03.02-.06.03-.09.04L15.76 7.46c-.9.52-1.22 1.68-.69 2.58L33.2 41.46c-.68.24-1.34.57-1.95 1.01a7.659 7.659 0 0 0-3.13 5.46c-2.11.37-4 1.62-5.15 3.46a7.574 7.574 0 0 0-.77 6.46 7.616 7.616 0 0 0-3.61 5.32c-.35 2.18.27 4.39 1.65 6.07a7.63 7.63 0 0 0-1.2 6.09c.52 2.26 2 4.11 4.02 5.11a7.586 7.586 0 0 0 1.22 6.31 7.628 7.628 0 0 0 5.46 3.12c.37 2.11 1.62 4 3.46 5.15a7.574 7.574 0 0 0 6.46.77 7.616 7.616 0 0 0 5.32 3.61c.4.07.81.1 1.21.1 1.77 0 3.49-.62 4.86-1.74a7.67 7.67 0 0 0 6.09 1.2c2.26-.52 4.11-2 5.11-4.02 2.16.54 4.46.12 6.31-1.21a7.659 7.659 0 0 0 3.13-5.46c2.11-.37 4-1.62 5.15-3.46a7.574 7.574 0 0 0 .77-6.46 7.616 7.616 0 0 0 3.61-5.32c.35-2.18-.27-4.39-1.65-6.07a7.63 7.63 0 0 0 1.2-6.09c-.52-2.26-2-4.11-4.02-5.11.54-2.16.12-4.46-1.22-6.31a7.659 7.659 0 0 0-5.46-3.13 7.611 7.611 0 0 0-3.22-4.98c.02-.03.05-.05.06-.08l18.03-31.22zm-21.3 29.32c-.13.22-.2.45-.23.69-1.09-.12-2.2-.01-3.25.35a7.616 7.616 0 0 0-5.32-3.61 6.94 6.94 0 0 0-.77-.08L72.38 4.98l8.34 4.81-17.08 29.57zm.24-27.24H36.12l-4.53-7.84H68.4l-4.52 7.84zm-2.18 3.79L50.25 35.73c-.1.17-.16.35-.2.53L38.3 15.91h23.4zM27.62 4.98 46.28 37.3a7.585 7.585 0 0 0-8.72 3.96c-.24-.06-.48-.1-.72-.14.08-.42.02-.88-.21-1.28L19.29 9.79l8.33-4.81zm40.02 43.96c.32.3.74.44 1.19.39 1.65-.19 3.27.54 4.24 1.88 1 1.39 1.15 3.21.38 4.76-.21.41-.21.89-.02 1.31.19.42.56.72 1.01.84 1.69.42 2.98 1.74 3.37 3.43.37 1.59-.15 3.27-1.34 4.39a1.51 1.51 0 0 0 .08 2.28 4.631 4.631 0 0 1 1.67 4.33 4.601 4.601 0 0 1-3.09 3.63c-.44.14-.78.48-.94.91-.16.43-.12.91.12 1.3.9 1.49.88 3.34-.04 4.81a4.554 4.554 0 0 1-4.05 2.15c-.42-.06-.86.16-1.16.48-.3.32-.44.76-.39 1.19.18 1.65-.54 3.27-1.88 4.24a4.61 4.61 0 0 1-4.76.38c-.41-.21-.89-.21-1.31-.02-.42.19-.72.56-.84 1.01A4.566 4.566 0 0 1 56.45 96c-1.58.36-3.27-.15-4.39-1.35-.3-.32-.72-.51-1.16-.48-.44.02-.85.22-1.12.56a4.631 4.631 0 0 1-4.32 1.67 4.573 4.573 0 0 1-3.63-3.09 1.54 1.54 0 0 0-.91-.94c-.17-.06-.35-.09-.53-.09-.27 0-.54.07-.78.22-1.5.9-3.34.88-4.81-.04a4.62 4.62 0 0 1-2.15-4.05c.01-.44-.16-.86-.48-1.16-.32-.3-.76-.45-1.19-.39-1.66.18-3.27-.54-4.24-1.88a4.61 4.61 0 0 1-.38-4.76c.21-.41.21-.89.02-1.31-.19-.42-.56-.72-1.01-.84A4.566 4.566 0 0 1 22 74.64c-.37-1.58.15-3.27 1.34-4.39a1.51 1.51 0 0 0-.08-2.28 4.631 4.631 0 0 1-1.67-4.32 4.601 4.601 0 0 1 3.09-3.63c.44-.14.78-.48.94-.91.16-.43.12-.91-.12-1.3-.9-1.49-.88-3.34.04-4.81a4.633 4.633 0 0 1 4.05-2.15c.39.02.86-.16 1.16-.48.3-.32.44-.76.39-1.19-.18-1.65.54-3.27 1.88-4.24a4.61 4.61 0 0 1 4.76-.38c.41.2.89.21 1.31.02.42-.19.72-.56.84-1.01a4.566 4.566 0 0 1 3.43-3.37c1.59-.36 3.27.15 4.39 1.35.3.32.73.51 1.16.48.44-.02.85-.22 1.12-.56a4.609 4.609 0 0 1 4.33-1.67c1.7.27 3.09 1.46 3.63 3.09.15.44.48.78.91.94.43.16.91.12 1.31-.12 1.49-.9 3.34-.88 4.81.04a4.62 4.62 0 0 1 2.15 4.05c-.02.42.15.84.47 1.14zm-9.6 33.26H43.45c-.75 0-1.36-.61-1.36-1.36v-4.85c0-.75.61-1.36 1.36-1.36h2.28V64.61l-1.7.8c-.34.16-.72.17-1.07.04-.35-.13-.62-.4-.77-.75l-1.68-4.05c-.28-.66.01-1.43.66-1.74l.61-.3c1.74-.84 3.12-1.5 5.33-4.13.26-.31.64-.49 1.04-.49h6.49c.75 0 1.36.61 1.36 1.36v19.28h2.03c.75 0 1.36.61 1.36 1.36v4.85c.01.75-.6 1.36-1.35 1.36zm-13.22-2.72h11.86v-2.13h-2.03c-.75 0-1.36-.61-1.36-1.36V56.71h-4.5c-2.12 2.41-3.68 3.31-5.26 4.08l.64 1.54 2.35-1.11a1.358 1.358 0 0 1 1.94 1.23v13.53c0 .75-.61 1.36-1.36 1.36h-2.28v2.14z"/>
</svg>
