<svg xmlns="http://www.w3.org/2000/svg" xml:space="preserve" viewBox="0 0 100 100">
  <path d="M85.63 82.71H62.88c-7.16 0-14.35-1.61-20.79-4.64l-3.49-1.65c-.33-.15-.68-.23-1.05-.23h-3.57v-30.2h6.41a2.4 2.4 0 0 0 1.54-.55l10.24-8.35c4.66-3.8 8.17-8.77 10.14-14.37 0 0 1.91-5.43 1.93-5.47.54-1.1 1.67-1.81 2.94-1.81 1.79 0 3.25 1.42 3.25 3.17l-.01 5.6c-.01 3.91-.84 7.71-2.48 11.29l-2.8 6.13a2.23 2.23 0 0 0-.1 1.64c.01.05.53 1.69 2.31 1.69h24.31c1.67 0 3.04 1.33 3.04 2.96s-1.36 2.96-3.04 2.96h-3.42c-1.33 0-2.41 1.05-2.41 2.34 0 1.3 1.08 2.35 2.41 2.35h1.41c1.67 0 3.04 1.33 3.04 2.96s-1.36 2.96-3.04 2.96h-3.42c-1.33 0-2.41 1.05-2.41 2.35s1.08 2.35 2.41 2.35h1.42c1.67 0 3.04 1.33 3.04 2.96s-1.36 2.96-3.04 2.96h-3.42c-1.33 0-2.41 1.05-2.41 2.35s1.08 2.35 2.41 2.35h1.42c1.67 0 3.04 1.33 3.04 2.96-.02 1.62-1.38 2.94-3.06 2.94m-56.97 1.84H5.82V38.84h22.84v45.71m68.83-26.02c0-1.6-.51-3.09-1.38-4.32 2.04-1.38 3.39-3.68 3.39-6.29 0-4.22-3.52-7.65-7.85-7.65H71.02l1.31-2.86c1.91-4.18 2.88-8.61 2.89-13.19l.01-5.61c0-4.33-3.62-7.86-8.07-7.86-3.3 0-6.24 1.93-7.48 4.92-.05.13-1.93 5.52-1.93 5.52-1.69 4.79-4.7 9.05-8.68 12.3l-9.57 7.8h-5.53v-2.46c0-2.59-2.16-4.69-4.81-4.69H5.31c-2.65 0-4.81 2.1-4.81 4.69v45.71c0 2.59 2.16 4.69 4.81 4.69h23.85c2.65 0 4.81-2.1 4.81-4.69v-3.67h3.02l3 1.41C47.08 85.64 55 87.4 62.88 87.4h22.75c4.33 0 7.85-3.43 7.85-7.65 0-1.6-.51-3.09-1.38-4.32 2.04-1.38 3.38-3.68 3.38-6.29 0-1.6-.51-3.09-1.38-4.32 2.05-1.38 3.39-3.68 3.39-6.29M21.05 74.28c-1.67 0-3.02 1.32-3.02 2.94s1.35 2.94 3.02 2.94 3.02-1.32 3.02-2.94-1.36-2.94-3.02-2.94z"/>
</svg>
