<svg id="Layer_1" data-name="Layer 1" xmlns="http://www.w3.org/2000/svg" viewBox="0 0 91.56 91.56"><defs><style>.cls-1{fill:none;}.cls-2{fill:#fff;}</style></defs><title>soutuvene</title><rect class="cls-1" x="28.41" y="33.99" width="34.73" height="23.58"/><path class="cls-2" d="M80.41,39.34a1.25,1.25,0,0,0-1-.46H43l-4.29-4.29a1.77,1.77,0,0,0-1.62.28A1.25,1.25,0,0,0,37,36.35l2.54,2.53H12.11a1.24,1.24,0,0,0-1.24,1.25c0,7.54,7.25,13.68,16.17,13.68H54.45l4.27,4.27c.23,5.15,5.66,12.58,10.62,12.58a1.27,1.27,0,0,0,.88-.36l2.48-2.49a1.22,1.22,0,0,0,.37-.88c0-5-7.44-10.38-12.59-10.61L58,53.81H77a1.25,1.25,0,0,0,1.22-1l2.49-12.44A1.23,1.23,0,0,0,80.41,39.34ZM70.55,66.45l-1.7,1.69c-2.69-.35-7.08-5.54-7.57-9.27C65,59.36,70.19,63.75,70.55,66.45Zm-43-15.6c-6.68,0-12.2-3.9-12.92-8.91L42,41.85l9.75,8.92ZM75,50.69l-20.17-.25-9.25-8.67H77Z"/><circle class="cls-2" cx="35.29" cy="32.34" r="1.45"/></svg>