<svg id="Layer_1" data-name="Layer 1" xmlns="http://www.w3.org/2000/svg" viewBox="0 0 91.73 91.56"><defs><style>.cls-1{fill:#fff;}</style></defs><title>peukku</title><path class="cls-1" d="M70.08,64.57H55.31a31.22,31.22,0,0,1-13.5-3.09l-2.27-1.1a1.58,1.58,0,0,0-.68-.16H36.54V40.11H40.7a1.57,1.57,0,0,0,1-.36l6.65-5.56a21.69,21.69,0,0,0,6.59-9.57L56.19,21a2.11,2.11,0,0,1,4,.91s0,3.73,0,3.73a18.38,18.38,0,0,1-1.61,7.52l-1.82,4.08a1.53,1.53,0,0,0-.06,1.09,1.6,1.6,0,0,0,1.5,1.13H74a2,2,0,0,1,0,3.94H71.77a1.56,1.56,0,0,0,0,3.12h.92a2,2,0,0,1,0,3.95H70.47a1.56,1.56,0,1,0,0,3.12h.92a2,2,0,0,1,0,3.94H69.16a1.57,1.57,0,0,0,0,3.13h.92a2,2,0,0,1,0,3.94m-37,1.22H18.26V35.35H33.09V65.79h0M77.78,48.46a5.08,5.08,0,0,0-.89-2.87A5.1,5.1,0,0,0,74,36.3H60.6l.85-1.9a21.4,21.4,0,0,0,1.87-8.78s0-3.72,0-3.74a5.23,5.23,0,0,0-10.09-2C53.2,20,52,23.6,52,23.6a18.59,18.59,0,0,1-5.64,8.19L40.13,37H36.54V35.35a3.13,3.13,0,0,0-3.12-3.13H17.93a3.13,3.13,0,0,0-3.12,3.13V65.79a3.13,3.13,0,0,0,3.12,3.13H33.42a3.13,3.13,0,0,0,3.12-3.13V63.35h2l2,.94a34.29,34.29,0,0,0,14.86,3.4H70.08a5.1,5.1,0,0,0,5.1-5.09,5,5,0,0,0-.9-2.88,5.1,5.1,0,0,0,1.31-7.07,5.1,5.1,0,0,0,2.19-4.19"/><circle class="cls-1" cx="28.15" cy="60.91" r="1.96"/></svg>