<svg id="Layer_1" data-name="Layer 1" xmlns="http://www.w3.org/2000/svg" viewBox="0 0 91.56 91.56"><defs><style>.cls-1{fill:#fff;}.cls-2{fill:none;stroke:#fff;stroke-miterlimit:10;stroke-width:2px;}</style></defs><title>kalastus</title><path class="cls-1" d="M64.41,48.22,64.35,9.9s0-.72-.53-.76a1.14,1.14,0,0,0-.84.33L32.16,49.2,32,49a.91.91,0,0,0-1.26.15L15.89,68.1A.9.9,0,0,0,16,69.35l1.77,1.38a.9.9,0,0,0,1.25-.15L31.43,54.77a5.37,5.37,0,0,0,1.83,2.75,5.31,5.31,0,1,0,1.8-9.27l2.19-2.8,1.2.94.73-.93L38,44.52l4.94-6.32,1.21.94.73-.93-1.21-.94,5-6.32,1.21.94.72-.93L49.33,30l4.94-6.32,1.21.94.73-.93L55,22.77l4.36-5.64.8.69L61,17l-.88-.81,3-4.46-.21,36.53M38.48,50.85a3.16,3.16,0,1,1-4.43.54A3.16,3.16,0,0,1,38.48,50.85Z"/><path class="cls-2" d="M57.76,59.33c0,4.4,4,8.29,4,9.11a2.89,2.89,0,0,1-1.16,2.13c-.76.75-2.57,3-2.48,3.71s4-1.36,5.22-1.48,5.73,1.79,6.17,1.46S68,71.63,66.86,70.73c-1.58-1.23-1.48-1.6-1.45-2.54s4.45-4.48,4.45-8.88c0-6-4.88-11-6.07-10.91S57.75,53.3,57.76,59.33Z"/><circle class="cls-1" cx="63.9" cy="54.89" r="1.55"/></svg>