<svg id="Layer_1" data-name="Layer 1" xmlns="http://www.w3.org/2000/svg" viewBox="0 0 91.56 91.56"><defs><style>.cls-1{fill:#fff;}</style></defs><title>wifi</title><path class="cls-1" d="M45.79,32.35a33.3,33.3,0,0,1,19.38,6,2.75,2.75,0,0,0,3.23-.08h0c1-.78.27-2.58-.75-3.31-6-4.34-13.25-6.47-21.87-6.47s-15.92,2.26-21.94,6.6c-1,.73-1.64,2.4-.68,3.18h0a2.76,2.76,0,0,0,3.24.08A33.28,33.28,0,0,1,45.79,32.35Z"/><path class="cls-1" d="M45.59,41.68a22.05,22.05,0,0,1,12.62,3.84,2.58,2.58,0,0,0,3-.12h0c.94-.79.39-2.43-.63-3.14a25.39,25.39,0,0,0-15-4.35,25.44,25.44,0,0,0-15.05,4.42c-1,.7-1.53,2.28-.6,3.07h0a2.58,2.58,0,0,0,3,.12A22.11,22.11,0,0,1,45.59,41.68Z"/><path class="cls-1" d="M45.59,50.6a12.69,12.69,0,0,1,6.7,1.86,2.6,2.6,0,0,0,3-.17h0c1-.82.46-2.39-.66-3.09a16.29,16.29,0,0,0-9-2.39,16.2,16.2,0,0,0-9,2.33c-1.11.69-1.66,2.33-.68,3.15h0a2.6,2.6,0,0,0,3,.17A12.64,12.64,0,0,1,45.59,50.6Z"/><circle class="cls-1" cx="45.65" cy="59.64" r="3.43"/></svg>