<svg xmlns="http://www.w3.org/2000/svg" xml:space="preserve" viewBox="0 0 100 100">
  <path d="M82.23 80.51c9.52 0 17.27-7.75 17.27-17.27s-7.75-17.27-17.27-17.27c-.77 0-1.55.05-2.32.16l-.34.05-.73-2.93.38-.09c1.26-.29 2.04-1.56 1.76-2.82l-2.6-11.44c-.14-.61-.51-1.13-1.04-1.47-.53-.34-1.17-.44-1.78-.3l-.49.12-.63-2.98c-.06-.29 0-.57.18-.81.18-.23.44-.37.73-.39l7.45-.44c.54-.03 1.04.29 1.24.8.21.56 0 1.19-.51 1.5l-2.12 1.32c-.35.22-.6.57-.7.97-.09.41-.03.83.19 1.18s.57.6.97.7c.41.09.83.03 1.18-.2l2.12-1.32a4.389 4.389 0 0 0 1.78-5.27 4.361 4.361 0 0 0-4.34-2.81l-7.45.44a4.108 4.108 0 0 0-3.78 4.96l.64 3.02-.27.13c-.39.19-.73.49-.96.86-.34.53-.44 1.16-.3 1.78l.37 1.63-31.9 6.35-1.23-4.29.36-.11c2.6-.81 4.87-1.02 6.56-.61.62.15 1.26-.09 1.64-.61.23-.32 2.24-3.25 1.16-5.81-.44-1.03-1.54-2.36-4.3-2.77-2.75-.42-9.25.57-14.22 1.47-.98.18-1.84.76-2.35 1.61-.52.85-.65 1.88-.36 2.83l1.29 4.23a3.485 3.485 0 0 0 5 2.05c.61-.33 1.25-.65 1.89-.95l.41-.19 1.25 4.34-9.25 10.54-.28-.19a16.54 16.54 0 0 0-9.4-2.93c-9.15 0-16.6 7.45-16.6 16.6 0 9.15 7.45 16.6 16.6 16.6 8.48 0 15.57-6.35 16.5-14.78l.04-.34h3.16l.07.29a8.343 8.343 0 0 0 8.08 6.26c1.73 0 3.4-.53 4.81-1.53l.25-.18 2.01 1.81-1.54 1.45c-.3.29-.48.67-.49 1.09-.01.42.14.81.42 1.12.3.32.7.49 1.14.49.4 0 .78-.15 1.07-.42l5.41-5.07c.31-.28.48-.67.49-1.09.01-.42-.14-.82-.42-1.12-.29-.31-.67-.48-1.09-.49-.41-.02-.82.14-1.12.42l-1.57 1.47-2.22-1.98.15-.27a8.379 8.379 0 0 0 1.04-4.04c0-1.29-.29-2.53-.86-3.69l-.13-.27 2.14-1.82.22.09c.52.22 1.06.33 1.63.33 1.04 0 2.03-.38 2.79-1.08l10.56-9.64c.43-.39.61-.99.46-1.56l-.33-1.22 3.2-2.72.2.5c.18.46.5.85.93 1.11.38.24.81.36 1.25.36h.05l.37-.02.74 2.98-.32.12c-6.73 2.51-11.25 9.02-11.25 16.19-.01 9.53 7.73 17.28 17.26 17.28zM31.02 33.92l-.41.22-1.54-5.04.43-.08c6.49-1.17 11.41-1.71 13.16-1.45 1.04.16 1.71.47 1.89.89.2.46-.01 1.17-.23 1.69l-.11.26-.28-.03c-4.44-.43-9.47 1.68-12.91 3.54zm-3.95 20.92.29.34a13.39 13.39 0 0 1 3.06 6.64l.07.44h-4.11l-.06-.31a9.514 9.514 0 0 0-1.75-3.79l-.19-.25 2.69-3.07zm3.37 10.99c-.95 6.59-6.68 11.55-13.33 11.55-7.43 0-13.48-6.05-13.48-13.48S9.67 50.43 17.1 50.43c2.56 0 5.06.73 7.23 2.11l.38.24L22 55.87l-.27-.15a9.394 9.394 0 0 0-4.63-1.22c-5.19 0-9.41 4.22-9.41 9.41s4.22 9.41 9.41 9.41c4.5 0 8.38-3.2 9.24-7.62l.06-.31h4.1l-.06.44zm-14.9-1.95v.07c0 .04.01.05.01.07 0 .04.01.05.01.07l.02.11c0 .01.01.03.01.05.01.02.01.05.02.07l.06.14c.01.03.02.05.03.07.01.02.02.04.03.05l.09.13c.02.04.04.06.06.08l.03.04.07.07.05.05c.01.01.02.02.04.03l.19.14c.04.02.06.04.08.05l.13.06c.02.01.03.02.05.02l.09.03c.03.01.05.02.06.02.02.01.05.01.08.02l.07.01c.03.01.06.01.09.01.02 0 .03.01.04.01.06.01.11.01.16.01h6.13l-.17.51a6.289 6.289 0 0 1-5.96 4.3c-3.47 0-6.29-2.82-6.29-6.28s2.82-6.28 6.29-6.28c.79 0 1.56.15 2.3.44l.51.2-3.98 4.54c0 .01-.01.01-.01.02-.01.01-.02.03-.03.04l-.03.03s-.01.02-.02.03l-.14.23-.03.06s-.01.02-.01.04l-.01.04c-.01.02-.01.03-.02.05l-.05.22c-.01.05-.01.07-.02.09v.05l-.01.11-.02.08zm5.01-1.62 1.72-1.96.27.46c.19.32.34.65.46.98l.19.52h-2.64zm16.23-.31-.06.31h-3.09l-.04-.34c-.41-3.44-1.87-6.61-4.21-9.19l-.23-.25 7.92-9.03 3.71 12.93-.24.15a8.35 8.35 0 0 0-3.76 5.42zm13.14 3.26-.18.56L46 62.43c-.05-.05-.11-.09-.18-.14-.64-.42-1.51-.31-2.02.26-.57.64-.52 1.63.12 2.21l3.73 3.34-.54.24a5.198 5.198 0 0 1-6.8-2.39 5.19 5.19 0 0 1-.56-2.36c0-.64.11-1.26.34-1.85.25-.66.63-1.25 1.12-1.76a5.162 5.162 0 0 1 3.92-1.6c.82.02 1.59.23 2.31.62a5.27 5.27 0 0 1 2.59 3.32c.1.42.16.85.16 1.27-.01.55-.1 1.1-.27 1.62zm7.06-10.36c-.19.18-.44.26-.69.26-.28 0-.55-.11-.75-.33-.38-.42-.35-1.07.06-1.45l10.65-9.72.59 2.22-9.86 9.02zm11.91-13.47-.28-1.05a1.562 1.562 0 0 0-2.56-.76L53.49 51.03a4.123 4.123 0 0 0-1.19 4.21l.07.24-2.03 1.74-.25-.19a8.23 8.23 0 0 0-5.13-1.77c-.3 0-.6.02-.91.05l-.32.04-3.91-13.64 31.73-6.32.71 3.13-3.37 2.86zm7.07-.69-2.26-9.93 1.8-.41 1.01 4.43 1.25 5.5-1.8.41zm.93 9.45.41-.17.94 3.73-.29.13c-3.67 1.68-6.05 5.37-6.05 9.4 0 5.7 4.64 10.33 10.33 10.33 2.89 0 5.66-1.22 7.62-3.35.28-.31.43-.71.41-1.12-.02-.42-.2-.8-.51-1.08a1.56 1.56 0 0 0-2.2.09 7.21 7.21 0 0 1-5.31 2.34c-3.97 0-7.21-3.23-7.21-7.21 0-2.53 1.35-4.9 3.53-6.2l.44-.25 1.71 6.84a1.55 1.55 0 0 0 1.89 1.13c.84-.21 1.35-1.06 1.14-1.9l-1.71-6.84.52.02c1.92.09 3.75.95 5.04 2.38.28.31.66.49 1.08.51a1.559 1.559 0 0 0 1.64-1.48c.02-.42-.12-.82-.4-1.13a10.374 10.374 0 0 0-7.68-3.42c-.21 0-.42.01-.64.02l-.32.02-.93-3.74.44-.05c.49-.05.97-.07 1.45-.07 7.8 0 14.14 6.35 14.14 14.15s-6.35 14.15-14.15 14.15c-7.8 0-14.14-6.35-14.14-14.15 0-5.75 3.46-10.89 8.81-13.08zm15.58 11.62a2.006 2.006 0 0 1 .55 1.81c-.03.13-.06.25-.12.38-.05.12-.11.24-.18.35-.07.11-.16.21-.25.31-.1.09-.2.18-.31.25-.11.07-.22.13-.35.19-.12.05-.25.09-.38.11-.13.03-.26.04-.39.04s-.26-.01-.39-.04a1.815 1.815 0 0 1-.73-.3c-.11-.07-.21-.16-.31-.25-.09-.09-.18-.19-.25-.31-.07-.11-.13-.23-.19-.35-.05-.12-.09-.25-.11-.38a1.989 1.989 0 0 1 .86-2.06c.11-.07.23-.13.35-.19.12-.05.25-.09.38-.12.26-.05.53-.05.79 0 .13.03.26.06.38.12.12.05.24.11.35.19.11.08.21.16.3.25"/>
</svg>
