<svg xmlns="http://www.w3.org/2000/svg" xml:space="preserve" viewBox="0 0 100 100">
  <path d="m78.32 38.22-1.56-4.69c-.16-.48-.58-.83-1.09-.9l-4.91-.67-1.4-1.8c-.1-.12-.21-.23-.35-.31-.09-.06-2.29-1.41-5.3-1.68-3.13-.28-5.44 1.13-5.54 1.19-.09.05-.17.12-.24.19l-.51.51-3.82-2.21c-.2-.12-.44-.18-.67-.18H46c-.18 0-.36.04-.53.11l-4.3 1.84-.85-.99c-.3-.35-.76-.52-1.24-.45-1.21.2-4.6.72-5.73.72-1.45 0-2.31 1.25-2.75 2.81l-1.36-.68c-.38-.19-.82-.19-1.2 0-.05.02-1.11.56-2.19 1.37-.75.56-1.38 2.27-1.87 5.05-2.07.04-3.74 1.59-3.74 3.51v55.03c0 1.94 1.71 3.52 3.81 3.52h51.87c2.1 0 3.81-1.58 3.81-3.52V40.95c.02-1.11-.55-2.08-1.41-2.73zm-50.85-3.69c.44-.33.88-.6 1.21-.8l2.34 1.17c.4.2.87.19 1.26-.03s.64-.62.67-1.07c.07-.88.33-1.9.58-2.23 1.3-.03 3.93-.43 5.25-.64l1 1.17c.38.44 1.01.59 1.54.36l4.95-2.12h6.3l4.4 2.55c.53.3 1.19.22 1.62-.21l1.11-1.11c.41-.22 1.9-.91 3.77-.73 1.91.17 3.43.91 3.94 1.18l1.57 2.02c.21.28.53.46.88.5l4.63.63.75 2.26H26.72c.28-1.48.59-2.65.75-2.9zm48.56 61.24c-.03.01-.06.01-.1.01H24.06c-.04 0-.07-.01-.1-.01V41.16c.02-.01.05-.01.08-.01.24.22.55.34.88.34h.02l18.07-.34h32.91c.04 0 .07 0 .1.01v54.61zm-6.76-44.68h-22.3c-1.03 0-1.86-.83-1.86-1.86 0-1.03.83-1.86 1.86-1.86h22.3c1.03 0 1.86.83 1.86 1.86a1.87 1.87 0 0 1-1.86 1.86zm-.87 12.39c-2.84 0-5.71-1.23-8.76-2.53-3.12-1.33-6.34-2.71-9.64-2.71-3.3 0-6.52 1.38-9.64 2.71-3.05 1.3-5.92 2.53-8.76 2.53-.62 0-1.12.5-1.12 1.12v23.14c0 .62.5 1.12 1.12 1.12h36.8c.62 0 1.12-.5 1.12-1.12V64.59c0-.62-.5-1.11-1.12-1.11zm-1.11 23.13h-5.66c2.07-2.46 3.94-7-.52-13.95-.27-.42-.57-.93-1.05-.78-.48.15-.11 1.35-.09 1.86.16 3.97-1.76 5.4-2.78 5.45-.69.04-2.35-1.01-2.42-2.24-.08-1.33.07-2.56.84-3.35 1.03-1.05 2.19-3.22 1.21-5.3-.74-1.58-1.53-2.28-3.62-3.3-.37-.18-1.24-.93-1.49-.6-.25.33.11.91.29 1.28 1.65 3.57.64 4.15-2.71 6.07-.62.35-1.28.73-1.98 1.17-3.75 2.33-1.97 5.44-1.01 7.1.34.58.68 1.18.73 1.47.05.59-.06 1.01-.29 1.12-.32.15-1.02-.02-1.63-.58-.43-.39-3.2-2.76-2.14-5.46 1.17-3-4.4-7.53-4.74-7.22-.34.31-.46.81-.29 1.24.93 2.35.52 3.22-.22 4.81-.26.55-.55 1.17-.8 1.91-1.24 3.58-.92 6.81.88 9.29h-5.07V65.65c2.91-.26 5.76-1.48 8.52-2.66 3.05-1.3 5.92-2.53 8.76-2.53s5.71 1.23 8.76 2.53c2.77 1.18 5.61 2.4 8.52 2.66v20.96zM40.25 21.16c-.35 0-.71-.12-.99-.38-2.87-2.58-2.69-6.7-.85-9.21.92-1.25 1.38-3.35-.33-5.12a1.485 1.485 0 1 1 2.13-2.07c2.82 2.9 2.33 6.58.6 8.95-.86 1.18-1.32 3.65.44 5.23.61.55.66 1.49.11 2.1-.3.33-.71.5-1.11.5zm9.67-1.03c-.31 0-.63-.1-.9-.3-1.68-1.28-2.68-3.01-2.89-4.98-.21-1.99.46-4.08 1.78-5.61 1.35-1.57 1.94-4-.49-6.13A1.488 1.488 0 1 1 49.38.87c3.79 3.32 3.07 7.67.79 10.31-.79.92-1.19 2.17-1.07 3.36.12 1.14.72 2.15 1.73 2.93.65.5.78 1.43.28 2.08-.3.38-.74.58-1.19.58zm10.03 1.03c-.35 0-.71-.12-.99-.38-2.87-2.58-2.69-6.71-.85-9.21.92-1.25 1.38-3.35-.34-5.12a1.485 1.485 0 1 1 2.13-2.07c2.82 2.9 2.33 6.58.6 8.95-.87 1.18-1.32 3.65.44 5.23.61.55.66 1.49.11 2.1-.29.33-.69.5-1.1.5zm-17.82 28.1c0 1.18-.96 2.14-2.14 2.14-1.18 0-2.14-.96-2.14-2.14 0-1.18.96-2.14 2.14-2.14 1.18 0 2.14.96 2.14 2.14z"/>
</svg>
