<svg id="Layer_1" data-name="Layer 1" xmlns="http://www.w3.org/2000/svg" viewBox="0 0 91.56 91.56"><defs><style>.cls-1{fill:#fff;}</style></defs><title>kirja</title><path class="cls-1" d="M45.89,63.45a1.74,1.74,0,0,1-1-.29,31.6,31.6,0,0,0-23.71-5.07,1.09,1.09,0,0,1-.87-.23,1.06,1.06,0,0,1-.38-.81V27.22a1.07,1.07,0,0,1,.87-1,33.83,33.83,0,0,1,25,5.24,34.21,34.21,0,0,1,12.17-5.11,33.77,33.77,0,0,1,12.87-.13,1.06,1.06,0,0,1,.87,1V57.05a1.06,1.06,0,0,1-.38.81,1,1,0,0,1-.87.23,31.66,31.66,0,0,0-23.71,5.06A1.62,1.62,0,0,1,45.89,63.45ZM27,55.45a33.74,33.74,0,0,1,18.92,5.79A33.82,33.82,0,0,1,69.68,55.8V28.12a31.7,31.7,0,0,0-11.2.26,32,32,0,0,0-12,5.19,1.05,1.05,0,0,1-1.22,0,32,32,0,0,0-12-5.19,31.7,31.7,0,0,0-11.2-.26V55.8A33.24,33.24,0,0,1,27,55.45Z"/><path class="cls-1" d="M17.25,41.55s-.23.53-1.29.53-1.35-.53-1.35-.53V30.75a1.32,1.32,0,0,1,1.32-1.32H21v2.64H17.25Z"/><path class="cls-1" d="M75.86,63.85H15.93a1.32,1.32,0,0,1-1.32-1.32V50.1s.21-.53,1.26-.53,1.38.53,1.38.53V61.21H74.53V32.07H70.74V29.43h5.12a1.32,1.32,0,0,1,1.32,1.32V62.53A1.32,1.32,0,0,1,75.86,63.85Z"/><rect class="cls-1" x="44.3" y="32.71" width="3.17" height="29.58"/><path class="cls-1" d="M15.92,44.19h0a1.59,1.59,0,0,0,0,3.17h0a1.59,1.59,0,0,0,0-3.17"/></svg>