<svg id="Layer_1" data-name="Layer 1" xmlns="http://www.w3.org/2000/svg" viewBox="0 0 91.56 91.56"><defs><style>.cls-1{fill:#fff;}</style></defs><title>auto</title><path class="cls-1" d="M81.83,46.68a3.65,3.65,0,0,0-.34-.5V44.33a4.31,4.31,0,0,0-3.25-4.17L61.77,36,51.6,29.65a6.71,6.71,0,0,0-3.57-1H20.69a6.79,6.79,0,0,0-3.12.77l-.2.11A6.66,6.66,0,0,0,15,31.55L11.9,35.91a2.41,2.41,0,0,0-1.09,1.33L9.6,40.92a6.53,6.53,0,0,0-.31,2v3.68a6.4,6.4,0,0,0,1.65,4.28l2.92,3.22a2.36,2.36,0,0,0,1.76.78H20a7.29,7.29,0,0,1-.93-2.37H15.62L12.7,49.25a4,4,0,0,1-1-2.69V42.88a3.85,3.85,0,0,1,.2-1.22l1-3.07H62.07v-.05l15.59,3.92a1.94,1.94,0,0,1,1.45,1.87v3a1,1,0,0,1,.74,1.29l-.64,2a2.63,2.63,0,0,1-2.51,1.83H72.55a6.84,6.84,0,0,0,.25-1.82,7.12,7.12,0,0,0-14.24,0,7.26,7.26,0,0,0,.24,1.82H33.18a7.3,7.3,0,0,1-.94,2.37h26.6a2.34,2.34,0,0,0,.94-.21,7.11,7.11,0,0,0,11.8,0,2.31,2.31,0,0,0,.94.21H76.7a5,5,0,0,0,4.77-3.47l.64-2A3.4,3.4,0,0,0,81.83,46.68ZM14.6,36.22l2.34-3.29a4.36,4.36,0,0,1,1.53-1.33l.2-.11a4.31,4.31,0,0,1,2-.5h5l-2.9,5.23Zm10.9,0L28.4,31H39.69l.87,5.23Zm17.46,0L42.1,31H48a4.29,4.29,0,0,1,2.31.67l7.28,4.56ZM70.23,51.86a2.74,2.74,0,0,0,0,.28,4.74,4.74,0,0,1-9,0,1.35,1.35,0,0,0,0-.28,4.36,4.36,0,0,1,0-2.43,4.84,4.84,0,0,1,4.54-3.49h.15a4.69,4.69,0,0,1,4.55,4.71A5.15,5.15,0,0,1,70.23,51.86Z"/><path class="cls-1" d="M26.12,58.72a7.24,7.24,0,0,1-1.06-14.41,1.25,1.25,0,1,1,.37,2.47,4.75,4.75,0,1,0,5.39,4,1.25,1.25,0,0,1,1.06-1.42,1.26,1.26,0,0,1,1.42,1,7.25,7.25,0,0,1-6.09,8.24A8.11,8.11,0,0,1,26.12,58.72Z"/><path class="cls-1" d="M29.73,45.41h0A1.29,1.29,0,1,0,30.09,48h0a1.3,1.3,0,0,0,1.08-1.47,1.28,1.28,0,0,0-1.47-1.08"/></svg>