<svg id="Layer_1" data-name="Layer 1" xmlns="http://www.w3.org/2000/svg" viewBox="0 0 91.56 91.56"><defs><style>.cls-1{fill:#fff;}</style></defs><title>mies</title><path class="cls-1" d="M45.53,25.32a8.21,8.21,0,1,0-8.21-8.21A8.22,8.22,0,0,0,45.53,25.32Zm0-14.15a5.94,5.94,0,1,1-5.93,5.94A5.94,5.94,0,0,1,45.53,11.17Z"/><path class="cls-1" d="M59.7,44.35a1.31,1.31,0,0,0-1.35,1.11v9.47a.73.73,0,0,1-.73.73H54.84V36.31a1.14,1.14,0,0,0-2.27,0V81.8a.73.73,0,0,1-.73.73H47.4a.73.73,0,0,1-.73-.73v-19a1.14,1.14,0,1,0-2.27,0v19a.74.74,0,0,1-.74.73H39.23a.73.73,0,0,1-.73-.73V36.31a1.14,1.14,0,0,0-2.28,0V55.76l-2.5,0A.74.74,0,0,1,33,55V36.26c0-3.73,2.92-6.12,6.66-6.12H51.74c3.73,0,6.25,2.39,6.25,6.12,0,.63.87,1.19,1.5,1.19s1.38-.51,1.38-1.14a9.05,9.05,0,0,0-9-9H39.49a9.05,9.05,0,0,0-9,9V55.64a3,3,0,0,0,3,3h2.77V81.8a3,3,0,0,0,3,3h4.43a3,3,0,0,0,1.87-.65,3,3,0,0,0,1.87.65h4.44a3,3,0,0,0,3-3V58.65h2.78c1.65,0,3.5-1.35,3.5-3V45.46C61.12,44.83,60.33,44.35,59.7,44.35Z"/><circle class="cls-1" cx="58.44" cy="41.01" r="1.4"/></svg>