<svg xmlns="http://www.w3.org/2000/svg" xml:space="preserve" viewBox="0 0 100 100"><path d="M79.55 77.58c-4.01 0-7.47 2.17-9.39 5.38l-40.64-15.6c.01-.18.05-.35.05-.53 0-.6-.08-1.17-.18-1.74L72.25 41.1c1.96 2.95 5.31 4.91 9.13 4.91 6.05 0 10.96-4.91 10.96-10.96S87.44 24.1 81.39 24.1c-3.83 0-7.19 1.97-9.15 4.94L32.11 14.29c.24-.91.42-1.85.42-2.84C32.53 5.4 27.62.49 21.57.49c-6.05 0-10.96 4.91-10.96 10.96 0 6.05 4.91 10.96 10.96 10.96 3.49 0 6.56-1.66 8.57-4.2l40.49 14.88c-.12.64-.2 1.29-.2 1.97 0 .68.08 1.33.2 1.97L27.84 60.97c-1.94-3.05-5.34-5.09-9.23-5.09-6.05 0-10.96 4.91-10.96 10.96 0 6.05 4.91 10.96 10.96 10.96 4.33 0 8.04-2.53 9.82-6.18L68.74 87.1c-.06.48-.15.96-.15 1.45 0 6.05 4.91 10.96 10.96 10.96 6.05 0 10.96-4.91 10.96-10.96 0-6.06-4.91-10.97-10.96-10.97z"/></svg>
