<svg id="Layer_1" data-name="Layer 1" xmlns="http://www.w3.org/2000/svg" viewBox="0 0 91.56 91.56"><defs><style>.cls-1{fill:#fafdfd;}.cls-2{fill:#fff;}</style></defs><title>lentokone</title><path class="cls-1" d="M9.75,38A2,2,0,0,0,9.8,39.6L15,50.73a4.53,4.53,0,0,0-.37,3.18A4.15,4.15,0,0,0,19.5,57.2l3.74-.89,13,.5a1.5,1.5,0,0,0,.42,0l2-.48a3.8,3.8,0,0,0,3.5,1l13.11-3.12a3.86,3.86,0,0,0,2.67-2.46l12.81-3.06A22.22,22.22,0,0,0,78,45.42c2-1.34,4.44-4.85,3.82-7.39s-4.1-3.37-6.49-3.67a22.41,22.41,0,0,0-8,.43l-40,9.54-2.14-1a16,16,0,0,1-6.17-5,5.18,5.18,0,0,0-5.27-2.07L10.89,37a1.65,1.65,0,0,0-1.14,1ZM40.54,53.28c-.36-1.39.12-1.91.37-2L54,48.22c.26-.06.85.63,1.08,1.6s0,1.86-.23,1.92L41.76,54.83C41.5,54.89,40.9,54.67,40.54,53.28Zm-13.47.25a6,6,0,0,0,0-2.28c-.62-2.58-2.65-4.4-4.81-3.88L17.11,48.6,12.79,39l.86-.2a2.1,2.1,0,0,1,2.11.51,21.5,21.5,0,0,0,8,6.8l3.18,1a1.55,1.55,0,0,0,1.09.14l40.53-9.6c.43-.1.78-.25,1.21-.32A6.26,6.26,0,0,0,70,39.2a2,2,0,0,0,2.22,1.64l6.87-1.67A6.13,6.13,0,0,1,76.76,43,17.25,17.25,0,0,1,70.39,46l-12.52,3c-.95-1.81-2.72-3.3-4.49-2.88L40,49.26A4.18,4.18,0,0,0,37,53.47l-1.26.3Zm-8.28,1c-.26.06-1.22-.65-1.46-1.64a1.91,1.91,0,0,1,.59-2l5.56-1.31c.26-.06.81.55,1.05,1.54s.08,2-.18,2.06l-5.56,1.31ZM18.48,53"/><path class="cls-2" d="M67.5,42a1.38,1.38,0,0,1-2.68.64A1.38,1.38,0,0,1,67.5,42Zm0,0"/><path class="cls-2" d="M63.12,43a1.37,1.37,0,1,1-1.66-1,1.37,1.37,0,0,1,1.66,1Zm0,0"/></svg>