<svg id="Layer_1" data-name="Layer 1" xmlns="http://www.w3.org/2000/svg" viewBox="0 0 91.56 91.56"><defs><style>.cls-1,.cls-2{fill:none;stroke:#fff;stroke-linecap:round;stroke-linejoin:round;}.cls-1{stroke-width:1.3px;}.cls-3{fill:#fff;}</style></defs><title>haulitorni</title><path class="cls-1" d="M32.09,29.05c.48-.31,13.44-6.2,13.44-6.2l13.49,6V18.08L45.37,12.37,32,18.4Z"/><path class="cls-1" d="M29,16.43,45.37,8.7A22.27,22.27,0,0,1,55,10.44C58.83,12.19,62.55,17,62.55,17L45.37,9.66,30.81,16.54Z"/><polygon class="cls-2" points="50.52 17.47 53.49 18.74 53.59 23.82 50.52 22.34 50.52 17.47"/><polygon class="cls-2" points="43.73 16.18 40.59 17.55 40.66 22.53 43.73 21.05 43.73 16.18"/><polygon class="cls-2" points="37.28 18.8 34.65 20.05 34.59 24.87 37.4 23.62 37.28 18.8"/><polygon class="cls-1" points="32.73 31.6 45.72 25.67 58.72 31.55 46.27 36.52 32.73 31.6"/><line class="cls-1" x1="32.73" y1="31.92" x2="32.73" y2="80.82"/><line class="cls-1" x1="42.03" y1="35.13" x2="42.09" y2="87.8"/><line class="cls-1" x1="46.38" y1="36.41" x2="46.38" y2="88.03"/><line class="cls-1" x1="58.86" y1="31.92" x2="58.66" y2="83.94"/><polyline class="cls-1" points="45.39 26.63 33.88 44.78 41.4 49.97 33.99 61.09 41.59 74.68 37.34 79.3"/><polyline class="cls-1" points="46.03 26.47 58.22 44.27 47.12 49.86 58.38 61.26 46.91 72.53 58.47 82.18"/><line class="cls-1" x1="33.14" y1="32.81" x2="41.93" y2="46.26"/><line class="cls-1" x1="58.86" y1="47.95" x2="46.52" y2="63.82"/><line class="cls-1" x1="58.38" y1="71.52" x2="46.44" y2="84.18"/><line class="cls-1" x1="47.16" y1="63.74" x2="58.7" y2="73.36"/><line class="cls-1" x1="32.98" y1="48.56" x2="41.72" y2="65.54"/><line class="cls-1" x1="32.97" y1="72.64" x2="41.72" y2="65.22"/><line class="cls-1" x1="41.63" y1="85.38" x2="32.97" y2="73.84"/><line class="cls-1" x1="58.19" y1="32.6" x2="46.64" y2="48.17"/><path class="cls-3" d="M80.05,34.66h0A4,4,0,0,0,76.29,32a4.07,4.07,0,0,0-1.65.35h0a4,4,0,0,0-6.86,2.29h0a4,4,0,0,0,.74,7.87H79.42a4,4,0,0,0,.63-7.89Zm-.66,6.83H68.69a2.94,2.94,0,0,1-3-2.87,2.91,2.91,0,0,1,2.75-2.92l.47,0h0v-.46h0a2.92,2.92,0,0,1,5.24-1.76l.26.35h0l.37-.22a3,3,0,0,1,1.48-.4,2.93,2.93,0,0,1,2.83,2.16l.09.35h0l.36,0a2.91,2.91,0,0,1,2.76,2.92A2.94,2.94,0,0,1,79.39,41.49Z"/><path class="cls-3" d="M75.25,51.07h0a3.06,3.06,0,0,1,2.88-2,3.17,3.17,0,0,1,1.26.27h0a3.08,3.08,0,0,1,5.26,1.74h0a3,3,0,0,1-.56,6H75.74a3.06,3.06,0,0,1-3.11-3.11A3,3,0,0,1,75.25,51.07Zm.9,5h7.78a2.09,2.09,0,0,0,.16-4.17h-.34v-.33h0a2.13,2.13,0,0,0-3.81-1.27l-.2.25h0l-.27-.16a2.16,2.16,0,0,0-1.08-.29,2.12,2.12,0,0,0-2.06,1.56l-.06.25H76a2.09,2.09,0,0,0,.15,4.17Z"/><path class="cls-3" d="M12.14,29.41h0a3.84,3.84,0,0,1,3.61-2.62,3.72,3.72,0,0,1,1.58.35h0a3.74,3.74,0,0,1,2.78-1.23,3.89,3.89,0,0,1,3.81,3.52h0a4,4,0,0,1-.71,7.87H12.74a4,4,0,0,1-.6-7.89Zm.77,6.77H23.08a2.82,2.82,0,0,0,2.82-2.79,2.79,2.79,0,0,0-2.61-2.84l-.45,0h0v-.45h0a2.81,2.81,0,0,0-2.78-2.82,2.75,2.75,0,0,0-2.2,1.11l-.26.34h0l-.36-.22a2.75,2.75,0,0,0-4.09,1.72l-.09.33h0l-.35,0a2.8,2.8,0,0,0-2.62,2.83A2.83,2.83,0,0,0,12.91,36.18Z"/><path class="cls-3" d="M16.85,45.17h0a2.78,2.78,0,0,0-2.61-2,2.68,2.68,0,0,0-1.14.26h0a2.68,2.68,0,0,0-2-.92,2.85,2.85,0,0,0-2.75,2.63h0a3,3,0,0,0,.51,5.87h7.55a3,3,0,0,0,.44-5.88Zm-.52,5H9.25A2.07,2.07,0,0,1,9.1,46l.31,0h0v-.33h0a2,2,0,0,1,1.94-2.06,1.87,1.87,0,0,1,1.53.81l.18.25h0l.25-.16a1.83,1.83,0,0,1,1-.29,2,2,0,0,1,1.87,1.55l.06.24h.24a2.07,2.07,0,0,1-.13,4.13Z"/><path class="cls-3" d="M19.14,57.4h0A2.06,2.06,0,0,1,21.07,56a2,2,0,0,1,.84.18h0a2,2,0,0,1,1.48-.64,2.06,2.06,0,0,1,2,1.85h0a2.09,2.09,0,0,1-.37,4.14H19.46a2.09,2.09,0,0,1-.32-4.15Zm.68,3.47h5.09a1.42,1.42,0,0,0,1.41-1.41A1.4,1.4,0,0,0,25,58h-.22v-.23h0a1.4,1.4,0,0,0-1.39-1.42,1.35,1.35,0,0,0-1.1.55l-.13.17h0L22,57a1.37,1.37,0,0,0-2,.86l-.05.17h-.17a1.42,1.42,0,0,0,.1,2.84Z"/></svg>