<svg xmlns="http://www.w3.org/2000/svg" xml:space="preserve" viewBox="0 0 100 100">
  <path d="m97.92 84.92-.17-.19c-.49-3.3-3.33-5.83-6.73-5.83H54.94c-3.41 0-6.24 2.54-6.73 5.83l-.12.23c-2.59.1-2.29 3.14-.12 3.14h49.98c2-.1 2.15-2.98-.03-3.18zm-46.02-.23c.19-.9 1.41-2.9 3.59-2.9h34.42c2.33 0 3.93.7 4.4 2.9H51.9zm8.75-26.54c-.63.62-.89 1.24-1.19 2.1-.54 1.52-.46 3.14.23 4.59l.07.14a6.047 6.047 0 0 0 5.44 3.43c.89 0 1.76-.19 2.56-.58l20.84-9.9c1.44-.69 2.54-1.9 3.08-3.41.54-1.52.46-3.14-.23-4.59l-.07-.14a6.047 6.047 0 0 0-6.05-3.4L73.89 22.3c1.75-1.75 2.31-4.48 1.19-6.84l-.07-.14a6.047 6.047 0 0 0-5.44-3.43c-.89 0-1.75.19-2.56.58l-20.84 9.9c-1.44.69-2.54 1.9-3.08 3.41-.54 1.52-.46 3.14.23 4.59l.07.14a6.047 6.047 0 0 0 6.05 3.4l3.8 8.01-22.07 9.44s-.85.99-.31 2.15 1.8.93 1.8.93l21.85-9.5 1.1 2.32-45.9 23.63c-2.13 1-4.19 1.37-5.22-.75-.93-1.91-.04-3.5 2.09-4.52l15.18-6.55s.95-.92.46-2.09-1.91-1.27-1.91-1.27L3.63 63.07c-.01.01-.03.01-.04.02-3.32 1.58-3.8 5.7-2.22 9.02 1.14 2.4 3.07 3.48 5.56 3.48.96 0 2.56-.61 3.48-1.04.01-.01-1.08.56-1.07.55L57 50.38l3.65 7.77zm24.75-8.81c.96-.11 2.54-.32 3.59 2.2.58 1.39-1.32 3.43-2.25 3.86L67.9 64.43c-.52.24-1.63.65-2.2.67-1.97.09-2.95-1.59-2.96-1.59-.44-.9-.64-1.39-.29-2.35.35-.95 1.51-1.89 2.43-2.32l18.43-8.81c.52-.24 1.52-.63 2.09-.69zM49.34 30.81c-2.12.51-3.22-1.69-3.22-1.69-.44-.93-.42-2.02-.07-3s1.38-1.24 2.31-1.68l18.93-8.83c.52-.25 1.4-.62 1.97-.62 1.49 0 2.57 1.45 2.57 1.45.96 2.11.32 3.88-1.6 4.8L51.52 30.2c-.51.26-1.63.47-2.18.61zm3.42 2.44 18.82-9.06L82.39 46.7l-19.05 9.12-10.58-22.57zM27.89 53.89c.32.32.51.77.51 1.23 0 .46-.19.9-.51 1.23-.32.32-.77.51-1.23.51-.46 0-.9-.19-1.23-.51-.32-.32-.51-.77-.51-1.23 0-.46.19-.9.51-1.23.32-.32.77-.51 1.23-.51.46 0 .9.18 1.23.51"/>
</svg>
