<svg xmlns="http://www.w3.org/2000/svg" xml:space="preserve" viewBox="0 0 100 100">
  <path d="M99.5 91.45c0 1.6-.88 2.89-1.97 2.89H2.76c-1.09 0-1.97-1.3-1.97-2.89 0-1.6.88-2.89 1.97-2.89h2.95v-39.9c0-1.05 1.32-1.91 2.94-1.91 1.62 0 2.94.86 2.94 1.91v39.9h76.69v-39.9c0-1.05 1.32-1.91 2.94-1.91 1.62 0 2.94.86 2.94 1.91v39.9h3.37c1.09-.01 1.97 1.29 1.97 2.89zM42.19 50.74c0-3.78 3.08-6.86 6.86-6.86 3.78 0 6.86 3.08 6.86 6.86 0 3.78-3.08 6.86-6.86 6.86-3.78 0-6.86-3.08-6.86-6.86zm2.27-.01c0 2.52 2.05 4.57 4.57 4.57 2.52 0 4.57-2.05 4.57-4.57 0-2.52-2.05-4.57-4.57-4.57-2.52-.01-4.57 2.05-4.57 4.57zm.32 13.15c-.54-.05-1.02.31-1.07.8l-.55 4.07h1.87l.61-3.87c.06-.49-.33-.94-.86-1zM99.2 25.21v5.86c0 5.56-3.97 10.4-9.45 11.49-.7.15-1.5.23-2.36.23-1.36 0-2.69-.24-3.94-.69v28.37c0 .95-.88 1.72-1.97 1.72H18.21c-1.09 0-1.97-.77-1.97-1.72V42.11c-1.25.45-2.57.69-3.94.69-.85 0-1.66-.08-2.39-.24C4.47 41.46.5 36.63.5 31.07V25.18c0-.04 0-.07.01-.11 0-.03 0-.06.01-.09 0-.03.01-.07.02-.1s.01-.06.02-.09l.03-.1c.01-.03.02-.06.02-.09.01-.03.02-.06.04-.1.01-.03.02-.05.03-.08.01-.03.03-.06.05-.09.01-.03.03-.05.04-.08l.06-.09c.02-.02.03-.05.05-.07.02-.03.04-.06.06-.08.02-.02.04-.05.05-.07l.03-.03L16.74 6.32c.37-.42.91-.66 1.47-.66H81.5c.56 0 1.1.24 1.47.66l15.74 17.59.02.02a.7.7 0 0 1 .08.1c.01.02.03.03.04.05.02.03.05.07.07.11.01.02.02.04.04.06.02.03.04.07.06.11l.03.06c.02.04.03.07.04.11.01.02.02.05.03.07l.03.11c.01.03.01.05.02.08s.01.07.02.1c0 .03.01.06.01.09s.01.07.01.1v.1c-.01 0-.01.01-.01.03zM80.61 9.57h-7.64l7.35 13.68h12.54L80.61 9.57zM38.33 23.25l2.45-13.68h-9l-7.35 13.68h13.9zm4 0h14.88L54.76 9.57h-9.98l-2.45 13.68zm33.53 0L68.51 9.57h-9.75l2.45 13.68h14.65zm-69.01 0h13.13l7.35-13.68H19.1L6.85 23.25zm50.74 45.5v-2.9c0-2.56-2.23-4.64-4.97-4.64h-6.4c-2.74 0-4.97 2.08-4.97 4.64v2.9H53.8l-.61-3.87c-.06-.5.33-.95.86-1 .53-.05 1.02.31 1.07.8l.55 4.07h1.92zm21.94-28.98c-.35-.31-.68-.64-.98-.99-2.21 2.5-5.43 4.02-8.85 4.02s-8.12-1.51-10.33-4.02c-2.21 2.5-6.91 4.02-10.33 4.02s-6.65-1.51-8.85-4.02c-2.21 2.5-6.74 4.02-10.17 4.02s-6.65-1.51-8.85-4.02c-.31.35-.64.68-.98.99v28.99h18.65v-3.17c0-3.72 3.24-6.75 7.23-6.75h6.69c3.98 0 7.23 3.03 7.23 6.75v3.17h19.57V39.77zm15.74-12.61H4.44v3.91c0 3.71 2.65 6.93 6.29 7.66.49.11 1.01.16 1.58.16 1.59 0 3.09-.47 4.35-1.31.17-.19.39-.36.64-.47.87-.72 1.58-1.62 2.09-2.69.33-.68 1.02-1.12 1.78-1.12s1.45.44 1.78 1.12c1.31 2.76 4.03 4.47 7.08 4.47s7.07-1.71 8.39-4.47c.33-.68 1.02-1.12 1.78-1.12s1.45.44 1.78 1.12c1.31 2.76 4.03 4.47 7.08 4.47s7.24-1.71 8.55-4.47c.33-.68 1.02-1.12 1.78-1.12s1.45.44 1.78 1.12c1.31 2.76 5.5 4.47 8.55 4.47a7.76 7.76 0 0 0 7.07-4.47c.33-.68 1.02-1.12 1.78-1.12s1.45.44 1.78 1.12a7.967 7.967 0 0 0 2.09 2.69c.25.12.47.28.64.47 1.26.84 2.75 1.31 4.34 1.31.57 0 1.09-.05 1.54-.15 3.68-.74 6.33-3.96 6.33-7.67v-3.91z"/>
</svg>
