<svg xmlns="http://www.w3.org/2000/svg" xml:space="preserve" viewBox="0 0 100 100">
  <path fill-rule="evenodd" d="M12.13 21.35c.94-.53 1.37-.19 1.37-.19l65.35 65.82s.56 1.67-1.1 3.35c-1.14 1.16-3.39.9-3.39.9L11.7 23.16s-.5-1.28.43-1.81zm3.4-2.71 71.68 64.49s1.78.55 3.24-1.11c1.4-1.6.56-2.83.56-2.83l-73.62-62.1s-.82-.29-1.32 0c-.89.52-.54 1.55-.54 1.55zm48.84 73.08c-2.15 0-3.89 1.74-3.89 3.89 0 2.15 1.74 3.89 3.89 3.89 2.15 0 3.89-1.74 3.89-3.89 0-2.15-1.74-3.89-3.89-3.89zm7.41-41.44c-1.79 0-3.25 1.45-3.25 3.25s1.45 3.25 3.25 3.25c1.79 0 3.25-1.45 3.25-3.25s-1.45-3.25-3.25-3.25zm-37.09 7.9c-1.83 0-3.32 1.48-3.32 3.32 0 1.83 1.48 3.32 3.32 3.32 1.83 0 3.32-1.48 3.32-3.32a3.325 3.325 0 0 0-3.32-3.32zm5.21-33.55c-1.5 0-2.71 1.21-2.71 2.71s1.21 2.71 2.71 2.71 2.71-1.21 2.71-2.71-1.21-2.71-2.71-2.71zm-28.04 6.58c-1.72 0-3.12 1.4-3.12 3.12s1.4 3.12 3.12 3.12 3.12-1.4 3.12-3.12-1.4-3.12-3.12-3.12zm72.03-.74c-.28-1.57-3.15-1.06-3.15-1.06-1.68-.15-2.65.01-4.23-.4 1.23-.89 2.35-1.43 3.29-2.61 0 0 1.68-1.5 1.41-2.3-.27-.8-2.63-.28-2.63-.28-2.53-.13-4.29-.61-5.59-1.24 1.58-.38 3.43-.82 4.56-2.5 0 0 1.29-.86 1-1.69-.29-.83-1.78-.82-1.78-.82-.48-.14-.75.11-1.25-.01-2.47-.62-4.06-1.1-4.53-2.71 2.87-.05 4.21-1.7 4.9-2.7 0 0 .44-1.11.53-1.45.09-.34-1.57-.93-1.57-.93-2.96-1.45-4.62-2.4-5.57-6.07 0 0-.49-3.47-2.24-3.19-1.75.29-2.09 1.63-2.09 1.63-.2.18-.42 1.24-.7 1.53-1.57 1.61-3.03 3.98-7.46 4.99-.36-.22-.7-.04-1.13.78l.26 1.14c.49 2.14 3.09 2.9 5.16 3.16-1.31 1.01-3.26 2.04-5.65 2.2 0 0-.6-.03-1.06.07-.9.19-.76.98-.76.98-.04 1.1 1.11 2.81 2.43 3.77.86.63 1.98.9 3.26.78-1.42 1.13-3 1.27-3.57 1.15 0 0-2.24.01-3.08.19-.84.19.56 1.82.56 1.82.77 1.1 1.06 1.07 1.8 1.76.46.42 1.43 1.16 3.01 1.55-1.48.64-3.72 1.48-7.12 2.53l-.24.08c-.76.03-1.25 1.65-.21 2.21.53.28 5.29 3.05 13.13 1.74l-.39-2.32c-4.08.68-7.14.26-9.06-.28 7.39-2.47 8.31-3.77 8.63-4.22l.45-.75-.89-1.26-.71.1c-2.06.3-3.44-.1-4.29-.58 1.48-.49 3.07-1.44 4.08-2.41 1.36-1.31 1.51-2.46 1.39-3.19l-.15-.59-.96-.54-.5.18c-1.73.62-3.02.68-3.74.16-.27-.2-.44-.47-.55-.73 3.94-.69 6.77-3.24 7.78-4.62l.39-.75-.77-1.29-.72.05c-1.26.14-3.14-.15-4.29-.62 3.49-1.28 6.01-3.54 7.53-5.06 1.39 3.04 3.86 4.45 6.36 5.7-.65.65-1.61 1.17-3.23.86l-1.36-.26-.03 1.38c-.11 4.28 3.05 5.43 5.71 6.13-1.37.71-3.08.92-3.83.92l-1.41.01.27 1.39c.4 2 3.63 3.49 7.14 4.09-.93.85-1.98 1.58-3.14 2.19l-2.13 1.11 2.19 1c.96.44 1.94.76 2.92 1 6.08.9-4.9 1.09-8.24.51-.07-.79-.12-1.65-.12-2.59-.01-.65-.54-1.17-1.18-1.16-.61.03-1.17.54-1.16 1.18.03 3.66.57 6.16 1.03 7.93.14.55.66.91 1.21.88.07 0 .15-.02.22-.04.63-.16 1-.8.84-1.43-.15-.59-.31-1.27-.46-2.06.85.23 1.8.37 2.88.3 3.81.81 8.04-.59 10.28-1.99-.04 0 2.59-.86 2.32-2.43z" clip-rule="evenodd"/>
</svg>
