<svg id="Layer_1" data-name="Layer 1" xmlns="http://www.w3.org/2000/svg" viewBox="0 0 91.56 91.56"><defs><style>.cls-1,.cls-2{fill:#fff;}.cls-2{fill-rule:evenodd;}</style></defs><title>musiikki</title><path class="cls-1" d="M24.76,35.63a5.5,5.5,0,0,1,2.8,1.64,2.89,2.89,0,0,1-1.22,4.83,5.48,5.48,0,0,1-3.23.13h0a5.49,5.49,0,0,1-2.79-1.64,3.06,3.06,0,0,1-.78-2.76h0a3.07,3.07,0,0,1,2-2.07,5.48,5.48,0,0,1,3.23-.13Z"/><path class="cls-2" d="M47.14,23.48a.59.59,0,0,1,.32.05,1.21,1.21,0,0,1,.39.24A1.19,1.19,0,0,1,48.23,25L44,41.87a1.18,1.18,0,0,1-1.41.85c-.62-.16-1.58-.59-1.43-1.22L45,26a50.19,50.19,0,0,1-12.36-2.82l-4.35,17a1.16,1.16,0,0,1-1.41.85c-.62-.15-1.64-.94-1.49-1.56l5.09-18.94a1.57,1.57,0,0,1,1.76-.84.68.68,0,0,1,.2.07A48.31,48.31,0,0,0,47.14,23.48Z"/><path class="cls-1" d="M40.13,38.13a5.5,5.5,0,0,1,2.8,1.64,2.88,2.88,0,0,1-1.22,4.82,5.4,5.4,0,0,1-3.23.13h0a5.43,5.43,0,0,1-2.79-1.64,3,3,0,0,1-.78-2.76h0a3.06,3.06,0,0,1,2-2.06,5.48,5.48,0,0,1,3.23-.13Z"/><path class="cls-1" d="M46.37,58.16a7,7,0,0,1,3.82,1.57A3.68,3.68,0,0,1,49.52,66a7,7,0,0,1-4.06.74h0a7,7,0,0,1-3.82-1.57,3.9,3.9,0,0,1-1.48-3.34h0a3.92,3.92,0,0,1,2.15-3,7,7,0,0,1,4.06-.74Z"/><path class="cls-1" d="M66.23,58.56a7,7,0,0,1,3.82,1.57,3.68,3.68,0,0,1-.67,6.32,7,7,0,0,1-4.06.74h0a7,7,0,0,1-3.82-1.57A3.9,3.9,0,0,1,60,62.27h0a3.94,3.94,0,0,1,2.15-3,7,7,0,0,1,4.06-.74Z"/><path class="cls-2" d="M49.77,52.35,48.39,63.28A1.78,1.78,0,0,0,50,65a1.49,1.49,0,0,0,1.63-1.33l1.28-11a1.4,1.4,0,0,0-1.38-1.22A1.62,1.62,0,0,0,49.77,52.35Z"/><path class="cls-2" d="M73.41,39a1.75,1.75,0,0,0-.54-.24,1,1,0,0,0-.41,0,61.77,61.77,0,0,1-19.19-2,1.31,1.31,0,0,0-.27-.06A1.49,1.49,0,0,0,51.37,38L50.7,43.1s0,.92,1.42,1.08,1.52-.77,1.52-.77l.5-3.38A70.12,70.12,0,0,0,71,41.82L68.81,62.29a1.49,1.49,0,0,0,3,.31L74.1,40.51A1.49,1.49,0,0,0,73.41,39Z"/><circle class="cls-1" cx="51.8" cy="47.62" r="1.54"/></svg>