<svg xmlns="http://www.w3.org/2000/svg" xml:space="preserve" viewBox="0 0 100 100">
  <path d="M77.13 75.07c1.28 0 2.32 1.04 2.32 2.32 0 1.28-1.04 2.32-2.32 2.32h-.05c-1.28 0-2.32-1.04-2.32-2.32 0-1.28 1.04-2.32 2.32-2.32h.05m-43.78 3.44.07 15.96m31.2-15.31.04 15.67M32.34 33.57c0-9.37 7.63-17 17-17 9.37 0 17 7.63 17 17 0 9.37-7.63 17-17 17-9.37 0-17-7.62-17-17zm4.44-.04c0 6.96 5.66 12.62 12.62 12.62 6.96 0 12.62-5.66 12.62-12.62 0-6.96-5.66-12.62-12.62-12.62-6.95.01-12.62 5.67-12.62 12.62zm40.25 48.91c-1.36 0-2.18 1.09-2.18 2.45l.12 7.21c0 .88 0 2.79-1.35 2.88l-6.69.12c.01-.1.03-.2.03-.3l-.04-15.67c-.01-1.42-1.01-2.56-2.26-2.58h-.04c-1.27.01-2.29 1.18-2.28 2.62l.04 15.67c0 .09.02.18.02.27H35.57c.05-.22.08-.44.08-.68l-.07-15.96c-.01-1.42-1-2.57-2.22-2.57h-.03c-1.23.01-2.22 1.19-2.21 2.62l.07 15.96c0 .22.03.43.08.63l-6.77.05c-1.98-.27-1.8-3.09-1.8-3.97l-.08-17.39c0-8.09 4.59-14.36 12.68-14.36h26.33c8.09 0 13.06 2.03 13.06 10.12 0 1.36.98 2.73 2.34 2.73s2.46-1.1 2.46-2.46c0-10.8-6.71-14.4-17.52-14.4H35.64c-10.8 0-17.52 7.75-17.52 18.56l.06 19.39c0 3.59 2.09 6.13 5.68 6.13l50.74-.09c4.33-.18 4.78-1.72 4.78-5.32l.1-9.18a2.454 2.454 0 0 0-2.45-2.48zm5.81-54.54a1.894 1.894 0 0 0 1.57-2.18 1.901 1.901 0 0 0-2.18-1.57l-6.75 1.09a1.901 1.901 0 0 0-1.57 2.18c.08.52.37.95.76 1.24.39.28.9.42 1.41.33l6.76-1.09zM72.5 10.09c.66-.82.53-2.01-.29-2.67-.82-.66-2.01-.53-2.67.29l-4.28 5.33c-.66.82-.53 2.01.29 2.67.41.33.91.46 1.4.41.48-.05.95-.29 1.27-.7l4.28-5.33zm-25.62-.87a1.897 1.897 0 0 0 1.88 1.92 1.9 1.9 0 0 0 1.92-1.88l.07-6.84a1.9 1.9 0 1 0-3.8-.04l-.07 6.84zM23.91 28.51a1.881 1.881 0 0 0 2.17-1.57c.17-1.04-.54-2.01-1.57-2.18l-6.75-1.09c-1.04-.17-2.01.54-2.18 1.57-.17 1.04.54 2.01 1.57 2.18l6.76 1.09zm7.88-13.57c.33.41.79.65 1.27.7.48.05.99-.08 1.4-.41.82-.66.95-1.85.29-2.67l-4.28-5.33c-.66-.82-1.85-.95-2.67-.29-.82.66-.95 1.85-.29 2.67l4.28 5.33z"/>
</svg>
