<svg id="Layer_1" data-name="Layer 1" xmlns="http://www.w3.org/2000/svg" viewBox="0 0 91.56 91.56"><defs><style>.cls-1{fill:#fff;}</style></defs><title>nainen</title><circle class="cls-1" cx="53.85" cy="70.9" r="1.4"/><path class="cls-1" d="M45.78,24.08a8.21,8.21,0,1,0-8.21-8.21A8.22,8.22,0,0,0,45.78,24.08Zm0-14.15a5.94,5.94,0,1,1-5.94,5.94A6,6,0,0,1,45.78,9.93Z"/><path class="cls-1" d="M51.77,26.4h-12A8.65,8.65,0,0,0,31.1,35V53a3,3,0,0,0,3,3h0l-.85,5.73a1.21,1.21,0,0,0,.3.94,1.27,1.27,0,0,0,.91.4h2.07V81a3,3,0,0,0,3,3H44a3,3,0,0,0,1.77-.58,3,3,0,0,0,1.77.58H52a3,3,0,0,0,3-3V75.34a1.23,1.23,0,0,0-2.45,0V81a.54.54,0,0,1-.54.54H47.55A.55.55,0,0,1,47,81V65.12a1.22,1.22,0,0,0-2.44,0V81a.55.55,0,0,1-.55.54H39.55A.54.54,0,0,1,39,81V63H52.55v3.46a1.23,1.23,0,0,0,2.45,0V63h2.06a1.24,1.24,0,0,0,.91-.4,1.18,1.18,0,0,0,.31-.94L57.43,56h0a3,3,0,0,0,3-3V35A8.65,8.65,0,0,0,51.77,26.4ZM58,53h0a.54.54,0,0,1-.54.53h-.31l-2.24-20.1a1.22,1.22,0,0,0-2.43.27L55.7,60.6H35.86l3.21-26.9a1.23,1.23,0,0,0-2.44-.27l-2.24,20.1h-.3a.54.54,0,0,1-.55-.53V35a6.22,6.22,0,0,1,6.25-6.17h12A6.21,6.21,0,0,1,58,35V53Z"/></svg>