<svg id="Layer_1" data-name="Layer 1" xmlns="http://www.w3.org/2000/svg" viewBox="0 0 91.56 91.56"><defs><style>.cls-1{fill:#fff;}</style></defs><title>ratikka</title><path class="cls-1" d="M56.39,62.35H35.21A8.4,8.4,0,0,1,26.82,54V33.67c0-5.73,2.3-11,19-11s19,5.31,19,11V54A8.39,8.39,0,0,1,56.39,62.35ZM45.8,25.28c-16.33,0-16.33,5.25-16.33,8.39V54a5.75,5.75,0,0,0,5.74,5.74H56.39A5.75,5.75,0,0,0,62.13,54V33.67C62.13,30.53,62.13,25.28,45.8,25.28Z"/><circle class="cls-1" cx="35.21" cy="51.32" r="2.65"/><circle class="cls-1" cx="56.39" cy="51.32" r="2.65"/><path class="cls-1" d="M25.19,74.59a1.32,1.32,0,0,1-.92-2.27L36.94,60.07A1.33,1.33,0,0,1,38.78,62L26.11,74.22A1.32,1.32,0,0,1,25.19,74.59Z"/><path class="cls-1" d="M66.37,74.59a1.32,1.32,0,0,1-.92-.37L52.82,62a1.33,1.33,0,0,1,1.84-1.91L67.29,72.32a1.32,1.32,0,0,1,0,1.87A1.3,1.3,0,0,1,66.37,74.59Z"/><path class="cls-1" d="M58.58,46H33.72a.88.88,0,0,1-.89-.88V32.78a.88.88,0,0,1,.89-.88H58.58a.88.88,0,0,1,.88.88V45.14A.88.88,0,0,1,58.58,46Zm-24-1.76H57.69V33.67H34.6Z"/><path class="cls-1" d="M52.86,30.14H38.74a.89.89,0,0,1,0-1.77H52.86a.89.89,0,0,1,0,1.77Z"/><path class="cls-1" d="M57.27,66.32H34.33a.88.88,0,1,1,0-1.76H57.27a.88.88,0,1,1,0,1.76Z"/><path class="cls-1" d="M62.84,71.32H29.45a1.33,1.33,0,0,1,0-2.65H62.84a1.33,1.33,0,1,1,0,2.65Z"/><path class="cls-1" d="M60.58,18.75A1.28,1.28,0,0,1,61.87,20a.92.92,0,0,0,1.83,0A3.09,3.09,0,0,0,60.58,17H31a3.13,3.13,0,0,0-2.2.89A3,3,0,0,0,27.86,20a.92.92,0,0,0,1.83,0,1.23,1.23,0,0,1,.38-.9,1.25,1.25,0,0,1,.9-.37H37.4l3,4.17H51.2l3-4.17ZM49,22.92H42.57l-3-4.17H51.94Z"/></svg>