<svg xmlns="http://www.w3.org/2000/svg" xml:space="preserve" viewBox="0 0 100 100">
  <path d="M99.1 33.78a1.76 1.76 0 0 0-1.36-.65H46.12l-6.09-6.09s-1.49-.45-2.3.4c-.91.97-.2 2.1-.2 2.1l3.59 3.59H2.26c-.98 0-1.76.79-1.76 1.76 0 10.7 10.29 19.4 22.93 19.4H62.3l6.05 6.05c.33 7.3 8.02 17.84 15.05 17.84.47 0 .92-.19 1.25-.52l3.53-3.53c.33-.33.52-.78.52-1.25 0-7.03-10.54-14.72-17.84-15.05l-3.56-3.56h26.92c.84 0 1.56-.59 1.73-1.42l3.53-17.64c.09-.49-.04-1.03-.38-1.43zM85.12 72.22l-2.4 2.4c-3.82-.5-10.05-7.86-10.74-13.14 5.28.69 12.63 6.91 13.14 10.74zM24.21 50.1c-9.47 0-17.3-5.54-18.32-12.64l38.79-.12L58.5 49.99l-34.29.11zm67.26-.23-28.59-.35-13.12-12.29h44.45l-2.74 12.64zM37.18 23.86c0 1.13-.92 2.05-2.05 2.05s-2.05-.92-2.05-2.05.92-2.05 2.05-2.05 2.05.92 2.05 2.05z"/>
</svg>
