<svg xmlns="http://www.w3.org/2000/svg" xml:space="preserve" viewBox="0 0 100 100">
  <path d="M36.78 35.15c7.69 0 13.95-6.26 13.95-13.95 0-7.69-6.26-13.95-13.95-13.95-7.69 0-13.95 6.26-13.95 13.95.01 7.69 6.26 13.95 13.95 13.95zm.02-23.59c5.33 0 9.66 4.33 9.66 9.66s-4.33 9.66-9.66 9.66c-5.32 0-9.66-4.33-9.66-9.66s4.34-9.66 9.66-9.66zm27.3 54.65c-1.18 0-2.13.95-2.13 2.13v15.79c0 .76-.62 1.38-1.37 1.38h-5.19v-30.2c0-1.18-.95-2.13-2.13-2.13s-2.13.95-2.13 2.13v38.56c0 .76-.62 1.37-1.37 1.37H26.06c-.76 0-1.22-1.17-1.22-1.17s.11-9.56.16-14.07l11.1.07s1.43.08 1.99-.54h1.47c.37-.01 2.65 0 3.5-.47 2.11-1.17 2.84-2.46 2.89-5.49.05-2.89-.71-3.6-1.94-4.73-.83-.77-2.31-.95-4.25-.95l-4.83-.09c-.01 0-.17-.18-.18-.18l-9.6-24.92c.45-.05.91-.08 1.38-.08H49.3c6.99 0 12.68 5.69 12.68 12.68 0 1.18.95 2.13 2.13 2.13s2.13-.95 2.13-2.13c0-9.34-7.6-16.94-16.94-16.94H26.54c-9.34 0-16.94 7.6-16.94 16.94v18.9c0 3.11 2.53 5.63 5.63 5.63h5.19v14.04c0 3.11 2.53 5.63 5.63 5.63h23.72c3.11 0 5.63-2.53 5.63-5.63v-4.1h5.19c3.11 0 5.63-2.53 5.63-5.63v-15.8c.01-1.17-.94-2.13-2.12-2.13zm-24.77 5.65c.99 0 1.95.76 1.99 1.8.05 1.37-1.63 1.8-2.22 1.8l-1.22.03-1.42-3.66c1.21.01 2.75.03 2.87.03zm-24.1 3.71c-.76 0-1.37-.62-1.37-1.37V55.3c0-4.9 2.8-9.16 6.88-11.26l12.71 31.78-9.65-.14c-.27-.07-.48-.05-.48-.05l-8.09-.06zm48.96-15.74a2 2 0 1 1 0 4h-.04a2 2 0 1 1 0-4h.04m19.89-45.72c0 .91-.8 1.79-1.1 1.79h-4.91l-.03 4.78c0 .3-.8 1.11-1.73 1.1-.93-.01-1.64-.83-1.64-1.12l.03-4.76h-4.85c-.3 0-1.13-.78-1.13-1.69s.83-1.62 1.13-1.62h4.87l.03-4.82c0-.3.62-1.07 1.55-1.07.93.01 1.81.79 1.81 1.09l-.03 4.8h4.89c.32 0 1.11.61 1.11 1.52zM89.2.5H63.61c-.66 0-1.2.53-1.2 1.18v25.13c0 .65.54 1.18 1.2 1.18H89.2c.66 0 1.2-.53 1.2-1.18V1.68c0-.65-.54-1.18-1.2-1.18zm-2.77 22.41c0 .65-.54 1.18-1.2 1.18H67.58c-.66 0-1.2-.53-1.2-1.18V5.58c0-.65.54-1.18 1.2-1.18h17.65c.66 0 1.2.53 1.2 1.18v17.33z"/>
</svg>
