<svg xmlns="http://www.w3.org/2000/svg" xml:space="preserve" viewBox="0 0 100 100">
  <path d="M98.9 54.08c-.13-.24-.29-.46-.46-.67V50.9c0-2.68-1.81-5-4.41-5.66l-22.34-5.62-13.79-8.64a9.109 9.109 0 0 0-4.84-1.39h-37.1c-1.47 0-2.93.36-4.23 1.04l-.28.14a9.234 9.234 0 0 0-3.2 2.79l-4.21 5.92c-.69.39-1.23 1.02-1.49 1.81L.91 46.28c-.28.86-.42 1.75-.42 2.65v4.99c0 2.15.8 4.21 2.24 5.81l3.96 4.37c.61.67 1.48 1.06 2.39 1.06h5.57a9.74 9.74 0 0 0 2.86 3.34 9.773 9.773 0 0 0 7.3 1.82c2.6-.39 4.89-1.77 6.45-3.88.3-.41.56-.84.79-1.27h35.68c.45 0 .88-.11 1.27-.28 1.74 2.57 4.68 4.26 8 4.26a9.63 9.63 0 0 0 8-4.26c.4.17.83.28 1.27.28h5.68c2.96 0 5.56-1.89 6.46-4.71l.87-2.7c.39-1.23.26-2.57-.38-3.68zM53.06 32.8c1.11 0 2.19.31 3.13.9l9.87 6.19H46.18L45 32.8h8.06zm-11.32 0 1.17 7.09H22.48l3.93-7.09h15.33zm-30.86 2.63c.54-.76 1.25-1.37 2.07-1.8l.28-.14c.84-.44 1.78-.67 2.74-.67h6.77l-3.93 7.09H7.7l3.18-4.48zm72.28 25.68c-.03.13-.04.25-.05.38a6.434 6.434 0 0 1-12.22 0c-.02-.13-.02-.26-.06-.38-.3-1.15-.3-2.23.02-3.29.84-2.79 3.37-4.73 6.16-4.73h.2c3.46.11 6.18 2.92 6.18 6.39 0 .52-.08 1.07-.23 1.63zm13.06-4.35-.87 2.7a3.575 3.575 0 0 1-3.4 2.48h-5.63c.21-.79.33-1.61.33-2.46 0-5.33-4.33-9.66-9.66-9.66s-9.66 4.33-9.66 9.66c0 .85.12 1.67.33 2.46H33.08c.13-.92.13-1.86-.02-2.81-.14-.93-1.03-1.56-1.93-1.43-.93.14-1.56 1-1.43 1.93.26 1.7-.17 3.4-1.19 4.78a6.379 6.379 0 0 1-4.22 2.54c-1.7.26-3.4-.17-4.78-1.19a6.379 6.379 0 0 1-2.54-4.22c-.26-1.7.17-3.4 1.19-4.78a6.379 6.379 0 0 1 4.22-2.54c.93-.14 1.56-1 1.43-1.93a1.714 1.714 0 0 0-1.93-1.43c-2.6.39-4.89 1.77-6.45 3.88a9.775 9.775 0 0 0-1.83 7.19H9.08l-3.96-4.37c-.91-1-1.41-2.3-1.41-3.65v-4.99c0-.56.09-1.12.26-1.65l1.36-4.16H72.1v-.07l21.14 5.32c1.16.29 1.98 1.34 1.98 2.54v4.11c.78.18 1.24.99 1 1.75zm-67.99-4.41c.96-.14 1.85.51 1.99 1.47.14.96-.51 1.85-1.47 1.99l-.04.01c-.96.14-1.85-.51-1.99-1.47-.14-.96.51-1.85 1.47-1.99l.04-.01"/>
</svg>
