<svg xmlns="http://www.w3.org/2000/svg" xml:space="preserve" viewBox="0 0 100 100">
  <path d="M50 .5C22.66.5.5 22.66.5 50S22.66 99.5 50 99.5 99.5 77.34 99.5 50 77.34.5 50 .5zm0 92.42C26.29 92.92 7.08 73.71 7.08 50S26.29 7.08 50 7.08 92.92 26.29 92.92 50 73.71 92.92 50 92.92zm5.09-42.83c-.05 2.81-2.37 5.05-5.18 5s-5.05-2.37-5-5.18 2.37-5.05 5.18-5 5.05 2.37 5 5.18zm-1.43-10.82L64.25 25a2.749 2.749 0 0 1 3.82-.65c1.23.87 1.74 2.72.87 3.95L58.51 42.45c-1.32 1.79-2.44 1.91-3.85 1.03-1.35-.84-2.15-2.64-1-4.21zm14.09 43.51L51.91 60.07c-.89-1.22-.62-2.94.59-3.83 1.22-.89 3.13-.79 4.02.43L72.3 79.19c1.28 1.82 1.04 2.92-.24 3.98-1.22 1.01-3.18 1.21-4.31-.39zm-51.07-32.8c0 1.84-1.49 3.33-3.33 3.33s-3.33-1.49-3.33-3.33 1.49-3.33 3.33-3.33 3.33 1.49 3.33 3.33zm73.01 0c0 1.84-1.49 3.33-3.33 3.33s-3.33-1.49-3.33-3.33 1.49-3.33 3.33-3.33 3.33 1.49 3.33 3.33zM49.4 83.11a3.329 3.329 0 0 1 3.34 3.32 3.329 3.329 0 0 1-3.32 3.34c-1.84.01-3.33-1.48-3.34-3.32s1.49-3.34 3.32-3.34zm-.23-73.01c1.84-.01 3.33 1.48 3.34 3.32s-1.48 3.33-3.32 3.34c-1.84.01-3.33-1.48-3.34-3.32s1.48-3.34 3.32-3.34z"/>
</svg>
