<svg id="Layer_1" data-name="Layer 1" xmlns="http://www.w3.org/2000/svg" viewBox="0 0 91.56 91.56"><defs><style>.cls-1{fill:#fff;}</style></defs><title>jarvi</title><path class="cls-1" d="M48,40.67s-2.61-.14-3.66-1.06l1.13-1.28A6,6,0,0,0,48,39Z"/><path class="cls-1" d="M37.74,43.33a6.29,6.29,0,0,1-2.8-.51l.6-1.15c1,.53,3.1.42,4.91.1a10.12,10.12,0,0,1-1.58-.65l-1.18-.63L38.91,40a8.56,8.56,0,0,0,1.82-1.1c-1.93-.45-3.67-1.39-3.82-2.51l-.1-.77.78,0a5.28,5.28,0,0,0,2.16-.38c-1.45-.48-3.16-1.22-3-3.59l.07-.76.74.19a1.83,1.83,0,0,0,1.82-.36,6.69,6.69,0,0,1-3.32-3.37,11.75,11.75,0,0,1-4.35,2.54,6,6,0,0,0,2.36.49h.4l.38.74-.24.41a7.31,7.31,0,0,1-4.46,2.28.87.87,0,0,0,.28.42,2.36,2.36,0,0,0,2.07,0l.29-.08.51.33.06.33a2,2,0,0,1-.88,1.71,6.49,6.49,0,0,1-2.34,1.2,3.66,3.66,0,0,0,2.35.46l.4,0,.44.73-.25.41c-.2.24-.75.93-4.92,2a11.56,11.56,0,0,0,5,.47l.13,1.29C29,43.56,26,42,25.83,41.23l.5-.76.13,0a39.57,39.57,0,0,0,4-1.15,3.78,3.78,0,0,1-1.61-1,1.63,1.63,0,0,1-.54-1.23l.1-.73.72.19a4.21,4.21,0,0,0,2.27-.81,2.53,2.53,0,0,1-1.78-.54,2.47,2.47,0,0,1-.82-2.09l.06-.59h.59a5.79,5.79,0,0,0,3.2-1c-1.13-.21-2.55-.72-2.74-1.92L29.83,29l.64-.11A10.27,10.27,0,0,0,35.62,26c.16-.16.3-.28.42-.38l.84-.69L37.09,26c.39,2.06,1.76,2.84,3.35,3.75l1,.57L41,31a3.28,3.28,0,0,1-2.82,1.51c.2.91,1.06,1.23,2.41,1.66l.8.26.84.3-.55.71A4.26,4.26,0,0,1,39,36.81a8.83,8.83,0,0,0,3.23,1l1.26.14-.85.94a9.18,9.18,0,0,1-1.92,1.6,15.67,15.67,0,0,0,2.69.58l2.4.36-2.26.89A18.07,18.07,0,0,1,37.74,43.33Zm-8.11-6.16"/><path class="cls-1" d="M49.71,40.47l-.05-1.3a11.62,11.62,0,0,0,2.16-.26,3.5,3.5,0,0,0,2.07-1,4.48,4.48,0,0,1-2.6,0c-.56-.14-1.25-.3-1.23-.95s.79-.81,1.59-1a2.61,2.61,0,0,0,2-1.11,3.73,3.73,0,0,1-1.78-.14c-1-.35-1.54-.81-1.61-1.35a.91.91,0,0,1,.44-.9l.12-.09.15,0a2.39,2.39,0,0,0,.7-.19,4.08,4.08,0,0,1-2.23-1.38,5.36,5.36,0,0,1-2.79,2,4.38,4.38,0,0,0,1.21.16l.92,0-.33.86a3.66,3.66,0,0,1-2.61,2,2,2,0,0,0-.5.19,1.85,1.85,0,0,0,.91.49L46,37.76C45.31,37.66,44,37,44,36c0-.48.22-1.12,1.52-1.46a3.39,3.39,0,0,0,1-.43,2.29,2.29,0,0,1-1.39-.8,1.29,1.29,0,0,1-.21-1.12l.12-.4.41-.05a4.1,4.1,0,0,0,3.3-2.39l.48-1.19.67,1.08c.57.92,1.53,2,2.86,1.63l1.1-.27-.33,1.09A2.38,2.38,0,0,1,52,33.41l.23.09a3,3,0,0,0,1.56,0c.41-.08.79-.15,1.1.14l.24.22v.42a3.31,3.31,0,0,1-1.45,2.3c.32-.13.69-.33,1.18-.59l.64-.35.27.69a2.58,2.58,0,0,1-.4,1.7,4.42,4.42,0,0,1-3.31,2.15h0A12.48,12.48,0,0,1,49.71,40.47Z"/><path class="cls-1" d="M18.05,41.63a5.52,5.52,0,0,1-5.2-3.42l-.42-1.12,1.19.09a8.2,8.2,0,0,0,3-.19,3.52,3.52,0,0,1-2.21-3.08l0-.93.92.16a4.81,4.81,0,0,0,1.64,0,2.32,2.32,0,0,1-.91-1l-.42-.76.8-.32a6.56,6.56,0,0,0,2.67-2.63l.76-1.89.68,1.92c.11.34.42,1.23,3,2l.69.2-.16.71a2.78,2.78,0,0,1-.89,1.57,9,9,0,0,0,2.2.05l.84-.08v.84a3.74,3.74,0,0,1-1.67,2.58,3.24,3.24,0,0,1-1,.43,7.62,7.62,0,0,0,2.2.6l1.15,0-.49,1c-.57,1.23-2.76,4.14-6,2.88l.56-1.43a3,3,0,0,0,3.47-1.23,6.12,6.12,0,0,1-3.23-1.7,1.6,1.6,0,0,1-.27-1.39l.24-.85.81.36a1.71,1.71,0,0,0,1.63,0,2.18,2.18,0,0,0,.62-.54c-1.84,0-3.29-.56-3.79-1.42l-.75-1.27L21.1,32a1.27,1.27,0,0,0,1.12-.33,6.32,6.32,0,0,1-2.46-1.47A9.06,9.06,0,0,1,18,31.86a4,4,0,0,0,.54,0l.85,0-.07.85A1.77,1.77,0,0,1,18.63,34a4.47,4.47,0,0,1-2.47.72A3.59,3.59,0,0,0,18.21,36l.8.17-.22.78c-.39,1.43-2.23,1.8-3.86,1.84A4.21,4.21,0,0,0,19,40l.33,1.49A5.82,5.82,0,0,1,18.05,41.63Z"/><path class="cls-1" d="M35.53,45.2a.64.64,0,0,1-.64-.52,17.43,17.43,0,0,1-.29-4.42.68.68,0,0,1,.68-.62.67.67,0,0,1,.62.69,16.12,16.12,0,0,0,.26,4.1.65.65,0,0,1-.51.76Z"/><path class="cls-1" d="M20.19,43.1h-.12a.65.65,0,0,1-.52-.76,10.72,10.72,0,0,0,.11-2.61.65.65,0,0,1,.61-.69.67.67,0,0,1,.69.61,11.33,11.33,0,0,1-.14,2.93A.65.65,0,0,1,20.19,43.1Z"/><path class="cls-1" d="M49.4,43.21a.66.66,0,0,1-.64-.53,17.38,17.38,0,0,1-.29-4.42.67.67,0,0,1,.69-.61.65.65,0,0,1,.61.68A16.14,16.14,0,0,0,50,42.44a.65.65,0,0,1-.52.76Z"/><path class="cls-1" d="M43.48,60.08h0a4.44,4.44,0,0,1-3.31-1.26.55.55,0,0,1,0-.76.52.52,0,0,1,.75,0,3.47,3.47,0,0,0,2.51.9h0a3.44,3.44,0,0,0,2.51-.9l.4-.46.4.46a3.44,3.44,0,0,0,2.51.9h0a3.47,3.47,0,0,0,2.51-.9l.4-.46.4.46a3.94,3.94,0,0,0,5,0,.53.53,0,0,1,.76,0,.54.54,0,0,1,0,.76,4.43,4.43,0,0,1-3.31,1.26,4.79,4.79,0,0,1-2.9-.89,4.82,4.82,0,0,1-2.91.89h0a4.8,4.8,0,0,1-2.91-.89A4.8,4.8,0,0,1,43.48,60.08Z"/><path class="cls-1" d="M61.57,55.16A4.41,4.41,0,0,1,59,54.39a4.36,4.36,0,0,1-2.6.77h0a4.4,4.4,0,0,1-2.6-.77,4.4,4.4,0,0,1-2.6.77h0a4,4,0,0,1-3-1.14.54.54,0,0,1,0-.76.53.53,0,0,1,.76.05,3,3,0,0,0,2.2.78h0a3,3,0,0,0,2.2-.78l.4-.46.4.46a3,3,0,0,0,2.2.78h0a3,3,0,0,0,2.2-.78l.4-.46.4.46a3,3,0,0,0,2.21.78h0a3,3,0,0,0,2.2-.78.52.52,0,0,1,.75-.05.55.55,0,0,1,0,.76,4.06,4.06,0,0,1-3,1.14Z"/><path class="cls-1" d="M38.59,54.76a3.82,3.82,0,0,1-2.16-.61,3.84,3.84,0,0,1-2.16.61h0a3.82,3.82,0,0,1-2.16-.61,3.82,3.82,0,0,1-2.16.61h0a3.47,3.47,0,0,1-2.6-1,.6.6,0,1,1,.89-.79,2.34,2.34,0,0,0,1.71.6h0a2.34,2.34,0,0,0,1.71-.6l.45-.5.44.5a2.37,2.37,0,0,0,1.72.6h0A2.34,2.34,0,0,0,36,53l.45-.5.44.5a2.37,2.37,0,0,0,1.72.6h0A2.36,2.36,0,0,0,40.3,53a.6.6,0,0,1,.89.79,3.49,3.49,0,0,1-2.6,1Z"/><path class="cls-1" d="M45.44,64.74a141.82,141.82,0,0,1-25.08-2.11c-3.76-.7-8.87-2.62-10.88-5.74a4.55,4.55,0,0,1-.68-3.66C10.86,45,26.9,45.86,27.59,45.9c2,.12,3.8.33,5.54.54a42.82,42.82,0,0,0,11,.31h0a41.41,41.41,0,0,0,9-2.24,51.71,51.71,0,0,1,5.3-1.57,36.18,36.18,0,0,1,17,1c2.5.78,4,1.75,4.64,3a2.5,2.5,0,0,1,.08,2.24c-.31.65-1.08,1.52-3,1.95-2.49.56-3.91,1.49-4,1.92,0,.15.37.72,2.18,1.42,2.32.79,5,1.94,4.76,3.78-.12,1-.47,3.93-23,6C53.9,64.56,49.9,64.74,45.44,64.74ZM26.24,47.86c-5,0-13.86.54-15.12,5.59a3.68,3.68,0,0,0,.62,2.62c1.39,2.16,5.56,3.68,10,4.5a138.69,138.69,0,0,0,34.92,1.71c15.53-1.42,20.66-3.22,20.72-4.21,0,0-.16-.79-3.65-2-.87-.34-3.43-1.32-3.29-3.14.16-2.16,4.07-3.19,5.27-3.46a2.66,2.66,0,0,0,1.86-1,.81.81,0,0,0-.06-.74c-.28-.54-.75-1-3.27-1.7-11.75-3.42-18.54-.25-20.25.33a42.27,42.27,0,0,1-9.33,2.42,59.72,59.72,0,0,1-11.25-.17C31.7,48.35,26.88,47.86,26.24,47.86Z"/></svg>