<svg viewBox="0 0 91.56 91.56" xmlns="http://www.w3.org/2000/svg"><g fill="#fff"><path d="m84.22 56.14-1 1.35-32.72-38.44s-1-1.29-2-1.29-2.23 1.45-2.23 1.45l-10.63 11.2a1.77 1.77 0 0 0 .57 2 1.73 1.73 0 0 0 2.18.25c3.14-3.37 6.25-7 9.88-11.18 3.21 3.81 17.4 20.7 22.5 26.21v11.88l-6.67.06a.83.83 0 0 0 -.21-.16c-8.73-4.25-14.74-20.79-14.8-21a.78.78 0 0 0 -1.51.08 38 38 0 0 1 -13.34 20.7.82.82 0 0 0 -.31.38l-8.49-.06.08-13.66c1-1 1.33-1.37 5.94-6.21a1.51 1.51 0 0 0 -.46-1.94 1.71 1.71 0 0 0 -2.13-.44l-19.31 20.98-1.56-1.17-1.23 1.69 4.75 3.92 1.14-1.6-.89-.76 10.4-11.24v13.35h51.83l-.11-11.49 7.5 8.75-.75 1.25 1.57 1.22 3.56-4.85zm-36.22 3.49h-11.5a39.73 39.73 0 0 0 11.5-16.83zm.8 0v-17.63c1.89 4.54 6.2 13.29 12.1 17.63z"/><circle cx="33.77" cy="35.11" r="1.66"/></g></svg>