<svg xmlns="http://www.w3.org/2000/svg" xml:space="preserve" viewBox="0 0 100 100">
  <path d="M13.92 40.44h10.51c.1.52.15 1.04.15 1.57 0 .57-.05 1.11-.15 1.62h-6.75v4.02h5.36c.1.55.16 1.08.16 1.59 0 .55-.05 1.09-.16 1.62h-5.36v4.89h6.93c.1.52.15 1.04.15 1.57 0 .57-.05 1.11-.15 1.62H13.92v-18.5zm25.02 5.36c.1.52.16 1.03.16 1.54 0 .53-.05 1.06-.16 1.57H28.1c-.1-.52-.16-1.03-.16-1.55 0-.53.05-1.05.16-1.57h10.84zm0 5.25c.1.51.16 1.03.16 1.54 0 .53-.05 1.06-.16 1.57H28.1c-.1-.51-.16-1.03-.16-1.54 0-.53.05-1.06.16-1.57h10.84zm4.1-5.41a6.581 6.581 0 0 1 1.52-.16c.29 0 .55.01.77.04.22.03.45.06.7.12.05.09.1.21.14.37.04.16.08.34.12.52.04.18.06.36.09.53.03.17.05.32.06.44.14-.26.32-.52.54-.77.22-.26.49-.49.8-.7.31-.21.66-.37 1.04-.5.39-.13.82-.19 1.3-.19 2.08 0 3.41.79 3.99 2.37.34-.63.83-1.19 1.45-1.66.63-.47 1.42-.71 2.38-.71 1.51 0 2.62.41 3.33 1.25.71.83 1.07 2.13 1.07 3.9v8.47c-.62.1-1.23.16-1.83.16-.6 0-1.21-.05-1.83-.16v-7.52c0-.93-.12-1.64-.35-2.14-.23-.5-.7-.75-1.4-.75-.29 0-.58.04-.86.13s-.54.25-.77.48c-.23.23-.42.56-.57.98-.15.42-.22.97-.22 1.64v7.18c-.62.1-1.23.16-1.83.16-.6 0-1.21-.05-1.83-.16v-7.52c0-.93-.12-1.64-.35-2.14-.23-.5-.7-.75-1.4-.75-.29 0-.58.04-.88.13-.29.09-.55.25-.78.5-.23.25-.42.6-.56 1.04-.14.45-.21 1.03-.21 1.75v6.98c-.62.1-1.23.16-1.83.16-.6 0-1.21-.05-1.83-.16V45.64zM74.6 55.81c.21.34.38.74.52 1.2.14.45.21.99.21 1.61-.69.27-1.33.45-1.93.53-.6.08-1.23.12-1.88.12-1.12 0-2.09-.18-2.91-.53-.82-.35-1.51-.84-2.05-1.46a6.13 6.13 0 0 1-1.22-2.2c-.27-.85-.41-1.77-.41-2.77 0-.98.13-1.89.4-2.73.27-.84.67-1.58 1.21-2.21.54-.63 1.21-1.13 2.02-1.49s1.74-.54 2.81-.54c.38 0 .72.01 1.04.03.32.02.62.05.92.1.29.05.58.12.87.21.29.09.62.2.98.34 0 .4-.05.84-.15 1.33-.1.49-.27.96-.49 1.4-.52-.17-.97-.29-1.35-.35-.39-.06-.83-.09-1.33-.09-1.06 0-1.87.35-2.41 1.04-.54.7-.81 1.69-.81 2.98 0 1.39.29 2.4.88 3.04.58.63 1.37.95 2.37.95.26 0 .49 0 .71-.01.22-.01.43-.03.63-.06.21-.03.41-.08.63-.15.2-.1.45-.19.74-.29zm2.86-5.2 3.43-3.76c1.03-1.13 1.54-2.04 1.54-2.73a1 1 0 0 0-.41-.81c-.27-.21-.66-.32-1.16-.32-.45 0-.83.04-1.16.12-.32.08-.71.22-1.16.42-.15-.36-.3-.74-.42-1.13-.13-.4-.22-.82-.27-1.26.57-.22 1.1-.4 1.61-.52.5-.12 1.09-.18 1.76-.18 1.27 0 2.3.3 3.08.89.78.59 1.17 1.43 1.17 2.51 0 .82-.21 1.56-.63 2.2-.42.64-.98 1.37-1.69 2.17l-.41.44h3.25c.07.33.1.72.1 1.18 0 .5-.04.92-.1 1.26h-8.32l-.21-.48zm18.06 29.32H4.48c-2.2 0-3.98-1.79-3.98-3.98v-51.9c0-2.2 1.79-3.98 3.98-3.98h91.03c2.2 0 3.98 1.79 3.98 3.98v51.89c.01 2.2-1.78 3.99-3.97 3.99zM5.28 75.15h89.44v-50.3H5.28v50.3z"/>
</svg>
