<svg xmlns="http://www.w3.org/2000/svg" xml:space="preserve" viewBox="0 0 100 100">
  <path d="M66 86.58c-4.75 0-8.62-2.1-8.62-6.61v-13.6H30.02v13.6c0 4.51-2.85 6.76-8.62 6.61-4.75-.13-8.62-2.1-8.62-6.61l.04-27.19-10.2-9.57c-1.56-1.47-3.14-5.41-1.26-8.1.54-.78 2.19-1.74 3.43-1.87 1.34-.14 3.17.15 4.2 1.13l8.97 8.41 37.05.1 19.6 9.18v27.92c0 4.5-3.86 6.6-8.61 6.6zm-39.71-23.6 34.84.1-.02 17.22c0 2.72 2.26 2.69 5.21 2.69 2.96 0 4.71-.13 4.71-2.85l-.1-25.61-16.29-7.65h-37.2L7.25 37.56c-.35-.28-1.86-.49-2.65.2-.82 1.31.32 2.94.74 3.43l11.23 10.52-.05 28.59c0 2.72 2.59 2.89 5.54 2.89s4.12-.13 4.12-2.85l.11-17.36zm49.66-14.43L57.89 40.5l4.89-8.39c1.22-2.56 7.47-13.78 7.91-14.43.82-1.25 1.76-2.66 2.99-3.43.45-.28 1.82-1.13 3.26-.73 1.68.47 2.94 3.12 3.76 7.86.77.31 1.46.64 2.12.95.7.33 1.41.67 2.25 1 .99.39 2 .76 3.01 1.14 2.37.88 4.82 1.78 7.12 2.96.23.12.47.23.69.34 1.43.68 3.22 1.53 3.56 4.09.32 2.42-.58 4.69-1.5 6.6-.77 1.58-1.82 3.75-3.86 4.86-1.7.92-11.28.52-13.6.54h-1.57l-2.97 4.69zM62.6 39.03l12.37 5.4 2.08-3.84h3.4c2.34-.02 11.22.31 12.07-.15 1.12-.61 1.88-2.16 2.48-3.41.75-1.55 1.41-3.19 1.2-4.75-.1-.74-.37-.93-1.73-1.58-.25-.12-.51-.24-.78-.38-2.12-1.09-11.52-4.69-12.28-5.05-.88-.42-1.71-.81-2.73-1.17l-.92-.33-.15-.96c-.39-2.57-1.14-5.24-1.68-6.09-.11.05-.29.13-.54.29-.63.39-1.36 1.49-2 2.46-.51.77-6.47 11.48-7.68 14.03l-3.11 5.53zm15.84-10.59c-1.45 0-2.63 1.18-2.63 2.63s1.18 2.63 2.63 2.63 2.63-1.18 2.63-2.63-1.18-2.63-2.63-2.63z"/>
</svg>
