<svg id="Layer_1" data-name="Layer 1" xmlns="http://www.w3.org/2000/svg" viewBox="0 0 91.56 91.56"><defs><style>.cls-1{fill:#fff;}</style></defs><title>laiva</title><path class="cls-1" d="M82.83,47.8a1.78,1.78,0,0,0-1.67-1.16H67.38l-5-10a3.22,3.22,0,0,0-2.61-1.79L49.83,35l0-1.36A1.79,1.79,0,0,0,48,31.82h0a1.79,1.79,0,0,0-1.76,1.82l0,1.31H42.07l0-3.36a1.79,1.79,0,0,0-1.79-1.77h0a1.8,1.8,0,0,0-1.77,1.82l0,3.31H34.32l0-1.36a1.8,1.8,0,0,0-1.79-1.77h0a1.79,1.79,0,0,0-1.76,1.82l0,1.31-13.3-.16h-.81a1.79,1.79,0,0,0-1.79,1.79l0,10.06H10.4a1.79,1.79,0,0,0-1.72,2.28L12,60.45a1.79,1.79,0,0,0,1.72,1.29H68a1.77,1.77,0,0,0,1.18-.45L82.34,49.77a1.79,1.79,0,0,0,.49-2ZM17.69,37.67H59.44l5,8.91H17.69ZM67,58.79H15.44l-2.66-9.25H77.19Zm.32-.63"/><path class="cls-1" d="M55.55,54.19a1.73,1.73,0,1,1-1.73-1.73,1.72,1.72,0,0,1,1.73,1.73Zm0,0"/><path class="cls-1" d="M46.47,54.19a1.73,1.73,0,1,1-1.72-1.73,1.72,1.72,0,0,1,1.72,1.73Zm0,0"/><path class="cls-1" d="M37.39,54.19a1.72,1.72,0,1,1-1.72-1.73,1.72,1.72,0,0,1,1.72,1.73Zm0,0"/><path class="cls-1" d="M28.32,54.19a1.73,1.73,0,1,1-1.73-1.73,1.72,1.72,0,0,1,1.73,1.73Zm0,0"/><path class="cls-1" d="M56,43.44l-6.67,0-.06-2.82,4.77,0Zm-6.88-4.33a1.4,1.4,0,0,0-1.44,1.38v3a1.41,1.41,0,0,0,1.44,1.38h7c.79,0,1.91-.28,1.58-1.64L55.65,40c-.46-.8-.7-.89-1.49-.89"/><path class="cls-1" d="M42.59,43.42H36.44V40.59h6.15Zm0-4.3H36.37A1.37,1.37,0,0,0,35,40.49v3a1.38,1.38,0,0,0,1.37,1.37h6.24A1.37,1.37,0,0,0,44,43.52v-3a1.36,1.36,0,0,0-1.35-1.38"/><path class="cls-1" d="M30,43.42H23.82V40.59H30Zm0-4.3H23.75a1.37,1.37,0,0,0-1.37,1.37v3a1.37,1.37,0,0,0,1.37,1.37H30a1.38,1.38,0,0,0,1.37-1.37v-3A1.36,1.36,0,0,0,30,39.11"/></svg>