<svg xmlns="http://www.w3.org/2000/svg" xml:space="preserve" viewBox="0 0 100 100">
  <path d="M96.87 12.74c-1.45 0-2.17 1.18-2.17 2.63v11.9H5.24v-11.9c0-1.45-1.18-2.63-2.63-2.63S.5 13.92.5 15.37v69.26c0 1.45.8 2.63 2.25 2.63s2.63-1.18 2.63-2.63v-5.9h20.94v5.9c0 1.45.78 2.41 2.23 2.41s2.43-.96 2.43-2.41v-52.1h8.15v5.74a6.333 6.333 0 0 0-4.38 6.02c0 3.49 2.84 6.33 6.33 6.33s6.33-2.84 6.33-6.33c0-2.84-1.88-5.25-4.46-6.05v-5.72h10.02v5.81c-2.6.79-4.5 3.21-4.5 6.06 0 3.49 2.84 6.33 6.33 6.33s6.33-2.84 6.33-6.33c0-2.8-1.83-5.17-4.35-6.01v-5.86h7.02v35.14a3.197 3.197 0 0 0-2.91 2.04c-.66 1.66.16 3.54 1.82 4.2a35 35 0 0 0 12.96 2.48c4.44 0 8.81-.83 12.97-2.48a3.247 3.247 0 0 0 1.82-4.2c-.49-1.24-1.66-2-2.92-2.04V32.53h7.16v52.1c0 1.45 1.07 2.41 2.51 2.41 1.45 0 2.29-.96 2.29-2.41V15.37c0-1.45-1.18-2.63-2.63-2.63zm-13.85 56.2a28.578 28.578 0 0 1-14.69 0V32.53h14.69v36.41zM4.96 62.71v-7.96h21.56v7.96H4.96zm21.56 3.66v7.9H4.96v-7.9h21.56zM4.96 51.08v-7.84h21.56v7.84H4.96zm0-11.56v-7.78h21.56v7.78H4.96zm39.94 4.89c0 2.1-1.7 3.8-3.8 3.8-2.1 0-3.8-1.7-3.8-3.8 0-2.1 1.7-3.8 3.8-3.8 2.09 0 3.8 1.7 3.8 3.8zm13.83-.02c0 2.16-1.76 3.92-3.92 3.92s-3.92-1.76-3.92-3.92 1.76-3.92 3.92-3.92 3.92 1.76 3.92 3.92z"/>
</svg>
