<svg id="Layer_1" data-name="Layer 1" xmlns="http://www.w3.org/2000/svg" viewBox="0 0 91.56 91.56"><defs><style>.cls-1{fill:none;stroke:#4a8ecc;stroke-miterlimit:10;stroke-width:0.4px;}.cls-2{fill:#fff;}</style></defs><title>bussi</title><path class="cls-1" d="M22.76,41.58h-7V37.39h7ZM23,35H15.49a2.15,2.15,0,0,0-2.15,2.15v4.75A2.15,2.15,0,0,0,15.49,44H23a2.15,2.15,0,0,0,2.15-2.15V37.11A2.15,2.15,0,0,0,23,35Z"/><path class="cls-1" d="M37.73,41.58h-7V37.39h7ZM38,35H30.45a2.15,2.15,0,0,0-2.15,2.15v4.75A2.15,2.15,0,0,0,30.45,44H38a2.15,2.15,0,0,0,2.15-2.15V37.11A2.15,2.15,0,0,0,38,35Z"/><path class="cls-1" d="M52.7,41.58h-7V37.39h7ZM53,35H45.42a2.15,2.15,0,0,0-2.15,2.15v4.75A2.15,2.15,0,0,0,45.42,44H53a2.15,2.15,0,0,0,2.15-2.15V37.11A2.15,2.15,0,0,0,53,35Z"/><path class="cls-2" d="M28.35,42.42h-7v-4.2h7Zm.28-6.63H21.07a2.15,2.15,0,0,0-2.15,2.15V42.7a2.15,2.15,0,0,0,2.15,2.15h7.56a2.15,2.15,0,0,0,2.15-2.15V37.94a2.16,2.16,0,0,0-2.15-2.15"/><path class="cls-2" d="M43.32,42.42h-7v-4.2h7Zm.27-6.63H36a2.15,2.15,0,0,0-2.15,2.15V42.7A2.15,2.15,0,0,0,36,44.85h7.55a2.15,2.15,0,0,0,2.15-2.15V37.94a2.15,2.15,0,0,0-2.15-2.15"/><path class="cls-2" d="M58.28,42.42h-7V38.23h7Zm.28-6.63H51A2.16,2.16,0,0,0,48.85,38V42.7A2.15,2.15,0,0,0,51,44.85h7.56a2.15,2.15,0,0,0,2.15-2.15V38a2.16,2.16,0,0,0-2.15-2.16"/><path class="cls-2" d="M74.45,47.42l-3.09-2.14a10.1,10.1,0,0,0-5.77-1.8.9.9,0,0,1-.9-.9v-9h.77a9,9,0,0,1,9,9Zm0,6.34H73.22c-1.42,0-1.14.67-1.14,2.09v2.34H69.71a5.85,5.85,0,0,0-11.62,0H34.32a5.85,5.85,0,0,0-11.62,0H19.91V55.85c0-1.38.31-2.25-1.07-2.25H17.11V49.46H50.83a1.22,1.22,0,0,0,0-2.43H17.11V35.55a2,2,0,0,1,2-2H62.26v9a3.34,3.34,0,0,0,3.33,3.33A7.6,7.6,0,0,1,70,47.28l4.48,3.09Zm-7.61,6.86a3.43,3.43,0,0,1-6.37-1.74,3.84,3.84,0,0,1,.07-.69,3.42,3.42,0,0,1,6.71,0,3.11,3.11,0,0,1,.07.69,3.34,3.34,0,0,1-.48,1.74m-35.39,0a3.43,3.43,0,0,1-6.37-1.74,3.84,3.84,0,0,1,.07-.69,3.42,3.42,0,0,1,6.71,0,3.11,3.11,0,0,1,.07.69,3.34,3.34,0,0,1-.48,1.74M42.64,30a.73.73,0,0,1,.73-.73h9.47a.73.73,0,0,1,.73.73v1.17H42.64Zm22.82,1.17H56V30a3.17,3.17,0,0,0-3.16-3.16H43.37A3.17,3.17,0,0,0,40.21,30v1.17H19.07a4.4,4.4,0,0,0-4.39,4.39V57.89a2.73,2.73,0,0,0,2.73,2.73h5.51a5.86,5.86,0,0,0,11.18,0H58.31a5.85,5.85,0,0,0,11.17,0h4.93a2.48,2.48,0,0,0,2.47-2.47V42.58A11.43,11.43,0,0,0,65.46,31.16"/><path class="cls-2" d="M56.08,47.89a2.17,2.17,0,0,0-.07-.24,1.19,1.19,0,0,0-.12-.22,1.46,1.46,0,0,0-.16-.19,1,1,0,0,0-.2-.16.94.94,0,0,0-.22-.12l-.24-.08a1.31,1.31,0,0,0-1.16.36,1.46,1.46,0,0,0-.16.19l-.12.22a2.17,2.17,0,0,0-.07.24,1.15,1.15,0,0,0,0,.26,1.13,1.13,0,0,0,0,.25,2.17,2.17,0,0,0,.07.24l.12.22a1,1,0,0,0,.16.19,1.3,1.3,0,0,0,.91.38,1.07,1.07,0,0,0,.25,0,1.09,1.09,0,0,0,.24-.07.94.94,0,0,0,.22-.12,1.29,1.29,0,0,0,.36-.35,1.19,1.19,0,0,0,.12-.22,2.17,2.17,0,0,0,.07-.24,1.13,1.13,0,0,0,0-.25,1.15,1.15,0,0,0,0-.26"/></svg>