<svg xmlns="http://www.w3.org/2000/svg" xml:space="preserve" viewBox="0 0 100 100">
  <path d="M52.47 31.09a1.53 1.53 0 1 1-1.53-1.53c.85 0 1.53.68 1.53 1.53zM34.69 57.42l5.5-.04c.15 0 .3-.06.41-.17.11-.11.17-.26.16-.41l-.14-10.96c-.15-.95-.98-2.7-3.05-2.7h-.15c-2.31.09-3.14 1.75-3.26 2.69l-.04 11.01c0 .15.06.3.17.41.1.11.24.17.4.17-.01 0 0 0 0 0zm4.79-11.48.13 10.3-4.35.04.04-10.36c.01-.06.23-1.55 2.16-1.62h.1c1.59-.01 1.9 1.54 1.92 1.64zm4.11 11.53 5.55-.05c.15 0 .3-.06.41-.17.11-.11.17-.26.16-.41l-.13-11.28c0-.04-.01-.09-.02-.13-.19-.81-1.11-2.3-3.29-2.25-2.32.09-3.09 1.68-3.17 2.55l-.09 11.15c0 .15.06.3.17.41.1.12.25.18.41.18-.01 0-.01 0 0 0zm4.83-11.82.13 10.63-4.39.04.08-10.51c.01-.06.16-1.39 2.07-1.47h.13c1.48-.01 1.9 1.04 1.98 1.31zm3.93 11.86 5.37-.09c.15 0 .3-.07.4-.18.11-.11.16-.26.16-.41l-.23-11.17c-.12-.87-.97-2.46-3.12-2.39-2.36.1-2.99 1.71-2.99 2.55l-.18 11.1a.583.583 0 0 0 .58.58l.01.01zm4.56-11.75.22 10.53-4.2.07.17-10.52c0-.05.02-1.34 1.89-1.41h.12c1.55-.01 1.79 1.25 1.8 1.33zm9.21 11.45c.11-.11.17-.26.17-.41l-.14-11.14c0-.1-.02-1.01-.73-1.69-.51-.49-1.21-.72-2.12-.69-2.34.09-3.04 1.58-3.08 2.37l-.14 11.15a.583.583 0 0 0 .58.58h5.05c.15 0 .3-.06.41-.17zM61.36 45.7c.01-.12.16-1.2 1.98-1.27.56-.03.99.1 1.27.36.37.35.39.87.39.88l.13 10.57h-3.89l.12-10.54zM38.2 71.92c.11-.11.17-.26.16-.41l-.13-7.02c-.06-.65-.63-1.87-2.34-1.8-2.14.07-2.59 1.58-2.61 1.65-.01.05-.02.09-.02.14l-.19 7.03c0 .15.05.3.16.42.11.11.26.17.41.17h4.15a.6.6 0 0 0 .41-.18zm-3.79-7.32c.09-.18.42-.73 1.53-.76.95-.06 1.14.58 1.16.72l.12 6.39h-2.98l.17-6.35zm11.92 10.98c.11-.11.17-.26.16-.41l-.23-10.28c-.13-.76-.83-2.21-2.49-2.21-2.13 0-2.85 1.5-2.93 2.34l-.23 10.15c0 .15.06.3.16.41s.26.17.41.17h4.74c.15.01.3-.06.41-.17zm-4.35-10.49c.01-.05.15-1.26 1.79-1.26 1.09 0 1.34 1.13 1.35 1.17l.21 9.61h-3.57l.22-9.52zm-32.51 6.3.18-6.92c0-.17-.07-.34-.2-.45-.12-.1-.81-.61-2.74-.64-1.95-.06-2.7.58-2.83.7-.12.11-.18.27-.18.44l.28 6.81c.01.3.26.55.56.55l4.35.07h.01c.3 0 .56-.24.57-.56zm-4.62-6.57c.27-.12.85-.32 1.83-.28.98.01 1.54.16 1.81.27l-.16 5.99-3.24-.05-.24-5.93zm9.41 7.16 4.48-.09c.31-.01.56-.26.56-.57l.03-6.78c0-.17-.08-.34-.22-.45-.12-.1-.8-.56-2.66-.56h-.1c-1.96.02-2.68.62-2.81.74-.12.11-.18.27-.17.44l.29 6.72a.572.572 0 0 0 .6.55zm2.11-7.3c1.02.02 1.54.12 1.81.22l-.03 5.86-3.36.07-.25-5.83c.28-.12.84-.31 1.83-.32zm-2.05-7.44 4.42-.07c.3 0 .55-.24.56-.54l.37-6.87a.557.557 0 0 0-.2-.47c-.12-.1-.81-.59-2.74-.62-2.01-.04-2.7.56-2.82.68a.56.56 0 0 0-.18.42l.01 6.91c0 .15.06.3.17.41.11.09.25.15.41.15zm2.4-7.43c.96.01 1.52.16 1.8.26l-.32 5.96-3.31.05-.01-6c.27-.11.82-.29 1.84-.27zM4.26 57.26l4.63-.03c.31 0 .57-.25.57-.56l.1-6.78c0-.18-.08-.34-.21-.45-.12-.1-.81-.58-2.75-.59h-.02c-1.94 0-2.67.6-2.79.72-.11.11-.18.26-.18.42l.08 6.71c0 .31.25.56.57.56zM6.58 50h.02c.97 0 1.53.14 1.81.24l-.09 5.85-3.49.02-.07-5.81c.26-.12.82-.3 1.82-.3zm79.88 21.5c.11-.11.17-.25.18-.4l.12-6.94c0-.15-.05-.29-.15-.4-.18-.19-.75-.54-2.54-.65-1.95-.12-2.72.44-2.86.55-.13.11-.2.28-.2.45l.16 6.88c.01.3.25.55.56.56l4.33.12h.02c.13-.01.27-.07.38-.17zm-4.31-7.07c.28-.11.86-.25 1.83-.18.9.06 1.39.17 1.61.24l-.1 6.01-3.21-.09-.13-5.98zm4.4-7.96c.11-.11.17-.25.17-.41l-.03-6.84a.56.56 0 0 0-.17-.4c-.18-.19-.76-.51-2.55-.59-1.95-.08-2.71.49-2.84.6a.57.57 0 0 0-.19.46l.3 6.77c.01.3.26.55.57.55l4.33.03c.16-.01.31-.07.41-.17zm-4.44-6.87c.28-.11.84-.27 1.83-.22.9.04 1.39.14 1.62.2l.02 5.9-3.21-.02-.26-5.86zm9.16 7.2 4.06-.03c.3 0 .55-.24.57-.54l.38-6.7a.579.579 0 0 0-.16-.43c-.18-.19-.75-.53-2.53-.64-1.97-.13-2.72.43-2.85.55a.56.56 0 0 0-.2.45l.17 6.77c-.01.32.24.57.56.57-.01 0 0 0 0 0zm2.24-7.19c.88.05 1.36.16 1.6.23l-.33 5.78-2.96.02-.14-5.85c.28-.1.86-.24 1.83-.18zm-2.43 21.85h4.49a.583.583 0 0 0 .58-.58l-.05-6.77a.56.56 0 0 0-.17-.4c-.19-.19-.76-.51-2.55-.57-1.96-.08-2.71.5-2.84.62-.13.11-.2.27-.19.44l.16 6.7c.01.31.26.56.57.56zm2.26-7.18c.9.03 1.39.13 1.62.19l.04 5.84h-3.35l-.14-5.8c.27-.11.85-.27 1.83-.23zm6.07-4.58c0 .38-.31.69-.69.69l-22.01-.05-.04 17.36 16.14.18c.38 0 .68.32.68.7 0 .38-.31.68-.69.68h-.01l-16.82-.19c-.22 0-.4-.11-.52-.27l-8.89.08c.24 1.67.33 2.84.35 3.02l.05.66-.66.08c-.04 0-1.05.11-8.18.11-2.8 0-4.11-.06-6.1-.15-.64-.03-1.35-.06-2.2-.1-.73-.03-.71-.82-.7-1.29.01-.54.08-1.48.21-2.65l-17.21-.09c-.31 0-.56-.21-.65-.5-.11.08-.24.14-.38.14l-5 .09h-.01c-.08 0-.16-.02-.24-.05v.04c0 .18-.07.36-.2.49s-.3.2-.48.2h-.01l-17.46-.29c-.38 0-.69-.31-.68-.69a.69.69 0 0 1 .69-.68h.01l16.74.27v-16.4c-.08.04-.17.05-.27.05L1.1 61.11c-.38 0-.69-.31-.69-.69 0-.38.31-.69.69-.69l23.08.04c.09 0 .19.02.27.05V42.95l-5.11.05h-.01c-.34 0-.63-.25-.68-.59l-1.09-7.23-2.09-.03-1.42 7.2c-.06.32-.34.55-.67.55l-11.7.13h-.01a.69.69 0 0 1-.01-1.38l11.15-.12 1.43-7.21c.06-.32.35-.55.68-.55h.01l3.25.04c.34 0 .62.25.67.59l1.08 7.21 4.52-.05v-2.63l-2.36-2.69a.704.704 0 0 1-.1-.76c.13-.25.38-.4.67-.38l2.95.22-.6-2.38a.67.67 0 0 1 .13-.59c.13-.17.33-.26.54-.26l20.65-.01-.75-5.41c-.03-.19.03-.39.16-.54a.67.67 0 0 1 .51-.24l1.68-.03L50 18.51c.08-.3.35-.5.66-.5h.5c.32 0 .6.22.67.53l1.7 7.14 2.03.37c.37.07.62.42.56.79l-.87 5.23 20.12.14c.19 0 .38.08.51.23.13.14.19.34.17.53l-.36 3.48 2.63.16a.682.682 0 0 1 .53 1.07l-1.95 2.9-.06 1.18 5.21-.11 1.09-7.23c.05-.33.33-.58.67-.59l3.25-.04h.01c.33 0 .61.23.68.55l1.42 7.21 7.85.03c.38 0 .69.31.69.69 0 .38-.31.69-.69.69l-8.41-.03c-.33 0-.61-.23-.67-.55l-1.42-7.2-2.09.03-1.09 7.23c-.05.33-.33.58-.67.59l-5.89.12c0 .02-.01.04-.02.07.01.04.02.07.02.11l-.04 15.65 22.01.05c.36-.02.67.29.66.67zM74.89 37.77c-.04 0-.07-.02-.1-.03-.05.01-.09.03-.14.03-1.66 0-4.05.01-5.53.03.28.37.63.85 1.07 1.47.08.12.13.25.13.4l-.02 37.62 5-.05.09-33.93c0-.04.02-.08.02-.11-.01-.05-.03-.1-.02-.16l.14-2.72c.01-.12.05-.24.12-.35l1.39-2.06-2.15-.14zm-48.32-4.29.51 2.02c6.73 0 6.74.05 6.84.66.05.29-.1.57-.35.71-.24.21-1.09 1.24-1.82 2.16v19.85c.03 0 .06-.02.09-.02l37.08.04.01-19.02c-.65-.91-1.4-1.92-1.63-2.14a.706.706 0 0 1-.31-.71c.11-.64.13-.65 7.32-.65l.29-2.82-20.17-.14c-.2 0-.39-.09-.52-.24a.666.666 0 0 1-.15-.56l.89-5.35-1.81-.33a.698.698 0 0 1-.55-.52l-1.42-5.96-1.76 6.26c-.08.29-.35.5-.65.5l-1.41.02.76 5.42a.692.692 0 0 1-.68.79l-20.56.03zm5.13 3.42c-1.65-.02-4.35-.03-6.23-.03-.19 0-.36-.08-.49-.2l-.74-.06 1.42 1.62a.7.7 0 0 1 .17.45v3.43c0 .03-.01.05-.01.07 0 .02.01.04.01.07v34.62c.07-.03.14-.05.23-.05l4.32-.08V38.8c0-.15.05-.3.14-.42.49-.63.87-1.11 1.18-1.48zm20.38 44.32.61.03c.09-1.32.47-6.47.97-9.49.01-.06.72-4 1.61-6.55-.14.13-.28.26-.42.42-2.3 2.65-3.5 8.29-4.02 12.13.01.04.02.08.02.13 0 .11-.04.22-.08.31-.17 1.31-.25 2.37-.28 2.96.59.02 1.11.04 1.59.06zm6.27-16.82.27 16.98c1.23 0 2.26-.01 3.12-.01-.11-1.47-.5-6.35-.97-9.18-.53-3.16-1.66-6.87-2.03-7.65-.13-.06-.26-.11-.39-.14zm-3.33 7.59c-.48 2.89-.86 7.97-.95 9.32.93.03 1.89.06 3.18.06l-.27-16.89c-.43 1.04-1.47 4.52-1.96 7.51zm10.46 9.31c-.38-4.05-1.76-11.75-4.74-15.24.78 2.52 1.38 5.84 1.39 5.89.5 2.98.89 8 1 9.4 1.16-.01 1.89-.03 2.35-.05zm-.84-10.74 2.26.03.05-5.93c-.08-.26-.45-1.23-1.41-1.23h-.05c-1.03.03-1.44.48-1.58.68l.73 6.45zm1.68 6.76 2.6-.02V60.29l-37.09-.04c-.03 0-.06-.01-.09-.02v16.99c.11-.07.22-.12.36-.12l17.38.09c.55-3.85 1.75-9.19 4.06-12.14a.574.574 0 0 1-.53-.44c-.02-.1-.3-.99-1.83-.87-.81.07-1.15.74-1.24.95l-.24 10.65c-.01.31-.26.56-.57.56h-.01a.572.572 0 0 1-.56-.59l.27-10.75c0-.05.01-.11.03-.16.02-.07.55-1.66 2.26-1.81 2.08-.18 2.9 1.08 3.04 1.77.91-.92 1.98-1.48 3.22-1.48 2.49 0 4.34 1.75 5.72 4.19l-.34-3c-.01-.09 0-.18.03-.26.02-.06.56-1.45 2.67-1.52 1.65-.06 2.44 1.39 2.63 2.16.01.05.02.09.02.14l-.05 6.59c0 .15-.06.3-.17.41a.55.55 0 0 1-.4.16h-.01l-2.46-.04c.59 1.94 1.01 3.92 1.3 5.61z"/>
</svg>
