<svg xmlns="http://www.w3.org/2000/svg" xml:space="preserve" viewBox="0 0 100 100">
  <path d="M88.57 5.07c1.55 2.34.86 4.86.21 5.98-1.76 2.11-4.64.19-3.32-1.93l-.02.03c.06-.1.53-1.05-.08-1.98-1.66-2.56-.24-5.12.74-6.12 1.11-1.34 4.38-.19 2.74 2.69l.02-.02c-.16.18-.65.79-.29 1.35m-8.83 0c-.36-.56.13-1.17.29-1.34l-.02.02c1.64-2.88-1.63-4.04-2.74-2.69-.98 1-2.4 3.56-.74 6.12.61.92.14 1.87.08 1.98l.02-.03c-1.32 2.12 1.57 4.04 3.32 1.93.65-1.13 1.33-3.65-.21-5.99M77.63 80.5a1.92 1.92 0 1 0 1.92 1.92c0-1.05-.86-1.92-1.92-1.92m2.26-22.98a1.92 1.92 0 1 0 .001 3.841 1.92 1.92 0 0 0-.001-3.841m14.89 38.14-.96-11.53h-9.95c-1.06 0-2.01-.77-2.01-1.82 0-1.06 1-1.66 2.05-1.66h9.63L91.9 61.07h-5.92c-1.06 0-1.89-.72-1.89-1.78s.85-1.73 1.91-1.73h5.6L90.43 43.4H74.09l-.6 6.45h8.77c1.06 0 1.82.67 1.82 1.73s-.76 1.81-1.82 1.81h-9.15l-3.36 34.9h13.23c1.06 0 1.82.67 1.82 1.73s-.76 1.79-1.82 1.79h-13.6l-.37 3.84h25.77zM68.14 64.92 70 45.71H18.5v19.21h49.64zm-.37 3.84H5.05v26.9h60.11l2.61-26.9zm-35.68-26.9h7.38l-.52-7.22h-6.38l-.48 7.22zm.76-9.99h5.87l-.36-4.64h-5.19l-.32 4.64zm.59-7.5 4.71.05-.3-4.08h-4.12l-.29 4.03zM51.3 41.86h7.38l-.63-7.05h-6.01l-.74 7.05zm.76-9.99h5.87l-.41-4.53h-5.19l-.27 4.53zm.53-7.5 4.81-.05-.35-3.97h-4.12l-.34 4.02zm21.88 15.19h15.61l-1.12-11.53H75.59l-1.12 11.53zm1.49-15.37h12.63l-.37-3.84H76.33l-.37 3.84zm22.82 73.23c.04.53-.14 1.06-.5 1.46-.37.39-.88.62-1.41.62H3.13a1.92 1.92 0 0 1-1.92-1.92V66.84c0-1.06.86-1.92 1.92-1.92h11.53V43.78c0-1.06.86-1.92 1.92-1.92h11.66l1.79-23.58c.08-1 .91-1.78 1.91-1.78h7.68c1 0 1.84.77 1.92 1.78l1.78 23.58h4.12l1.79-23.58c.08-1 .91-1.78 1.92-1.78h7.68c1.01 0 1.84.77 1.92 1.78l1.79 23.58h7.84l2.29-23.63c.1-.98.92-1.73 1.91-1.73h15.37c.99 0 1.82.75 1.91 1.73l2.24 23.08 4.68 56.11m-68.1-18.68v7.57c0 .95-.61 1.73-1.35 1.73H9.52c-.74 0-1.35-.78-1.35-1.73v-7.57c0-.95.61-1.73 1.35-1.73h19.81c.74 0 1.35.77 1.35 1.73zm-2.49.65H10.56v6.33H28.2v-6.33zm29.65-.65v7.57c0 .95-.61 1.73-1.35 1.73H36.68c-.74 0-1.35-.78-1.35-1.73v-7.57c0-.95.61-1.73 1.35-1.73h19.81c.74 0 1.35.77 1.35 1.73zm-2.49.65H37.71v6.33h17.64v-6.33zM40.53 51.9v7.57c0 .95-.76 1.62-1.95 1.73l-13.36.05c-1.03-.05-1.71-.83-1.71-1.79V51.9c0-.95 1.1-1.73 1.66-1.73l13.8-.05c.55 0 1.56.48 1.56 1.78zm-2.33.65H25.81v6.38H38.2v-6.38z"/>
</svg>
