<svg id="Layer_1" data-name="Layer 1" xmlns="http://www.w3.org/2000/svg" viewBox="0 0 91.56 91.56"><defs><style>.cls-1{fill:#fff;}</style></defs><title>lapsi</title><path class="cls-1" d="M46,35a7.9,7.9,0,1,0-7.9-7.9A7.9,7.9,0,0,0,46,35ZM46,22a5.16,5.16,0,1,1-5.16,5.16A5.17,5.17,0,0,1,46,22Z"/><path class="cls-1" d="M60.39,29.35A4.73,4.73,0,0,0,57,30.84L50.46,38H41.2l-6.76-7.48a4.86,4.86,0,0,0-7.09,6.66l7.84,8.34,0,22.9c0,2.61,1,3.92,3.66,3.92H52.71c2.61,0,3.66-.89,3.66-3.5l-.08-5.75c0-1-.33-1.56-1.33-1.56s-1.34.67-1.34,1.67v5.55a.8.8,0,0,1-.91.92L47,69.75V56.63c0-1-.34-1.54-1.34-1.54s-1.25.54-1.25,1.54V69.68H38.79c-.91,0-.92-1-.92-1.67V45.14a2.42,2.42,0,0,0-.63-1.43L29.1,35a1.84,1.84,0,0,1,.29-2.61,2.19,2.19,0,0,1,3,0l7.43,7.64a1.82,1.82,0,0,0,1.32.57l9.53,0A1.82,1.82,0,0,0,52,40.12l7.16-7.64a2.47,2.47,0,0,1,2.76.17c.74.69,1,2,.49,2.49L54,44a1.83,1.83,0,0,0-.49,1.24v8.17c0,1,.41,1.42,1.42,1.42s1.34-.35,1.34-1.35l0-8.1,8-8.21a4.45,4.45,0,0,0-.43-6.51A4.86,4.86,0,0,0,60.39,29.35Z"/><circle class="cls-1" cx="54.95" cy="58.21" r="1.46"/></svg>