<svg id="Layer_1" data-name="Layer 1" xmlns="http://www.w3.org/2000/svg" viewBox="0 0 91.56 91.56"><defs><style>.cls-1,.cls-2{fill:none;stroke:#fff;stroke-linecap:round;stroke-miterlimit:10;}.cls-1{stroke-width:1.2px;}.cls-2{stroke-width:1.6px;}.cls-3{fill:#fff;}</style></defs><title>metso</title><path class="cls-1" d="M44.72,44l-1.24-9s.5-5.33,4.83-4.93a10,10,0,0,1,5.38,1.63c.57.41,4.75,2.76,4.75,2.76A32.15,32.15,0,0,1,54.34,37c-1,.32-3.75,1.22-4.16,2.44s.49,1.88,1.8,3.18a4.6,4.6,0,0,1,1.46,3.83c-.08,1.22-1.22,3.34-1.22,4.48s.41,6.69-.65,8.64a9.44,9.44,0,0,1-5.38,3.84,20,20,0,0,1-2.93.24,2.79,2.79,0,0,1-1.63,2.85,6.23,6.23,0,0,1-5.38.09,13.4,13.4,0,0,1-3.1-2.37L31,67.46S33.64,71,40.89,70c1.82-.25,4-2,4.81-1.31a4.58,4.58,0,0,0,2.69,1.15A3,3,0,0,0,50,69.32a13.23,13.23,0,0,0,4.36,1.4,4.13,4.13,0,0,0,2.45-.65,9.37,9.37,0,0,0,5.54-1.3c2-1.33,2.85-1.23,3.5-3.1a2.86,2.86,0,0,0-.16-2.85c-.16-.49,1.47-1.88,2-3.92a6.71,6.71,0,0,0-.08-3.09,6.93,6.93,0,0,0,1.46-3.27,6.25,6.25,0,0,0-.32-2.85,4.39,4.39,0,0,0,1.06-2.93c-.16-1.55-2-3.59-2-3.59s.82-2.53.16-3.75a5.45,5.45,0,0,0-2.12-2,3,3,0,0,0-.89-2.61,6.43,6.43,0,0,0-3.87-.92c-.46.2-3.27.79-3,.35,0,0,2.2-3.92,2.36-5.06A2.57,2.57,0,0,0,60,27.32l-15.75.2a10.32,10.32,0,0,0-2.52.49c-1.14.57-1.14,2.53-1.14,2.53l.48,11.33s.25.89-.32.73-3.51-3.1-8.4-3.26C28.74,39.22,25,41.79,25,41.79s-.74.89-.74-.17.71-9.24,1.47-11.49a7.62,7.62,0,0,1,7.5-5.22c3.91,0,7.42,3.75,7.42,3.75"/><line class="cls-1" x1="65.92" y1="37.47" x2="52.3" y2="43.01"/><line class="cls-1" x1="53.53" y1="46.27" x2="67.79" y2="43.42"/><line class="cls-1" x1="52.71" y1="49.37" x2="68.69" y2="49.86"/><line class="cls-1" x1="52.37" y1="52.68" x2="67.55" y2="56.13"/><line class="cls-1" x1="52.3" y1="56.13" x2="65.67" y2="62.82"/><line class="cls-1" x1="51.86" y1="59.69" x2="62.32" y2="67.65"/><line class="cls-1" x1="49.04" y1="62" x2="56.15" y2="70.32"/><line class="cls-1" x1="46.7" y1="63.55" x2="49.32" y2="69.48"/><circle class="cls-2" cx="33.1" cy="53.46" r="10.02"/><circle class="cls-3" cx="49.15" cy="34.32" r="1.18"/><path class="cls-2" d="M37.47,19.53s2.93-3.26,5.3-3.42,24.29.08,24.29.08,1.71,7.58-2.53,11a3.24,3.24,0,0,0-.41,2.94c.41.65,3.42,1.29,5.2,3.19,5.79,6.19,4.22,17.9,3.16,21S69,58.93,69.32,60.48a20,20,0,0,1-.63,7.31c-1,3.36-4.46,6.3-9.37,7.36C54.77,76.14,50,75,47.65,73c-1.82-1.53-2.28-1.93-2.93-1.93s-7.4,4.6-14.24-.57c-2.07-1.56-3-6-3.53-6.69s-3-1.55-4.48-2.6a15.13,15.13,0,0,1-4.08-6.12C17.17,51,19.62,44.48,19.62,44.48A16,16,0,0,1,18.23,38c.25-2.93.41-11,6.36-16.13S37.47,19.53,37.47,19.53Z"/><circle class="cls-3" cx="55.16" cy="34.61" r="2.04"/><circle class="cls-3" cx="33.1" cy="53.46" r="2.04"/></svg>