<svg xmlns="http://www.w3.org/2000/svg" xml:space="preserve" viewBox="0 0 100 100">
  <path d="M95.61 30.73a50.276 50.276 0 0 0-4.56-8.41A49.854 49.854 0 0 0 77.67 8.96a49.563 49.563 0 0 0-8.41-4.56C63.16 1.81 56.68.5 50 .5c-6.68 0-13.16 1.31-19.27 3.89a50.276 50.276 0 0 0-8.41 4.56A49.854 49.854 0 0 0 8.96 22.33a49.563 49.563 0 0 0-4.56 8.41C1.81 36.84.5 43.32.5 50c0 6.68 1.31 13.16 3.89 19.27 1.24 2.93 2.78 5.76 4.56 8.41 1.77 2.62 3.8 5.09 6.04 7.33a49.563 49.563 0 0 0 15.74 10.6c6.1 2.58 12.59 3.89 19.27 3.89s13.16-1.31 19.27-3.89c2.93-1.24 5.76-2.78 8.41-4.56 2.62-1.77 5.09-3.8 7.33-6.04a49.563 49.563 0 0 0 10.6-15.74c2.58-6.1 3.89-12.59 3.89-19.27s-1.31-13.16-3.89-19.27zM50 90.94C27.43 90.94 9.06 72.57 9.06 50S27.43 9.06 50 9.06 90.94 27.43 90.94 50 72.57 90.94 50 90.94zm6.36-61.36c0 3.51-2.85 6.36-6.36 6.36-3.51 0-6.36-2.85-6.36-6.36 0-3.51 2.85-6.36 6.36-6.36 3.51-.01 6.36 2.84 6.36 6.36zm-1.43 43.53c0 3.36-2.22 4.96-4.93 4.96-2.71 0-4.93-1.6-4.93-4.96V46.79c0-3.36 2.22-4.57 4.93-4.57 2.71 0 4.93 1.22 4.93 4.57v26.32z"/>
</svg>
