<svg xmlns="http://www.w3.org/2000/svg" xml:space="preserve" viewBox="0 0 100 100">
  <path d="M41.28 63.39c0 2-1.62 3.61-3.61 3.61-2 0-3.61-1.62-3.61-3.61 0-2 1.62-3.61 3.61-3.61 2 0 3.61 1.62 3.61 3.61zm25.15-3.61c-2 0-3.61 1.62-3.61 3.61 0 2 1.62 3.61 3.61 3.61 2 0 3.61-1.62 3.61-3.61 0-1.99-1.61-3.61-3.61-3.61zM63.7 9.28c-1.57 0-2.84 1.27-2.84 2.84s1.27 2.84 2.84 2.84c1.57 0 2.84-1.27 2.84-2.84s-1.27-2.84-2.84-2.84zm-5.64 3.51v-1.95c0-.86-.7-1.56-1.56-1.56H38.08c-.86 0-1.56.7-1.56 1.56v1.95c0 .86.7 1.56 1.56 1.56H56.5c.86 0 1.56-.7 1.56-1.56zm12.48 9.56v15.56c0 .46-.21.9-.56 1.2-.28.23-.63.36-1 .36-.09 0-.19-.01-.28-.03l-17.66-3.26-17.66 3.26c-.09.02-.19.03-.28.03-.36 0-.71-.13-1-.36-.36-.29-.56-.73-.56-1.2V22.35c0-.75.54-1.39 1.27-1.53l17.94-3.31h.02c.04-.01.08-.01.12-.01h.2c.05 0 .1.01.15.01h.02c.02 0 .03 0 .05.01l17.94 3.31c.75.13 1.29.77 1.29 1.52zM34.66 36.04l14.83-2.74V20.91l-14.83 2.74v12.39zm32.77-12.39L52.6 20.91V33.3l14.83 2.74V23.65zm19.89 75.36c-.31.33-.72.49-1.14.49-.38 0-.76-.14-1.06-.42l-2.68-2.51H17.56l-2.68 2.51c-.3.28-.68.42-1.06.42a1.6 1.6 0 0 1-1.14-.49c-.59-.63-.56-1.61.07-2.2l10.04-9.41 11.86-11.12c-6.87-2.88-11.69-9.49-11.69-17.17V13.65C22.96 6.4 29.06.5 36.57.5h29.01c7.5 0 13.61 5.9 13.61 13.15v45.46c0 8.24-5.55 15.25-13.23 17.74L77.21 87.4l10.04 9.41c.62.59.66 1.57.07 2.2zM27.83 86.95h44.35l-3.62-3.4h-37.1l-3.63 3.4zm-.2-42.97c4.13.57 18.71 3.22 23.48 12.63 4.74-9.36 19.17-12.03 23.4-12.62V13.65c0-4.67-4.01-8.48-8.94-8.48h-29c-4.93 0-8.94 3.8-8.94 8.48v30.33zm14.74 29.18h17.4c8.13 0 14.74-6.3 14.74-14.05V47.15c-5.09.8-21.81 4.31-21.81 16 0 .86-.7 1.56-1.56 1.56h-.06c-.86 0-1.56-.7-1.56-1.56 0-11.75-16.9-15.24-21.89-16.01v11.97c0 7.75 6.62 14.05 14.74 14.05zm-4.31 4.2-3.29 3.08h30.46l-2.91-2.72c-.02-.02-.03-.03-.04-.05-.82.1-1.66.16-2.5.16h-17.4c-1.49 0-2.93-.17-4.32-.47zm41.06 16.1-3.62-3.4H24.51l-3.62 3.4h58.23z"/>
</svg>
