<svg xmlns="http://www.w3.org/2000/svg" xml:space="preserve" viewBox="0 0 100 100">
  <path d="M96.41 85.52c-5.47 0-1.98-32.7-1.98-32.7s-.2-1.9-.42-2.49c-.16-.44-.58-1.29-.83-1.69-4.13-6.55-.52-28.21 1.77-32.22 2.29-4 3.85-.88 3.85-.88s.14 25.46.16 33.95v3.23s2.29 32.8-2.55 32.8zM11.37 33.26c1.01-4.5-.79-18.99-.79-18.99H9.57v14.5H8.23v-14.5h-1.4v14.5H5.36v-14.5h-1.4v14.5H2.61v-14.5H1.6S-.2 28.77.81 33.26s4.05 6.07 4.05 6.07S-.42 85.41 6.1 85.41c6.52 0 1.24-46.08 1.24-46.08s3.02-1.57 4.03-6.07zm61.71 17.31a22.286 22.286 0 0 1-3.83 12.54c-.8 1.19-1.72 2.3-2.74 3.32a22.388 22.388 0 0 1-3.32 2.74A22.25 22.25 0 0 1 50.65 73a22.286 22.286 0 0 1-12.54-3.83c-1.19-.8-2.3-1.72-3.32-2.74a22.388 22.388 0 0 1-2.74-3.32 22.25 22.25 0 0 1-3.83-12.54 22.286 22.286 0 0 1 3.83-12.54c.8-1.19 1.72-2.3 2.74-3.32 1.01-1.01 2.13-1.94 3.32-2.74a22.25 22.25 0 0 1 12.54-3.83 22.286 22.286 0 0 1 12.54 3.83c1.19.8 2.3 1.72 3.32 2.74 1.01 1.01 1.94 2.13 2.74 3.32.81 1.2 1.51 2.48 2.07 3.81 1.16 2.77 1.76 5.7 1.76 8.73zm-2.73-.03c0-10.82-8.8-19.63-19.63-19.63S31.1 39.72 31.1 50.54s8.8 19.63 19.63 19.63 19.62-8.81 19.62-19.63zM60.23 16.56c-19.4-5.79-37.47 4.48-43.43 23.05-5.96 18.57 4.26 38.47 22.83 44.43C58.2 90 78.51 79.69 84.48 61.11c3.63-11.32 1-24.44-5.77-32.07-.93-1.05-2.63-1.38-3.84 0-1.64 1.86.56 4.6.56 4.6 4.95 7.38 6.35 17.23 3.67 25.98-4.86 15.9-22.04 24.54-37.87 19.46C25.4 74 16.69 57.04 21.77 41.21c5.02-15.64 19.51-24.05 35.67-20.53 0 0 3.79 1.53 4.72.22 1.33-1.86.74-3.19-1.21-4.03m8.98 5a2.416 2.416 0 1 0 1.56 3.04c.41-1.27-.29-2.64-1.56-3.04z"/>
</svg>
