<svg id="Layer_1" data-name="Layer 1" xmlns="http://www.w3.org/2000/svg" viewBox="0 0 91.56 91.56"><defs><style>.cls-1{fill:#fff;}</style></defs><title>kahvikuppi</title><path class="cls-1" d="M28.77,67.4a7.07,7.07,0,0,0,4.72,2.08l21.16-.3a6.64,6.64,0,0,0,4.57-2.29L65.1,58.6a4.21,4.21,0,0,1,4-2.2,15.56,15.56,0,0,0,3.71-.14C81.16,55.09,86.29,49.15,85.41,43a7.66,7.66,0,0,0-4.79-6.59,18.71,18.71,0,0,0-5.71-1.34c-1.55-.09-2.85-.69-2.89-1.34S70.68,32,69.12,32l-50.4.54a2.36,2.36,0,0,0-2.38,2.82,126.24,126.24,0,0,0,3.84,16.4A49.06,49.06,0,0,0,28.77,67.4Zm41.78-25A3.73,3.73,0,0,1,74,39.58a15.19,15.19,0,0,1,2.81.32,4.1,4.1,0,0,1,3.62,3.31c.83,4.58-3.55,8.38-8.33,8.57l-1.22,0A2.64,2.64,0,0,1,69,48.51ZM21.09,38.75a2.36,2.36,0,0,1,2.37-2.83l41.05-.47a2.58,2.58,0,0,1,2.64,2.8,49.71,49.71,0,0,1-4,14.5c-3.28,7.63-6.6,10.86-6.6,10.86a8.3,8.3,0,0,1-4.86,2L37,65.88A8.3,8.3,0,0,1,32.07,64a32.61,32.61,0,0,1-7.26-11.37A81.41,81.41,0,0,1,21.09,38.75Z"/><path class="cls-1" d="M27.43,49.64a30.41,30.41,0,0,0,2.77,6.75c2.1,3.85,4.81,4.84,5.57,4.93a1.7,1.7,0,0,0,1.16-2.75c-.76-1-2.68-1.74-4.21-4.7a48.31,48.31,0,0,1-2.19-5s-.4-2.2-2-1.75C26.72,47.51,27.43,49.64,27.43,49.64Z"/><circle class="cls-1" cx="27.39" cy="43.05" r="1.96"/></svg>