<svg xmlns="http://www.w3.org/2000/svg" xml:space="preserve" viewBox="0 0 100 100">
  <path d="M98.9 29.67 80.09 10.86c-.38-.38-.9-.6-1.44-.6h-57.3c-.54 0-1.06.21-1.44.6L1.1 29.67c-.75.75-.8 1.94-.12 2.75l15.08 17.84s1.37.58 2.53-.38.74-2.05.74-2.05L7.58 33.96h23.35l14.49 45.12-15.38-18.35s-1.32-.69-2.42.41-.85 2.02-.85 2.02l21.68 25.85c.39.46.96.73 1.56.73.6 0 1.17-.27 1.56-.73l47.47-56.6c.66-.81.61-2-.14-2.74zM75.79 14.33l-11.24 13.6-11.78-13.6h23.02zM60.86 29.89H39.8l10.53-12.15 10.53 12.15zM47.9 14.33l-11.78 13.6-11.24-13.6H47.9zM6.63 29.89l14.15-14.14s0 .01.01.01l11.68 14.13H6.63zM49.9 79.72 35.2 33.96h29.1L49.9 79.72zm4.34-.24 14.3-45.47c.01-.02.01-.04.01-.06h23.86L54.24 79.48zM68.2 29.89l11.39-13.78 13.78 13.78H68.2zM25.22 54.72c.6 1.23.09 2.71-1.13 3.31-1.23.6-2.71.09-3.31-1.13s-.09-2.71 1.13-3.31c1.23-.61 2.71-.1 3.31 1.13z"/>
</svg>
