<svg xmlns="http://www.w3.org/2000/svg" xml:space="preserve" viewBox="0 0 100 100">
  <path fill-rule="evenodd" d="M27.33.5h45.33c3.67 0 6.66 2.99 6.66 6.66v85.68c0 3.67-2.99 6.66-6.66 6.66H27.33c-3.67 0-6.66-2.99-6.66-6.66V7.16c.01-3.67 3-6.66 6.66-6.66zm-1.64 10.8v69.4h48.1V11.3h-48.1zm19.43-7.15c-.52 0-.94.82-.94 1.82v.11c0 1.01.42 1.83.94 1.83h10.54c.51 0 .94-.82.94-1.83v-.11c0-1.01-.42-1.82-.94-1.82H45.12zm4.93 81.12c-2.26 0-4.09 1.83-4.09 4.09s1.83 4.09 4.09 4.09 4.09-1.83 4.09-4.09c.01-2.26-1.83-4.09-4.09-4.09z" clip-rule="evenodd"/>
</svg>
