<svg id="Layer_1" data-name="Layer 1" xmlns="http://www.w3.org/2000/svg" viewBox="0 0 91.56 91.56"><defs><style>.cls-1,.cls-3,.cls-4{fill:none;stroke:#fff;}.cls-1,.cls-3{stroke-linecap:round;stroke-linejoin:round;}.cls-1,.cls-4{stroke-width:1.2px;}.cls-2{fill:#fff;}.cls-4{stroke-miterlimit:10;}</style></defs><title>raatihuone</title><polyline class="cls-1" points="3.87 34.59 14.08 34.48 15.42 27.71 18.25 27.75 19.27 34.56 24.33 34.51 24.33 65.84 9.12 65.59"/><polyline class="cls-1" points="83.33 66.17 68.66 66.01 68.75 35.42"/><polyline class="cls-1" points="24.33 34.38 24.33 31.39 22.13 28.88 25.53 29.13 24.81 26.25 43.5 26.24 42.75 20.84 44.66 20.81 46.58 13.96 47.02 13.96 48.59 20.57 50.75 20.96 49.87 26.21 68.12 26.34 67.75 30 70.66 30.17 68.87 32.84 68.75 35.22"/><circle class="cls-2" cx="46.83" cy="24.77" r="1.34"/><path class="cls-3" d="M32.65,47.23l0-9.6a2.29,2.29,0,0,1,2.36-1.85,2.26,2.26,0,0,1,2.29,1.93l.11,9.48Z"/><path class="cls-3" d="M40.41,47.27l.08-9.72a2.11,2.11,0,0,1,2.28-1.73,2.2,2.2,0,0,1,2.36,1.57l.12,9.84Z"/><path class="cls-3" d="M48.05,47.31l.16-9.68s0-1.65,2.13-1.73a2,2,0,0,1,2.2,1.65l.2,9.68Z"/><path class="cls-3" d="M55.3,47.19l.12-9.72s.08-1.49,2.2-1.57,2,1.57,2,1.57l.12,9.72Z"/><path class="cls-1" d="M24.62,29.21s7,0,6.77.08a21.54,21.54,0,0,0-1.89,2.2V65.17l-4.36.08"/><line class="cls-1" x1="30.41" y1="65.49" x2="46.15" y2="65.56"/><line class="cls-1" x1="59.91" y1="65.67" x2="69.17" y2="65.6"/><path class="cls-3" d="M31.75,60l.17-6.13s.28-1,1.81-1.07a1.32,1.32,0,0,1,1.52,1.12L35.37,60Z"/><path class="cls-3" d="M58.33,59.67l-.71-6.21s.35-.94,1.88-1S61.29,54,61.29,54l0,5.74Z"/><path class="cls-3" d="M38.32,63.21l.2-8.84a1.85,1.85,0,0,1,2-1.55,1.79,1.79,0,0,1,1.68,1.51l.2,8.88Z"/><path class="cls-3" d="M45.24,63.34,45.48,54A1.83,1.83,0,0,1,47,52.74c1.85-.16,2.13,1.15,2.13,1.15"/><path class="cls-1" d="M67.5,30s-6.29,0-6.08.07a21.85,21.85,0,0,1,1.7,2.18V65.37"/><line class="cls-1" x1="3.37" y1="50.34" x2="23.5" y2="50.38"/><line class="cls-1" x1="68.83" y1="49.67" x2="88.5" y2="49.71"/><line class="cls-1" x1="62.99" y1="49.63" x2="30.17" y2="49.59"/><path class="cls-4" d="M45.87,69c-.3,0,1-15.91,6.57-15.91,6.53,0,7.71,16,7.71,16s-.8.09-7.06.09C49.87,69.21,48.9,69.12,45.87,69Z"/><path class="cls-1" d="M51.77,53.26c-.24,0-1.48,4.09-2,7.07s-.86,8.49-.86,8.49"/><line class="cls-1" x1="52.68" y1="53.26" x2="52.93" y2="68.78"/><path class="cls-1" d="M54,53.43c.24,0,1.48,4.09,2,7.07s.88,8.45.88,8.45"/><path class="cls-3" d="M6.37,59.84,6.13,53.9a3.18,3.18,0,0,1,2.12-.47,3.54,3.54,0,0,1,2.07.44l-.16,6Z"/><path class="cls-3" d="M14.83,59.92l-.25-5.85a3.17,3.17,0,0,1,2.11-.51,3.6,3.6,0,0,1,2.08.38l0,5.91Z"/><path class="cls-3" d="M14.89,47.07v-6A3.15,3.15,0,0,1,17,40.59a3.51,3.51,0,0,1,2.07.43l-.32,6Z"/><path class="cls-3" d="M6.12,47.09l-.06-5.85a3.17,3.17,0,0,1,2.1-.49,3.63,3.63,0,0,1,2.08.4l-.08,5.91Z"/><path class="cls-3" d="M73.68,59.54l-.14-6a3.16,3.16,0,0,1,2.13-.36c1.6.1,1.88.41,1.88.41l-.1,6Z"/><path class="cls-3" d="M73.75,46.52l-.26-5.91a3.28,3.28,0,0,1,2.13-.4c1.59.07,1.88.37,1.88.37l0,6Z"/><path class="cls-3" d="M82,46.68l-.15-5.9A3.18,3.18,0,0,1,84,40.42c1.59.1,1.88.4,1.88.4l-.33,5.84Z"/><path class="cls-3" d="M81.83,59.47l-.14-5.84a3.15,3.15,0,0,1,2.13-.42c1.59.06,1.89.36,1.89.36l0,5.89Z"/><polyline class="cls-1" points="87 34.51 79.66 34.48 78.33 27.71 75.49 27.75 74.47 34.56 69 34.67"/></svg>