<svg xmlns="http://www.w3.org/2000/svg" xml:space="preserve" viewBox="0 0 100 100">
  <path d="M98.45 41.66 83.5 30.71c.02-5.82.06-19.91.06-19.91 0-1.35-1.09-2.46-2.44-2.46l-14.14-.05c-1.29 0-2.35.99-2.45 2.25-.01.06-.01.12-.01.19l-.04 6.05L51.52 7.3c-.9-.66-2.13-.66-3.04 0L1.55 41.66A2.571 2.571 0 0 0 1 45.25c.84 1.15 2.45 1.4 3.59.56L50 12.56l45.41 33.25c.46.34.99.5 1.52.5.79 0 1.57-.37 2.08-1.05.83-1.15.58-2.76-.56-3.6zM69.42 13.2l9.23.04s-.03 9.29-.05 13.89l-9.23-6.76.05-7.17zm17.61 34.88v42.6c0 1.39-1.13 2.52-2.52 2.52H59.33c-1.33 0-2.41-1.02-2.51-2.33-.01-.06-.01-.12-.01-.19v-24.4c0-4.17-3.39-7.56-7.55-7.56-4.17 0-7.56 3.39-7.56 7.56v24.4c0 .07 0 .14-.01.2-.1 1.3-1.18 2.32-2.51 2.32H14c-1.39 0-2.52-1.13-2.52-2.52V56.35c0-1.39 1.13-2.52 2.52-2.52 1.39 0 2.52 1.13 2.52 2.52v31.82h20.14V66.28c0-6.94 5.65-12.59 12.59-12.59 6.94 0 12.59 5.65 12.59 12.59v21.88h20.15V48.08c0-1.39 1.13-2.52 2.52-2.52s2.52 1.13 2.52 2.52zm-72.81-2.57c1.48 0 2.69 1.21 2.69 2.69s-1.21 2.69-2.69 2.69-2.69-1.21-2.69-2.69 1.21-2.69 2.69-2.69"/>
</svg>
