<svg xmlns="http://www.w3.org/2000/svg" xml:space="preserve" viewBox="0 0 100 100">
  <path d="m84.69 40.48-2.52-.54c7.05-9.01 5.36-14.97 5.28-15.24-.19-.62-.73-1.07-1.38-1.14l-2.44-.25c3.09-9.54 1.81-20.88 1.75-21.39-.1-.83-.81-1.45-1.66-1.42-8.28.28-14.32 2.02-17.94 3.44-1.61.63-2.9 1.25-3.87 1.78l-.26-1.87c-.07-.47-.34-.89-.74-1.14-.4-.25-.9-.31-1.35-.17-6.38 2.07-11.7 6.17-14.77 8.93V9.33c0-.62-.36-1.19-.91-1.45-.56-.27-1.22-.19-1.71.19a46.69 46.69 0 0 0-9.61 10.46L32 16.49a1.613 1.613 0 0 0-2.9-.47c-1.82 2.72-4.44 8.69-5.97 12.34l-1.22-2.1c-.3-.51-.85-.82-1.44-.8a1.6 1.6 0 0 0-1.39.88c-6.52 12.8-7.28 23.9-5.79 30.95 1.63 7.67 5.14 15.47 6.59 14.15.13-.11.23-.2.34-.29-4.14 8.23-5.98 13.08-7.7 22.62-.16.88-.77 4.2 1.32 5.32s2.68-.34 2.82-1.06c1.7-9.45 2.93-15.05 7.01-23.57 6.28 1.98 14.52 2.87 19.09 2.87 2.93 0 5.76-.22 8.46-.66 5.86-.95 11.18-2.92 15.82-5.85 7.95-5.04 11.1-11.14 11.23-11.4a1.611 1.611 0 0 0-1.23-2.33l-2.78-.36c7.82-5.12 11.42-13.62 11.6-14.04.18-.44.16-.94-.06-1.37-.24-.44-.64-.74-1.11-.84zM68.3 56.13c-.7.26-1.13.95-1.05 1.69.08.74.66 1.33 1.4 1.42l5.45.71c-1.47 2.03-4.72 4.55-9.25 7.41-4.26 2.7-9.89 4.36-15.32 5.23-6.27 1.01-16.01-.21-24.01-1.86 1.04-1.99 2.14-3.98 3.3-5.95l5.07.4c.04 0 .09.01.13.01.83 0 1.54-.64 1.61-1.49.07-.89-.59-1.67-1.48-1.74l-3.45-.26c1.87-3 3.88-5.98 6.02-8.91l12.16.94h.13c.83 0 1.54-.64 1.61-1.49.07-.89-.6-1.67-1.48-1.73L39 49.73c.78-1.02 1.58-2.04 2.39-3.05 1.68-2.08 3.34-4.07 4.96-5.95l18.08 1.4h.13c.83 0 1.54-.64 1.61-1.49.07-.89-.6-1.67-1.48-1.73L49.02 37.7c3-3.35 5.75-6.23 8.04-8.48l9.87.25h.04a1.61 1.61 0 0 0 .04-3.22l-6.6-.17c.55-.48 1.04-.89 1.45-1.22.7-.55 2.62-2.99 1.54-4.05-1.69-1.66-2.58-1.09-3.28-.54-.15.12-1.62 1.28-3.97 3.4v-3.32a1.609 1.609 0 1 0-3.22 0v6.32c-2.2 2.11-4.79 4.73-7.6 7.81V26.6a1.609 1.609 0 1 0-3.22 0v11.53c-1.11 1.29-2.24 2.64-3.39 4.06a165.47 165.47 0 0 0-3.89 5.04l-.99-12.2a1.614 1.614 0 1 0-3.22.26l1.28 15.75c.01.06.03.11.05.17-1.78 2.56-3.46 5.14-5.04 7.75L26 52.15c-.11-.88-.92-1.51-1.81-1.39-.88.11-1.51.92-1.39 1.81l1.37 10.57c.01.11.06.21.1.31-.72 1.29-1.42 2.57-2.09 3.87-.08.15-.15.29-.23.44-.48-.73-2.98-4.78-4.34-11.16-1.28-6.03-1.69-15.27 3.04-26.05l1.32 2.28c.31.53.9.85 1.51.8.62-.04 1.15-.44 1.38-1.01.03-.09 2.7-6.75 5.05-11.46l.52 1.9a1.613 1.613 0 0 0 3.01.27c.03-.06 2.55-5.22 8.1-10.46v2.43c0 .67.41 1.27 1.04 1.51.62.24 1.33.07 1.78-.43.07-.07 6.19-6.81 14.36-10.11l.33 2.33c.08.57.45 1.05.98 1.26.53.22 1.13.14 1.59-.2.02-.01 1.85-1.38 5.48-2.78 3.14-1.21 8.25-2.68 15.2-3.08.25 3.61.56 13.05-2.39 20.31-.19.47-.15 1 .11 1.44s.71.72 1.22.77l3.22.33c.01.64-.05 1.57-.33 2.75-.55 2.26-2.05 5.92-6.12 10.49-.38.43-.51 1.03-.33 1.58s.63.96 1.2 1.08l3.11.67c-1.77 3.26-6.26 10.19-13.69 12.91zm4.9-39.5a3.275 3.275 0 1 1-6.521-.622 3.275 3.275 0 0 1 6.521.622z"/>
</svg>
