<svg id="Layer_1" data-name="Layer 1" xmlns="http://www.w3.org/2000/svg" viewBox="0 0 91.56 91.56"><defs><style>.cls-1,.cls-2,.cls-3,.cls-4,.cls-6{fill:none;stroke:#fff;}.cls-1,.cls-2,.cls-6{stroke-linecap:round;}.cls-1,.cls-3,.cls-4,.cls-6{stroke-miterlimit:10;}.cls-1,.cls-2,.cls-3{stroke-width:1.2px;}.cls-2{stroke-linejoin:round;}.cls-5{fill:#fff;}.cls-6{stroke-width:1.2px;}</style></defs><title>finlaysoninalue</title><path class="cls-1" d="M85.65,53.51,20.09,56.35v7.16s.31-3.87,3.22-3.95c3.14-.08,4.06,3.68,4.06,3.68l1.83.08a4.67,4.67,0,0,1,4.52-3.76A5,5,0,0,1,39,63.62l2.25-.12s1.63-4.49,6.16-4.32c6.16.23,8.11,4.83,8.11,4.83l2.61.07s2.1-5,9.46-5.13a11.59,11.59,0,0,1,10.68,5.9l3.75.23S83.5,60.64,86.11,60"/><path class="cls-2" d="M84.65,37.89,44.29,28.62a3.81,3.81,0,0,0-1.07-.15,13.87,13.87,0,0,0-2.91,1.22l-.08-17.38s.69-.77.69-1.15-1.3-1.15-2.07-1.08-2.14.54-2.06.92a5.46,5.46,0,0,0,.61,1.23l-.46,18.23-25,7.73L11.66,42,20,44.4l.08,11"/><line class="cls-3" x1="43.53" y1="28.77" x2="43.76" y2="54.58"/><line class="cls-1" x1="14.04" y1="42.71" x2="3.09" y2="39.72"/><path class="cls-4" d="M39.94,52.06,37,52.31a.23.23,0,0,1-.23-.23l0-18.54a.22.22,0,0,1,.23-.22l2.9-.71a.23.23,0,0,1,.23.22v19A.22.22,0,0,1,39.94,52.06Z"/><path class="cls-4" d="M34.46,52.59l-2.68.21a.22.22,0,0,1-.23-.22l.13-17.77a.22.22,0,0,1,.22-.22l2.54-.7a.22.22,0,0,1,.23.22V52.37A.22.22,0,0,1,34.46,52.59Z"/><path class="cls-4" d="M29.44,52.91l-2.45.2a.2.2,0,0,1-.2-.2l.09-16.77a.21.21,0,0,1,.21-.21l2.34-.57a.2.2,0,0,1,.2.2V52.71A.2.2,0,0,1,29.44,52.91Z"/><path class="cls-4" d="M24.6,53.41l-2.32.19a.2.2,0,0,1-.2-.2l.1-16.11a.19.19,0,0,1,.19-.2l2.21-.56a.19.19,0,0,1,.19.2l0,16.48A.2.2,0,0,1,24.6,53.41Z"/><path class="cls-4" d="M47.49,51.79l3.32.25a.25.25,0,0,0,.26-.23l0-18.76a.25.25,0,0,0-.26-.23L47.5,32.1a.25.25,0,0,0-.26.23V51.56A.24.24,0,0,0,47.49,51.79Z"/><path class="cls-4" d="M54.26,52.2l3.33.24a.25.25,0,0,0,.26-.22l0-17.84a.24.24,0,0,0-.26-.21l-3.29-.69a.25.25,0,0,0-.26.22L54,52A.25.25,0,0,0,54.26,52.2Z"/><path class="cls-4" d="M60.79,52.79l3.08.22a.23.23,0,0,0,.24-.21l0-17.19a.23.23,0,0,0-.24-.21l-3-.65a.23.23,0,0,0-.24.21l0,17.62A.23.23,0,0,0,60.79,52.79Z"/><path class="cls-4" d="M67.1,53.26l2.88.21a.21.21,0,0,0,.22-.2l0-16.43a.21.21,0,0,0-.22-.2L67.11,36a.22.22,0,0,0-.23.2V53.06A.22.22,0,0,0,67.1,53.26Z"/><path class="cls-5" d="M41.12,80.82h0a4.43,4.43,0,0,1-3.31-1.27.52.52,0,0,1,0-.75.53.53,0,0,1,.75,0,3.4,3.4,0,0,0,2.51.91h0a3.44,3.44,0,0,0,2.51-.91l.4-.45.4.45a3.39,3.39,0,0,0,2.5.91h0a3.39,3.39,0,0,0,2.5-.91l.4-.45.4.45a3.92,3.92,0,0,0,5,0,.53.53,0,0,1,.75,0,.52.52,0,0,1,.05.75,4.41,4.41,0,0,1-3.31,1.27,4.82,4.82,0,0,1-2.91-.89,4.77,4.77,0,0,1-2.9.89h0a4.79,4.79,0,0,1-2.9-.89A4.82,4.82,0,0,1,41.12,80.82Z"/><path class="cls-5" d="M64.2,75.9a4.34,4.34,0,0,1-2.6-.78,4.31,4.31,0,0,1-2.6.78h0a4.31,4.31,0,0,1-2.6-.78,4.34,4.34,0,0,1-2.6.78h0a4.07,4.07,0,0,1-3-1.14.55.55,0,0,1,.05-.76.53.53,0,0,1,.75,0,3,3,0,0,0,2.21.79h0A3,3,0,0,0,56,74l.4-.45.4.45a3,3,0,0,0,2.2.79h0A3,3,0,0,0,61.2,74l.4-.45L62,74a3,3,0,0,0,2.2.79h0A3,3,0,0,0,66.4,74a.54.54,0,0,1,.81.71,4,4,0,0,1-3,1.15Z"/><path class="cls-5" d="M36.22,75.5a3.86,3.86,0,0,1-2.16-.61,3.81,3.81,0,0,1-2.15.61h0a3.82,3.82,0,0,1-2.16-.61,3.84,3.84,0,0,1-2.16.61h0a3.49,3.49,0,0,1-2.61-1,.61.61,0,0,1,.05-.84.6.6,0,0,1,.85,0,2.34,2.34,0,0,0,1.71.6h0a2.34,2.34,0,0,0,1.71-.6l.45-.5.44.5a2.37,2.37,0,0,0,1.72.6h0a2.36,2.36,0,0,0,1.71-.6l.44-.5.45.5a2.36,2.36,0,0,0,1.71.6h0a2.36,2.36,0,0,0,1.71-.6.59.59,0,0,1,.84,0,.61.61,0,0,1,0,.84,3.52,3.52,0,0,1-2.6,1Z"/><line class="cls-6" x1="19.45" y1="63.5" x2="7.7" y2="66"/></svg>