<svg width="22" height="23" viewBox="0 0 22 23" xmlns="http://www.w3.org/2000/svg">
<path d="M20.9535 8.91366L20.9537 8.91359L20.9475 8.86233C20.9474 8.86145 20.9473 8.86078 20.9472 8.8599C20.9471 8.85916 20.9471 8.85849 20.9469 8.85774L20.9237 8.66498C20.9191 8.62627 20.9137 8.58215 20.9077 8.53184L20.9028 8.49178L20.8929 8.49299C20.6489 7.10553 19.9788 5.78883 18.9408 4.66455C17.9077 3.54567 16.5655 2.66224 15.0594 2.10978C13.7689 1.63644 12.3997 1.39639 10.9898 1.39639C9.08646 1.39639 7.23793 1.84404 5.64415 2.69091C2.57078 4.32387 0.758203 7.32541 1.0261 10.3377C1.16478 11.8965 1.77544 13.3803 2.79214 14.6288C3.74908 15.8039 5.0436 16.7522 6.53567 17.3712C7.45308 17.7517 8.36018 17.9311 9.32063 18.1209L9.43307 18.1432C9.69753 18.1955 9.76862 18.2674 9.78696 18.2959C9.82089 18.3488 9.80315 18.453 9.78953 18.5104C9.77698 18.5633 9.76403 18.6161 9.75108 18.669C9.64795 19.0896 9.54132 19.5245 9.62509 20.0039C9.7214 20.5551 10.0656 20.8712 10.5694 20.8713C10.5695 20.8713 10.5695 20.8713 10.5696 20.8713C11.1115 20.8713 11.7283 20.5078 12.1364 20.2673L12.1909 20.2352C13.1646 19.6634 14.0819 19.0184 14.7722 18.5204C16.2828 17.4305 17.995 16.1951 19.2787 14.597C20.5713 12.9873 21.1802 10.9189 20.9535 8.91366ZM7.22828 11.9632H5.50285C5.2421 11.9632 5.03072 11.7518 5.03072 11.4911V7.86944C5.03072 7.60869 5.2421 7.39731 5.50285 7.39731C5.7636 7.39731 5.97498 7.60869 5.97498 7.86944V11.019H7.22822C7.48897 11.019 7.70035 11.2303 7.70035 11.4911C7.70041 11.7518 7.48903 11.9632 7.22828 11.9632ZM9.02825 11.4783C9.02825 11.739 8.81687 11.9504 8.55612 11.9504C8.29537 11.9504 8.08399 11.739 8.08399 11.4783V7.85663C8.08399 7.59587 8.29537 7.38449 8.55612 7.38449C8.81687 7.38449 9.02825 7.59587 9.02825 7.85663V11.4783ZM13.2959 11.4783C13.2959 11.6828 13.1642 11.8641 12.9696 11.9273C12.9216 11.9429 12.8724 11.9505 12.8238 11.9505C12.6755 11.9505 12.5323 11.8804 12.4417 11.7557L10.7415 9.41412V11.4783C10.7415 11.7391 10.5302 11.9505 10.2694 11.9505C10.0087 11.9505 9.79728 11.7391 9.79728 11.4783V7.96029C9.79728 7.75572 9.92901 7.57443 10.1236 7.51123C10.3182 7.4481 10.5313 7.5173 10.6515 7.68288L12.3516 10.0244V7.85663C12.3516 7.59587 12.563 7.38449 12.8238 7.38449C13.0845 7.38449 13.2959 7.59587 13.2959 7.85663V11.4783ZM16.7362 11.8761H14.3995C14.1387 11.8761 13.9273 11.6647 13.9273 11.4039V9.59319V7.7823C13.9273 7.52155 14.1387 7.31017 14.3995 7.31017H16.6637C16.9244 7.31017 17.1358 7.52155 17.1358 7.7823C17.1358 8.04305 16.9244 8.25443 16.6637 8.25443H14.8716V9.12106H16.3259C16.5867 9.12106 16.798 9.33244 16.798 9.59319C16.798 9.85394 16.5867 10.0653 16.3259 10.0653H14.8716V10.9318H16.7362C16.9969 10.9318 17.2083 11.1432 17.2083 11.4039C17.2083 11.6647 16.9969 11.8761 16.7362 11.8761Z" fill="#C83E36"/>
</svg>
