<svg width="22" height="21" viewBox="0 0 22 21" xmlns="http://www.w3.org/2000/svg">
<path d="M12.0312 13.9904L11.9797 13.9945C11.825 14.0109 11.6789 14.0766 11.5672 14.1791L8.79141 16.8287C8.20273 17.3906 7.41641 17.6982 6.57852 17.6982C5.74063 17.6982 4.9543 17.3906 4.36562 16.8287C3.77695 16.2668 3.45469 15.5162 3.45469 14.7164C3.45469 13.9166 3.77695 13.166 4.36562 12.6041L7.31328 9.79043C7.46367 9.64687 7.62695 9.51973 7.80313 9.40898C8.00078 9.28594 8.21562 9.1793 8.43906 9.10137C8.64531 9.02754 8.86445 8.97832 9.08359 8.94961C9.22969 8.9291 9.38008 8.9209 9.52188 8.9209C9.58203 8.9209 9.64219 8.925 9.71953 8.9291C10.4801 8.97422 11.1977 9.28183 11.7305 9.79043C12.0613 10.1062 12.3148 10.4918 12.4652 10.9102C12.5855 11.2383 12.9465 11.4229 13.2945 11.3244C13.2988 11.3244 13.3031 11.3203 13.3074 11.3203C13.3117 11.3203 13.316 11.3203 13.316 11.3162C13.6641 11.2137 13.866 10.865 13.7672 10.5328C13.5781 9.89297 13.243 9.35566 12.7102 8.85117C12.0398 8.21133 11.1676 7.79297 10.2352 7.64941C10.1535 7.63711 10.0719 7.6248 9.99023 7.6166C9.83125 7.60019 9.67227 7.59199 9.51328 7.59199C9.40156 7.59199 9.28984 7.59609 9.18242 7.6043C8.95039 7.6207 8.71836 7.65351 8.48633 7.70683C8.43906 7.71504 8.39609 7.72734 8.34883 7.73965C8.06094 7.81348 7.77734 7.91191 7.51094 8.03906C7.06836 8.24824 6.66875 8.51894 6.3207 8.85527L3.37305 11.6689C2.53086 12.4852 2.0625 13.568 2.0625 14.7246C2.0625 15.8812 2.53086 16.9641 3.38164 17.7762C4.23242 18.5842 5.3668 19.0312 6.57422 19.0312C7.78594 19.0312 8.92031 18.5842 9.77109 17.7721L12.577 15.0937C13.0238 14.6631 12.6629 13.933 12.0312 13.9904Z" />
<path d="M18.6183 3.22793C17.7676 2.41582 16.6332 1.96875 15.4258 1.96875C14.2183 1.96875 13.0797 2.41582 12.2289 3.22793L9.49178 5.84062C9.07498 6.23848 9.33709 6.91934 9.92576 6.96445C10.1277 6.98086 10.3254 6.91113 10.4715 6.77578L13.2129 4.16719C13.8015 3.60527 14.5879 3.29766 15.4258 3.29766C16.2637 3.29766 17.05 3.60527 17.6387 4.16719C18.2273 4.7291 18.5496 5.47969 18.5496 6.27949C18.5496 7.0793 18.2273 7.82988 17.6387 8.3918L14.691 11.2055C14.5406 11.349 14.3773 11.4762 14.2012 11.5869C14.0035 11.71 13.7887 11.8166 13.5652 11.8945C13.359 11.9684 13.1398 12.0176 12.9207 12.0463C12.7746 12.0668 12.6242 12.075 12.4824 12.075C12.4222 12.075 12.3578 12.0709 12.2847 12.0668C11.5242 12.0217 10.8066 11.7141 10.2738 11.2055C9.96014 10.9061 9.72381 10.5492 9.56912 10.1596C9.44451 9.84375 9.09217 9.67148 8.74842 9.75762C8.366 9.85195 8.14256 10.2375 8.26287 10.5984C8.45623 11.1727 8.7828 11.6607 9.28123 12.1365L9.28983 12.1447C10.016 12.8379 10.9828 13.2768 12.0097 13.3793C12.1687 13.3957 12.3277 13.4039 12.4867 13.4039C12.5984 13.4039 12.7101 13.3998 12.8219 13.3916C13.1012 13.3711 13.3805 13.326 13.6512 13.2604C13.939 13.1865 14.2226 13.0881 14.489 12.9609C14.9316 12.7518 15.3312 12.4811 15.6793 12.1447L18.6269 9.33105C19.4777 8.51895 19.9461 7.43613 19.9461 6.27949C19.9461 5.12285 19.4691 4.04004 18.6183 3.22793Z" />
</svg>
