<svg width="20" height="19" viewBox="0 0 20 19" xmlns="http://www.w3.org/2000/svg">
<path d="M5.30756 6.62684V17.1338H1.80859V6.62684H5.30756ZM5.53022 3.382C5.53734 3.89817 5.35882 4.32943 4.99466 4.67578C4.63049 5.02214 4.15153 5.19531 3.55778 5.19531H3.53641C2.95691 5.19531 2.49042 5.02214 2.13694 4.67578C1.78346 4.32943 1.60672 3.89817 1.60672 3.382C1.60672 2.8591 1.7888 2.42606 2.15297 2.08288C2.51714 1.73969 2.99253 1.56829 3.57916 1.56869C4.16578 1.56908 4.63583 1.74048 4.98931 2.08288C5.34279 2.42527 5.52309 2.85831 5.53022 3.382ZM17.8927 11.1114V17.1338H14.4044V11.5146C14.4044 10.7724 14.2613 10.1909 13.9751 9.77016C13.6889 9.34939 13.2418 9.139 12.6338 9.139C12.1885 9.139 11.8157 9.26092 11.5152 9.50475C11.2148 9.74858 10.9903 10.0508 10.8419 10.4114C10.7643 10.6236 10.7255 10.9098 10.7255 11.27V17.1333H7.23725C7.2515 14.3129 7.25863 12.0262 7.25863 10.2731C7.25863 8.51992 7.25506 7.47373 7.24794 7.1345L7.23725 6.62566H10.7255V8.15219H10.7042C10.8455 7.92617 10.9903 7.72825 11.1388 7.55844C11.2872 7.38863 11.4869 7.20476 11.7379 7.00684C11.9888 6.80893 12.2964 6.65515 12.6606 6.5455C13.0247 6.43585 13.4295 6.38103 13.8748 6.38103C15.0837 6.38103 16.0556 6.78221 16.7907 7.58456C17.5258 8.38692 17.8933 9.56215 17.8933 11.1103L17.8927 11.1114Z" fill="#C83E36"/>
</svg>
