<svg width="23" height="23" viewBox="0 0 23 23" xmlns="http://www.w3.org/2000/svg">
<path d="M18.8333 14.3422C17.7292 14.3422 16.6317 14.1722 15.5793 13.8382C15.2584 13.7464 14.8918 13.7921 14.6627 14.0674L12.6458 16.0838C10.0332 14.7549 7.92509 12.6463 6.59572 10.0337L8.61263 8.01728C8.84174 7.78813 8.93326 7.42157 8.84174 7.10063C8.47491 6.04657 8.29165 4.94635 8.29165 3.8005C8.29165 3.29652 7.8792 2.88385 7.375 2.88385H4.16665C3.66246 2.88385 3.25 3.29652 3.25 3.8005C3.25 12.4171 10.2168 19.3839 18.8333 19.3839C19.3373 19.3839 19.75 18.9712 19.75 18.4672V15.2589C19.75 14.7549 19.3373 14.3422 18.8333 14.3422Z" fill="#C83E36"/>
</svg>
