<svg width="19" height="19" viewBox="0 0 19 19" xmlns="http://www.w3.org/2000/svg">
<path d="M13.5792 11.9497H12.7156L12.4168 11.6509C13.4814 10.418 14.1223 8.81561 14.1223 7.06119C14.1223 3.16124 10.9611 0 7.06119 0C3.16129 0 0 3.16124 0 7.06119C0 10.9612 3.16124 14.1224 7.06119 14.1224C8.81561 14.1224 10.418 13.4814 11.6509 12.4223L11.9497 12.721V13.5792L17.3813 19L19 17.3813L13.5792 11.9497ZM7.06119 11.9497C4.36167 11.9497 2.17269 9.76072 2.17269 7.06119C2.17269 4.36167 4.36167 2.17269 7.06119 2.17269C9.76072 2.17269 11.9497 4.36167 11.9497 7.06119C11.9497 9.76072 9.76072 11.9497 7.06119 11.9497Z" fill="#C83E36"/>
</svg>
