<svg width="127" height="32" viewBox="0 0 127 32" xmlns="http://www.w3.org/2000/svg">
<g clip-path="url(#clip0)">
<path d="M3.22281 19.4693C3.77911 18.0562 3.44893 16.5735 6.70931 15.7383C10.3946 14.794 7.66543 11.5596 12.2802 10.4455C15.8183 9.59335 12.95 5.78955 18.1281 4.98773C20.9738 4.5477 19.3111 1.2335 22.5457 0.193848H-2.28882e-05V19.6653C0.00888284 20.4138 0.118073 21.1578 0.324686 21.8779C1.50537 20.3261 2.32379 21.7524 3.22281 19.4693ZM7.89234 14.1819H4.43635V6.37754H7.89234V14.1819ZM1.98813 2.22202H9.01669L10.8726 3.81792V5.96309H1.98813V2.22202Z" fill="white"/>
<path d="M28.3576 0.194336V4.85806C23.8124 5.21984 25.7216 9.44587 22.1764 9.94633C17.5874 10.594 20.5458 14.5124 15.8207 15.4034C12.288 16.0696 14.5266 19.5263 10.8703 20.473C7.106 21.4476 8.26869 22.8103 7.10209 24.4837C5.97617 26.0982 4.20319 25.4776 3.27679 26.9503C2.96338 26.6477 2.67308 26.3225 2.40829 25.9773C3.79025 27.7914 5.5665 29.2747 7.60562 30.3173C9.64474 31.3599 11.8945 31.9352 14.1885 32.0007C22.0496 32.0007 28.3795 25.6272 28.3795 19.6658V0.194336H28.3576ZM18.4465 29.2869C17.8707 29.1319 18.2408 28.1837 18.8244 27.9443C19.1265 28.0644 19.1374 28.0047 19.3792 28.1194C19.3878 28.1233 19.3987 28.6477 19.3987 28.6477C18.6351 28.7399 19.0083 29.3233 18.4465 29.2861V29.2869ZM23.5793 17.3889C24.1497 17.6384 24.9211 17.2479 24.8781 17.4757C24.7349 18.1621 23.2178 18.1838 23.1294 18.3279C23.0856 18.5448 24.1958 18.4906 24.2396 18.6424C24.3492 19.0576 22.4142 19.101 22.2937 19.0793C22.1513 19.242 23.0527 19.2343 22.9979 19.4264C22.8336 19.7959 21.5676 19.3939 21.5113 19.4373C21.3251 19.6007 22.1059 19.7851 21.8759 19.961C21.6271 20.0173 21.3681 20.0114 21.1222 19.9438C20.8763 19.8762 20.6513 19.7489 20.4675 19.5736L20.4542 22.3021C20.4879 22.3122 20.5145 22.3168 20.5505 22.3285C20.6248 22.3432 20.6937 22.3641 20.7633 22.385C20.6929 22.3517 20.6311 22.3215 20.5536 22.2866C20.4308 22.2308 21.649 21.9334 21.6725 21.4561C21.6776 21.3965 21.6643 21.3368 21.6344 21.2848C21.6045 21.2328 21.5594 21.1909 21.505 21.1648C21.2281 21.3864 20.9057 21.1796 21.0168 20.9921C21.1639 20.7457 21.2969 20.9193 21.2969 20.7837C21.2969 20.6706 20.858 20.9913 20.8204 20.7457C20.7829 20.5001 21.0434 20.3181 21.2015 20.2623C21.3628 20.1967 21.5374 20.1694 21.7113 20.1826C21.8851 20.1957 22.0535 20.249 22.2028 20.3382C22.3522 20.4273 22.4784 20.5499 22.5714 20.696C22.6643 20.8421 22.7214 21.0077 22.7382 21.1796C22.7756 21.5371 22.687 21.8964 22.4873 22.1967C22.2877 22.4969 21.9893 22.7194 21.6428 22.8266C21.6428 22.8266 21.5567 22.7793 21.4276 22.7112C22.3853 23.4169 22.5347 24.8029 21.0512 25.2731C21.0387 25.2731 20.7766 25.1569 20.5403 25.0484C20.5168 25.0717 20.5403 24.7634 20.5403 24.7634C21.4385 24.4109 21.4198 23.6385 20.4558 23.2658L20.4472 25.0717C22.1795 25.5907 21.9753 26.508 21.8869 26.8636C21.8084 27.0913 21.6746 27.2964 21.4973 27.4608C21.3199 27.6252 21.1044 27.7439 20.8697 27.8064C20.7617 27.801 20.7297 27.7142 20.5247 27.605C20.5128 27.5205 20.5109 27.435 20.5192 27.3501C20.5192 27.3176 21.0051 27.0046 21.0051 26.6777C21.0051 26.4607 20.98 26.1966 20.4433 25.958L20.4355 27.6762C20.5372 27.7251 20.6475 27.7808 20.7782 27.8521C21.5082 28.2395 21.6811 29.1358 21.2367 29.2884C20.9041 29.3574 20.9816 28.8577 20.4308 28.5548V29.2946C20.4308 29.8214 19.4269 30.0081 19.4746 29.2946L19.4699 28.1271L19.2556 28.0264C18.8783 27.9149 18.5298 27.7241 18.2337 27.4671C18.0827 27.3269 17.9684 27.1524 17.9008 26.9587C17.8331 26.7649 17.8142 26.5578 17.8455 26.3552C17.8769 26.1526 17.9576 25.9606 18.0807 25.7958C18.2039 25.631 18.3657 25.4984 18.5522 25.4095C18.811 25.5359 19.0778 25.6456 19.351 25.7379C18.6061 26.2702 18.6054 26.7768 19.4668 27.2432L19.4606 25.6783C16.8989 25.0237 17.4575 23.2705 18.4051 22.7964C18.4176 22.7902 18.9387 22.9792 19.351 23.0722C19.3768 23.052 19.351 23.4115 19.351 23.4115C19.2084 23.4349 19.0749 23.4966 18.9653 23.5899C18.8556 23.6832 18.7739 23.8045 18.729 23.9406C18.6914 24.2947 18.7877 24.4914 19.4574 24.7572L19.4504 23.0319C17.222 22.6012 17.0593 22.0333 17.0593 21.2934C17.0649 21.1174 17.1116 20.945 17.1958 20.7899C17.28 20.6347 17.3994 20.501 17.5445 20.3992C17.6897 20.2974 17.8568 20.2303 18.0326 20.2032C18.2083 20.1761 18.3881 20.1897 18.5576 20.2429C18.7141 20.2956 19.0654 20.5226 18.9958 20.7643C18.9175 21.0285 18.481 20.6706 18.4356 20.8069C18.4074 20.8921 18.7939 20.8503 18.8816 20.9719C19.0091 21.1493 18.5522 21.4368 18.1899 21.1524C18.134 21.1908 18.0929 21.2467 18.0733 21.3112C18.0537 21.3756 18.0567 21.4447 18.0819 21.5073C18.2243 21.8404 18.5702 21.8946 19.4473 22.0953L19.4371 19.562C19.253 19.741 19.0263 19.8713 18.778 19.9407C18.5297 20.0102 18.2677 20.0166 18.0162 19.9594C17.7862 19.7835 18.5639 19.5992 18.38 19.4357C18.3253 19.3923 17.0601 19.7944 16.8934 19.4249C16.8386 19.2296 17.74 19.2405 17.5976 19.0778C17.4763 19.0995 15.5422 19.0561 15.6517 18.6409C15.6955 18.4859 16.8058 18.5432 16.7612 18.3263C16.6743 18.1853 15.1564 18.1636 15.014 17.4741C14.9694 17.2464 15.7417 17.6368 16.3121 17.3874C16.5554 17.3006 14.7065 17.0287 14.8599 16.3315C14.9694 16.1145 15.1564 16.6142 18.1148 16.5166C18.2074 16.8526 18.3597 17.1695 18.5647 17.4525C18.7454 17.705 19.362 18.0521 19.3682 17.0984C19.1826 16.9977 19.0278 16.8495 18.92 16.6691C18.8122 16.4888 18.7554 16.283 18.7556 16.0735C18.7556 15.7634 18.88 15.4661 19.1014 15.2468C19.3228 15.0276 19.6231 14.9044 19.9363 14.9044C20.2494 14.9044 20.5497 15.0276 20.7711 15.2468C20.9926 15.4661 21.117 15.7634 21.117 16.0735C21.1165 16.2775 21.0621 16.4778 20.9592 16.6545C20.8562 16.8312 20.7083 16.9781 20.5301 17.0806C20.5301 18.0529 21.1522 17.7004 21.3337 17.4494C21.539 17.1666 21.6914 16.8496 21.7836 16.5135C24.742 16.6111 24.9282 16.1114 25.0385 16.3284C25.1848 17.0295 23.3359 17.3014 23.5793 17.3882V17.3889Z" fill="white"/>
<path d="M7.10444 24.483C8.27104 22.8096 7.10835 21.4469 10.8726 20.4723C14.5289 19.5256 12.2904 16.0689 15.823 15.4026C20.5481 14.5117 17.5898 10.5933 22.1787 9.9456C25.7216 9.44514 23.8124 5.2199 28.3599 4.85734V0.193604H22.5457C19.3111 1.23326 20.9738 4.54745 18.1281 4.98749C12.95 5.78931 15.8183 9.59079 12.2802 10.4453C7.66387 11.5593 10.3946 14.7937 6.70931 15.7381C3.44893 16.5732 3.77911 18.056 3.22281 19.4691C2.32379 21.7521 1.50538 20.3259 0.32782 21.8776C0.355987 21.9814 0.38102 22.0845 0.412318 22.1875C0.485866 22.4261 0.558634 22.6647 0.647049 22.9018C0.664262 22.9459 0.680695 22.9893 0.698691 23.0335C0.83379 23.3687 0.986623 23.701 1.15719 24.0305C1.18301 24.0793 1.21196 24.1266 1.23543 24.1746C1.37158 24.4287 1.52102 24.6797 1.67751 24.9284C1.74636 25.0369 1.81443 25.1461 1.88485 25.2507C2.04916 25.4963 2.22443 25.738 2.40751 25.9758C2.6723 26.321 2.9626 26.6462 3.27601 26.9488C4.20554 25.4769 5.97852 26.0974 7.10444 24.483Z" stroke="white" stroke-width="0.5" stroke-miterlimit="3.864"/>
<path d="M42.2347 9.81909V20.3435H39.2678V9.81909H35.268V7.32764H46.2541V9.81909H42.2347Z" fill="white"/>
<path d="M49.0708 17.815L48.0372 20.3437H44.9764L50.6881 7.32861H53.7497L59.3645 20.3437H56.1901L55.1573 17.815H49.0708ZM52.1317 10.3957L50.0473 15.4529H54.1942L52.1317 10.3957Z" fill="white"/>
<path d="M72.3371 20.3436V11.567L68.8436 19.0197H66.9094L63.4166 11.5631V20.3398H60.7306V7.32471H64.0551L67.889 15.2833L71.701 7.32471H75.006V20.3398L72.3371 20.3436Z" fill="white"/>
<path d="M83.4891 7.32788C86.8324 7.32788 88.7478 8.96407 88.7478 11.8467C88.7478 14.8766 86.8324 16.6251 83.4891 16.6251H80.8797V20.3437H77.9135V7.32866L83.4891 7.32788ZM80.8797 14.1701H83.3404C84.9921 14.1701 85.9318 13.4264 85.9318 11.9389C85.9318 10.4887 84.9929 9.76355 83.3404 9.76355H80.8797V14.1701Z" fill="white"/>
<path d="M93.6106 9.76351V12.5896H99.9592V15.0261H93.6106V17.908H100.859V20.3437H90.6444V7.32861H100.654V9.76429L93.6106 9.76351Z" fill="white"/>
<path d="M109.179 16.6251H106.156V20.3437H103.188V7.32861H108.9C112.336 7.32861 114.289 8.96479 114.289 11.8475C114.355 12.7118 114.156 13.5757 113.717 14.3256C113.278 15.0756 112.62 15.6765 111.829 16.0495L114.627 20.3444H111.265L109.179 16.6251ZM108.898 14.17C110.531 14.17 111.47 13.4263 111.47 11.9389C111.47 10.4886 110.531 9.76351 108.898 9.76351H106.159V14.17H108.898Z" fill="white"/>
<path d="M119.751 9.76351V12.5896H126.099V15.0261H119.751V17.908H127V20.3437H116.785V7.32861H126.794V9.76429L119.751 9.76351Z" fill="white"/>
</g>
<defs>
<clipPath id="clip0">
<rect width="127" height="32" fill="white"/>
</clipPath>
</defs>
</svg>
