<svg width="170" height="39" viewBox="0 0 170 39" xmlns="http://www.w3.org/2000/svg">
<path d="M129.253 0.0292969V20.4977H142.086V17.0118H133.768V11.8873H141.195V8.25241H133.768V3.57477H142.086V0.0292969H129.253Z"/>
<path d="M0.720215 0V4.49888H6.33443V20.4982H10.8496V4.49888H16.5826V0H0.720215Z"/>
<path d="M27.2764 7.35859L30.336 14.0324H24.1871L27.2764 7.35859ZM26.3555 0.0292969L16.8203 20.4977H21.2166L22.5236 17.6673H32.0589L33.3659 20.4977H37.7622L28.1675 0.0292969H26.3555Z"/>
<path d="M60.7538 0.0292969L51.7829 8.25241L42.7526 0.0292969H41V20.4977H45.5449V8.72911L51.7829 14.3602L57.9912 8.69931V20.4977H62.5361V0.0292969H60.7538Z"/>
<path d="M72.9922 11.0232H77.0617C79.1114 11.0232 80.7451 9.41437 80.7451 7.35859C80.7451 5.33261 79.1114 3.66415 77.0617 3.66415H72.9922V11.0232ZM68.477 20.4977V0.0292969H77.0023C81.0719 0.0292969 84.3691 3.33642 84.3691 7.41818C84.3691 11.4701 81.1313 14.7773 77.1212 14.7773H73.0219V20.5275H68.477V20.4977Z"/>
<path d="M88.5278 0.0292969V20.4977H101.36V17.0118H93.043V11.8873H100.469V8.25241H93.043V3.57477H101.36V0.0292969H88.5278Z"/>
<path d="M111.935 11.0232H116.005C118.054 11.0232 119.688 9.41437 119.688 7.35859C119.688 5.33261 118.054 3.66415 116.005 3.66415H111.935V11.0232ZM119.659 20.4977L116.332 14.7475H111.935V20.4977H107.42V0.0292969H115.945C120.015 0.0292969 123.312 3.33642 123.312 7.41818C123.312 9.44416 122.451 11.4106 120.936 12.8109L120.609 13.1088L124.916 20.4977H119.659Z"/>
<path d="M88.5278 28.7808V38.9107H90.8745V34.6502H94.5579V32.8327H90.8745V30.5088H95.0629V28.7808H88.5278Z"/>
<path d="M102.133 28.7808H99.7563V38.9107H102.133V28.7808Z"/>
<path d="M114.401 28.7808V34.2628L108.519 28.7808H107.747V38.9107H110.123V33.4286L116.005 38.9107H116.777V28.7808H114.401Z"/>
<path d="M122.391 28.7808V38.9107H128.897V36.6761H124.768V28.7808H122.391Z"/>
<path d="M137.363 32.356L139.026 35.7227H135.699L137.363 32.356ZM136.887 28.7808L131.838 38.9107H134.125L134.808 37.5104H139.917L140.63 38.9107H142.947L137.838 28.7808H136.887Z"/>
<path d="M162.077 36.7357H163.681C165.374 36.7357 166.711 35.4546 166.711 33.9053C166.711 32.356 165.345 31.0749 163.681 31.0749H162.077V36.7357ZM159.701 38.9107V28.7808H163.622C166.622 28.7808 169.028 31.0451 169.028 33.8457C169.028 36.6463 166.592 38.9107 163.622 38.9107H159.701Z"/>
<path d="M152.274 28.9004V34.2335L146.928 28.9004H146.155V38.9111H148.413V33.5482L153.76 38.9111H154.502V28.9004H152.274Z"/>
<path d="M147.165 17.6977C147.165 15.9101 148.532 14.5693 150.344 14.5693C152.156 14.5693 153.522 15.9101 153.522 17.6977C153.522 19.4853 152.156 20.9154 150.344 20.9154C148.532 20.9154 147.165 19.4853 147.165 17.6977Z"/>
</svg>
