<svg xmlns="http://www.w3.org/2000/svg" width="632.688" height="161.011" viewBox="0 0 632.688 161.011">
    <g id="Group_1" data-name="Group 1" transform="translate(569.824 -1382.347)">
        <path id="Path_1" data-name="Path 1" d="M-470.019,1391.805h-54.731v12.536h19.926v52.953h14.781v-52.953h20.024Z" transform="translate(130.623 27.41)" />
        <path id="Path_2" data-name="Path 2" d="M-483.886,1391.807l-28.455,65.48h15.249l5.149-12.718h30.322l5.145,12.718h15.814l-27.971-65.48Zm-3.192,40.873,10.384-25.441,10.275,25.441Z" transform="translate(166.58 27.414)" fill="#fff"/>
        <path id="Path_3" data-name="Path 3" d="M-456.544,1431.841l-19.1-40.043h-16.562v65.484h13.382v-44.144l17.4,37.518h9.636l17.4-37.5v44.159l13.3-.035V1391.8h-16.465Z" transform="translate(224.929 27.387)" fill="#fff"/>
        <path id="Path_4" data-name="Path 4" d="M-442.469,1391.8l-27.776,0v65.484h14.777v-18.709h13c16.656,0,26.2-8.793,26.2-24.042C-416.271,1400.037-425.813,1391.8-442.469,1391.8Zm-.741,34.426h-12.259V1404.06h12.259c8.232,0,12.91,3.648,12.91,10.95C-430.3,1422.489-434.981,1426.231-443.209,1426.231Z" transform="translate(288.57 27.409)" fill="#fff"/>
        <path id="Path_5" data-name="Path 5" d="M-439.2,1430.536h31.628v-12.259H-439.2v-14.219l35.089,0v-12.255h-49.866v65.485h50.887v-12.255H-439.2Z" transform="translate(335.722 27.412)" fill="#fff"/>
        <path id="Path_6" data-name="Path 6" d="M-382.639,1414.539c0-14.5-9.729-22.732-26.849-22.732h-28.455v65.48h14.785v-18.709H-408.1l10.4,18.714h16.761l-13.951-21.61A21.62,21.62,0,0,0-382.639,1414.539Zm-26.86,11.686h-13.643v-22.171H-409.5c8.135,0,12.812,3.648,12.812,10.95C-396.687,1422.483-401.364,1426.225-409.5,1426.225Z" transform="translate(382.181 27.414)" fill="#fff"/>
        <path id="Path_7" data-name="Path 7" d="M-405.788,1445.036v-14.5h31.624v-12.259h-31.624v-14.219l35.089,0v-12.255h-49.866v65.485h50.891v-12.255Z" transform="translate(432.538 27.412)" fill="#fff"/>
        <path id="Path_8" data-name="Path 8" d="M-457.806,1382.393a21.153,21.153,0,0,0-2.288.924h-109.73v97.97a42.5,42.5,0,0,0,1.36,9.932c-.168.207-.335.39-.507.616l-.284.382.253.959c.094.362.191.725.3,1.091l.074.23c.347,1.142.7,2.284,1.119,3.418l.265.682c.678,1.7,1.458,3.418,2.327,5.11l.39.725c.686,1.3,1.442,2.584,2.237,3.855l.179.289c.289.46.573.916.865,1.356.83,1.251,1.719,2.483,2.643,3.7a45.076,45.076,0,0,0,4.42,5l.865.846.382-.612a76.266,76.266,0,0,0,53.8,24.491c39.162,0,70.7-32.068,70.7-62.067v-73.538l.877-.07v-25.336h-29.94Zm-102.114,11.128H-524.9l9.246,8.03v10.793H-559.92Zm29.414,20.909V1453.7h-17.217V1414.43Zm52.579,115.265v.007c-2.869-.784-1.025-5.55,1.883-6.759,1.5.608,1.559.3,2.763.885.043,0,.1,2.654.1,2.654C-476.988,1526.951-475.132,1529.886-477.927,1529.7Zm25.547-59.868.023.008c2.842,1.259,6.685-.709,6.47.44-.713,3.454-8.271,3.559-8.712,4.288-.218,1.088,5.313.815,5.531,1.579.546,2.093-9.094,2.307-9.694,2.2-.709.822,3.781.784,3.508,1.746-.818,1.859-7.125-.164-7.406.059-.927.818,2.963,1.746,1.817,2.635a7.667,7.667,0,0,1-7.016-1.949l-.066,13.729c.168.046.3.074.479.128a10.7,10.7,0,0,1,1.06.284c-.351-.167-.659-.319-1.045-.491-.612-.285,5.457-1.782,5.574-4.183a1.485,1.485,0,0,0-.834-1.461c-1.38,1.115-2.986.074-2.432-.874.733-1.239,1.4-.366,1.4-1.044,0-.569-2.187,1.044-2.374-.195s1.111-2.152,1.9-2.433a5.557,5.557,0,0,1,4.989.394,5.559,5.559,0,0,1,2.666,4.233A7.831,7.831,0,0,1-462,1497.2s-.429-.238-1.072-.577c4.771,3.546,5.515,10.524-1.875,12.886-.062,0-1.368-.58-2.545-1.13-.117.117,0-1.435,0-1.435,4.475-1.773,4.381-5.656-.421-7.535l-.043,9.086c8.63,2.611,7.613,7.226,7.172,9.016a7.375,7.375,0,0,1-5.067,4.744c-.538-.027-.7-.46-1.719-1.014a5.409,5.409,0,0,1-.027-1.282c0-.164,2.42-1.734,2.42-3.383,0-1.087-.125-2.417-2.8-3.621l-.039,8.646c.507.246,1.056.526,1.707.889,3.637,1.949,4.5,6.459,2.284,7.227-1.656.343-1.271-2.167-4.015-3.691v3.718c0,2.655-5,3.59-4.763,0l-.023-5.87-1.068-.507a13.636,13.636,0,0,1-5.087-2.841,6.348,6.348,0,0,1-1.949-5.59,6.353,6.353,0,0,1,3.508-4.763,32.654,32.654,0,0,0,3.98,1.652c-3.711,2.678-3.715,5.228.577,7.578l-.031-7.874c-12.762-3.293-9.979-12.119-5.258-14.5.062-.035,2.658.92,4.713,1.388.129-.1,0,1.707,0,1.707a3.928,3.928,0,0,0-3.1,2.658c-.187,1.786.292,2.775,3.629,4.113l-.035-8.681c-11.1-2.171-11.912-5.028-11.912-8.75a5.721,5.721,0,0,1,2.417-4.494,5.744,5.744,0,0,1,5.048-.784c.78.265,2.53,1.407,2.183,2.623-.39,1.333-2.565-.471-2.791.219-.14.429,1.785.218,2.222.83.635.893-1.641,2.339-3.446.9a1.5,1.5,0,0,0-.538,1.786c.709,1.676,2.432,1.949,6.8,2.958l-.051-12.746a7.656,7.656,0,0,1-7.079,2c-1.146-.885,2.729-1.812,1.813-2.639-.273-.218-6.576,1.809-7.406-.055-.273-.979,4.218-.927,3.508-1.747-.6.113-10.24-.1-9.694-2.2.218-.775,5.749-.487,5.527-1.583-.433-.709-7.995-.814-8.7-4.284-.222-1.15,3.625.818,6.467-.437,1.212-.436-8-1.809-7.235-5.312.546-1.091,1.477,1.423,16.215.932a14.765,14.765,0,0,0,2.241,4.709c.9,1.267,3.972,3.013,4-1.782a5.872,5.872,0,0,1-3.052-5.157,5.882,5.882,0,0,1,5.882-5.886,5.885,5.885,0,0,1,5.882,5.886,5.882,5.882,0,0,1-2.924,5.067c0,4.888,3.1,3.119,4,1.856a14.755,14.755,0,0,0,2.241-4.709c14.738.487,15.666-2.023,16.216-.932C-444.382,1468-453.592,1469.387-452.38,1469.827Zm22.865-85.532v21.6c-11.947,1.274-15.019,8.162-17.74,14.25-2.436,5.461-4.541,10.177-12.216,11.272-11.982,1.708-14.2,7.882-16.34,13.857-2.116,5.894-4.112,11.464-15.369,13.608-9.347,1.781-11.121,7.406-12.832,12.848-1.692,5.359-3.286,10.423-11.893,12.676-13.533,3.532-14.835,8.166-16.344,13.534a21.793,21.793,0,0,1-2.986,7.036c-2.662,3.859-6.022,4.974-9.577,6.155-3.157,1.048-6.412,2.132-8.829,5.29a43.316,43.316,0,0,1-3.414-3.972c-.9-1.181-1.762-2.378-2.573-3.6-.281-.425-.558-.862-.83-1.306l-.183-.288c-.768-1.231-1.5-2.476-2.155-3.707-.078-.16-.164-.316-.253-.476l-.144-.261c-.83-1.629-1.587-3.29-2.245-4.938l-.25-.635c-.406-1.1-.741-2.2-1.08-3.31l-.07-.23c-.1-.335-.187-.674-.277-1.009l-.012-.051a9.255,9.255,0,0,1,6.046-3.738c2.717-.651,5.523-1.329,8.221-8.244a39.39,39.39,0,0,0,1.31-4.249c1.528-5.734,2.853-10.688,15.393-13.931,9.172-2.374,10.875-7.632,12.52-12.715,1.847-5.7,3.59-11.078,15.221-13.916,8.458-2.062,10.088-7.48,11.662-12.719,1.859-6.193,3.785-12.6,17.389-14.722,7.558-1.181,9.293-6.342,10.969-11.331,1.692-5.04,3.446-10.251,11.047-12.777Z" transform="translate(0 0)" fill="#fff"/>
    </g>
</svg>
