<svg width="18" height="17" viewBox="0 0 18 17" xmlns="http://www.w3.org/2000/svg">
<g clip-path="url(#clip0)">
<path d="M8.74576 0C4.0495 0 0.25 3.80376 0.25 8.49998C0.25 13.1962 4.0495 17 8.74576 17C13.442 17 17.25 13.1962 17.25 8.49998C17.25 3.80376 13.442 0 8.74576 0ZM8.74998 15.3C4.993 15.3 1.94997 12.257 1.94997 8.49998C1.94997 4.74296 4.993 1.70001 8.74998 1.70001C12.507 1.70001 15.55 4.743 15.55 8.49998C15.55 12.257 12.507 15.3 8.74998 15.3Z" />
<path d="M9.17499 8.71251V4.25001H7.89999V9.35001L12.3582 12.0275L13 10.982L9.17499 8.71251Z" />
</g>
<defs>
<clipPath id="clip0">
<rect width="17" height="17" fill="white" transform="translate(0.25)"/>
</clipPath>
</defs>
</svg>
