<svg width="22" height="21" viewBox="0 0 22 21" xmlns="http://www.w3.org/2000/svg">
<path d="M20.6738 4.78144C20.1256 5.54706 19.4627 6.19937 18.6849 6.73837C18.6931 6.84775 18.6973 7.01181 18.6973 7.23056C18.6973 8.246 18.5416 9.25969 18.2304 10.2716C17.9192 11.2836 17.4465 12.2542 16.8121 13.1834C16.1778 14.1127 15.4227 14.9349 14.5468 15.6502C13.6709 16.3656 12.6152 16.9358 11.3795 17.3611C10.1438 17.7863 8.822 17.9992 7.414 17.9996C5.19613 17.9996 3.1664 17.4333 1.32481 16.3006C1.61127 16.3317 1.9305 16.3472 2.2825 16.3472C4.12408 16.3472 5.76515 15.8082 7.20569 14.7302C6.34631 14.7144 5.577 14.4624 4.89775 13.9742C4.2185 13.4859 3.75192 12.8629 3.498 12.1052C3.76796 12.1441 4.01752 12.1636 4.24669 12.1636C4.59869 12.1636 4.94656 12.1207 5.29031 12.035C4.37365 11.8552 3.61442 11.4196 3.01263 10.7284C2.41083 10.0371 2.10994 9.23431 2.10994 8.31994V8.27334C2.66636 8.57041 3.26379 8.73053 3.90225 8.75372C3.36188 8.40984 2.93219 7.96053 2.61319 7.40578C2.29419 6.85103 2.13469 6.24947 2.13469 5.60109C2.13469 4.91378 2.31481 4.277 2.67506 3.69075C3.66552 4.85494 4.87071 5.78659 6.29063 6.48572C7.71054 7.18484 9.23083 7.57356 10.8515 7.65187C10.786 7.35481 10.7532 7.06584 10.7532 6.78497C10.7532 5.73803 11.14 4.84553 11.9137 4.10747C12.6874 3.36941 13.6224 3.00016 14.7187 2.99972C15.8645 2.99972 16.8302 3.39806 17.6158 4.19475C18.5077 4.03069 19.3467 3.72597 20.1328 3.28059C19.8298 4.17922 19.2486 4.87462 18.3893 5.36681C19.1505 5.2885 19.9116 5.09316 20.6724 4.78078L20.6738 4.78144Z" />
</svg>
