<svg width="107" height="199" viewBox="0 0 107 199" xmlns="http://www.w3.org/2000/svg">
<g clip-path="url(#clip0)">
<path d="M89.4898 105.499C102.1 81.4991 96.4898 60.2191 77.6198 45.4991C81.7017 39.0657 83.1569 31.3103 81.6848 23.8348C80.2128 16.3593 75.926 9.73465 69.7098 5.32907C60.1498 -1.19093 46.3498 -3.10094 33.3998 7.59906C28.4598 11.6791 25.7298 17.5991 24.4798 24.0991C22.9998 31.7591 24.6698 38.7291 28.5998 45.3691C20.6598 52.1991 13.8898 59.3091 11.3898 69.3691C8.19982 82.1691 10.3898 94.2991 16.7398 105.539C-6.85018 130.349 -3.33018 161.299 13.9798 180.379C35.1298 203.669 67.4798 202.379 86.9798 185.379C109.48 165.849 114.64 133.489 89.4898 105.499ZM53.0198 19.3691C58.9498 19.3691 63.8698 24.0191 63.8898 29.6691C63.8242 32.4735 62.6516 35.1381 60.6282 37.0811C58.6047 39.024 55.8947 40.0874 53.0898 40.0391C47.1498 40.0391 42.2298 35.3991 42.2198 29.7391C42.2828 26.9337 43.4546 24.2676 45.4786 22.3241C47.5027 20.3806 50.2142 19.3181 53.0198 19.3691V19.3691ZM54.1798 55.3691C66.1798 55.4391 75.8998 64.6091 75.7898 76.7991C75.6798 88.9891 66.6498 97.5691 53.9698 97.9491C41.1498 97.5191 32.4598 88.8191 32.3398 76.5391C32.2298 64.4791 41.9998 55.2491 54.1798 55.3191V55.3691ZM52.4098 176.659C36.9398 176.539 22.3198 163.389 22.2498 145.289C22.1898 128.779 35.6898 115.939 53.4398 116.129C70.4898 116.299 84.0598 128.729 83.8398 145.559C83.8427 149.672 83.0293 153.744 81.4467 157.54C79.8642 161.337 77.5439 164.781 74.6204 167.674C71.6969 170.566 68.2284 172.85 64.4158 174.393C60.6032 175.935 56.5223 176.705 52.4098 176.659V176.659Z" />
</g>
<defs>
<clipPath id="clip0">
<rect width="106.22" height="198.01" />
</clipPath>
</defs>
</svg>
