<svg width="22" height="23" viewBox="0 0 22 23" xmlns="http://www.w3.org/2000/svg">
<path fill-rule="evenodd" clip-rule="evenodd" d="M10.7533 17.2258H12.0429C12.0429 17.2258 12.4191 17.1721 12.634 16.9571C12.8221 16.7691 12.8221 16.3929 12.8221 16.3929C12.8221 16.3929 12.7952 14.6734 13.6012 14.4047C14.3804 14.1629 15.4014 16.0705 16.4761 16.7959C17.2821 17.3602 17.9 17.2258 17.9 17.2258L20.7749 17.1989C20.7749 17.1989 22.2795 17.1183 21.554 15.9362C21.5003 15.8287 21.151 15.0495 19.4315 13.4643C17.6314 11.7986 17.8732 12.0672 20.0495 9.16552C21.366 7.41913 21.9033 6.34442 21.7421 5.8608C21.5809 5.43092 20.6137 5.53839 20.6137 5.53839L17.3896 5.56526C17.3896 5.56526 17.1478 5.53839 16.9597 5.64586C16.7447 5.7802 16.6373 6.02201 16.6373 6.02201C16.6373 6.02201 16.1268 7.39226 15.4551 8.54757C14.0042 10.9925 13.44 11.1269 13.1982 10.9657C12.6609 10.6164 12.7952 9.54167 12.7952 8.78938C12.7952 6.42503 13.1445 5.43092 12.0966 5.18911C11.7474 5.10851 11.4787 5.05478 10.5921 5.02791C9.43674 5.02791 8.46951 5.02791 7.90529 5.29658C7.52914 5.48466 7.26047 5.88767 7.42167 5.88767C7.63661 5.91454 8.12023 6.02201 8.36204 6.37129C8.68445 6.82804 8.68445 7.82214 8.68445 7.82214C8.68445 7.82214 8.87252 10.6164 8.2277 10.9657C7.79782 11.2075 7.20673 10.7238 5.91708 8.49383C5.27226 7.36539 4.76178 6.10261 4.76178 6.10261C4.76178 6.10261 4.65431 5.8608 4.4931 5.75333C4.35876 5.64586 4.09009 5.56526 3.79454 5.56526L0.919705 5.59213C0.919705 5.59213 0.462955 5.59213 0.30175 5.80707C0.140544 5.99514 0.30175 6.34442 0.30175 6.34442C0.30175 6.34442 2.71984 11.9598 5.43347 14.7809C7.93216 17.4139 10.7533 17.2258 10.7533 17.2258Z" fill="#C83E36"/>
</svg>
