<svg width="22" height="23" viewBox="0 0 22 23" xmlns="http://www.w3.org/2000/svg">
<path fill-rule="evenodd" clip-rule="evenodd" d="M17.6831 4.41156C15.9099 2.6363 13.5517 1.6582 11.0395 1.65716C5.86267 1.65716 1.64953 5.87019 1.64744 11.0484C1.64675 12.7037 2.07917 14.3195 2.90109 15.7438L1.56866 20.6105L6.54751 19.3045C7.91939 20.0528 9.46386 20.4472 11.0356 20.4477H11.0396C16.2158 20.4477 20.4294 16.2343 20.4313 11.0559C20.4324 8.54627 19.4564 6.1867 17.6831 4.41156ZM11.0395 18.8615H11.0362C9.63553 18.861 8.26181 18.4845 7.06311 17.7734L6.77818 17.6042L3.82366 18.3793L4.61226 15.4987L4.42659 15.2033C3.64516 13.9604 3.23252 12.5239 3.23322 11.0489C3.23484 6.74498 6.73677 3.2434 11.0426 3.2434C13.1276 3.24409 15.0876 4.05711 16.5614 5.53263C18.0352 7.00816 18.8464 8.96943 18.8457 11.0553C18.8438 15.3596 15.3421 18.8615 11.0395 18.8615ZM15.3213 13.0151C15.0867 12.8975 13.9329 12.33 13.7177 12.2516C13.5028 12.1733 13.3462 12.1343 13.1899 12.3691C13.0334 12.6039 12.5837 13.1326 12.4467 13.2891C12.3098 13.4458 12.173 13.4654 11.9383 13.3479C11.7036 13.2305 10.9475 12.9826 10.0511 12.1831C9.3535 11.5608 8.88256 10.7924 8.74559 10.5575C8.60885 10.3225 8.74443 10.2077 8.84855 10.0786C9.10259 9.76313 9.35697 9.43239 9.43517 9.27588C9.51349 9.11924 9.47427 8.98216 9.41551 8.86474C9.35697 8.74732 8.88765 7.59224 8.69214 7.12222C8.5015 6.66481 8.3082 6.72659 8.16406 6.71942C8.02732 6.71259 7.8708 6.7112 7.71428 6.7112C7.55788 6.7112 7.30361 6.76985 7.08844 7.00492C6.87339 7.23987 6.26721 7.80752 6.26721 8.96261C6.26721 10.1177 7.10811 11.2336 7.22541 11.3902C7.34271 11.5468 8.88024 13.9172 11.2343 14.9335C11.7942 15.1756 12.2312 15.3198 12.5721 15.428C13.1343 15.6066 13.6458 15.5814 14.0502 15.521C14.5011 15.4535 15.4385 14.9532 15.6342 14.4051C15.8297 13.8569 15.8297 13.3871 15.771 13.2891C15.7124 13.1913 15.5559 13.1326 15.3213 13.0151Z" fill="#C83E36"/>
</svg>
